<?xml version="1.0" encoding="utf-8"?>
<!-- Generator: Adobe Illustrator 24.1.3, SVG Export Plug-In . SVG Version: 6.00 Build 0)  -->
<svg version="1.1" id="Layer_1" xmlns="http://www.w3.org/2000/svg" xmlns:xlink="http://www.w3.org/1999/xlink" x="0px" y="0px"
	 viewBox="0 0 79.7 78.4" style="enable-background:new 0 0 79.7 78.4;" xml:space="preserve">
<style type="text/css">
	.st0{fill:#ED2425;enable-background:new    ;}
	.st1{opacity:0.5;fill:#333333;enable-background:new    ;}
	.st2{fill:#FFFFFF;}
	.st3{fill:#1a1a1a;}
	.st4{opacity:0.7;fill:#333333;enable-background:new    ;}
	.st5{fill:#111111;}
</style>
<circle class="st0" cx="35.7" cy="14" r="14"/>
<circle class="st0" cx="67.7" cy="48" r="12"/>
<circle class="st0" cx="20" cy="58.4" r="20"/>
<path class="st1" d="M10.7,20.8h60c1.1,0,2,0.9,2,2v43c0,1.1-0.9,2-2,2h-60c-1.1,0-2-0.9-2-2v-43C8.7,21.6,9.6,20.8,10.7,20.8z"/>
<path class="st2" d="M40.7,20.8h29l0,0v42c0,1.1-0.9,2-2,2h-27l0,0V20.8L40.7,20.8z"/>
<path class="st2" d="M8.7,20.8h29l0,0v42c0,1.1-0.9,2-2,2h-27l0,0V20.8L8.7,20.8z"/>
<path class="st3" d="M70.7,68.5h-60c-1.5,0-2.7-1.2-2.8-2.8v-43c0-1.5,1.2-2.7,2.8-2.8h60c1.5,0,2.7,1.2,2.8,2.8v43
	C73.4,67.3,72.2,68.5,70.7,68.5z M10.7,21.5c-0.7,0-1.2,0.6-1.2,1.2v43c0,0.7,0.6,1.2,1.2,1.2h60c0.7,0,1.2-0.6,1.2-1.2v-43
	c0-0.7-0.6-1.2-1.2-1.2H10.7z"/>
<path class="st1" d="M66.7,14.7v47h-20c-3.3,0-6,2.7-6,6c0,0,0,0,0,0v-47c0-3.3,2.7-6,6-6H66.7z"/>
<path class="st2" d="M62.7,14.7v42c0,1.1-0.9,2-2,2h-14c-3.3,0-6,2.7-6,6c0,0,0,0,0,0v-44c0-3.3,2.7-6,6-6H62.7z"/>
<path class="st3" d="M40.7,68.5c-0.4,0-0.8-0.3-0.8-0.8v-47c0-3.7,3-6.7,6.8-6.8h20c0.4,0,0.8,0.3,0.8,0.8v47c0,0.4-0.3,0.8-0.8,0.8
	h-20c-2.9,0-5.2,2.4-5.2,5.2C41.4,68.2,41.1,68.5,40.7,68.5C40.7,68.5,40.7,68.5,40.7,68.5z M46.7,15.5c-2.9,0-5.2,2.4-5.2,5.2v42.8
	c1.3-1.6,3.2-2.5,5.2-2.5h19.3V15.5H46.7z"/>
<path class="st1" d="M14.7,14.7v47h20c3.3,0,6,2.7,6,6c0,0,0,0,0,0v-47c0-3.3-2.7-6-6-6H14.7z"/>
<path class="st2" d="M14.7,14.7v47h20l2,0.3V20.7c0-3.3-2.7-6-6-6H14.7z"/>
<path class="st3" d="M40.7,68.5c-0.4,0-0.8-0.3-0.8-0.8c0-2.9-2.4-5.2-5.2-5.2h-20c-0.4,0-0.8-0.3-0.8-0.8v-47
	c0-0.4,0.3-0.8,0.8-0.8h20c3.7,0,6.7,3,6.8,6.8v47C41.4,68.2,41.1,68.5,40.7,68.5z M15.4,61h19.3c2,0,4,0.9,5.2,2.5V20.7
	c0-2.9-2.4-5.2-5.2-5.2H15.4V61z"/>
<circle class="st2" cx="40.7" cy="29.7" r="17.5"/>
<path class="st1" d="M54,18.4c3.5,9-0.9,19.1-9.9,22.7c-6.9,2.7-14.8,0.7-19.7-4.9c3.5,9,13.7,13.4,22.7,9.9
	c9-3.5,13.4-13.7,9.9-22.7C56.3,21.6,55.3,19.9,54,18.4z"/>
<path class="st3" d="M40.7,48c-10.1,0-18.2-8.2-18.3-18.2s8.2-18.2,18.2-18.3s18.3,8.2,18.3,18.2v0C58.9,39.8,50.8,48,40.7,48z
	 M40.7,13c-9.3,0-16.8,7.5-16.8,16.7s7.5,16.8,16.7,16.8S57.4,39,57.4,29.7v0C57.4,20.5,49.9,13,40.7,13z"/>
<polygon class="st2" points="51.7,21 39.3,26.4 34.7,3.8 29.7,38.7 42.1,33.3 46.6,55.8 "/>
<path class="st4" d="M51.7,21l-12.4,5.4L34.7,3.7l-0.9,6.1l3.4,17.5c0.2,1.1,1.3,1.8,2.3,1.6c0.1,0,0.3-0.1,0.4-0.1l7.1-3.1
	c0.5-0.2,1.1,0,1.3,0.5c0.1,0.2,0.1,0.4,0.1,0.6l-3.2,22.4l1.3,6.7L51.7,21z"/>
<path class="st3" d="M46.6,56.5c-0.4,0-0.7-0.3-0.7-0.6l-4.3-21.6l-11.6,5c-0.4,0.2-0.8,0-1-0.4c-0.1-0.1-0.1-0.3-0.1-0.4l5-34.9
	C34,3.3,34.3,3,34.7,3c0.4,0,0.7,0.2,0.8,0.6l4.4,21.8l11.6-5c0.4-0.2,0.8,0,1,0.4c0.1,0.1,0.1,0.3,0.1,0.4l-5.1,34.7
	C47.2,56.2,46.9,56.5,46.6,56.5L46.6,56.5z M42.1,32.5c0.4,0,0.7,0.3,0.7,0.6l3.6,18.2l4.3-29.1l-11.2,4.9c-0.4,0.2-0.8,0-1-0.4
	c0,0,0-0.1,0-0.2L34.8,8.2l-4.2,29.3l11.2-4.9C41.9,32.5,42,32.5,42.1,32.5L42.1,32.5z"/>
<path class="st5" d="M19.7,30.5h-2c-0.4,0-0.8-0.3-0.8-0.8s0.3-0.8,0.8-0.8h2c0.4,0,0.8,0.3,0.8,0.8S20.1,30.5,19.7,30.5z"/>
<path class="st5" d="M63.7,30.5h-2c-0.4,0-0.8-0.3-0.8-0.8s0.3-0.8,0.8-0.8h2c0.4,0,0.8,0.3,0.8,0.8S64.1,30.5,63.7,30.5z"/>
<path class="st5" d="M40.7,53.5c-0.4,0-0.8-0.3-0.8-0.8v-2c0-0.4,0.3-0.8,0.8-0.8s0.8,0.3,0.8,0.8v2C41.4,53.2,41.1,53.5,40.7,53.5z
	"/>
<path class="st5" d="M52.2,50.4c-0.3,0-0.5-0.1-0.7-0.4l-1-1.7c-0.2-0.4-0.1-0.8,0.3-1c0.4-0.2,0.8-0.1,1,0.3l1,1.7
	c0.2,0.4,0.1,0.8-0.3,1C52.5,50.4,52.3,50.4,52.2,50.4L52.2,50.4z"/>
<path class="st5" d="M30.2,12.3c-0.3,0-0.5-0.1-0.7-0.4l-1-1.7c-0.2-0.4-0.1-0.8,0.3-1c0.4-0.2,0.8-0.1,1,0.3l1,1.7
	c0.2,0.4,0.1,0.8-0.3,1C30.5,12.3,30.3,12.3,30.2,12.3L30.2,12.3z"/>
<path class="st5" d="M60.6,42c-0.1,0-0.3,0-0.4-0.1l-1.7-1c-0.4-0.2-0.5-0.7-0.3-1c0.2-0.4,0.7-0.5,1-0.3c0,0,0,0,0,0l1.7,1
	c0.4,0.2,0.5,0.7,0.3,1C61.1,41.9,60.9,42,60.6,42L60.6,42z"/>
<path class="st5" d="M22.5,20c-0.1,0-0.3,0-0.4-0.1l-1.7-1c-0.4-0.2-0.5-0.7-0.3-1c0.2-0.4,0.7-0.5,1-0.3c0,0,0,0,0,0l1.7,1
	c0.4,0.2,0.5,0.7,0.3,1C23,19.9,22.8,20,22.5,20L22.5,20z"/>
<path class="st5" d="M58.9,20c-0.4,0-0.7-0.3-0.8-0.7c0-0.3,0.1-0.5,0.4-0.7l1.7-1c0.4-0.2,0.8-0.1,1,0.3c0.2,0.4,0.1,0.8-0.3,1
	c0,0,0,0,0,0l-1.7,1C59.1,20,59,20,58.9,20z"/>
<path class="st5" d="M20.8,42c-0.4,0-0.7-0.3-0.8-0.7c0-0.3,0.1-0.5,0.4-0.7l1.7-1c0.4-0.2,0.8-0.1,1,0.3c0.2,0.4,0.1,0.8-0.3,1
	c0,0,0,0,0,0l-1.7,1C21,42,20.9,42,20.8,42z"/>
<path class="st5" d="M51.2,12.3c-0.4,0-0.7-0.3-0.7-0.7c0-0.1,0-0.3,0.1-0.4l1-1.7c0.2-0.4,0.7-0.5,1-0.3c0.4,0.2,0.5,0.7,0.3,1
	c0,0,0,0,0,0l-1,1.7C51.7,12.2,51.5,12.3,51.2,12.3z"/>
<path class="st5" d="M29.2,50.4c-0.4,0-0.7-0.3-0.7-0.8c0-0.1,0-0.3,0.1-0.4l1-1.7c0.2-0.4,0.7-0.5,1-0.3c0.3,0.2,0.5,0.7,0.3,1
	l-1,1.7C29.7,50.3,29.5,50.4,29.2,50.4z"/>
<path class="st5" d="M58.1,52.5h-1.4c-0.4,0-0.8-0.3-0.8-0.8s0.3-0.8,0.8-0.8h1.4c0.4,0,0.8,0.3,0.8,0.8S58.5,52.5,58.1,52.5z"/>
<path class="st5" d="M62.7,52.5h-1.4c-0.4,0-0.8-0.3-0.8-0.8s0.3-0.8,0.8-0.8h1.4c0.4,0,0.8,0.3,0.8,0.8S63.1,52.5,62.7,52.5z"/>
<path class="st5" d="M59.7,55.5c-0.4,0-0.8-0.3-0.8-0.8v-1.4c0-0.4,0.3-0.8,0.8-0.8s0.8,0.3,0.8,0.8v1.4
	C60.4,55.2,60.1,55.5,59.7,55.5z"/>
<path class="st5" d="M59.7,50.9c-0.4,0-0.8-0.3-0.8-0.8v-1.4c0-0.4,0.3-0.8,0.8-0.8s0.8,0.3,0.8,0.8v1.4
	C60.4,50.5,60.1,50.9,59.7,50.9z"/>
<path class="st5" d="M25.1,56.5h-1.4c-0.4,0-0.8-0.3-0.8-0.8s0.3-0.8,0.8-0.8h1.4c0.4,0,0.8,0.3,0.8,0.8S25.5,56.5,25.1,56.5z"/>
<path class="st5" d="M29.7,56.5h-1.4c-0.4,0-0.8-0.3-0.8-0.8s0.3-0.8,0.8-0.8h1.4c0.4,0,0.8,0.3,0.8,0.8S30.1,56.5,29.7,56.5
	L29.7,56.5z"/>
<path class="st5" d="M26.7,59.5c-0.4,0-0.8-0.3-0.8-0.8v-1.4c0-0.4,0.3-0.8,0.8-0.8s0.8,0.3,0.8,0.8l0,0v1.4
	C27.4,59.2,27.1,59.5,26.7,59.5z"/>
<path class="st5" d="M26.7,54.9c-0.4,0-0.8-0.3-0.8-0.8v-1.4c0-0.4,0.3-0.8,0.8-0.8s0.8,0.3,0.8,0.8v1.4
	C27.4,54.5,27.1,54.9,26.7,54.9z"/>
<path class="st3" d="M68.1,10.5h-1.4c-0.4,0-0.8-0.3-0.8-0.8S66.3,9,66.7,9h1.4c0.4,0,0.8,0.3,0.8,0.8S68.5,10.5,68.1,10.5z"/>
<path class="st3" d="M72.7,10.5h-1.4c-0.4,0-0.8-0.3-0.8-0.8S70.9,9,71.3,9h1.4c0.4,0,0.8,0.3,0.8,0.8S73.1,10.5,72.7,10.5z"/>
<path class="st3" d="M69.7,13.5c-0.4,0-0.8-0.3-0.8-0.8v-1.4c0-0.4,0.3-0.8,0.8-0.8s0.8,0.3,0.8,0.8v1.4
	C70.4,13.2,70.1,13.5,69.7,13.5z"/>
<path class="st5" d="M18.7,10.5c-0.4,0-0.8-0.3-0.8-0.8V8.4c0-0.4,0.3-0.8,0.8-0.8s0.8,0.3,0.8,0.8l0,0v1.4
	C19.4,10.2,19.1,10.5,18.7,10.5z"/>
</svg>
