<?xml version="1.0" encoding="utf-8"?>
<!-- Generator: Adobe Illustrator 24.1.3, SVG Export Plug-In . SVG Version: 6.00 Build 0)  -->
<svg version="1.1" id="layer_1" xmlns="http://www.w3.org/2000/svg" xmlns:xlink="http://www.w3.org/1999/xlink" x="0px" y="0px"
	 viewBox="0 0 86.1 75.8" style="enable-background:new 0 0 86.1 75.8;" xml:space="preserve">
<style type="text/css">
	.st0{fill:#ED2425;enable-background:new    ;}
	.st1{fill:#FFFFFF;}
	.st2{opacity:0.5;fill:#1a1a1a;enable-background:new    ;}
	.st3{fill:#1a1a1a;}
	.st4{fill:#efefef;}
</style>
<circle class="st0" cx="31.2" cy="61.8" r="14"/>
<circle class="st0" cx="74.1" cy="37.5" r="12"/>
<circle class="st0" cx="20" cy="20" r="20"/>
<path class="st1" d="M76.3,6.8v60c0,1.1-0.9,2-2,2h-10c-1.1,0-2-0.9-2-2v-60c0-1.1,0.9-2,2-2h10C75.4,4.8,76.3,5.6,76.3,6.8z"/>
<path class="st2" d="M76.3,18.8v48c0,1.1-0.9,2-2,2h-6l0,0v-48c0-1.1,0.9-2,2-2C70.3,18.8,76.3,18.8,76.3,18.8z"/>
<path class="st3" d="M74.3,69.5h-10c-1.5,0-2.7-1.2-2.8-2.8v-60c0-1.5,1.2-2.7,2.8-2.8h10C75.8,4,77,5.2,77,6.8v60
	C77,68.3,75.8,69.5,74.3,69.5z M64.3,5.5c-0.7,0-1.2,0.6-1.2,1.2v60c0,0.7,0.6,1.2,1.2,1.2h10c0.7,0,1.2-0.6,1.2-1.2v-60
	c0-0.7-0.6-1.2-1.2-1.2H64.3z"/>
<path class="st3" d="M76.3,64.5h-4c-0.4,0-0.8-0.3-0.8-0.7c0-0.4,0.3-0.8,0.8-0.8h4c0.4,0,0.7,0.3,0.7,0.8
	C77,64.2,76.7,64.5,76.3,64.5z"/>
<path class="st3" d="M76.3,58.5h-4c-0.4,0-0.8-0.3-0.8-0.8s0.3-0.8,0.8-0.8h4c0.4,0,0.7,0.3,0.7,0.8S76.7,58.5,76.3,58.5z"/>
<path class="st3" d="M76.3,52.5h-4c-0.4,0-0.8-0.3-0.8-0.8s0.3-0.8,0.8-0.8h4c0.4,0,0.7,0.3,0.7,0.8S76.7,52.5,76.3,52.5z"/>
<path class="st3" d="M76.3,46.5h-4c-0.4,0-0.8-0.3-0.8-0.8s0.3-0.8,0.8-0.8h4c0.4,0,0.7,0.3,0.7,0.8S76.7,46.5,76.3,46.5z"/>
<path class="st3" d="M76.3,40.5h-4c-0.4,0-0.8-0.3-0.8-0.8s0.3-0.8,0.8-0.8h4c0.4,0,0.7,0.3,0.7,0.8S76.7,40.5,76.3,40.5z"/>
<path class="st3" d="M76.3,34.5h-4c-0.4,0-0.8-0.3-0.8-0.8s0.3-0.8,0.8-0.8h4c0.4,0,0.7,0.3,0.7,0.8S76.7,34.5,76.3,34.5z"/>
<path class="st3" d="M76.3,28.5h-4c-0.4,0-0.8-0.3-0.8-0.8s0.3-0.8,0.8-0.8h4c0.4,0,0.7,0.3,0.7,0.8S76.7,28.5,76.3,28.5z"/>
<path class="st3" d="M76.3,22.5h-4c-0.4,0-0.8-0.3-0.8-0.8s0.3-0.8,0.8-0.8h4c0.4,0,0.7,0.3,0.7,0.8S76.7,22.5,76.3,22.5z"/>
<path class="st3" d="M76.3,16.5h-4c-0.4,0-0.8-0.3-0.8-0.8s0.3-0.8,0.8-0.8h4c0.4,0,0.7,0.3,0.7,0.8S76.7,16.5,76.3,16.5z"/>
<path class="st3" d="M76.3,10.5h-4c-0.4,0-0.8-0.3-0.8-0.8S71.8,9,72.3,9h4C76.7,9,77,9.3,77,9.8S76.7,10.5,76.3,10.5z"/>
<path class="st1" d="M66.2,26.8c0-12.2-9.8-22-22-22c-12.2,0-22,9.8-22,22c0,6,2.4,11.8,6.8,15.9c2.4,2.3,3.7,5.6,3.7,8.9v1.2h23
	v-1.5c0-3.3,1.4-6.5,3.9-8.8C63.9,38.3,66.3,32.7,66.2,26.8z"/>
<path class="st2" d="M44.8,4.8c10.5,9.7,11.2,26.1,1.5,36.6c-3.7,4-8.5,6.7-13.7,7.8c0.1,0.8,0.2,1.5,0.2,2.3v1.2h23v-1.5
	c0-3.3,1.4-6.5,3.9-8.8c8.7-8.5,8.8-22.4,0.4-31.1C56,7.3,50.5,4.9,44.8,4.8z"/>
<path class="st1" d="M52.2,60.8h-16c-1.1,0-2-0.9-2-2c0,0,0,0,0,0l0,0c0-1.1,0.9-2,2-2h16c1.1,0,2,0.9,2,2l0,0
	C54.3,59.9,53.4,60.8,52.2,60.8C52.3,60.8,52.3,60.8,52.2,60.8z"/>
<path class="st1" d="M52.2,64.8h-16c-1.1,0-2-0.9-2-2c0,0,0,0,0,0l0,0c0-1.1,0.9-2,2-2h16c1.1,0,2,0.9,2,2l0,0
	C54.3,63.9,53.4,64.8,52.2,64.8C52.3,64.8,52.3,64.8,52.2,64.8z"/>
<path class="st1" d="M34.2,52.8h20l0,0v2c0,1.1-0.9,2-2,2h-16c-1.1,0-2-0.9-2-2V52.8L34.2,52.8z"/>
<path class="st2" d="M52.2,60.8h-4.9c-1.1,0-2-0.9-2-2c0,0,0,0,0,0l0,0c0-1.1,0.9-2,2-2h4.9c1.1,0,2,0.9,2,2l0,0
	C54.2,59.9,53.3,60.8,52.2,60.8C52.2,60.8,52.2,60.8,52.2,60.8z"/>
<path class="st2" d="M52.2,64.8h-7.9c-1.1,0-2-0.9-2-2c0,0,0,0,0,0l0,0c0-1.1,0.9-2,2-2h7.9c1.1,0,2,0.9,2,2l0,0
	C54.2,63.9,53.3,64.8,52.2,64.8C52.2,64.8,52.2,64.8,52.2,64.8z"/>
<path class="st2" d="M39.3,52.8h15l0,0v2c0,1.1-0.9,2-2,2h-11c-1.1,0-2-0.9-2-2V52.8L39.3,52.8z"/>
<path class="st3" d="M55.8,53.5h-23c-0.4,0-0.8-0.3-0.8-0.8v-1.2c0-3.1-1.2-6.2-3.5-8.4C19.5,34.4,19.2,20,27.9,11S51,1.7,60,10.4
	c4.5,4.3,7,10.2,7,16.4c0,6.1-2.5,12-6.8,16.2c-2.3,2.2-3.6,5.1-3.6,8.3v1.5C56.5,53.2,56.2,53.5,55.8,53.5z M33.5,52H55v-0.7
	c0-3.5,1.5-6.9,4.1-9.3c8.4-8.2,8.5-21.6,0.3-30c-4.3-4.4-10.2-6.7-16.4-6.4C31.4,6.2,22.4,16.2,23,27.9c0.3,5.4,2.6,10.4,6.5,14.2
	c2.5,2.5,4,5.9,3.9,9.4V52z"/>
<path class="st3" d="M52.3,61.5h-16c-1.5,0-2.8-1.2-2.8-2.8s1.2-2.8,2.8-2.8h16c1.5,0,2.8,1.2,2.8,2.8S53.8,61.5,52.3,61.5z
	 M36.3,57.5c-0.7,0-1.2,0.6-1.2,1.2s0.6,1.2,1.2,1.2h16c0.7,0,1.2-0.6,1.2-1.2s-0.6-1.2-1.2-1.2H36.3z"/>
<path class="st3" d="M52.3,65.5h-16c-1.5,0-2.8-1.2-2.8-2.7c0-1.5,1.2-2.8,2.8-2.8h16c1.5,0,2.8,1.2,2.8,2.8
	C55,64.3,53.8,65.5,52.3,65.5z M36.3,61.5c-0.7,0-1.2,0.6-1.2,1.2s0.6,1.2,1.2,1.2h16c0.7,0,1.2-0.6,1.2-1.2s-0.6-1.2-1.2-1.2H36.3z
	"/>
<path class="st3" d="M52.3,57.5h-16c-1.5,0-2.7-1.2-2.8-2.8v-2c0-0.4,0.3-0.8,0.8-0.8h20c0.4,0,0.8,0.3,0.8,0.8v2
	C55,56.3,53.8,57.5,52.3,57.5z M35,53.5v1.2c0,0.7,0.6,1.2,1.2,1.2h16c0.7,0,1.2-0.6,1.2-1.2v-1.2H35z"/>
<path class="st3" d="M50.3,69.5h-12c-0.4,0-0.8-0.3-0.8-0.8s0.3-0.8,0.8-0.8h12c0.4,0,0.8,0.3,0.8,0.8S50.7,69.5,50.3,69.5z"/>
<polygon class="st1" points="26.2,62.8 26.2,16.8 19.2,18.8 12.2,16.8 12.2,62.8 "/>
<polygon class="st2" points="26.2,62.8 26.2,16.8 19.2,18.8 19.2,62.8 "/>
<path class="st3" d="M26.2,63.5h-14c-0.4,0-0.8-0.3-0.8-0.8v-46c0-0.4,0.3-0.8,0.8-0.7c0.1,0,0.1,0,0.2,0l6.8,1.9L26,16
	c0.4-0.1,0.8,0.1,0.9,0.5c0,0.1,0,0.1,0,0.2v46C27,63.2,26.7,63.5,26.2,63.5z M13,62h12.5V17.7l-6,1.7c-0.1,0-0.3,0-0.4,0l-6-1.7V62
	z"/>
<path class="st1" d="M26.2,62.8v4c0,1.1-0.9,2-2,2h-10c-1.1,0-2-0.9-2-2v-4l0,0H26.2L26.2,62.8z"/>
<path class="st3" d="M24.2,69.5h-10c-1.5,0-2.7-1.2-2.8-2.8v-4c0-0.4,0.3-0.8,0.8-0.8h14c0.4,0,0.7,0.3,0.8,0.8v4
	C27,68.3,25.8,69.5,24.2,69.5z M13,63.5v3.2c0,0.7,0.6,1.2,1.2,1.2h10c0.7,0,1.2-0.6,1.2-1.2v-3.2H13z"/>
<polygon class="st1" points="26.2,16.8 19.2,4.8 12.2,16.8 19.2,18.8 "/>
<polygon class="st2" points="24.2,13.3 19.2,4.8 19.2,14.8 "/>
<path class="st3" d="M19.2,19.5c-0.1,0-0.1,0-0.2,0l-7-2c-0.4-0.1-0.6-0.5-0.5-0.9c0-0.1,0-0.1,0.1-0.2l7-12
	c0.2-0.4,0.7-0.5,1.1-0.2c0.1,0.1,0.2,0.1,0.2,0.2l7,12c0.2,0.4,0.1,0.8-0.3,1c-0.1,0-0.1,0.1-0.2,0.1l-7,2
	C19.4,19.5,19.3,19.5,19.2,19.5z M13.4,16.3l5.9,1.7l5.9-1.7L19.2,6.2L13.4,16.3z"/>
<path class="st3" d="M19.2,63.5c-0.4,0-0.8-0.3-0.8-0.8v-44c0-0.4,0.3-0.8,0.8-0.8s0.8,0.3,0.8,0.8v44C20,63.2,19.7,63.5,19.2,63.5z
	"/>
<path class="st1" d="M58.1,29c0.3-1.5,0.3-3,0-4.5l-4.8-0.8c-0.1-0.4-0.3-0.8-0.5-1.2l2.8-3.9c-0.9-1.2-2-2.3-3.2-3.2l-3.9,2.8
	c-0.4-0.2-0.8-0.4-1.2-0.5L46.5,13c-0.8-0.1-1.5-0.2-2.3-0.2h0c-0.8,0-1.5,0.1-2.3,0.2l-0.8,4.8c-0.4,0.1-0.8,0.3-1.2,0.5l-3.9-2.8
	c-1.2,0.9-2.3,2-3.2,3.2l2.8,3.9c-0.2,0.4-0.4,0.8-0.5,1.2l-4.8,0.8c-0.3,1.5-0.3,3,0,4.5l4.8,0.8c0.1,0.4,0.3,0.8,0.5,1.2l-2.8,3.9
	c0.9,1.2,2,2.3,3.2,3.2l3.9-2.8c0.4,0.2,0.8,0.4,1.2,0.5l0.8,4.8c0.8,0.1,1.5,0.2,2.3,0.2h0c0.8,0,1.5-0.1,2.3-0.2l0.8-4.8
	c0.4-0.1,0.8-0.3,1.2-0.5l3.9,2.8c1.2-0.9,2.3-2,3.2-3.2L52.8,31c0.2-0.4,0.4-0.8,0.5-1.2L58.1,29z"/>
<path class="st2" d="M41.2,35.8l0.8,4.8c0.8,0.1,1.5,0.2,2.3,0.2h0c0.8,0,1.5-0.1,2.3-0.2l0.8-4.8c0.4-0.1,0.8-0.3,1.2-0.5l3.9,2.8
	c1.2-0.9,2.3-2,3.2-3.2L52.8,31c0.2-0.4,0.4-0.8,0.5-1.2l4.8-0.8c0.3-1.5,0.3-3,0-4.5l-4.8-0.8c-0.1-0.4-0.3-0.8-0.5-1.2l1.2-1.6
	c-0.6-0.1-1.1-0.1-1.7-0.1c-7.7,0-14,6.2-14,13.8c0,0.6,0,1.3,0.1,1.9l1.6-1.2C40.4,35.5,40.8,35.7,41.2,35.8z"/>
<circle class="st1" cx="44.2" cy="26.8" r="4.7"/>
<path class="st4" d="M47.5,30.1c1.3-1.3,1.7-3.3,1-5c-2.4-0.9-5.1,0.2-6,2.6c-0.4,1.1-0.4,2.3,0,3.4C44.3,31.8,46.2,31.4,47.5,30.1z
	"/>
<path class="st3" d="M44.3,32.2c-3,0-5.4-2.4-5.4-5.4c0-3,2.4-5.4,5.4-5.4c3,0,5.4,2.4,5.4,5.4c0,0,0,0,0,0
	C49.7,29.8,47.2,32.2,44.3,32.2z M44.3,22.8c-2.2,0-3.9,1.8-3.9,3.9s1.8,3.9,3.9,3.9c2.2,0,3.9-1.8,3.9-3.9c0,0,0,0,0,0
	C48.2,24.6,46.4,22.9,44.3,22.8z"/>
<path class="st3" d="M44.2,41.5c-0.8,0-1.6-0.1-2.4-0.2c-0.3-0.1-0.6-0.3-0.6-0.6l-0.7-4.3c-0.2-0.1-0.3-0.1-0.5-0.2l-3.5,2.6
	c-0.3,0.2-0.6,0.2-0.9,0c-1.3-0.9-2.4-2.1-3.4-3.4c-0.2-0.3-0.2-0.6,0-0.9l2.6-3.5c-0.1-0.2-0.1-0.3-0.2-0.5l-4.3-0.7
	c-0.3-0.1-0.6-0.3-0.6-0.6c-0.3-1.6-0.3-3.2,0-4.8c0.1-0.3,0.3-0.6,0.6-0.6l4.3-0.7c0.1-0.2,0.1-0.3,0.2-0.5l-2.6-3.5
	c-0.2-0.3-0.2-0.6,0-0.9c0.9-1.3,2.1-2.4,3.4-3.4c0.3-0.2,0.6-0.2,0.9,0l3.5,2.6c0.2-0.1,0.3-0.1,0.5-0.2l0.7-4.3
	c0.1-0.3,0.3-0.6,0.6-0.6c1.6-0.3,3.2-0.3,4.8,0c0.3,0.1,0.6,0.3,0.6,0.6l0.7,4.3c0.2,0.1,0.3,0.1,0.5,0.2l3.5-2.6
	c0.3-0.2,0.6-0.2,0.9,0c1.3,0.9,2.4,2.1,3.4,3.4c0.2,0.3,0.2,0.6,0,0.9l-2.6,3.5c0.1,0.2,0.1,0.3,0.2,0.5l4.3,0.7
	c0.3,0.1,0.6,0.3,0.6,0.6c0.3,1.6,0.3,3.2,0,4.8c-0.1,0.3-0.3,0.6-0.6,0.6l-4.3,0.7c-0.1,0.2-0.1,0.3-0.2,0.5l2.6,3.5
	c0.2,0.3,0.2,0.6,0,0.9c-0.9,1.3-2.1,2.4-3.4,3.4c-0.3,0.2-0.6,0.2-0.9,0l-3.5-2.6c-0.2,0.1-0.3,0.1-0.5,0.2l-0.7,4.3
	c-0.1,0.3-0.3,0.6-0.6,0.6C45.9,41.5,45.1,41.5,44.2,41.5z M42.6,39.9c1.1,0.1,2.2,0.1,3.2,0l0.7-4.2c0-0.3,0.2-0.5,0.5-0.6
	c0.4-0.1,0.8-0.3,1.1-0.5c0.3-0.1,0.6-0.1,0.8,0.1l3.5,2.5c0.9-0.7,1.6-1.4,2.3-2.3l-2.5-3.5c-0.2-0.2-0.2-0.5-0.1-0.8
	c0.2-0.4,0.3-0.7,0.5-1.1c0.1-0.3,0.3-0.5,0.6-0.5l4.2-0.7c0.1-1.1,0.1-2.2,0-3.2l-4.2-0.7c-0.3,0-0.5-0.2-0.6-0.5
	c-0.1-0.4-0.3-0.8-0.5-1.1c-0.1-0.2-0.1-0.5,0.1-0.8l2.5-3.5c-0.7-0.9-1.4-1.6-2.3-2.3l-3.5,2.5c-0.2,0.2-0.5,0.2-0.8,0.1
	c-0.4-0.2-0.7-0.3-1.1-0.5c-0.3-0.1-0.5-0.3-0.5-0.6l-0.7-4.2c-1.1-0.1-2.2-0.1-3.2,0L42,17.8c0,0.3-0.2,0.5-0.5,0.6
	c-0.4,0.1-0.8,0.3-1.1,0.5c-0.2,0.1-0.5,0.1-0.8-0.1l-3.5-2.5c-0.9,0.7-1.6,1.4-2.3,2.3l2.5,3.5c0.2,0.2,0.2,0.5,0.1,0.8
	c-0.2,0.4-0.3,0.7-0.5,1.1c-0.1,0.3-0.3,0.5-0.6,0.5l-4.2,0.7c-0.1,1.1-0.1,2.2,0,3.2l4.2,0.7c0.3,0,0.5,0.2,0.6,0.5
	c0.1,0.4,0.3,0.8,0.5,1.1c0.1,0.3,0.1,0.6-0.1,0.8l-2.5,3.5c0.7,0.9,1.4,1.6,2.3,2.3l3.5-2.5c0.2-0.2,0.5-0.2,0.8-0.1
	c0.4,0.2,0.7,0.3,1.1,0.5c0.3,0.1,0.5,0.3,0.5,0.6L42.6,39.9z M58.1,29L58.1,29z"/>
<path class="st3" d="M66.3,64.6c-0.4,0-0.7-0.3-0.8-0.8V53c0-0.4,0.3-0.8,0.8-0.8S67,52.6,67,53v10.8C67,64.2,66.7,64.6,66.3,64.6z"
	/>
<path class="st3" d="M66.3,49.8c-0.4,0-0.7-0.3-0.8-0.8v-2.2c0-0.4,0.3-0.8,0.8-0.8s0.8,0.3,0.8,0.8V49C67,49.4,66.7,49.8,66.3,49.8
	L66.3,49.8z"/>
<path class="st3" d="M83.3,60.5h-4c-0.4,0-0.8-0.3-0.8-0.8s0.3-0.8,0.8-0.8h4c0.4,0,0.8,0.3,0.8,0.8S83.7,60.5,83.3,60.5z"/>
<path class="st3" d="M81.3,62.5c-0.4,0-0.7-0.3-0.8-0.8v-4c0-0.4,0.3-0.8,0.8-0.8s0.8,0.3,0.8,0.8v4C82,62.2,81.7,62.5,81.3,62.5z"
	/>
<circle class="st3" cx="81.3" cy="53.8" r="0.8"/>
<circle class="st3" cx="81.3" cy="49.8" r="0.8"/>
<circle class="st3" cx="81.3" cy="44.8" r="0.8"/>
<circle class="st3" cx="81.3" cy="37.8" r="0.8"/>
<path class="st3" d="M9.2,25.7h-4c-0.4,0-0.8-0.3-0.8-0.8s0.3-0.8,0.8-0.8h4c0.4,0,0.8,0.3,0.8,0.8S9.7,25.7,9.2,25.7L9.2,25.7z"/>
<path class="st3" d="M7.2,27.7c-0.4,0-0.8-0.3-0.8-0.8v-4c0-0.4,0.3-0.8,0.8-0.8S8,22.6,8,23v4C8,27.4,7.7,27.7,7.2,27.7z"/>
<circle class="st3" cx="7.2" cy="32" r="0.8"/>
<circle class="st3" cx="7.2" cy="37" r="0.8"/>
<circle class="st3" cx="7.2" cy="43" r="0.8"/>
<circle class="st3" cx="7.2" cy="51" r="0.8"/>
</svg>
