<?xml version="1.0" encoding="utf-8"?>
<!-- Generator: Adobe Illustrator 24.1.3, SVG Export Plug-In . SVG Version: 6.00 Build 0)  -->
<svg version="1.1" id="layer_1" xmlns="http://www.w3.org/2000/svg" xmlns:xlink="http://www.w3.org/1999/xlink" x="0px" y="0px"
	 viewBox="0 0 79.5 79.4" style="enable-background:new 0 0 79.5 79.4;" xml:space="preserve">
<style type="text/css">
	.st0{fill:#ED2425;enable-background:new    ;}
	.st1{fill:#FFFFFF;}
	.st2{opacity:0.7;fill:#1a1a1a;enable-background:new    ;}
	.st3{fill:#1a1a1a;}
</style>
<circle class="st0" cx="27.2" cy="65.4" r="14"/>
<circle class="st0" cx="67.5" cy="32.9" r="12"/>
<circle class="st0" cx="20" cy="20" r="20"/>
<circle class="st1" cx="39.2" cy="38.1" r="32"/>
<path class="st2" d="M59.2,13.1c10.9,13.9,8.5,34-5.4,44.9c-11.6,9.1-27.9,9.1-39.5,0c10.9,13.9,31,16.3,44.9,5.4s16.3-31,5.4-44.9
	C63,16.5,61.2,14.7,59.2,13.1z"/>
<path class="st3" d="M39.2,70.9c-18.1,0-32.7-14.7-32.7-32.8C6.5,20,21.2,5.4,39.3,5.4S72,20,72,38.1c0,0,0,0,0,0
	C72,56.2,57.3,70.9,39.2,70.9z M39.2,6.9C22,6.9,8,20.9,8,38.1c0,17.3,14,31.2,31.3,31.2c17.2,0,31.2-14,31.2-31.2
	C70.5,20.9,56.5,6.9,39.2,6.9z"/>
<path class="st3" d="M24.3,15.2c-0.3,0-0.5-0.1-0.6-0.3c-0.2-0.3-0.1-0.8,0.2-1c1-0.6,2-1.2,3-1.7c0.4-0.2,0.8,0,1,0.4s0,0.8-0.4,1
	l0,0c-1,0.5-1.9,1-2.8,1.5C24.5,15.2,24.4,15.2,24.3,15.2z"/>
<path class="st3" d="M11.7,33.9h-0.2c-0.4-0.1-0.7-0.5-0.6-0.9c1.1-6.3,4.4-12.1,9.2-16.4c0.3-0.3,0.8-0.2,1.1,0.1
	c0.3,0.3,0.2,0.8-0.1,1.1c-4.5,4.1-7.6,9.5-8.7,15.5C12.3,33.7,12,33.9,11.7,33.9z"/>
<path class="st3" d="M39.2,38.9c-0.1,0-0.1,0-0.2,0c-0.3-0.1-0.6-0.4-0.6-0.7v-32c0-0.4,0.3-0.8,0.8-0.8S40,5.7,40,6.1v29.1
	L54.3,9.9c0.2-0.4,0.6-0.5,1-0.3c0.3,0.2,0.5,0.6,0.3,1L39.9,38.5C39.8,38.7,39.5,38.9,39.2,38.9z"/>
<path class="st3" d="M21.4,65.4c-0.2,0-0.3,0-0.4-0.1c-0.3-0.2-0.4-0.7-0.2-1l17.9-26.5c0.1-0.1,0.2-0.2,0.4-0.3l30.4-10.2
	c0.4-0.1,0.8,0.1,0.9,0.5c0,0,0,0,0,0c0.2,0.4,0,0.8-0.4,1c0,0,0,0,0,0l-30.1,10L22,65.1C21.8,65.3,21.6,65.4,21.4,65.4z"/>
<path class="st3" d="M66,56.5c-0.1,0-0.3,0-0.4-0.1L38.8,38.8c-0.3-0.2-0.4-0.7-0.2-1c0.2-0.3,0.7-0.4,1-0.2l26.7,17.6
	c0.3,0.2,0.4,0.7,0.2,1C66.4,56.4,66.2,56.5,66,56.5z"/>
<circle class="st1" cx="39.2" cy="38.1" r="22"/>
<path class="st2" d="M56.5,24.5c3.1,11.7-3.9,23.8-15.6,26.9c-1.8,0.5-3.7,0.7-5.6,0.7c-6.7,0-13.1-3.1-17.3-8.4
	c3.1,11.7,15.1,18.8,26.9,15.6c11.7-3.1,18.8-15.1,15.6-26.9C59.7,29.6,58.4,26.9,56.5,24.5z"/>
<path class="st3" d="M39.2,60.9c-12.6,0-22.7-10.2-22.7-22.8c0-12.6,10.2-22.7,22.8-22.7S62,25.6,62,38.1c0,0,0,0,0,0
	C62,50.7,51.8,60.9,39.2,60.9z M39.2,16.9C27.5,16.9,18,26.4,18,38.1s9.5,21.2,21.3,21.2c11.7,0,21.2-9.5,21.2-21.2
	C60.5,26.4,51,16.9,39.2,16.9z"/>
<path class="st1" d="M36.2,25.1v34.8c2,0.3,4,0.3,6,0V25.1H36.2z"/>
<path class="st2" d="M39.2,25.1v30.9c0,0.5-0.4,0.9-0.9,1c-0.7,0.1-1.4,0.1-2.1,0.1V60c2,0.3,4,0.3,6,0V25.1H39.2z"/>
<path class="st3" d="M39.2,60.9c-1,0-2.1-0.1-3.1-0.2c-0.4,0-0.6-0.4-0.7-0.7V25.1c0-0.4,0.3-0.8,0.8-0.8h6c0.4,0,0.7,0.3,0.8,0.8
	v34.8c0,0.4-0.3,0.7-0.7,0.7C41.3,60.8,40.3,60.9,39.2,60.9z M37,59.3c1.5,0.2,3,0.2,4.5,0V25.9H37L37,59.3z"/>
<path class="st1" d="M42.2,34.2v25.8c2.1-0.3,4.1-0.9,6-1.7v-24H42.2z"/>
<path class="st2" d="M45.2,34.2v19.7c0,0.8-0.5,1.6-1.3,1.9c-0.6,0.2-1.1,0.4-1.7,0.6v3.6c2.1-0.3,4.1-0.9,6-1.7v-24H45.2z"/>
<path class="st3" d="M42.2,60.7c-0.2,0-0.4-0.1-0.5-0.2c-0.2-0.1-0.3-0.4-0.2-0.6V34.2c0-0.4,0.3-0.8,0.8-0.8h6
	c0.4,0,0.7,0.3,0.8,0.8v24.1c0,0.3-0.2,0.6-0.4,0.7C46.6,59.8,44.5,60.4,42.2,60.7L42.2,60.7z M43,34.9V59c1.5-0.3,3.1-0.7,4.5-1.3
	V34.9H43z"/>
<path class="st1" d="M48.2,30.1v28.1c2.2-1,4.2-2.3,6-4V30.1H48.2z"/>
<path class="st2" d="M51.2,30.1v21.2c0,0.6-0.2,1.1-0.7,1.5c-0.7,0.6-1.5,1.2-2.3,1.7v3.7c2.2-1,4.2-2.3,6-4V30.1H51.2z"/>
<path class="st3" d="M48.2,59c-0.4,0-0.8-0.3-0.8-0.8V30.1c0-0.4,0.3-0.7,0.8-0.8h6c0.4,0,0.7,0.3,0.8,0.8v24.1
	c0,0.2-0.1,0.4-0.2,0.6c-1.8,1.7-3.9,3.1-6.2,4.1C48.5,58.9,48.4,58.9,48.2,59z M49,30.9V57c1.6-0.8,3.2-1.9,4.5-3.1v-23H49z"/>
<path class="st1" d="M30.3,37.2v21.1c1.9,0.9,3.9,1.4,6,1.7V37.2H30.3z"/>
<path class="st2" d="M33.2,37.2v17.6c0,0.6-0.4,1-1,1c-0.1,0-0.2,0-0.2,0c-0.6-0.1-1.2-0.3-1.8-0.4v2.9c1.9,0.9,3.9,1.4,6,1.7V37.2
	H33.2z"/>
<path class="st3" d="M36.2,60.7L36.2,60.7c-2.2-0.3-4.3-0.9-6.3-1.8c-0.3-0.1-0.4-0.4-0.4-0.7V37.2c0-0.4,0.3-0.8,0.8-0.8h6
	c0.4,0,0.7,0.3,0.8,0.8v22.8c0,0.2-0.1,0.4-0.3,0.6C36.6,60.6,36.4,60.7,36.2,60.7z M31,57.7c1.4,0.6,3,1.1,4.5,1.4V37.9H31L31,57.7
	z"/>
<path class="st1" d="M24.3,41.2v13.1c1.8,1.7,3.8,3,6,4V41.2H24.3z"/>
<path class="st2" d="M27.3,41.2v10.3c0,0.3-0.2,0.5-0.5,0.5c-0.1,0-0.1,0-0.2,0c-0.8-0.4-1.5-0.8-2.3-1.3v3.7c1.8,1.7,3.8,3,6,4
	V41.2H27.3z"/>
<path class="st3" d="M30.3,59c-0.1,0-0.2,0-0.3-0.1c-2.3-1-4.4-2.4-6.2-4.1c-0.1-0.1-0.2-0.3-0.2-0.6V41.2c0-0.4,0.3-0.8,0.8-0.8
	l0,0h6c0.4,0,0.7,0.3,0.8,0.8v17.1c0,0.3-0.1,0.5-0.3,0.6C30.5,58.9,30.4,59,30.3,59z M25,53.9c1.4,1.2,2.9,2.3,4.5,3.1V41.9H25
	L25,53.9z"/>
<circle class="st1" cx="12.2" cy="11.1" r="2"/>
<path class="st3" d="M12.3,13.9c-1.5,0-2.7-1.2-2.7-2.8c0-1.5,1.2-2.7,2.8-2.7S15,9.6,15,11.1c0,0,0,0,0,0
	C15,12.7,13.8,13.9,12.3,13.9z M12.3,9.9c-0.7,0-1.2,0.6-1.2,1.3c0,0.7,0.6,1.2,1.3,1.2c0.7,0,1.2-0.6,1.2-1.2
	C13.5,10.5,13,9.9,12.3,9.9C12.3,9.9,12.3,9.9,12.3,9.9z"/>
<circle class="st1" cx="63.2" cy="8.1" r="2"/>
<path class="st3" d="M63.2,10.9c-1.5,0-2.7-1.2-2.7-2.8c0-1.5,1.2-2.7,2.8-2.7S66,6.6,66,8.1c0,0,0,0,0,0
	C66,9.7,64.8,10.9,63.2,10.9z M63.2,6.9c-0.7,0-1.2,0.6-1.2,1.3c0,0.7,0.6,1.2,1.3,1.2c0.7,0,1.2-0.6,1.2-1.2
	C64.5,7.5,64,6.9,63.2,6.9C63.3,6.9,63.3,6.9,63.2,6.9z"/>
<circle class="st1" cx="69.2" cy="15.1" r="2"/>
<path class="st3" d="M69.2,17.9c-1.5,0-2.7-1.2-2.7-2.8c0-1.5,1.2-2.7,2.8-2.7s2.7,1.2,2.7,2.8c0,0,0,0,0,0
	C72,16.7,70.8,17.9,69.2,17.9z M69.2,13.9c-0.7,0-1.2,0.6-1.2,1.3c0,0.7,0.6,1.2,1.3,1.2c0.7,0,1.2-0.6,1.2-1.2
	C70.5,14.5,70,13.9,69.2,13.9C69.3,13.9,69.3,13.9,69.2,13.9z"/>
<circle class="st1" cx="9.2" cy="62.1" r="2"/>
<path class="st3" d="M9.3,64.9c-1.5,0-2.7-1.2-2.7-2.8c0-1.5,1.2-2.7,2.8-2.7s2.7,1.2,2.7,2.8c0,0,0,0,0,0
	C12,63.7,10.8,64.9,9.3,64.9z M9.3,60.9c-0.7,0-1.2,0.6-1.2,1.3s0.6,1.2,1.3,1.2c0.7,0,1.2-0.6,1.2-1.2C10.5,61.5,10,60.9,9.3,60.9
	C9.3,60.9,9.3,60.9,9.3,60.9z"/>
<circle class="st1" cx="17.2" cy="68.1" r="2"/>
<path class="st3" d="M17.3,70.9c-1.5,0-2.7-1.2-2.7-2.8c0-1.5,1.2-2.7,2.8-2.7s2.7,1.2,2.7,2.8c0,0,0,0,0,0
	C20,69.7,18.8,70.9,17.3,70.9z M17.3,66.9c-0.7,0-1.2,0.6-1.2,1.3s0.6,1.2,1.3,1.2c0.7,0,1.2-0.6,1.2-1.2
	C18.5,67.5,18,66.9,17.3,66.9C17.3,66.9,17.3,66.9,17.3,66.9z"/>
<circle class="st1" cx="68.2" cy="63.1" r="2"/>
<path class="st3" d="M68.2,65.9c-1.5,0-2.7-1.2-2.7-2.8c0-1.5,1.2-2.7,2.8-2.7s2.7,1.2,2.7,2.8c0,0,0,0,0,0
	C71,64.7,69.8,65.9,68.2,65.9z M68.2,61.9c-0.7,0-1.2,0.6-1.2,1.3c0,0.7,0.6,1.2,1.3,1.2c0.7,0,1.2-0.6,1.2-1.2
	C69.5,62.5,69,61.9,68.2,61.9C68.3,61.9,68.3,61.9,68.2,61.9z"/>
</svg>
