<?xml version="1.0" encoding="utf-8"?>
<!-- Generator: Adobe Illustrator 24.1.3, SVG Export Plug-In . SVG Version: 6.00 Build 0)  -->
<svg version="1.1" id="layer_1" xmlns="http://www.w3.org/2000/svg" xmlns:xlink="http://www.w3.org/1999/xlink" x="0px" y="0px"
	 viewBox="0 0 72.6 74.9" style="enable-background:new 0 0 72.6 74.9;" xml:space="preserve">
<style type="text/css">
	.st0{fill:#E8EBEC;}
	.st1{fill:#ED2425;enable-background:new    ;}
	.st2{opacity:0.7;fill:#1a1a1a;}
	.st3{fill:#FFFFFF;}
	.st4{fill:#1a1a1a;}
	.st5{opacity:0.4;fill:#1a1a1a;enable-background:new    ;}
	.st6{fill:#3333331;}
	.st7{opacity:0.4;fill:#efefef;enable-background:new    ;}
</style>
<path class="st0" d="M52.6-38.5"/>
<circle class="st1" cx="58.6" cy="35.7" r="14"/>
<circle class="st1" cx="27.6" cy="62.9" r="12"/>
<circle class="st1" cx="20" cy="20" r="20"/>
<path class="st2" d="M12.9,25.7l48.4,19c0.5,0.2,0.8,0.8,0.6,1.3c0,0,0,0,0,0L51.7,71.8c-0.2,0.5-0.8,0.8-1.3,0.6L2,53.4
	c-0.5-0.2-0.8-0.8-0.6-1.3c0,0,0,0,0,0l10.1-25.9C11.8,25.7,12.4,25.5,12.9,25.7C12.9,25.7,12.9,25.7,12.9,25.7z"/>
<path class="st3" d="M12.9,25.7L59.6,44l-9.5,24.2c-0.2,0.5-0.8,0.8-1.3,0.6c0,0,0,0,0,0L2.1,50.5l9.5-24.2
	C11.8,25.7,12.4,25.5,12.9,25.7C12.9,25.7,12.9,25.7,12.9,25.7z"/>
<path class="st4" d="M50.8,73.2c-0.2,0-0.4,0-0.6-0.1l-48.4-19c-0.9-0.4-1.3-1.4-1-2.3c0,0,0,0,0,0L10.9,26c0.4-0.9,1.4-1.3,2.3-1
	c0,0,0,0,0,0l0,0l48.4,19c0.9,0.4,1.3,1.4,1,2.3c0,0,0,0,0,0L52.4,72.1C52.2,72.8,51.5,73.2,50.8,73.2L50.8,73.2z M12.5,26.4
	c0,0-0.1,0-0.1,0c-0.1,0-0.1,0.1-0.1,0.1L2.1,52.4c-0.1,0.1,0,0.3,0.1,0.3l48.4,19c0.1,0,0.1,0,0.2,0c0.1,0,0.1-0.1,0.1-0.1
	l10.1-25.9c0-0.1,0-0.1,0-0.2c0-0.1-0.1-0.1-0.1-0.1L12.5,26.4C12.6,26.4,12.5,26.4,12.5,26.4z"/>
<path class="st5" d="M18.3,32.8l34.2,13.4c-0.8,2.1,0.2,4.4,2.3,5.2c0,0,0,0,0,0L50.2,63c-2.1-0.8-4.4,0.2-5.2,2.3c0,0,0,0,0,0
	L10.8,51.9c0.8-2.1-0.2-4.4-2.3-5.2l4.6-11.6C15.2,35.9,17.5,34.9,18.3,32.8z"/>
<path class="st3" d="M48.3,60.2l4.4-11.3c-0.3-0.8-0.3-1.8,0-2.6L18,32.7c-0.8,1.9-2.9,2.9-4.8,2.1L8.5,46.9c0.8,0.3,1.5,1,1.9,1.8
	L44.3,62C45.4,61,46.8,60.3,48.3,60.2z"/>
<path class="st6" d="M45,66c-0.1,0-0.2,0-0.3-0.1L10.6,52.6c-0.4-0.2-0.6-0.6-0.4-1c0,0,0,0,0,0c0.7-1.7-0.2-3.6-1.8-4.2
	c-0.4-0.2-0.6-0.6-0.4-1c0,0,0,0,0,0l4.6-11.6c0.2-0.4,0.6-0.6,1-0.4c1.7,0.7,3.6-0.2,4.2-1.8c0,0,0,0,0,0c0.1-0.4,0.6-0.6,1-0.4
	c0,0,0,0,0,0l34.2,13.4c0.4,0.2,0.6,0.6,0.4,1c-0.7,1.7,0.2,3.6,1.8,4.2c0,0,0,0,0,0c0.4,0.2,0.6,0.6,0.4,1l-4.6,11.6
	c-0.2,0.4-0.6,0.6-1,0.4c-1.7-0.7-3.6,0.2-4.2,1.8c-0.1,0.2-0.2,0.3-0.4,0.4C45.2,66,45.1,66,45,66z M11.7,51.4l32.9,12.9
	c1-1.8,3.1-2.7,5.1-2.2l4.1-10.3c-1.8-1-2.7-3.1-2.2-5.1L18.7,33.8c-1,1.8-3.1,2.7-5.1,2.2L9.5,46.3C11.3,47.4,12.2,49.4,11.7,51.4z
	"/>
<path class="st3" d="M22.5,45.5c-0.7,1.7-2.5,2.5-4.2,1.8c-1.7-0.7-2.5-2.5-1.8-4.2c0.7-1.7,2.5-2.5,4.2-1.8c0,0,0,0,0,0
	C22.4,41.9,23.2,43.8,22.5,45.5z"/>
<path class="st7" d="M22.3,42.6c-0.7,1.7-2.5,2.5-4.2,1.8c-0.7-0.3-1.2-0.7-1.6-1.3h0c-0.7,1.7,0.1,3.6,1.8,4.2
	c1.7,0.7,3.6-0.1,4.2-1.8C22.9,44.5,22.8,43.5,22.3,42.6z"/>
<path class="st6" d="M19.5,48.3c-2.2,0-4-1.8-4-4c0-2.2,1.8-4,4-4c2.2,0,4,1.8,4,4c0,1.6-0.9,3-2.4,3.7
	C20.6,48.2,20.1,48.3,19.5,48.3z M19.5,41.8c-1.4,0-2.5,1.1-2.5,2.5c0,1.4,1.1,2.5,2.5,2.5c1,0,2-0.6,2.3-1.6l0,0
	c0.5-1.3-0.1-2.7-1.4-3.3C20.1,41.8,19.8,41.8,19.5,41.8L19.5,41.8z"/>
<path class="st3" d="M46.8,55c-0.7,1.7-2.5,2.5-4.2,1.8c-1.7-0.7-2.5-2.5-1.8-4.2c0.7-1.7,2.5-2.5,4.2-1.8c0,0,0,0,0,0
	C46.7,51.4,47.5,53.3,46.8,55C46.8,55,46.8,55,46.8,55z"/>
<path class="st5" d="M46.6,52.1c-0.7,1.7-2.5,2.5-4.2,1.8c-0.7-0.3-1.2-0.7-1.6-1.3h0c-0.7,1.7,0.1,3.6,1.8,4.2
	c1.7,0.7,3.6-0.1,4.2-1.8C47.2,54.1,47.1,53,46.6,52.1L46.6,52.1z"/>
<path class="st6" d="M43.8,57.8c-2.2,0-4-1.8-4-4c0-2.2,1.8-4,4-4s4,1.8,4,4c0,0.5-0.1,1-0.3,1.5l0,0C46.9,56.8,45.4,57.8,43.8,57.8
	z M43.8,51.3c-1.4,0-2.5,1.1-2.5,2.5c0,0.3,0.1,0.7,0.2,1c0.6,1.3,2,1.9,3.3,1.3c0.6-0.3,1.1-0.8,1.3-1.4l0,0
	c0.5-1.3-0.1-2.7-1.4-3.3C44.4,51.3,44.1,51.3,43.8,51.3L43.8,51.3z"/>
<path class="st6" d="M30.8,55.5c-0.5,0-1.1-0.1-1.5-0.3c-1.5-0.5-2.5-1.9-2.6-3.5c0-0.4,0.3-0.8,0.7-0.8h0c0.4,0,0.7,0.3,0.8,0.7
	c0.1,1,0.7,1.8,1.6,2.2c0.6,0.2,1.3,0.3,1.9,0c0.5-0.2,1-0.6,1.2-1.2c0.2-0.5,0.3-1.1,0.1-1.6c-0.3-0.6-0.9-1.1-1.6-1.3
	c-1.1-0.3-1.9-1.1-2.4-2.1c-0.4-0.9-0.3-1.9,0-2.8c0.4-0.9,1.1-1.7,2.1-2c1-0.4,2-0.3,3,0c1.5,0.5,2.5,1.9,2.6,3.5
	c0,0.4-0.3,0.8-0.7,0.8c-0.4,0-0.8-0.3-0.8-0.7c0,0,0,0,0,0c-0.1-1-0.7-1.8-1.6-2.2c-0.6-0.2-1.3-0.3-1.9,0c-0.5,0.2-1,0.6-1.2,1.2
	c-0.2,0.5-0.2,1.1-0.1,1.6c0.3,0.6,0.9,1.1,1.6,1.3c1.1,0.3,1.9,1.1,2.4,2.1c0.4,0.9,0.3,1.9,0,2.8c-0.4,0.9-1.1,1.7-2.1,2
	C31.8,55.4,31.3,55.5,30.8,55.5z"/>
<path class="st6" d="M28.9,56.7c-0.4,0-0.7-0.3-0.8-0.7c0-0.1,0-0.2,0.1-0.3l0.6-1.5c0.1-0.4,0.6-0.6,1-0.4c0.4,0.1,0.6,0.6,0.4,1
	c0,0,0,0,0,0l-0.6,1.5C29.5,56.5,29.2,56.7,28.9,56.7z"/>
<path class="st6" d="M33.8,44.3c-0.4,0-0.7-0.3-0.7-0.8c0-0.1,0-0.2,0.1-0.3l0.6-1.5c0.1-0.4,0.6-0.6,1-0.4c0.4,0.1,0.6,0.6,0.4,1
	c0,0,0,0,0,0l-0.6,1.5C34.4,44.2,34.1,44.3,33.8,44.3z"/>
<path class="st2" d="M64.4,38.6H11.7c-0.6,0-1-0.4-1-1V9.5c0-0.6,0.4-1,1-1h52.7c0.6,0,1,0.4,1,1v28.2
	C65.4,38.2,64.9,38.6,64.4,38.6z"/>
<path class="st3" d="M61.5,35.8H10.7l0,0V9.5c0-0.6,0.4-1,1-1h50.8l0,0v26.3C62.5,35.4,62.1,35.8,61.5,35.8z"/>
<path class="st4" d="M64.4,39.4H11.7c-1,0-1.7-0.8-1.8-1.8V9.5c0-1,0.8-1.7,1.8-1.8h52.7c1,0,1.7,0.8,1.8,1.8v28.2
	C66.1,38.6,65.3,39.4,64.4,39.4z M11.7,9.2c-0.1,0-0.2,0.1-0.2,0.2v28.2c0,0.1,0.1,0.2,0.2,0.2h52.7c0.1,0,0.2-0.1,0.2-0.2V9.5
	c0-0.1-0.1-0.2-0.2-0.2H11.7z"/>
<path class="st5" d="M19.4,13.2h37.2c0,2.2,1.8,4,4,4c0,0,0,0,0,0v12.7c-2.2,0-4,1.8-4,4c0,0,0,0,0,0H19.4c0-2.2-1.8-4-4-4V17.2
	C17.6,17.2,19.4,15.4,19.4,13.2L19.4,13.2z"/>
<path class="st3" d="M57.8,28V15.7c-0.6-0.7-0.9-1.6-0.9-2.5H19.2c0,2.1-1.7,3.8-3.8,3.8c0,0,0,0,0,0v13.2c0.9,0,1.8,0.3,2.5,0.9
	h36.8C55.3,29.7,56.5,28.6,57.8,28z"/>
<path class="st6" d="M56.7,34.7H19.4c-0.4,0-0.7-0.3-0.8-0.8c0-1.8-1.5-3.2-3.2-3.2c-0.4,0-0.7-0.3-0.8-0.8V17.2
	c0-0.4,0.3-0.7,0.8-0.8c1.8,0,3.2-1.5,3.2-3.2c0-0.4,0.3-0.7,0.8-0.8h37.2c0.4,0,0.7,0.3,0.8,0.8c0,1.8,1.5,3.2,3.2,3.2
	c0.4,0,0.7,0.3,0.8,0.8v12.7c0,0.4-0.3,0.7-0.8,0.8c-1.8,0-3.2,1.5-3.2,3.2C57.4,34.3,57.1,34.7,56.7,34.7z M20.1,33.2H56
	c0.3-2,1.9-3.6,3.9-3.9V17.9c-2-0.3-3.6-1.9-3.9-3.9H20.1c-0.3,2-1.9,3.6-3.9,3.9v11.4C18.2,29.6,19.8,31.1,20.1,33.2z"/>
<circle class="st3" cx="24.8" cy="23.5" r="3.3"/>
<path class="st5" d="M26.8,20.9c0,1.8-1.5,3.3-3.3,3.3c-0.7,0-1.4-0.2-2-0.7h0c0,1.8,1.4,3.3,3.3,3.3c1.8,0,3.3-1.4,3.3-3.3
	C28.1,22.5,27.6,21.6,26.8,20.9z"/>
<path class="st6" d="M24.8,27.6c-2.2,0-4-1.8-4.1-4c0-2.2,1.8-4,4-4.1c2.2,0,4.1,1.8,4.1,4c0,0,0,0,0,0
	C28.9,25.8,27.1,27.6,24.8,27.6z M24.8,21c-1.4,0-2.5,1.1-2.5,2.5s1.1,2.5,2.5,2.5c1.4,0,2.5-1.1,2.5-2.5l0,0
	C27.4,22.1,26.2,21,24.8,21L24.8,21z"/>
<circle class="st3" cx="51.2" cy="23.5" r="3.3"/>
<path class="st5" d="M53.2,20.9c0,1.8-1.5,3.3-3.3,3.3c-0.7,0-1.4-0.2-2-0.7h0c0,1.8,1.4,3.3,3.3,3.3c1.8,0,3.3-1.4,3.3-3.3
	C54.5,22.5,54,21.6,53.2,20.9z"/>
<path class="st6" d="M51.2,27.6c-2.2,0-4-1.8-4-4c0-2.2,1.8-4,4-4c2.2,0,4,1.8,4,4C55.3,25.8,53.5,27.6,51.2,27.6z M51.2,21
	c-1.4,0-2.5,1.1-2.5,2.5c0,1.4,1.1,2.5,2.5,2.5c1.4,0,2.5-1.1,2.5-2.5c0,0,0,0,0,0C53.8,22.1,52.6,21,51.2,21L51.2,21z"/>
<path class="st6" d="M38,30.2c-1.6,0-3.1-0.9-3.7-2.4c-0.2-0.4,0-0.8,0.4-1c0.4-0.2,0.8,0,1,0.4c0.4,0.9,1.4,1.5,2.4,1.4
	c1.3,0.1,2.4-0.9,2.5-2.2c0-1-0.4-2.2-2.5-2.2c-3,0-4-1.9-4-3.7c0.1-2.1,1.9-3.8,4-3.7c1.6,0,3.1,0.9,3.7,2.4c0.2,0.4,0,0.8-0.4,1
	c-0.4,0.2-0.8,0-1-0.4l0,0c-0.4-0.9-1.3-1.5-2.3-1.4c-1.3-0.1-2.4,0.9-2.5,2.2c0,1,0.4,2.2,2.5,2.2c3,0,4,1.9,4,3.7
	C41.9,28.6,40.2,30.3,38,30.2z"/>
<path class="st6" d="M38,31.8c-0.4,0-0.8-0.3-0.8-0.8v-1.6c0-0.4,0.3-0.8,0.8-0.8s0.8,0.3,0.8,0.8v1.6C38.8,31.5,38.4,31.8,38,31.8z
	"/>
<path class="st6" d="M38,18.4c-0.4,0-0.8-0.3-0.8-0.8V16c0-0.4,0.3-0.8,0.8-0.8s0.8,0.3,0.8,0.8v1.6C38.8,18,38.4,18.4,38,18.4z"/>
<path class="st6" d="M30.9,70.5c-0.1,0-0.2,0-0.3-0.1l-4-1.6c-0.4-0.2-0.6-0.6-0.4-1c0.2-0.4,0.6-0.6,1-0.4l4,1.6
	c0.4,0.2,0.6,0.6,0.4,1C31.4,70.3,31.2,70.5,30.9,70.5z"/>
<path class="st6" d="M23,67.4c-0.1,0-0.2,0-0.3-0.1L3.4,59.8c-0.4-0.1-0.6-0.6-0.4-1c0.1-0.4,0.6-0.6,1-0.4c0,0,0,0,0,0L23.3,66
	c0.4,0.2,0.6,0.6,0.4,1C23.6,67.2,23.3,67.4,23,67.4z"/>
</svg>
