<?xml version="1.0" encoding="utf-8"?>
<!-- Generator: Adobe Illustrator 24.1.3, SVG Export Plug-In . SVG Version: 6.00 Build 0)  -->
<svg version="1.1" id="layer_1" xmlns="http://www.w3.org/2000/svg" xmlns:xlink="http://www.w3.org/1999/xlink" x="0px" y="0px"
	 viewBox="0 0 82.4 77.1" style="enable-background:new 0 0 82.4 77.1;" xml:space="preserve">
<style type="text/css">
	.st0{fill:#ED2425;enable-background:new    ;}
	.st1{fill:#FFFFFF;}
	.st2{opacity:0.6;fill:#1a1a1a;enable-background:new    ;}
	.st3{fill:#1a1a1a;}
</style>
<circle class="st0" cx="18.2" cy="14" r="14"/>
<circle class="st0" cx="70.4" cy="18.5" r="12"/>
<circle class="st0" cx="20" cy="57.1" r="20"/>
<path class="st1" d="M16.1,15h32c2.2,0,4,1.8,4,4v40c0,2.2-1.8,4-4,4h-26l-10,8V19C12.1,16.8,13.9,15,16.1,15z"/>
<path class="st2" d="M19.1,28h29c2.2,0,4,1.8,4,4v27c0,2.2-1.8,4-4,4h-26l-5,4V30C17.1,28.9,18,28,19.1,28z"/>
<path class="st3" d="M12.1,71.7c-0.1,0-0.2,0-0.3-0.1c-0.3-0.1-0.4-0.4-0.4-0.7V19c0-2.6,2.1-4.8,4.8-4.8l0,0h32
	c2.6,0,4.8,2.1,4.8,4.8l0,0v40c0,2.6-2.1,4.8-4.8,4.8l0,0H22.4l-9.8,7.8C12.4,71.7,12.3,71.7,12.1,71.7z M16.1,15.7
	c-1.8,0-3.3,1.5-3.3,3.3c0,0,0,0,0,0v50.4l8.8-7c0.1-0.1,0.3-0.2,0.5-0.2h26c1.8,0,3.3-1.5,3.3-3.3c0,0,0,0,0,0V19
	c0-1.8-1.5-3.2-3.2-3.2L16.1,15.7z"/>
<path class="st1" d="M24.1,7h38c2.2,0,4,1.8,4,4v52l-10-8h-32c-2.2,0-4-1.8-4-4V11C20.1,8.8,21.9,7,24.1,7z"/>
<path class="st2" d="M36.1,18h30v45l-10-8h-24V22C32.1,19.8,33.9,18,36.1,18z"/>
<path class="st3" d="M66.1,63.7c-0.2,0-0.3-0.1-0.5-0.2l-9.8-7.8H24.1c-2.6,0-4.7-2.1-4.8-4.7V11c0-2.6,2.1-4.8,4.8-4.8h38
	c2.6,0,4.8,2.1,4.8,4.8v52c0,0.3-0.2,0.5-0.4,0.7C66.3,63.7,66.2,63.7,66.1,63.7z M24.1,7.7c-1.8,0-3.3,1.5-3.3,3.3c0,0,0,0,0,0v40
	c0,1.8,1.5,3.2,3.2,3.2h32c0.2,0,0.3,0.1,0.5,0.2l8.8,7V11c0-1.8-1.5-3.2-3.2-3.2L24.1,7.7z"/>
<path class="st3" d="M45.8,59.7H35c-0.4,0-0.8-0.3-0.8-0.8s0.3-0.8,0.8-0.8l0,0h10.8c0.4,0,0.8,0.3,0.8,0.8S46.2,59.7,45.8,59.7z"/>
<path class="st3" d="M31,59.7h-2.2c-0.4,0-0.8-0.3-0.8-0.8s0.3-0.8,0.8-0.8H31c0.4,0,0.8,0.3,0.8,0.8S31.4,59.7,31,59.7z"/>
<path class="st3" d="M16.1,9.7h-4c-0.4,0-0.8-0.3-0.8-0.8s0.3-0.8,0.8-0.8h4c0.4,0,0.8,0.3,0.8,0.8S16.5,9.7,16.1,9.7z"/>
<path class="st3" d="M14.1,11.7c-0.4,0-0.8-0.3-0.8-0.8V7c0-0.4,0.3-0.8,0.8-0.8s0.8,0.3,0.8,0.8v4C14.9,11.4,14.5,11.7,14.1,11.7z"
	/>
<path class="st3" d="M50.1,69.7h-4c-0.4,0-0.8-0.3-0.8-0.8s0.3-0.8,0.8-0.8h4c0.4,0,0.8,0.3,0.8,0.8S50.5,69.7,50.1,69.7z"/>
<path class="st3" d="M48.1,71.7c-0.4,0-0.8-0.3-0.8-0.8v-4c0-0.4,0.3-0.8,0.8-0.8s0.8,0.3,0.8,0.8v4C48.9,71.4,48.5,71.7,48.1,71.7z
	"/>
<path class="st3" d="M60.1,64.7h-4c-0.4,0-0.8-0.3-0.8-0.8s0.3-0.8,0.8-0.8h4c0.4,0,0.8,0.3,0.8,0.8S60.5,64.7,60.1,64.7z"/>
<path class="st3" d="M58.1,66.7c-0.4,0-0.8-0.3-0.8-0.8v-4c0-0.4,0.3-0.8,0.8-0.8s0.8,0.3,0.8,0.8v4C58.9,66.4,58.5,66.7,58.1,66.7z
	"/>
<path class="st3" d="M75.2,56.7h-4c-0.4,0-0.8-0.3-0.8-0.8s0.3-0.8,0.8-0.8h4c0.4,0,0.8,0.3,0.8,0.8S75.6,56.7,75.2,56.7z"/>
<path class="st3" d="M73.2,58.7c-0.4,0-0.7-0.3-0.8-0.8v-4c0-0.4,0.3-0.8,0.8-0.8s0.8,0.3,0.8,0.8v4C73.9,58.4,73.6,58.7,73.2,58.7z
	"/>
<polygon class="st1" points="44.1,24 70.1,17 70.1,45 44.1,38 "/>
<polygon class="st2" points="70.1,17 70.1,45 52.1,40.1 "/>
<polygon class="st1" points="70.1,17 76.1,12 76.1,50 70.1,45 "/>
<polygon class="st2" points="76.1,12 76.1,50 72.2,46.7 "/>
<path class="st3" d="M70.1,45.7c-0.1,0-0.1,0-0.2,0l-26-7c-0.3-0.1-0.5-0.4-0.6-0.7V24c0-0.3,0.2-0.6,0.6-0.7l26-7
	c0.2-0.1,0.5,0,0.7,0.1c0.2,0.1,0.3,0.4,0.3,0.6v28c0,0.2-0.1,0.4-0.3,0.6C70.5,45.7,70.3,45.7,70.1,45.7z M44.9,37.4L69.4,44V18
	l-24.5,6.6V37.4z"/>
<path class="st3" d="M76.1,50.7c-0.2,0-0.3-0.1-0.5-0.2l-6-5c-0.2-0.1-0.3-0.4-0.3-0.6V17c0-0.2,0.1-0.4,0.3-0.6l6-5
	c0.2-0.2,0.5-0.2,0.8-0.1c0.3,0.1,0.4,0.4,0.4,0.7v38c0,0.3-0.2,0.6-0.4,0.7C76.3,50.7,76.2,50.7,76.1,50.7z M70.9,44.6l4.5,3.8
	V13.6l-4.5,3.8V44.6z"/>
<path class="st1" d="M31.1,24h13l0,0v14l0,0h-13c-1.7,0-3-1.3-3-3v-8C28.1,25.3,29.5,24,31.1,24L31.1,24z"/>
<polygon class="st2" points="40.1,30 44.1,30 44.1,38 35.1,38 "/>
<path class="st1" d="M38.1,38h6l0,0v12l0,0h-2c-2.2,0-4-1.8-4-4V38L38.1,38z"/>
<path class="st2" d="M42.1,42h2l0,0v8l0,0h-3l0,0v-7C41.1,42.4,41.6,42,42.1,42z"/>
<path class="st3" d="M44.1,38.7h-13c-2.1,0-3.7-1.7-3.8-3.7v-8c0-2.1,1.7-3.8,3.8-3.8l0,0h13c0.4,0,0.8,0.3,0.8,0.8v14
	C44.9,38.4,44.5,38.7,44.1,38.7z M31.1,24.7c-1.2,0-2.3,1-2.3,2.2c0,0,0,0,0,0v8c0,1.2,1,2.2,2.2,2.2h12.2V24.7H31.1z"/>
<path class="st3" d="M44.1,50.7h-2c-2.6,0-4.7-2.1-4.8-4.7v-8c0-0.4,0.3-0.8,0.8-0.8h6c0.4,0,0.8,0.3,0.8,0.8v12
	C44.9,50.4,44.5,50.7,44.1,50.7z M38.9,38.7V46c0,1.8,1.5,3.2,3.2,3.2h1.2V38.7H38.9z"/>
<path class="st3" d="M55.2,14.7c-0.4,0-0.8-0.3-0.8-0.8v-4c0-0.4,0.3-0.8,0.8-0.8s0.8,0.3,0.8,0.8v4C55.9,14.4,55.6,14.7,55.2,14.7z
	"/>
<path class="st3" d="M57.2,12.7h-4c-0.4,0-0.8-0.3-0.8-0.8s0.3-0.8,0.8-0.8h4c0.4,0,0.8,0.3,0.8,0.8S57.6,12.7,57.2,12.7z"/>
<circle class="st3" cx="49.2" cy="12" r="0.8"/>
<circle class="st3" cx="46.2" cy="12" r="0.8"/>
<circle class="st3" cx="41.2" cy="12" r="0.8"/>
<circle class="st3" cx="35.2" cy="12" r="0.8"/>
<path class="st3" d="M36.1,34.7c-0.4,0-0.7-0.3-0.8-0.8v-6c0-0.4,0.3-0.8,0.8-0.8s0.8,0.3,0.8,0.8v6C36.9,34.4,36.5,34.7,36.1,34.7z
	"/>
<path class="st3" d="M40.1,34.7c-0.4,0-0.7-0.3-0.8-0.8v-6c0-0.4,0.3-0.8,0.8-0.8s0.8,0.3,0.8,0.8v6C40.9,34.4,40.5,34.7,40.1,34.7z
	"/>
<path class="st3" d="M32.1,34.7c-0.4,0-0.8-0.3-0.8-0.8v-6c0-0.4,0.3-0.8,0.8-0.8s0.8,0.3,0.8,0.8v6C32.9,34.4,32.5,34.7,32.1,34.7z
	"/>
</svg>
