<svg id="layer_1" data-name="layer 1" xmlns="http://www.w3.org/2000/svg" viewBox="0 0 82.5 77.5"><defs><style>.cls-1{fill:#ed2425;}.cls-2{fill:#efefef;}.cls-3{fill:#fff;}.cls-4{fill:#1a1a1a;}.cls-5{fill:#39b54a;}.cls-6{fill:#009245;}.cls-7{fill:#3333331;}</style></defs><circle class="cls-1" cx="14" cy="21" r="14"/><circle class="cls-1" cx="38.6" cy="65.5" r="12"/><circle class="cls-1" cx="62.5" cy="20" r="20"/><polygon class="cls-2" points="22 18.25 14 26.25 18.07 26.25 18.07 49.25 26.07 49.25 26.07 26.25 30 26.25 22 18.25"/><path class="cls-3" d="M81.22,77l-8,8H77.3v23h5V83a1,1,0,0,1,1-1h2.92Z" transform="translate(-59.22 -58.74)"/><path class="cls-4" d="M85.3,108.74h-8a.75.75,0,0,1-.75-.75V85.74H73.22a.74.74,0,0,1-.69-.46.76.76,0,0,1,.16-.82l8-8a.75.75,0,0,1,1.06,0l8,8a.75.75,0,0,1-.53,1.28H86.05V108A.76.76,0,0,1,85.3,108.74Zm-7.25-1.5h6.5V85a.75.75,0,0,1,.75-.75h2.11l-6.19-6.19L75,84.24H77.3a.76.76,0,0,1,.75.75Z" transform="translate(-59.22 -58.74)"/><polygon class="cls-2" points="66 23.25 58 31.25 62.08 31.25 62.08 54.25 70.08 54.25 70.08 31.25 74 31.25 66 23.25"/><path class="cls-3" d="M125.23,82l-8,8h4.07v23h5V88a1,1,0,0,1,1-1h2.93Z" transform="translate(-59.22 -58.74)"/><path class="cls-4" d="M129.3,113.74h-8a.76.76,0,0,1-.75-.75V90.74h-3.32a.75.75,0,0,1-.53-1.28l8-8a.75.75,0,0,1,1.06,0l8,8a.78.78,0,0,1,.16.82.75.75,0,0,1-.69.46h-3.18V113A.75.75,0,0,1,129.3,113.74Zm-7.25-1.5h6.5V90a.76.76,0,0,1,.75-.75h2.12l-6.19-6.19L119,89.24h2.26a.75.75,0,0,1,.75.75Z" transform="translate(-59.22 -58.74)"/><rect class="cls-3" x="15" y="64.25" width="18" height="5" rx="1"/><path class="cls-4" d="M91.23,128.74h-16A1.75,1.75,0,0,1,73.48,127v-3a1.75,1.75,0,0,1,1.75-1.75h16A1.75,1.75,0,0,1,93,124v3A1.76,1.76,0,0,1,91.23,128.74Zm-16-5A.25.25,0,0,0,75,124v3a.25.25,0,0,0,.25.25h16a.25.25,0,0,0,.25-.25v-3a.25.25,0,0,0-.25-.25Z" transform="translate(-59.22 -58.74)"/><rect class="cls-3" x="17" y="59.25" width="18" height="5" rx="1"/><path class="cls-4" d="M93.23,123.74h-16A1.75,1.75,0,0,1,75.48,122v-3a1.75,1.75,0,0,1,1.75-1.75h16A1.75,1.75,0,0,1,95,119v3A1.76,1.76,0,0,1,93.23,123.74Zm-16-5A.25.25,0,0,0,77,119v3a.25.25,0,0,0,.25.25h16a.25.25,0,0,0,.25-.25v-3a.25.25,0,0,0-.25-.25Z" transform="translate(-59.22 -58.74)"/><rect class="cls-3" x="16" y="54.25" width="18" height="5" rx="1"/><path class="cls-4" d="M92.23,118.74h-16A1.75,1.75,0,0,1,74.48,117v-3a1.75,1.75,0,0,1,1.75-1.75h16A1.75,1.75,0,0,1,94,114v3A1.76,1.76,0,0,1,92.23,118.74Zm-16-5A.25.25,0,0,0,76,114v3a.25.25,0,0,0,.25.25h16a.25.25,0,0,0,.25-.25v-3a.25.25,0,0,0-.25-.25Z" transform="translate(-59.22 -58.74)"/><rect class="cls-3" x="15" y="49.25" width="18" height="5" rx="1"/><path class="cls-4" d="M91.23,113.74h-16A1.75,1.75,0,0,1,73.48,112v-3a1.75,1.75,0,0,1,1.75-1.75h16A1.75,1.75,0,0,1,93,109v3A1.76,1.76,0,0,1,91.23,113.74Zm-16-5A.25.25,0,0,0,75,109v3a.25.25,0,0,0,.25.25h16a.25.25,0,0,0,.25-.25v-3a.25.25,0,0,0-.25-.25Z" transform="translate(-59.22 -58.74)"/><path class="cls-4" d="M79.73,128.74A.75.75,0,0,1,79,128v-5a.75.75,0,0,1,1.5,0v5A.76.76,0,0,1,79.73,128.74Z" transform="translate(-59.22 -58.74)"/><path class="cls-4" d="M86.73,128.74A.75.75,0,0,1,86,128v-5a.75.75,0,0,1,1.5,0v5A.76.76,0,0,1,86.73,128.74Z" transform="translate(-59.22 -58.74)"/><path class="cls-4" d="M81.73,123.74A.75.75,0,0,1,81,123v-5a.75.75,0,0,1,1.5,0v5A.76.76,0,0,1,81.73,123.74Z" transform="translate(-59.22 -58.74)"/><path class="cls-4" d="M88.73,123.74A.75.75,0,0,1,88,123v-5a.75.75,0,0,1,1.5,0v5A.76.76,0,0,1,88.73,123.74Z" transform="translate(-59.22 -58.74)"/><path class="cls-4" d="M79.73,118.74A.75.75,0,0,1,79,118v-5a.75.75,0,0,1,1.5,0v5A.76.76,0,0,1,79.73,118.74Z" transform="translate(-59.22 -58.74)"/><path class="cls-4" d="M86.73,118.74A.75.75,0,0,1,86,118v-5a.75.75,0,0,1,1.5,0v5A.76.76,0,0,1,86.73,118.74Z" transform="translate(-59.22 -58.74)"/><path class="cls-4" d="M80.73,113.74A.75.75,0,0,1,80,113v-5a.75.75,0,0,1,1.5,0v5A.76.76,0,0,1,80.73,113.74Z" transform="translate(-59.22 -58.74)"/><path class="cls-4" d="M87.73,113.74A.75.75,0,0,1,87,113v-5a.75.75,0,0,1,1.5,0v5A.76.76,0,0,1,87.73,113.74Z" transform="translate(-59.22 -58.74)"/><rect class="cls-3" x="55" y="64.25" width="18" height="5" rx="1"/><path class="cls-4" d="M131.23,128.74h-16a1.75,1.75,0,0,1-1.75-1.75v-3a1.75,1.75,0,0,1,1.75-1.75h16A1.75,1.75,0,0,1,133,124v3A1.76,1.76,0,0,1,131.23,128.74Zm-16-5a.25.25,0,0,0-.25.25v3a.25.25,0,0,0,.25.25h16a.25.25,0,0,0,.25-.25v-3a.25.25,0,0,0-.25-.25Z" transform="translate(-59.22 -58.74)"/><rect class="cls-3" x="54" y="59.25" width="18" height="5" rx="1"/><path class="cls-4" d="M130.23,123.74h-16a1.75,1.75,0,0,1-1.75-1.75v-3a1.75,1.75,0,0,1,1.75-1.75h16A1.75,1.75,0,0,1,132,119v3A1.76,1.76,0,0,1,130.23,123.74Zm-16-5a.25.25,0,0,0-.25.25v3a.25.25,0,0,0,.25.25h16a.25.25,0,0,0,.25-.25v-3a.25.25,0,0,0-.25-.25Z" transform="translate(-59.22 -58.74)"/><rect class="cls-3" x="55" y="54.25" width="18" height="5" rx="1"/><path class="cls-4" d="M131.23,118.74h-16a1.75,1.75,0,0,1-1.75-1.75v-3a1.75,1.75,0,0,1,1.75-1.75h16A1.75,1.75,0,0,1,133,114v3A1.76,1.76,0,0,1,131.23,118.74Zm-16-5a.25.25,0,0,0-.25.25v3a.25.25,0,0,0,.25.25h16a.25.25,0,0,0,.25-.25v-3a.25.25,0,0,0-.25-.25Z" transform="translate(-59.22 -58.74)"/><path class="cls-4" d="M118.73,128.74A.75.75,0,0,1,118,128v-5a.75.75,0,0,1,1.5,0v5A.76.76,0,0,1,118.73,128.74Z" transform="translate(-59.22 -58.74)"/><path class="cls-4" d="M125.73,128.74A.75.75,0,0,1,125,128v-5a.75.75,0,0,1,1.5,0v5A.76.76,0,0,1,125.73,128.74Z" transform="translate(-59.22 -58.74)"/><path class="cls-4" d="M119.73,123.74A.75.75,0,0,1,119,123v-5a.75.75,0,0,1,1.5,0v5A.76.76,0,0,1,119.73,123.74Z" transform="translate(-59.22 -58.74)"/><path class="cls-4" d="M126.73,123.74A.75.75,0,0,1,126,123v-5a.75.75,0,0,1,1.5,0v5A.76.76,0,0,1,126.73,123.74Z" transform="translate(-59.22 -58.74)"/><path class="cls-4" d="M118.73,118.74A.75.75,0,0,1,118,118v-5a.75.75,0,0,1,1.5,0v5A.76.76,0,0,1,118.73,118.74Z" transform="translate(-59.22 -58.74)"/><path class="cls-4" d="M125.73,118.74A.75.75,0,0,1,125,118v-5a.75.75,0,0,1,1.5,0v5A.76.76,0,0,1,125.73,118.74Z" transform="translate(-59.22 -58.74)"/><path class="cls-4" d="M135.23,128.74h-64a.75.75,0,0,1,0-1.5h64a.75.75,0,0,1,0,1.5Z" transform="translate(-59.22 -58.74)"/><path class="cls-3" d="M89.22,90h-6a14,14,0,0,0,14,14h6A14,14,0,0,0,89.22,90Z" transform="translate(-59.22 -58.74)"/><path class="cls-5" d="M103.22,104h-6a14,14,0,0,1-14-14h0C95.11,94.27,103.22,104,103.22,104Z" transform="translate(-59.22 -58.74)"/><path class="cls-6" d="M103.22,104.74h-6A14.77,14.77,0,0,1,82.47,90a.75.75,0,0,1,.75-.75h6A14.76,14.76,0,0,1,104,104,.75.75,0,0,1,103.22,104.74ZM84,90.74a13.27,13.27,0,0,0,13.23,12.5h5.23a13.26,13.26,0,0,0-13.23-12.5Z" transform="translate(-59.22 -58.74)"/><path class="cls-6" d="M103.22,104.74a.74.74,0,0,1-.57-.27A54.17,54.17,0,0,0,90,94.06a.75.75,0,0,1-.26-1,.74.74,0,0,1,1-.27,54.74,54.74,0,0,1,13,10.75.75.75,0,0,1-.1,1A.74.74,0,0,1,103.22,104.74Z" transform="translate(-59.22 -58.74)"/><path class="cls-3" d="M117.23,95h6a14,14,0,0,1-14,14h-6A14,14,0,0,1,117.23,95Z" transform="translate(-59.22 -58.74)"/><path class="cls-5" d="M103.23,109h6a14,14,0,0,0,14-14h0C111.34,99.27,103.23,109,103.23,109Z" transform="translate(-59.22 -58.74)"/><path class="cls-6" d="M109.23,109.74h-6a.75.75,0,0,1-.75-.75,14.76,14.76,0,0,1,14.75-14.75h6A.75.75,0,0,1,124,95,14.77,14.77,0,0,1,109.23,109.74Zm-5.23-1.5h5.23a13.27,13.27,0,0,0,13.23-12.5h-5.23A13.26,13.26,0,0,0,104,108.24Z" transform="translate(-59.22 -58.74)"/><path class="cls-6" d="M103.23,109.74a.74.74,0,0,1-.48-.18.75.75,0,0,1-.1-1,54.64,54.64,0,0,1,13-10.74.74.74,0,0,1,1,.26.76.76,0,0,1-.26,1,54.17,54.17,0,0,0-12.61,10.41A.74.74,0,0,1,103.23,109.74Z" transform="translate(-59.22 -58.74)"/><circle class="cls-3" cx="44.01" cy="17.25" r="12"/><path class="cls-5" d="M110.08,66.14a12,12,0,0,1-16.7,16.7,12,12,0,1,0,16.7-16.7Z" transform="translate(-59.22 -58.74)"/><path class="cls-6" d="M103.23,88.74A12.75,12.75,0,1,1,116,76,12.76,12.76,0,0,1,103.23,88.74Zm0-24A11.25,11.25,0,1,0,114.48,76,11.27,11.27,0,0,0,103.23,64.74Z" transform="translate(-59.22 -58.74)"/><circle class="cls-4" cx="51.51" cy="17.25" r="1"/><circle class="cls-4" cx="36.51" cy="17.25" r="1"/><path class="cls-4" d="M103.24,83.09a4.22,4.22,0,0,1-4-2.5.75.75,0,0,1,1.38-.58,2.79,2.79,0,0,0,2.58,1.58A2.6,2.6,0,0,0,106,79.17c0-1.11-.48-2.43-2.76-2.43-3.12,0-4.24-2-4.24-3.92a4.1,4.1,0,0,1,4.24-3.93,4.22,4.22,0,0,1,4,2.5.75.75,0,0,1-.4,1,.73.73,0,0,1-1-.4,2.78,2.78,0,0,0-2.58-1.58,2.6,2.6,0,0,0-2.74,2.43c0,1.1.48,2.42,2.74,2.42,3.14,0,4.26,2,4.26,3.93A4.09,4.09,0,0,1,103.24,83.09Z" transform="translate(-59.22 -58.74)"/><path class="cls-4" d="M103.22,70.39a.76.76,0,0,1-.75-.75V67.89a.75.75,0,0,1,1.5,0v1.75A.75.75,0,0,1,103.22,70.39Z" transform="translate(-59.22 -58.74)"/><path class="cls-4" d="M103.22,84.84a.76.76,0,0,1-.75-.75V82.34a.75.75,0,0,1,1.5,0v1.75A.75.75,0,0,1,103.22,84.84Z" transform="translate(-59.22 -58.74)"/><path class="cls-4" d="M103.23,128.74a.76.76,0,0,1-.75-.75V88a.75.75,0,0,1,1.5,0v40A.75.75,0,0,1,103.23,128.74Z" transform="translate(-59.22 -58.74)"/><path class="cls-7" d="M88.23,66.74h-4a.75.75,0,0,1,0-1.5h4a.75.75,0,0,1,0,1.5Z" transform="translate(-59.22 -58.74)"/><path class="cls-7" d="M86.23,68.74a.76.76,0,0,1-.75-.75V64A.75.75,0,1,1,87,64v4A.76.76,0,0,1,86.23,68.74Z" transform="translate(-59.22 -58.74)"/><path class="cls-7" d="M124.23,76.74h-4a.75.75,0,0,1,0-1.5h4a.75.75,0,0,1,0,1.5Z" transform="translate(-59.22 -58.74)"/><path class="cls-7" d="M122.23,78.74a.76.76,0,0,1-.75-.75V74a.75.75,0,0,1,1.5,0v4A.75.75,0,0,1,122.23,78.74Z" transform="translate(-59.22 -58.74)"/><path class="cls-7" d="M132.23,69.74h-4a.75.75,0,0,1,0-1.5h4a.75.75,0,0,1,0,1.5Z" transform="translate(-59.22 -58.74)"/><path class="cls-7" d="M130.23,71.74a.76.76,0,0,1-.75-.75V67a.75.75,0,1,1,1.5,0v4A.75.75,0,0,1,130.23,71.74Z" transform="translate(-59.22 -58.74)"/><path class="cls-7" d="M76.23,72.74h-4a.75.75,0,0,1,0-1.5h4a.75.75,0,0,1,0,1.5Z" transform="translate(-59.22 -58.74)"/><path class="cls-7" d="M74.23,74.74a.75.75,0,0,1-.75-.75V70A.75.75,0,0,1,75,70v4A.76.76,0,0,1,74.23,74.74Z" transform="translate(-59.22 -58.74)"/></svg>