<svg id="layer_1" data-name="layer 1" xmlns="http://www.w3.org/2000/svg" viewBox="0 0 77.39 75.75"><defs><style>.cls-1{fill:#ed2425;}.cls-2,.cls-4{fill:#1a1a1a;}.cls-2{opacity:0.7;}.cls-3{fill:#fff;}</style></defs><circle class="cls-1" cx="63.39" cy="34.55" r="14"/><circle class="cls-1" cx="32.12" cy="12" r="12"/><circle class="cls-1" cx="20" cy="55.75" r="20"/><path class="cls-2" d="M8.7,11.38h58a3,3,0,0,1,3,3v43a0,0,0,0,1,0,0H5.7a0,0,0,0,1,0,0v-43A3,3,0,0,1,8.7,11.38Z"/><path class="cls-3" d="M8.7,11.38h58a0,0,0,0,1,0,0v39a4,4,0,0,1-4,4H5.7a0,0,0,0,1,0,0v-40A3,3,0,0,1,8.7,11.38Z"/><path class="cls-4" d="M206,149.9H142a.76.76,0,0,1-.75-.75v-43a3.76,3.76,0,0,1,3.75-3.75h58a3.76,3.76,0,0,1,3.75,3.75v43A.76.76,0,0,1,206,149.9Zm-63.25-1.5h62.5V106.14a2.25,2.25,0,0,0-2.25-2.25H145a2.25,2.25,0,0,0-2.25,2.25Z" transform="translate(-136.29 -91.77)"/><rect class="cls-2" x="23.7" y="63.38" width="28" height="6"/><path class="cls-3" d="M23.7,63.38h25a0,0,0,0,1,0,0v2a1,1,0,0,1-1,1h-24a0,0,0,0,1,0,0v-3A0,0,0,0,1,23.7,63.38Z"/><path class="cls-4" d="M188,161.89H160a.75.75,0,0,1-.75-.75v-6a.76.76,0,0,1,.75-.75h28a.76.76,0,0,1,.75.75v6A.75.75,0,0,1,188,161.89Zm-27.25-1.5h26.5v-4.5h-26.5Z" transform="translate(-136.29 -91.77)"/><path class="cls-2" d="M5.7,57.38h64a0,0,0,0,1,0,0v3a3,3,0,0,1-3,3H8.7a3,3,0,0,1-3-3v-3A0,0,0,0,1,5.7,57.38Z"/><path class="cls-3" d="M5.7,57.38h60a0,0,0,0,1,0,0v2a1,1,0,0,1-1,1H5.7a0,0,0,0,1,0,0v-3A0,0,0,0,1,5.7,57.38Z"/><path class="cls-4" d="M203,155.89H145a3.75,3.75,0,0,1-3.75-3.75v-3a.76.76,0,0,1,.75-.75h64a.76.76,0,0,1,.75.75v3A3.75,3.75,0,0,1,203,155.89Zm-60.25-6v2.25a2.25,2.25,0,0,0,2.25,2.25h58a2.25,2.25,0,0,0,2.25-2.25v-2.25Z" transform="translate(-136.29 -91.77)"/><path class="cls-4" d="M198,161.89H150a.75.75,0,0,1,0-1.5h48a.75.75,0,0,1,0,1.5Z" transform="translate(-136.29 -91.77)"/><circle class="cls-4" cx="37.7" cy="60.38" r="1"/><path class="cls-2" d="M5.7,17.38h6a2,2,0,0,1,2,2v6a0,0,0,0,1,0,0h-8a0,0,0,0,1,0,0v-8A0,0,0,0,1,5.7,17.38Z"/><path class="cls-3" d="M5.7,17.38H11a0,0,0,0,1,0,0v4.33a1,1,0,0,1-1,1H5.7a0,0,0,0,1,0,0V17.38A0,0,0,0,1,5.7,17.38Z"/><path class="cls-4" d="M150,117.9h-8a.76.76,0,0,1-.75-.75v-8a.75.75,0,0,1,.75-.75h6a2.75,2.75,0,0,1,2.75,2.75v6A.76.76,0,0,1,150,117.9Zm-7.25-1.5h6.5v-5.25A1.25,1.25,0,0,0,148,109.9h-5.25Z" transform="translate(-136.29 -91.77)"/><rect class="cls-2" x="5.7" y="25.38" width="8" height="8"/><path class="cls-3" d="M5.7,25.38H11a0,0,0,0,1,0,0v4.33a1,1,0,0,1-1,1H5.7a0,0,0,0,1,0,0V25.38A0,0,0,0,1,5.7,25.38Z"/><path class="cls-4" d="M150,125.9h-8a.76.76,0,0,1-.75-.75v-8a.75.75,0,0,1,.75-.75h8a.75.75,0,0,1,.75.75v8A.76.76,0,0,1,150,125.9Zm-7.25-1.5h6.5v-6.5h-6.5Z" transform="translate(-136.29 -91.77)"/><rect class="cls-2" x="5.7" y="33.38" width="8" height="8"/><path class="cls-3" d="M5.7,33.38H11a0,0,0,0,1,0,0v4.33a1,1,0,0,1-1,1H5.7a0,0,0,0,1,0,0V33.38A0,0,0,0,1,5.7,33.38Z"/><path class="cls-4" d="M150,133.9h-8a.76.76,0,0,1-.75-.75v-8a.75.75,0,0,1,.75-.75h8a.75.75,0,0,1,.75.75v8A.76.76,0,0,1,150,133.9Zm-7.25-1.5h6.5v-6.5h-6.5Z" transform="translate(-136.29 -91.77)"/><path class="cls-2" d="M5.7,41.38h8a0,0,0,0,1,0,0v6a2,2,0,0,1-2,2h-6a0,0,0,0,1,0,0v-8A0,0,0,0,1,5.7,41.38Z"/><path class="cls-3" d="M5.7,41.38H11a0,0,0,0,1,0,0v4.33a1,1,0,0,1-1,1H5.7a0,0,0,0,1,0,0V41.38A0,0,0,0,1,5.7,41.38Z"/><path class="cls-4" d="M148,141.9h-6a.76.76,0,0,1-.75-.75v-8a.75.75,0,0,1,.75-.75h8a.75.75,0,0,1,.75.75v6A2.75,2.75,0,0,1,148,141.9Zm-5.25-1.5H148a1.26,1.26,0,0,0,1.25-1.25V133.9h-6.5Z" transform="translate(-136.29 -91.77)"/><rect class="cls-2" x="18.69" y="17.38" width="30" height="34"/><path class="cls-3" d="M18.69,17.38h27a0,0,0,0,1,0,0v26a2,2,0,0,1-2,2h-25a0,0,0,0,1,0,0v-28A0,0,0,0,1,18.69,17.38Z"/><path class="cls-4" d="M185,143.9H155a.75.75,0,0,1-.75-.75v-34a.74.74,0,0,1,.75-.75h30a.75.75,0,0,1,.75.75v34A.76.76,0,0,1,185,143.9Zm-29.25-1.5h28.5V109.9h-28.5Z" transform="translate(-136.29 -91.77)"/><path class="cls-3" d="M161.29,122.65a2.07,2.07,0,0,1-.39-4.1,1.68,1.68,0,0,1-.23-.86,1.75,1.75,0,0,1,1.75-1.75,1.76,1.76,0,0,1,1.18.45,3.15,3.15,0,0,1,6.28.41,3.58,3.58,0,0,1,0,.58,3.19,3.19,0,0,1,.54,0,2.66,2.66,0,1,1,0,5.32Z" transform="translate(-136.29 -91.77)"/><path class="cls-2" d="M170.37,117.33a3.19,3.19,0,0,0-.54,0,3.58,3.58,0,0,0,0-.58,3.15,3.15,0,0,0-6.08-1.15,3.15,3.15,0,0,1,3.08,3.15,3.58,3.58,0,0,1,0,.58,3.19,3.19,0,0,1,.54,0A2.66,2.66,0,0,1,170,122a2.5,2.5,0,0,1-.09.66h.43a2.66,2.66,0,1,0,0-5.32Z" transform="translate(-136.29 -91.77)"/><path class="cls-4" d="M170.37,123.4h-9.08a2.82,2.82,0,0,1-1.34-5.3,2.83,2.83,0,0,1,0-.41,2.5,2.5,0,0,1,2.5-2.5,2.32,2.32,0,0,1,.7.1,3.91,3.91,0,0,1,7.51,1.29,3.42,3.42,0,0,1-.26,6.82Zm-8-6.71a1,1,0,0,0-1,1,1,1,0,0,0,.13.49.76.76,0,0,1,0,.69.75.75,0,0,1-.54.42,1.32,1.32,0,0,0,.25,2.61h9.08a1.91,1.91,0,1,0-.39-3.78.75.75,0,0,1-.68-.2.73.73,0,0,1-.21-.67,2.22,2.22,0,0,0,0-.45,2.41,2.41,0,0,0-4.79-.31.75.75,0,0,1-1.25.46A1,1,0,0,0,162.42,116.69Z" transform="translate(-136.29 -91.77)"/><polygon class="cls-2" points="28.2 35.38 18.69 51.38 37.7 51.38 28.2 35.38"/><polygon class="cls-3" points="28.2 35.38 18.69 51.38 25.69 51.38 28.2 35.38"/><path class="cls-4" d="M174,143.9H155a.75.75,0,0,1-.65-.38.76.76,0,0,1,0-.76l9.5-16a.77.77,0,0,1,.65-.36h0a.75.75,0,0,1,.64.36l9.5,16a.76.76,0,0,1,0,.76A.75.75,0,0,1,174,143.9Zm-17.68-1.5h16.36l-8.18-13.79Z" transform="translate(-136.29 -91.77)"/><polygon class="cls-2" points="36.55 41.03 30.41 51.38 42.7 51.38 36.55 41.03"/><polygon class="cls-3" points="36.55 41.03 30.41 51.38 35.7 51.38 36.55 41.03"/><path class="cls-4" d="M179,143.9H166.7a.75.75,0,0,1-.65-.38.76.76,0,0,1,0-.76l6.14-10.34a.78.78,0,0,1,1.29,0l6.14,10.34a.74.74,0,0,1,0,.76A.75.75,0,0,1,179,143.9Zm-11-1.5h9.65l-4.82-8.13Z" transform="translate(-136.29 -91.77)"/><path class="cls-4" d="M160.69,99.89H149a.75.75,0,0,1,0-1.5h11.7a.75.75,0,0,1,0,1.5Z" transform="translate(-136.29 -91.77)"/><path class="cls-4" d="M167,99.89h-2.3a.75.75,0,0,1,0-1.5H167a.75.75,0,0,1,0,1.5Z" transform="translate(-136.29 -91.77)"/><rect class="cls-2" x="40.7" y="5.38" width="23" height="34" rx="2"/><path class="cls-3" d="M42.7,5.38h18.5a0,0,0,0,1,0,0v27.5a3.5,3.5,0,0,1-3.5,3.5h-17a0,0,0,0,1,0,0v-29A2,2,0,0,1,42.7,5.38Z"/><path class="cls-4" d="M198,131.89H179a2.75,2.75,0,0,1-2.75-2.75v-30A2.75,2.75,0,0,1,179,96.39h19a2.75,2.75,0,0,1,2.75,2.75v30A2.75,2.75,0,0,1,198,131.89Zm-19-34a1.25,1.25,0,0,0-1.25,1.25v30a1.25,1.25,0,0,0,1.25,1.25h19a1.25,1.25,0,0,0,1.25-1.25v-30A1.25,1.25,0,0,0,198,97.89Z" transform="translate(-136.29 -91.77)"/><path class="cls-4" d="M196.49,104.39h-16a.75.75,0,0,1,0-1.5h16a.75.75,0,0,1,0,1.5Z" transform="translate(-136.29 -91.77)"/><path class="cls-4" d="M196.49,111.39h-16a.75.75,0,0,1,0-1.5h16a.75.75,0,0,1,0,1.5Z" transform="translate(-136.29 -91.77)"/><path class="cls-4" d="M196.49,118.39h-16a.75.75,0,0,1,0-1.5h16a.75.75,0,0,1,0,1.5Z" transform="translate(-136.29 -91.77)"/><path class="cls-4" d="M196.49,125.4h-16a.75.75,0,0,1,0-1.5h16a.75.75,0,0,1,0,1.5Z" transform="translate(-136.29 -91.77)"/><circle class="cls-3" cx="46.7" cy="11.85" r="2.5"/><path class="cls-4" d="M183,106.87a3.25,3.25,0,1,1,3.25-3.25A3.26,3.26,0,0,1,183,106.87Zm0-5a1.75,1.75,0,1,0,1.75,1.75A1.75,1.75,0,0,0,183,101.87Z" transform="translate(-136.29 -91.77)"/><circle class="cls-3" cx="55.7" cy="18.85" r="2.5"/><path class="cls-4" d="M192,113.87a3.25,3.25,0,1,1,3.25-3.25A3.26,3.26,0,0,1,192,113.87Zm0-5a1.75,1.75,0,1,0,1.75,1.75A1.76,1.76,0,0,0,192,108.87Z" transform="translate(-136.29 -91.77)"/><circle class="cls-3" cx="49.7" cy="25.85" r="2.5"/><path class="cls-4" d="M186,120.87a3.25,3.25,0,1,1,3.25-3.25A3.26,3.26,0,0,1,186,120.87Zm0-5a1.75,1.75,0,1,0,1.75,1.75A1.75,1.75,0,0,0,186,115.87Z" transform="translate(-136.29 -91.77)"/><circle class="cls-3" cx="57.7" cy="32.85" r="2.5"/><path class="cls-4" d="M194,127.87a3.25,3.25,0,1,1,3.25-3.25A3.26,3.26,0,0,1,194,127.87Zm0-5a1.75,1.75,0,1,0,1.75,1.75A1.76,1.76,0,0,0,194,122.87Z" transform="translate(-136.29 -91.77)"/><polygon class="cls-3" points="53.7 44.38 63.7 47.81 59.15 49.83 57.13 54.38 53.7 44.38"/><path class="cls-4" d="M193.42,146.89h0a.74.74,0,0,1-.68-.5l-3.43-10a.78.78,0,0,1,.18-.78.73.73,0,0,1,.77-.17l10,3.43a.77.77,0,0,1,.51.67.74.74,0,0,1-.45.72L196,142.17l-1.9,4.28A.75.75,0,0,1,193.42,146.89Zm-2.22-9.54,2.31,6.75,1.25-2.81a.74.74,0,0,1,.38-.38l2.8-1.24Z" transform="translate(-136.29 -91.77)"/></svg>