<svg xmlns="http://www.w3.org/2000/svg" width="38" height="38" viewBox="0 0 38 38" fill="none"><path d="M37.0532 16.4076L34.2976 13.6521C34.2935 13.6478 34.2893 13.6437 34.2851 13.6396L30.9823 10.3367C30.9785 10.3328 30.9746 10.329 30.9707 10.3252L27.6682 7.02259C27.6644 7.01876 27.6606 7.01493 27.6567 7.01118L24.3532 3.70766C24.3496 3.70391 24.3458 3.70016 24.342 3.69641L21.5853 0.939766C21.4388 0.793281 21.2401 0.710938 21.0329 0.710938C20.8257 0.710938 20.627 0.793281 20.4805 0.939766L11.6423 9.77775L10.5364 10.8829C9.0139 12.4064 9.01398 14.8846 10.5366 16.4071L12.7468 18.6173C12.8943 18.7649 12.9755 18.9609 12.9755 19.1695C12.9755 19.3781 12.8943 19.5743 12.7468 19.7218L11.6569 20.8116L2.19279 29.2876C2.1924 29.2879 2.19209 29.2883 2.1917 29.2886C2.11154 29.3594 2.0381 29.4281 1.96779 29.4983C0.140131 31.326 0.140131 34.2998 1.96779 36.1275C2.85178 37.0114 4.02889 37.4983 5.28233 37.4983C6.53569 37.4983 7.71288 37.0115 8.59671 36.1276C8.66819 36.0562 8.73858 35.981 8.81194 35.8977C8.8121 35.8976 8.81226 35.8973 8.81241 35.8971C8.8128 35.8967 8.81319 35.8963 8.81351 35.8959L17.1847 26.3326L18.2711 25.2461C18.5756 24.9416 19.0711 24.9417 19.3757 25.2462L21.5856 27.4553C22.3234 28.1936 23.3043 28.6001 24.3476 28.6001C25.3909 28.6001 26.3718 28.1936 27.1092 27.4557L28.2149 26.3508L37.0532 17.5125C37.3582 17.2075 37.3582 16.7128 37.0532 16.4076ZM7.63796 34.8667C7.58725 34.9241 7.5396 34.9751 7.4921 35.0226C6.90319 35.6115 6.1185 35.9357 5.28241 35.9357C4.44631 35.9357 3.66162 35.6115 3.07279 35.0226C1.85435 33.8041 1.85435 31.8216 3.07264 30.6034C3.12115 30.555 3.17279 30.5067 3.23053 30.4558C3.23131 30.4551 3.23201 30.4543 3.23279 30.4536C3.23365 30.4528 3.23451 30.4522 3.23537 30.4515L12.1651 22.4542L15.5448 25.834L7.63796 34.8667ZM26.0045 26.3509C25.5619 26.7938 24.9735 27.0377 24.3477 27.0377C23.7219 27.0377 23.1335 26.7938 22.6906 26.3506L20.4806 24.1413C19.5669 23.2276 18.0801 23.2277 17.1663 24.1413L16.6141 24.6936L13.2995 21.3789L13.8516 20.8268C14.2943 20.384 14.538 19.7955 14.538 19.1696C14.538 18.5436 14.2942 17.9551 13.8516 17.5125L11.6415 15.3023C10.7279 14.3888 10.728 12.9017 11.6412 11.9878L12.1943 11.4352L26.5574 25.7983L26.0045 26.3509ZM27.6626 24.6936L13.2994 10.3304L21.0327 2.59703L22.6903 4.25462L18.8234 8.12095C18.5182 8.42595 18.5182 8.92064 18.8233 9.2258C18.9759 9.37838 19.1758 9.45471 19.3758 9.45471C19.5757 9.45471 19.7756 9.37838 19.9281 9.22588L23.7953 5.35946L26.0053 7.56947L22.1382 11.4358C21.8331 11.7408 21.8331 12.2355 22.1381 12.5406C22.2907 12.6932 22.4906 12.7696 22.6906 12.7696C22.8906 12.7696 23.0905 12.6932 23.243 12.5407L27.1101 8.67431L29.3193 10.8835L25.4524 14.7499C25.1472 15.0549 25.1472 15.5496 25.4523 15.8547C25.6049 16.0073 25.8048 16.0836 26.0048 16.0836C26.2047 16.0836 26.4046 16.0073 26.5571 15.8548L30.4242 11.9884L32.6342 14.1984L28.7672 18.0647C28.4621 18.3697 28.4621 18.8644 28.7671 19.1696C28.9197 19.3221 29.1196 19.3985 29.3196 19.3985C29.5196 19.3985 29.7195 19.3221 29.872 19.1696L33.7391 15.3032L35.3961 16.9602L27.6626 24.6936Z" fill="white"></path></svg>