<?xml version="1.0" encoding="utf-8"?>
<!-- Generator: Adobe Illustrator 24.1.3, SVG Export Plug-In . SVG Version: 6.00 Build 0)  -->
<svg version="1.1" id="layer_1" xmlns="http://www.w3.org/2000/svg" xmlns:xlink="http://www.w3.org/1999/xlink" x="0px" y="0px"
	 viewBox="0 0 74.7 78.6" style="enable-background:new 0 0 74.7 78.6;" xml:space="preserve">
<style type="text/css">
	.st0{fill:#ED2425;enable-background:new    ;}
	.st1{fill:#FFFFFF;}
	.st2{opacity:0.6;fill:#1a1a1a;enable-background:new    ;}
	.st3{fill:#1a1a1a;}
	.st4{opacity:0.4;fill:#1a1a1a;enable-background:new    ;}
</style>
<circle class="st0" cx="60.7" cy="64.6" r="14"/>
<circle class="st0" cx="12" cy="56.9" r="12"/>
<circle class="st0" cx="33.4" cy="20" r="20"/>
<polygon class="st1" points="62.7,36.6 51.7,36.6 48.7,70.6 64.7,70.6 "/>
<polygon class="st1" points="51.1,43.6 40.7,43.6 37.7,70.6 48.7,70.6 "/>
<polygon class="st1" points="40,50.6 30.7,50.6 27.7,70.6 37.7,70.6 "/>
<polygon class="st1" points="29.7,57.6 19.7,57.6 16.7,70.6 27.7,70.6 "/>
<polygon class="st1" points="18.1,64.6 9.7,64.6 6.7,70.6 16.7,70.6 "/>
<path class="st2" d="M64.7,70.6l-2-34h-3.8l1.7,28.9c0.1,1.1-0.8,2-1.9,2.1c0,0-0.1,0-0.1,0H49l-0.3,3H64.7z"/>
<path class="st2" d="M46.8,43.6l-2,22.2c-0.1,1-1,1.8-2,1.8h-4.8l-0.3,3h11l2.4-27H46.8z"/>
<path class="st2" d="M35.6,50.6l-1.7,15.2c-0.1,1-1,1.8-2,1.8h-3.8l-0.4,3h10l2.2-20H35.6z"/>
<path class="st2" d="M25.2,57.6L24,65.9c-0.1,1-1,1.7-2,1.7h-4.6l-0.7,3h11l2-13H25.2z"/>
<path class="st2" d="M13.4,64.6l-0.3,1.4c-0.2,0.9-1,1.6-1.9,1.6H8.2l-1.5,3h10l1.4-6L13.4,64.6z"/>
<path class="st3" d="M64.7,71.4h-16c-0.4,0-0.8-0.3-0.8-0.7c0,0,0,0,0-0.1l3-34c0-0.4,0.4-0.7,0.7-0.7h11c0.4,0,0.7,0.3,0.7,0.7
	l2,34C65.5,71,65.2,71.4,64.7,71.4C64.8,71.4,64.7,71.4,64.7,71.4L64.7,71.4z M49.5,69.9h14.4L62,37.4h-9.6L49.5,69.9z"/>
<path class="st3" d="M67.1,44.4c-0.4,0-0.7-0.3-0.7-0.7l-0.2-2.8c0-0.4,0.3-0.8,0.7-0.8c0.4,0,0.8,0.3,0.8,0.7l0.2,2.8
	C67.9,44,67.6,44.4,67.1,44.4C67.2,44.4,67.2,44.4,67.1,44.4z"/>
<path class="st3" d="M68.2,63.2c-0.4,0-0.7-0.3-0.7-0.7l-0.9-15.4c0-0.4,0.3-0.8,0.7-0.8c0.4,0,0.8,0.3,0.8,0.7L69,62.4
	C69,62.8,68.7,63.2,68.2,63.2C68.3,63.2,68.3,63.2,68.2,63.2z"/>
<path class="st3" d="M48.7,71.4h-11c-0.4,0-0.7-0.3-0.7-0.8c0,0,0-0.1,0-0.1l3-27c0-0.4,0.4-0.7,0.7-0.7h10.4c0.4,0,0.8,0.3,0.8,0.7
	c0,0,0,0,0,0.1l-2.4,27C49.4,71.1,49.1,71.4,48.7,71.4z M38.6,69.9H48l2.2-25.5h-8.9L38.6,69.9z"/>
<path class="st3" d="M37.7,71.4h-10c-0.4,0-0.7-0.3-0.7-0.7c0,0,0-0.1,0-0.1l3-20c0.1-0.4,0.4-0.6,0.7-0.6H40c0.4,0,0.7,0.3,0.7,0.8
	c0,0,0,0.1,0,0.1l-2.2,20C38.4,71.1,38.1,71.4,37.7,71.4z M28.6,69.9h8.5l2.1-18.5h-7.7L28.6,69.9z"/>
<path class="st3" d="M27.7,71.4h-11c-0.4,0-0.7-0.3-0.7-0.8c0-0.1,0-0.1,0-0.2l3-13c0.1-0.3,0.4-0.6,0.7-0.6h9.9
	c0.4,0,0.7,0.3,0.7,0.8c0,0,0,0.1,0,0.1l-2,13C28.4,71.1,28.1,71.4,27.7,71.4z M17.7,69.9h9.4l1.7-11.5h-8.5L17.7,69.9z"/>
<path class="st3" d="M16.7,71.4h-10c-0.4,0-0.7-0.3-0.7-0.8c0-0.1,0-0.2,0.1-0.3l3-6c0.1-0.3,0.4-0.4,0.7-0.4h8.4
	c0.4,0,0.7,0.3,0.7,0.8c0,0.1,0,0.1,0,0.2l-1.4,6C17.4,71.1,17.1,71.4,16.7,71.4z M7.9,69.9h8.2l1-4.5h-7L7.9,69.9z"/>
<path class="st1" d="M7.8,17.8c-0.6-1-0.2-2.4,0.8-3c0.8-0.5,1.8-0.4,2.5,0.3c0.3-2.2,2.2-3.7,4.4-3.4s3.7,2.2,3.4,4.4
	c0,0.1,0,0.2,0,0.2c0.2,0,0.5-0.1,0.7-0.1c1.8,0,3.3,1.5,3.3,3.3c0,1.8-1.5,3.3-3.3,3.3H8.3c-1.4,0-2.6-1.2-2.6-2.6
	C5.7,19.1,6.6,18,7.8,17.8z"/>
<path class="st4" d="M23,19.5c0-1.8-1.5-3.3-3.3-3.3c-0.2,0-0.5,0-0.7,0.1c0.1-0.5,0.1-1.1-0.1-1.6c-1.9,0.1-3.5,1.5-3.7,3.4
	c-0.9-0.8-2.3-0.7-3.1,0.1c-0.6,0.7-0.7,1.7-0.3,2.5c-1.1,0.2-1.9,1-2.1,2.1h9.9C21.5,22.9,23,21.4,23,19.5z"/>
<path class="st3" d="M19.6,23.6H8.3c-1.8,0-3.3-1.5-3.3-3.3c0-1.3,0.7-2.4,1.9-3c-0.3-1.6,0.7-3.1,2.3-3.5c0.2,0,0.4-0.1,0.6-0.1
	c0.3,0,0.7,0.1,1,0.2c0.9-2.4,3.6-3.6,6-2.7c1.8,0.7,3,2.4,3,4.3c2.2,0.1,4,2,3.9,4.2C23.6,21.9,21.8,23.6,19.6,23.6L19.6,23.6z
	 M9.7,15.2c-0.8,0-1.4,0.6-1.4,1.4c0,0.2,0.1,0.5,0.2,0.7c0.2,0.4,0.1,0.8-0.3,1c-0.1,0-0.1,0.1-0.2,0.1c-1,0.2-1.6,1.1-1.4,2.1
	c0.2,0.9,0.9,1.5,1.8,1.5h11.3c1.4,0,2.6-1.1,2.6-2.6c0-1.4-1.1-2.6-2.6-2.6c-0.2,0-0.4,0-0.5,0.1c-0.4,0.1-0.8-0.2-0.9-0.6
	c0-0.1,0-0.2,0-0.3c0-0.2,0.1-0.4,0.1-0.6c0-1.8-1.4-3.2-3.2-3.2c-1.6,0-3,1.2-3.2,2.8c-0.1,0.4-0.4,0.7-0.8,0.6
	c-0.2,0-0.3-0.1-0.4-0.2C10.4,15.4,10.1,15.2,9.7,15.2z"/>
<path class="st1" d="M24.8,29.8c-0.2-0.3-0.3-0.7-0.3-1.1c0-1.2,1-2.2,2.2-2.2c0.5,0,1.1,0.2,1.5,0.6c0.3-2.2,2.3-3.7,4.4-3.4
	c2,0.3,3.4,1.9,3.4,3.9c0,0.2,0,0.5-0.1,0.7c0.2,0,0.5-0.1,0.7-0.1c1.8,0,3.3,1.5,3.3,3.3s-1.5,3.3-3.3,3.3c0,0,0,0,0,0H25.3
	c-1.4,0-2.6-1.2-2.6-2.6C22.7,31.1,23.6,30,24.8,29.8L24.8,29.8z"/>
<path class="st4" d="M40,31.5c0-1.8-1.5-3.3-3.3-3.3c-0.2,0-0.5,0-0.7,0.1c0-0.2,0.1-0.5,0.1-0.7c0-0.3,0-0.6-0.1-0.9
	c-1.9,0.1-3.5,1.5-3.7,3.4c-0.9-0.8-2.3-0.7-3.1,0.1c-0.6,0.7-0.7,1.7-0.3,2.5c-1.1,0.2-1.9,1-2.1,2.1h9.9
	C38.5,34.9,40,33.4,40,31.5C40,31.5,40,31.5,40,31.5z"/>
<path class="st3" d="M36.6,35.6H25.3c-1.8,0-3.3-1.5-3.3-3.3c0-1.3,0.7-2.4,1.9-3c-0.3-1.6,0.7-3.1,2.3-3.5c0.5-0.1,1.1-0.1,1.6,0.1
	c0.9-2.4,3.6-3.6,6-2.7c1.8,0.7,3,2.4,3,4.3c2.2,0.1,4,2,3.9,4.2C40.6,33.9,38.8,35.6,36.6,35.6L36.6,35.6z M26.7,27.2
	c-0.8,0-1.4,0.6-1.4,1.4c0,0.2,0.1,0.5,0.2,0.7c0.2,0.4,0.1,0.8-0.3,1c-0.1,0-0.1,0.1-0.2,0.1c-1,0.2-1.6,1.1-1.4,2.1
	c0.2,0.9,0.9,1.5,1.8,1.5h11.3c1.4,0,2.6-1.1,2.6-2.6c0-1.4-1.1-2.6-2.6-2.6c-0.2,0-0.4,0-0.5,0.1c-0.2,0.1-0.5,0-0.7-0.2
	c-0.2-0.2-0.3-0.4-0.2-0.7c0-0.2,0.1-0.4,0.1-0.6c0-1.8-1.4-3.2-3.2-3.2c-1.6,0-3,1.2-3.2,2.8c-0.1,0.4-0.4,0.7-0.8,0.6
	c-0.2,0-0.3-0.1-0.4-0.2C27.4,27.4,27.1,27.2,26.7,27.2L26.7,27.2z"/>
<path class="st1" d="M11.8,44.8c-0.6-1-0.2-2.4,0.8-3c0.8-0.5,1.9-0.4,2.5,0.3c0.3-2.2,2.2-3.7,4.4-3.4c2.2,0.3,3.7,2.2,3.4,4.4
	c0,0.1,0,0.2,0,0.2c0.2,0,0.5-0.1,0.7-0.1c1.8,0,3.3,1.5,3.3,3.3c0,1.8-1.5,3.3-3.3,3.3l0,0H12.3c-1.4,0-2.6-1.2-2.6-2.6
	C9.7,46.1,10.6,45,11.8,44.8z"/>
<path class="st4" d="M27,46.5c0-1.8-1.5-3.3-3.3-3.3c-0.2,0-0.5,0-0.7,0.1c0-0.2,0.1-0.5,0.1-0.7c0-0.3,0-0.6-0.1-0.9
	c-1.9,0.1-3.5,1.5-3.7,3.4c-0.9-0.8-2.3-0.7-3.1,0.1c-0.6,0.7-0.8,1.7-0.3,2.5c-1.1,0.2-1.9,1-2.1,2.1h9.9
	C25.5,49.9,27,48.4,27,46.5z"/>
<path class="st3" d="M23.6,50.6H12.3c-1.8,0-3.3-1.5-3.3-3.3c0-1.3,0.7-2.4,1.9-3c-0.3-1.6,0.7-3.1,2.3-3.5c0.2,0,0.4-0.1,0.6-0.1
	c0.3,0,0.7,0.1,1,0.2c0.9-2.4,3.6-3.6,6-2.7c1.8,0.7,3,2.4,3,4.3c2.2,0.1,4,1.9,4,4.2C27.7,48.9,25.9,50.6,23.6,50.6L23.6,50.6z
	 M13.7,42.2c-0.8,0-1.4,0.6-1.4,1.4c0,0.2,0.1,0.5,0.2,0.7c0.2,0.4,0.1,0.8-0.3,1c-0.1,0-0.1,0.1-0.2,0.1c-1,0.2-1.6,1.1-1.4,2.1
	c0.2,0.9,0.9,1.5,1.8,1.5h11.3c1.4,0,2.6-1.2,2.6-2.6c0-1.4-1.1-2.6-2.5-2.6c-0.2,0-0.4,0-0.6,0.1c-0.4,0.1-0.8-0.2-0.9-0.6
	c0-0.1,0-0.2,0-0.3c0-0.2,0.1-0.4,0.1-0.6c0-1.8-1.4-3.2-3.2-3.2c-1.6,0-3,1.2-3.2,2.8c-0.1,0.4-0.4,0.7-0.8,0.6
	c-0.2,0-0.3-0.1-0.4-0.2C14.4,42.4,14.1,42.2,13.7,42.2z"/>
<circle class="st1" cx="56.7" cy="19.6" r="13"/>
<path class="st2" d="M56.7,6.6c-0.6,0-1.3,0.1-1.9,0.2c6.6,2.8,9.7,10.4,6.9,17C60,28,56.2,31,51.7,31.6c6.6,2.8,14.2-0.3,17-6.9
	c2.8-6.6-0.3-14.2-6.9-17C60.2,7,58.5,6.6,56.7,6.6z"/>
<path class="st3" d="M56.7,33.4c-7.6,0-13.8-6.2-13.8-13.8S49.1,5.9,56.7,5.9S70.5,12,70.5,19.6C70.5,27.2,64.3,33.4,56.7,33.4z
	 M56.7,7.4c-6.8,0-12.2,5.5-12.2,12.2S50,31.9,56.7,31.9S69,26.4,69,19.6C69,12.9,63.5,7.4,56.7,7.4z"/>
<polygon class="st1" points="65,17.8 61.7,14.5 55.3,20.8 51.8,17.3 48.5,20.6 55.3,27.5 "/>
<path class="st3" d="M55.3,28.2c-0.2,0-0.4-0.1-0.5-0.2l-6.9-6.9c-0.3-0.3-0.3-0.8,0-1.1l3.3-3.3c0.3-0.3,0.8-0.3,1.1,0l3,3l5.8-5.8
	c0.3-0.3,0.8-0.3,1.1,0l3.3,3.3c0.3,0.3,0.3,0.8,0,1.1c0,0,0,0,0,0L55.8,28C55.7,28.2,55.5,28.3,55.3,28.2z M49.5,20.6l5.8,5.8
	l8.6-8.6l-2.3-2.3l-5.8,5.8c-0.3,0.3-0.8,0.3-1.1,0l-3-3L49.5,20.6z"/>
<path class="st3" d="M25.1,10.4h-1.4c-0.4,0-0.8-0.3-0.8-0.8s0.3-0.8,0.8-0.8h1.4c0.4,0,0.8,0.3,0.8,0.8S25.5,10.4,25.1,10.4z"/>
<path class="st3" d="M29.7,10.4h-1.4c-0.4,0-0.8-0.3-0.8-0.8s0.3-0.8,0.8-0.8h1.4c0.4,0,0.8,0.3,0.8,0.8S30.1,10.4,29.7,10.4z"/>
<path class="st3" d="M26.7,13.4c-0.4,0-0.8-0.3-0.8-0.8v-1.4c0-0.4,0.3-0.8,0.8-0.8s0.8,0.3,0.8,0.8v1.4
	C27.5,13.1,27.1,13.4,26.7,13.4C26.7,13.4,26.7,13.4,26.7,13.4z"/>
<path class="st3" d="M26.7,8.8c-0.4,0-0.8-0.3-0.8-0.8V6.7c0-0.4,0.3-0.8,0.8-0.8s0.8,0.3,0.8,0.8v1.4C27.5,8.5,27.1,8.8,26.7,8.8z"
	/>
<path class="st3" d="M35.1,18.4h-1.4c-0.4,0-0.8-0.3-0.8-0.8s0.3-0.8,0.8-0.8h1.4c0.4,0,0.8,0.3,0.8,0.8S35.5,18.4,35.1,18.4z"/>
<path class="st3" d="M39.7,18.4h-1.4c-0.4,0-0.8-0.3-0.8-0.8s0.3-0.8,0.8-0.8h1.4c0.4,0,0.8,0.3,0.8,0.8S40.1,18.4,39.7,18.4z"/>
<path class="st3" d="M36.7,21.4c-0.4,0-0.8-0.3-0.8-0.8v-1.4c0-0.4,0.3-0.8,0.8-0.8s0.8,0.3,0.8,0.8v1.4
	C37.5,21.1,37.1,21.4,36.7,21.4z"/>
<path class="st3" d="M36.7,16.8c-0.4,0-0.8-0.3-0.8-0.8v-1.4c0-0.4,0.3-0.8,0.8-0.8s0.8,0.3,0.8,0.8v1.4
	C37.5,16.5,37.1,16.8,36.7,16.8z"/>
<path class="st3" d="M9.1,31.4H7.7c-0.4,0-0.8-0.3-0.8-0.8s0.3-0.8,0.8-0.8h1.4c0.4,0,0.8,0.3,0.8,0.8S9.5,31.4,9.1,31.4z"/>
<path class="st3" d="M13.7,31.4h-1.4c-0.4,0-0.8-0.3-0.8-0.8s0.3-0.8,0.8-0.8h1.4c0.4,0,0.8,0.3,0.8,0.8S14.1,31.4,13.7,31.4
	L13.7,31.4z"/>
<path class="st3" d="M10.7,34.4c-0.4,0-0.8-0.3-0.8-0.8v-1.4c0-0.4,0.3-0.8,0.8-0.8s0.8,0.3,0.8,0.8v1.4
	C11.5,34.1,11.1,34.4,10.7,34.4z"/>
<path class="st3" d="M10.7,29.8c-0.4,0-0.8-0.3-0.8-0.8v-1.4c0-0.4,0.3-0.8,0.8-0.8s0.8,0.3,0.8,0.8v1.4
	C11.5,29.5,11.1,29.8,10.7,29.8z"/>
</svg>
