<svg xmlns="http://www.w3.org/2000/svg" xmlns:xlink="http://www.w3.org/1999/xlink" viewBox="0 0 953.93 715.94"><defs><style>.cls-1{fill:#ebf2ff;}.cls-2{fill:#c7d9f8;}.cls-3{fill:#e0eaff;}.cls-4{fill:url(#Безымянный_градиент_12);}.cls-5{fill:url(#Безымянный_градиент_2);}.cls-6{fill:url(#Безымянный_градиент_2-2);}.cls-7{fill:#b5caf4;}.cls-23,.cls-8{fill:#628cd2;}.cls-19,.cls-38,.cls-8{opacity:0.5;}.cls-9{fill:url(#Безымянный_градиент_22);}.cls-10{fill:url(#Безымянный_градиент_12-2);}.cls-11{fill:#a7c1ff;}.cls-12{fill:#95baef;}.cls-13{fill:url(#Безымянный_градиент_18);}.cls-14{fill:#2228a5;}.cls-15{fill:#2c49a1;}.cls-16{fill:#c6d8f7;}.cls-17{fill:#8da4fc;}.cls-18{fill:#3863ac;}.cls-20,.cls-29{fill:#fff;}.cls-21{opacity:0.85;}.cls-22{fill:#e4eeff;}.cls-24,.cls-51{fill:#ed2425;}.cls-25,.cls-48,.cls-56{fill:#2c49a2;}.cls-26{fill:#1a317a;}.cls-27{fill:#fa8b17;}.cls-28{fill:url(#linear-gradient);}.cls-29{opacity:0;}.cls-30{fill:#fcfdff;opacity:0.06;}.cls-31{fill:#f9fbfe;opacity:0.11;}.cls-32{fill:#f5f8fe;opacity:0.17;}.cls-33{fill:#f2f6fd;opacity:0.22;}.cls-34{fill:#eff4fd;opacity:0.28;}.cls-35{fill:#ecf2fc;opacity:0.33;}.cls-36{fill:#e9f0fc;opacity:0.39;}.cls-37{fill:#e6eefb;opacity:0.44;}.cls-38{fill:#e3ecfb;}.cls-39{fill:#dfe9fb;opacity:0.56;}.cls-40{fill:#dce7fa;opacity:0.61;}.cls-41{fill:#d9e5fa;opacity:0.67;}.cls-42{fill:#d6e3f9;opacity:0.72;}.cls-43{fill:#d3e1f9;opacity:0.78;}.cls-44{fill:#d0dff8;opacity:0.83;}.cls-45{fill:#ccdcf8;opacity:0.89;}.cls-46{fill:#c9daf7;opacity:0.94;}.cls-47{fill:url(#Безымянный_градиент_18-2);}.cls-48{opacity:0.75;}.cls-49{fill:#fac4b6;}.cls-50{fill:#f4b2a5;}.cls-51{opacity:0.7;}.cls-52{fill:url(#Безымянный_градиент_18-3);}.cls-53{fill:url(#Безымянный_градиент_4);}.cls-54{fill:url(#Безымянный_градиент_18-4);}.cls-55{fill:url(#Безымянный_градиент_4-2);}.cls-56{opacity:0.56;}.cls-57{fill:url(#Безымянный_градиент_5);}.cls-58{opacity:0.55;fill:url(#Безымянный_градиент_105);}.cls-59{fill:url(#Безымянный_градиент_105-2);}.cls-60{fill:red;}.cls-61{opacity:0.35;}.cls-62{fill:url(#linear-gradient-2);}</style><linearGradient id="&#x411;&#x435;&#x437;&#x44B;&#x43C;&#x44F;&#x43D;&#x43D;&#x44B;&#x439;_&#x433;&#x440;&#x430;&#x434;&#x438;&#x435;&#x43D;&#x442;_12" x1="358.63" y1="455.56" x2="358.63" y2="225.32" gradientTransform="matrix(-0.94, -0.35, -0.35, 0.94, 1238.55, 109.94)" gradientUnits="userSpaceOnUse"><stop offset="0" stop-color="#628cd2"></stop><stop offset="1" stop-color="#a7c1ff" stop-opacity="0.5"></stop></linearGradient><linearGradient id="&#x411;&#x435;&#x437;&#x44B;&#x43C;&#x44F;&#x43D;&#x43D;&#x44B;&#x439;_&#x433;&#x440;&#x430;&#x434;&#x438;&#x435;&#x43D;&#x442;_2" x1="654.72" y1="725.2" x2="699.33" y2="725.2" gradientTransform="matrix(-1, 0.01, 0.01, 1, 1351.92, -472.66)" gradientUnits="userSpaceOnUse"><stop offset="0" stop-color="#628cd2"></stop><stop offset="1" stop-color="#a7c1ff"></stop></linearGradient><linearGradient id="&#x411;&#x435;&#x437;&#x44B;&#x43C;&#x44F;&#x43D;&#x43D;&#x44B;&#x439;_&#x433;&#x440;&#x430;&#x434;&#x438;&#x435;&#x43D;&#x442;_2-2" x1="319.73" y1="262.81" x2="329.15" y2="262.81" gradientTransform="matrix(1, 0, 0, 1, 0, 0)" xlink:href="#&#x411;&#x435;&#x437;&#x44B;&#x43C;&#x44F;&#x43D;&#x43D;&#x44B;&#x439;_&#x433;&#x440;&#x430;&#x434;&#x438;&#x435;&#x43D;&#x442;_2"></linearGradient><linearGradient id="&#x411;&#x435;&#x437;&#x44B;&#x43C;&#x44F;&#x43D;&#x43D;&#x44B;&#x439;_&#x433;&#x440;&#x430;&#x434;&#x438;&#x435;&#x43D;&#x442;_22" x1="-447.26" y1="824.34" x2="-302.39" y2="824.34" gradientTransform="matrix(0.49, 0.87, 0.87, -0.49, -30.51, 993.99)" gradientUnits="userSpaceOnUse"><stop offset="0" stop-color="#628cd2"></stop><stop offset="0.41" stop-color="#85a7e9"></stop><stop offset="0.78" stop-color="#9ebaf9"></stop><stop offset="1" stop-color="#a7c1ff"></stop></linearGradient><linearGradient id="&#x411;&#x435;&#x437;&#x44B;&#x43C;&#x44F;&#x43D;&#x43D;&#x44B;&#x439;_&#x433;&#x440;&#x430;&#x434;&#x438;&#x435;&#x43D;&#x442;_12-2" x1="236.56" y1="538.79" x2="236.56" y2="337.4" gradientTransform="translate(-108.57 35.13) rotate(-8.76)" xlink:href="#&#x411;&#x435;&#x437;&#x44B;&#x43C;&#x44F;&#x43D;&#x43D;&#x44B;&#x439;_&#x433;&#x440;&#x430;&#x434;&#x438;&#x435;&#x43D;&#x442;_12"></linearGradient><linearGradient id="&#x411;&#x435;&#x437;&#x44B;&#x43C;&#x44F;&#x43D;&#x43D;&#x44B;&#x439;_&#x433;&#x440;&#x430;&#x434;&#x438;&#x435;&#x43D;&#x442;_18" x1="442.87" y1="754.54" x2="442.87" y2="677.14" gradientTransform="translate(38.98 -153.68)" gradientUnits="userSpaceOnUse"><stop offset="0" stop-color="#2c49a1"></stop><stop offset="1"></stop></linearGradient><linearGradient id="linear-gradient" x1="99.94" y1="361.81" x2="99.94" y2="295.91" gradientTransform="matrix(0.99, 0, -0.32, 1.01, 220.55, 2.59)" gradientUnits="userSpaceOnUse"><stop offset="0" stop-color="#ed2425"></stop><stop offset="0.18" stop-color="#ce2539"></stop><stop offset="0.58" stop-color="#7d266b"></stop><stop offset="1" stop-color="#2228a5"></stop></linearGradient><linearGradient id="&#x411;&#x435;&#x437;&#x44B;&#x43C;&#x44F;&#x43D;&#x43D;&#x44B;&#x439;_&#x433;&#x440;&#x430;&#x434;&#x438;&#x435;&#x43D;&#x442;_18-2" x1="201.48" y1="600.92" x2="456.15" y2="600.92" gradientTransform="matrix(1, 0, 0, 1, 0, 0)" xlink:href="#&#x411;&#x435;&#x437;&#x44B;&#x43C;&#x44F;&#x43D;&#x43D;&#x44B;&#x439;_&#x433;&#x440;&#x430;&#x434;&#x438;&#x435;&#x43D;&#x442;_18"></linearGradient><linearGradient id="&#x411;&#x435;&#x437;&#x44B;&#x43C;&#x44F;&#x43D;&#x43D;&#x44B;&#x439;_&#x433;&#x440;&#x430;&#x434;&#x438;&#x435;&#x43D;&#x442;_18-3" x1="406.46" y1="825.06" x2="493.66" y2="825.06" gradientTransform="matrix(1, 0, 0, 1, 0, 0)" xlink:href="#&#x411;&#x435;&#x437;&#x44B;&#x43C;&#x44F;&#x43D;&#x43D;&#x44B;&#x439;_&#x433;&#x440;&#x430;&#x434;&#x438;&#x435;&#x43D;&#x442;_18"></linearGradient><linearGradient id="&#x411;&#x435;&#x437;&#x44B;&#x43C;&#x44F;&#x43D;&#x43D;&#x44B;&#x439;_&#x433;&#x440;&#x430;&#x434;&#x438;&#x435;&#x43D;&#x442;_4" x1="345.1" y1="730.13" x2="447.52" y2="730.13" gradientUnits="userSpaceOnUse"><stop offset="0" stop-color="#2c49a2"></stop><stop offset="0.06" stop-color="#2b479c"></stop><stop offset="0.46" stop-color="#273c7a"></stop><stop offset="0.79" stop-color="#253565"></stop><stop offset="1" stop-color="#24325d"></stop></linearGradient><linearGradient id="&#x411;&#x435;&#x437;&#x44B;&#x43C;&#x44F;&#x43D;&#x43D;&#x44B;&#x439;_&#x433;&#x440;&#x430;&#x434;&#x438;&#x435;&#x43D;&#x442;_18-4" x1="399.66" y1="1377.73" x2="486.29" y2="1377.73" gradientTransform="matrix(0.64, -0.77, 0.77, 0.64, -798, 260.63)" xlink:href="#&#x411;&#x435;&#x437;&#x44B;&#x43C;&#x44F;&#x43D;&#x43D;&#x44B;&#x439;_&#x433;&#x440;&#x430;&#x434;&#x438;&#x435;&#x43D;&#x442;_18"></linearGradient><linearGradient id="&#x411;&#x435;&#x437;&#x44B;&#x43C;&#x44F;&#x43D;&#x43D;&#x44B;&#x439;_&#x433;&#x440;&#x430;&#x434;&#x438;&#x435;&#x43D;&#x442;_4-2" x1="275.33" y1="729.2" x2="505.64" y2="729.2" xlink:href="#&#x411;&#x435;&#x437;&#x44B;&#x43C;&#x44F;&#x43D;&#x43D;&#x44B;&#x439;_&#x433;&#x440;&#x430;&#x434;&#x438;&#x435;&#x43D;&#x442;_4"></linearGradient><linearGradient id="&#x411;&#x435;&#x437;&#x44B;&#x43C;&#x44F;&#x43D;&#x43D;&#x44B;&#x439;_&#x433;&#x440;&#x430;&#x434;&#x438;&#x435;&#x43D;&#x442;_5" x1="477.75" y1="558.94" x2="372.73" y2="663.95" gradientTransform="translate(-26.94 17.95) rotate(-2.52)" gradientUnits="userSpaceOnUse"><stop offset="0" stop-color="#fff"></stop><stop offset="0.2" stop-color="#fafcff"></stop><stop offset="0.42" stop-color="#edf2ff"></stop><stop offset="0.65" stop-color="#d6e2ff"></stop><stop offset="0.89" stop-color="#b7ccff"></stop><stop offset="1" stop-color="#a7c1ff"></stop></linearGradient><linearGradient id="&#x411;&#x435;&#x437;&#x44B;&#x43C;&#x44F;&#x43D;&#x43D;&#x44B;&#x439;_&#x433;&#x440;&#x430;&#x434;&#x438;&#x435;&#x43D;&#x442;_105" x1="267.79" y1="455.79" x2="328.82" y2="455.79" gradientUnits="userSpaceOnUse"><stop offset="0"></stop><stop offset="0.2" stop-color="#0a1023"></stop><stop offset="0.58" stop-color="#1c2d5f"></stop><stop offset="0.85" stop-color="#273e85"></stop><stop offset="1" stop-color="#2b4593"></stop></linearGradient><linearGradient id="&#x411;&#x435;&#x437;&#x44B;&#x43C;&#x44F;&#x43D;&#x43D;&#x44B;&#x439;_&#x433;&#x440;&#x430;&#x434;&#x438;&#x435;&#x43D;&#x442;_105-2" x1="272.86" y1="448.97" x2="340.12" y2="421.12" xlink:href="#&#x411;&#x435;&#x437;&#x44B;&#x43C;&#x44F;&#x43D;&#x43D;&#x44B;&#x439;_&#x433;&#x440;&#x430;&#x434;&#x438;&#x435;&#x43D;&#x442;_105"></linearGradient><linearGradient id="linear-gradient-2" x1="842.19" y1="549.68" x2="772.68" y2="509.56" gradientUnits="userSpaceOnUse"><stop offset="0" stop-color="red"></stop><stop offset="0.09" stop-color="#ff0d0d"></stop><stop offset="0.26" stop-color="#ff3030"></stop><stop offset="0.48" stop-color="#ff6969"></stop><stop offset="0.76" stop-color="#ffb5b5"></stop><stop offset="1" stop-color="#fff"></stop></linearGradient></defs><g id="Layer_1" data-name="Layer 1"><path class="cls-1" d="M362.84,792.79C265,786.42,62.11,811.58,52.06,545.05,45.9,381.58,251.69,295.86,299.68,270s115.45-142.21,286.9-111.1c152.6,27.69,174.92,127,214.49,293.2C825.06,552.9,964,563.78,953.89,673.94,944.49,776.43,782.05,820.06,362.84,792.79Z" transform="translate(-30.62 -153.68)"></path><path class="cls-2" d="M724.54,373.55s-15.12-31.46,6.75-67.74,38-44.87,40.29-46.81,11.84-25.11,26.76-31.32,48.62-36.29,63.17-20-2.39,39.23-8.06,48.64-13,13.05-19.1,23.48-25.19,2.59-31.57,16.52,11.56,25.76-45.89,73.11C742,381.73,726.69,379.48,724.54,373.55Z" transform="translate(-30.62 -153.68)"></path><path class="cls-3" d="M867,219.22a24.19,24.19,0,0,1,.27,3.29c-5.82-1.41-11.2-3.21-11.25-5S861.23,217.1,867,219.22Z" transform="translate(-30.62 -153.68)"></path><path class="cls-3" d="M839,228.24c2.46-1,15.85,2.37,26.44,5.28a60.52,60.52,0,0,1-3.26,7.91C850.88,237.21,836.08,229.37,839,228.24Z" transform="translate(-30.62 -153.68)"></path><path class="cls-3" d="M831.65,236.25c.27-.71,15.09,9.27,24.51,15.71-1,1.65-2,3.12-2.71,4.35s-1.33,2.09-2,3.05C842.88,251.85,831.39,237,831.65,236.25Z" transform="translate(-30.62 -153.68)"></path><path class="cls-3" d="M822.7,240.1c2.89-2.93,15.11,13.82,24.32,24.5-2,2.1-4,4.09-6,6.3C832.53,260.26,820.61,242.21,822.7,240.1Z" transform="translate(-30.62 -153.68)"></path><path class="cls-3" d="M836.45,276.53c-.69,1-1.37,2-2,3.17-10.65-7.9-26.18-26-24.22-26C811.79,253.79,828.05,267.85,836.45,276.53Z" transform="translate(-30.62 -153.68)"></path><path class="cls-3" d="M807.77,290.36a16.05,16.05,0,0,0-1.47,1.14c-6.55-7-19.31-21.51-15.06-24.12S803.82,281.68,807.77,290.36Z" transform="translate(-30.62 -153.68)"></path><path class="cls-3" d="M815.61,287.32l-1,.24c-4.09-5.57-14.7-20.67-11.47-23.35C806.54,261.39,813.65,280.38,815.61,287.32Z" transform="translate(-30.62 -153.68)"></path><path class="cls-3" d="M801.22,302.54c-.23,2.46-.18,5-.37,7.91-12.91-6.29-33-16.83-31.38-20.56S790,296.12,801.22,302.54Z" transform="translate(-30.62 -153.68)"></path><path class="cls-3" d="M798.21,322.5a51.29,51.29,0,0,1-3.12,6.45c-10.53-8.74-30.3-25.57-29.61-28.23S786.49,313.43,798.21,322.5Z" transform="translate(-30.62 -153.68)"></path><path class="cls-3" d="M784.67,343.21c-2.7,3.09-5.84,6.41-9.52,10-6.6-10-19.27-30.45-16.24-34.67C762.11,314.09,776.7,331.34,784.67,343.21Z" transform="translate(-30.62 -153.68)"></path><path class="cls-3" d="M752.28,372.74a36.91,36.91,0,0,1-11.42,4.91c1-14.58,3.17-35.12,7.82-36.71C754.14,339.07,753.12,361.5,752.28,372.74Z" transform="translate(-30.62 -153.68)"></path><path class="cls-3" d="M741.06,313.86c-.1,8.15-13.07,16.53-20.58,20.7a78.49,78.49,0,0,1,2.88-11.6C732.12,314.71,741.14,307.58,741.06,313.86Z" transform="translate(-30.62 -153.68)"></path><path class="cls-3" d="M740.11,292.15q1.26-1.81,2.49-3.51c14-4.06,16-5.89,15.08-2.29C757,289,748.15,289.74,740.11,292.15Z" transform="translate(-30.62 -153.68)"></path><path class="cls-3" d="M763.06,265.57c7.88-1,15-1.51,11.78.34-4.93,2.83-10.85,3.58-16,3.53C760.39,268,761.78,266.68,763.06,265.57Z" transform="translate(-30.62 -153.68)"></path><path class="cls-3" d="M775.14,253.25c8.55-1.12,17.09-1.88,13.6.12-4.85,2.77-10.64,3.54-15.69,3.52C773.63,255.92,774.32,254.68,775.14,253.25Z" transform="translate(-30.62 -153.68)"></path><path class="cls-3" d="M789.27,233.86c3.21,1.77,6.31,4.15,4.89,6.26-1.56,2.32-5.22-.4-8-3Q787.65,235.4,789.27,233.86Z" transform="translate(-30.62 -153.68)"></path><path class="cls-3" d="M800.68,226.58c2.11-1.06,4.49-2.44,7.06-4,2,3.5,3.55,8.13.85,9.55S802.86,229.85,800.68,226.58Z" transform="translate(-30.62 -153.68)"></path><path class="cls-3" d="M835.49,206.65a58.32,58.32,0,0,1,6-2.27c-1.39,5.18-3.22,10-4.37,10.5C835.79,215.5,835.12,211.58,835.49,206.65Z" transform="translate(-30.62 -153.68)"></path><path class="cls-3" d="M818.79,225.47c-1.45-.9.71-6.51,3.08-11.64,1.17-.7,2.35-1.39,3.54-2.06C823.8,220.64,821,226.85,818.79,225.47Z" transform="translate(-30.62 -153.68)"></path><path class="cls-4" d="M717,403.35a.86.86,0,0,0,.23.06,1.47,1.47,0,0,0,1.74-1.17c15.19-77.54,51.61-125.19,79.48-151.52,30.15-28.48,57-38.76,57.25-38.86a1.49,1.49,0,1,0-1.05-2.79c-.27.1-27.66,10.6-58.25,39.49-28.18,26.62-65,74.8-80.35,153.11A1.49,1.49,0,0,0,717,403.35Z" transform="translate(-30.62 -153.68)"></path><path class="cls-2" d="M699.25,277.72s17.26-27.2-9-46.34-44.76-10.5-44.76-10.5S644.51,284.09,699.25,277.72Z" transform="translate(-30.62 -153.68)"></path><path class="cls-5" d="M707.35,292l.24,0a.93.93,0,0,0,.64-1.15c-6.36-22.66-42.32-56.44-43.84-57.87a.93.93,0,1,0-1.27,1.36c.37.34,37.1,34.85,43.32,57A.93.93,0,0,0,707.35,292Z" transform="translate(-30.62 -153.68)"></path><path class="cls-3" d="M322.33,283s-29.08-13.42-17.42-43.59,31.74-32.9,31.74-32.9S371.51,258.85,322.33,283Z" transform="translate(-30.62 -153.68)"></path><path class="cls-6" d="M323.26,299.34a.74.74,0,0,1-.22.1.92.92,0,0,1-1.15-.61c-6.9-22.37,4.93-70,5.44-72a.93.93,0,0,1,1.12-.67.94.94,0,0,1,.67,1.13c-.12.48-12.21,49.12-5.47,71A.92.92,0,0,1,323.26,299.34Z" transform="translate(-30.62 -153.68)"></path><path class="cls-7" d="M765.78,631.56a2.55,2.55,0,0,0,.24.63,2.62,2.62,0,0,0,3.54,1.07C827.84,602.07,898.7,483,901.69,478a2.61,2.61,0,0,0-4.49-2.65c-.73,1.22-73.11,122.82-130.11,153.32A2.62,2.62,0,0,0,765.78,631.56Z" transform="translate(-30.62 -153.68)"></path><path class="cls-2" d="M800.05,600.68s85,30.85,121.56-52.84,1.69-129.09,1.69-129.09S749.42,454.46,800.05,600.68Z" transform="translate(-30.62 -153.68)"></path><path class="cls-2" d="M182.35,543.92s52.76-52.18,2.8-107.91S89,390.42,89,390.42,55.16,531.06,182.35,543.92Z" transform="translate(-30.62 -153.68)"></path><path class="cls-8" d="M133.3,474.19c-31.94-43-39.72-72.27-41.61-84.16-1.71.19-2.66.39-2.66.39s-.31,1.27-.75,3.57c2.75,14,11.84,42.16,41.8,82.52,26.41,35.58,42.52,56.43,51,67.26.41.05.81.11,1.23.15,0,0,.81-.8,2.12-2.29C176,530.91,159.91,510,133.3,474.19Z" transform="translate(-30.62 -153.68)"></path><path class="cls-7" d="M278.29,644.18s14.08-100.95-86.73-121.6S48.9,551,48.9,551,129,734.24,278.29,644.18Z" transform="translate(-30.62 -153.68)"></path><path class="cls-8" d="M166.82,607.3C96.21,585.9,63.42,560,51.47,548.36,49.76,550,48.9,551,48.9,551s.72,1.66,2.15,4.57c14.62,13.19,48,36.9,114.2,57,58.37,17.69,93.27,27.55,111.57,32.53.49-.29,1-.55,1.47-.85,0,0,.21-1.54.4-4.27C260.59,635,225.64,625.12,166.82,607.3Z" transform="translate(-30.62 -153.68)"></path><path class="cls-9" d="M598.47,287.11a1.81,1.81,0,0,0-2.3-.75c-70.73,31.46-116.53,19.22-142.5,3.41s-40.75-41.33-41.75-58.28a1.8,1.8,0,0,0-3.59.21c1,17.33,15.06,43.86,43.47,61.15,26.7,16.25,73.68,28.89,145.84-3.21a1.79,1.79,0,0,0,.91-2.37A.8.8,0,0,0,598.47,287.11Z" transform="translate(-30.62 -153.68)"></path><path class="cls-2" d="M401.59,174.29s-.21,62.18,8.81,65.33C419.72,242.87,401.59,174.29,401.59,174.29Z" transform="translate(-30.62 -153.68)"></path><path class="cls-2" d="M375.21,191S410,246,411.59,243.43,394.08,212.68,375.21,191Z" transform="translate(-30.62 -153.68)"></path><path class="cls-2" d="M365.14,213.94a122.3,122.3,0,0,1,31,19.32c14.92,12.91,20.67,19.29,20.67,19.29s-15.83-6.52-25.51-14.47S365.14,213.94,365.14,213.94Z" transform="translate(-30.62 -153.68)"></path><path class="cls-2" d="M359.62,236.4s25.59,7.43,35.68,12.44,26.06,11.8,26.06,11.8-18.15-3.43-27.9-6.89S359.62,236.4,359.62,236.4Z" transform="translate(-30.62 -153.68)"></path><path class="cls-2" d="M358.1,258.62s23.47-.56,35.81,1.74,29.24,8.22,29.24,8.22-20,.65-30.3-1.07S358.1,258.62,358.1,258.62Z" transform="translate(-30.62 -153.68)"></path><path class="cls-2" d="M362.73,277.71S393,271.94,404,272.24s26.28,4,26.28,4-13,3.93-26.2,3.15S362.73,277.71,362.73,277.71Z" transform="translate(-30.62 -153.68)"></path><path class="cls-2" d="M371.91,293.88s20.56-8.22,38.56-10.17,28.11-1.13,28.11-1.13-20.06,6.56-32.37,7.35S371.91,293.88,371.91,293.88Z" transform="translate(-30.62 -153.68)"></path><path class="cls-2" d="M383.77,307.49s13.37-8.63,37.3-13.25,27.2-3.71,27.2-3.71-22.65,11.13-30.25,12S383.77,307.49,383.77,307.49Z" transform="translate(-30.62 -153.68)"></path><path class="cls-2" d="M395.6,320.43s18.63-13.34,32.29-16.61S459,295.47,459,295.47s-18.48,11.18-30.07,15.35S395.6,320.43,395.6,320.43Z" transform="translate(-30.62 -153.68)"></path><path class="cls-2" d="M408.42,334.52A84.27,84.27,0,0,1,439.06,312c19.44-8.27,27.58-13.36,27.58-13.36S448.5,312.81,441,317.77,408.42,334.52,408.42,334.52Z" transform="translate(-30.62 -153.68)"></path><path class="cls-2" d="M423.32,341.93s13.05-14.65,24.87-22.39,27.11-15.4,27.11-15.4-10.37,12.1-21.74,20.62S423.32,341.93,423.32,341.93Z" transform="translate(-30.62 -153.68)"></path><path class="cls-2" d="M437.71,349.62s6-13.06,24-26.36,26-18.56,26-18.56-13.92,16.17-22.91,24S437.71,349.62,437.71,349.62Z" transform="translate(-30.62 -153.68)"></path><path class="cls-2" d="M454.68,356.19s5.19-13.64,16.08-23.61,28.56-26.21,28.56-26.21S487,325.08,478.56,334,454.68,356.19,454.68,356.19Z" transform="translate(-30.62 -153.68)"></path><path class="cls-2" d="M470.09,358.13s1.48-7.73,16.14-25,25.25-25.37,25.25-25.37-11.84,17.41-18.92,28.32S470.09,358.13,470.09,358.13Z" transform="translate(-30.62 -153.68)"></path><path class="cls-2" d="M488.38,361.19s-.31-6,11.67-23.17S524.8,305.7,524.8,305.7s-9.68,17.56-18.46,31.85A146,146,0,0,1,488.38,361.19Z" transform="translate(-30.62 -153.68)"></path><path class="cls-2" d="M508,356.93s-3.33-7.07,8.55-23.81,18.86-29.33,18.86-29.33-8.1,24.6-13.44,32.8S508,356.93,508,356.93Z" transform="translate(-30.62 -153.68)"></path><path class="cls-2" d="M524.1,356.09s.94-15.36,6.66-29a135.9,135.9,0,0,1,14.13-24.91s-3.59,21-7.88,31.37S524.1,356.09,524.1,356.09Z" transform="translate(-30.62 -153.68)"></path><path class="cls-2" d="M555.47,299s-6.05,7.57-11.72,24.92-2.56,25.24-2.56,25.24,4.27-10.7,9.22-26.26S555.47,299,555.47,299Z" transform="translate(-30.62 -153.68)"></path><path class="cls-2" d="M567.68,293.77S557.26,310,558,321.67a148.81,148.81,0,0,1,.1,19.6s6.93-18.76,6.42-23.3S567.68,293.77,567.68,293.77Z" transform="translate(-30.62 -153.68)"></path><path class="cls-2" d="M414.31,241.91s10.77-22,13.25-31,7.36-33.49,7.36-33.49-9.48,23.69-13.18,33.87S414.31,241.91,414.31,241.91Z" transform="translate(-30.62 -153.68)"></path><path class="cls-2" d="M416.77,252.55s11.34-26.08,13.85-32,10.92-22.06,14.81-24.62-7.83,25.39-10,30.1S416.77,252.55,416.77,252.55Z" transform="translate(-30.62 -153.68)"></path><path class="cls-2" d="M420.62,259.33s3.74-9.71,15.16-24.81S458.18,206,458.18,206s-12.85,28-18.16,33.41S420.62,259.33,420.62,259.33Z" transform="translate(-30.62 -153.68)"></path><path class="cls-2" d="M427.87,270s2.29-10.6,13.63-28.08a175,175,0,0,1,22.73-28.39s-15.42,31.14-20.44,36.57S427.87,270,427.87,270Z" transform="translate(-30.62 -153.68)"></path><path class="cls-2" d="M437.25,280.23c1.25-6.91,5.72-21.52,9.19-26.94s20-32.74,20-32.74-9.32,24.25-15.14,36.18A193.45,193.45,0,0,1,437.25,280.23Z" transform="translate(-30.62 -153.68)"></path><path class="cls-2" d="M446.64,287.66a159.56,159.56,0,0,1,11.14-33.22c8.2-17.75,12.84-26.58,12.84-26.58s-9.3,29.75-13.37,39.3A203.41,203.41,0,0,1,446.64,287.66Z" transform="translate(-30.62 -153.68)"></path><path class="cls-2" d="M459,295.47a81.65,81.65,0,0,1,4.07-29.89c5.32-16.13,12.22-35.56,12.22-35.56s-4.05,37.81-6.75,45.21S459,295.47,459,295.47Z" transform="translate(-30.62 -153.68)"></path><path class="cls-2" d="M473.68,301.27a62.54,62.54,0,0,1-1.36-28.19c2.78-16.06,8.22-39,8.22-39s-1.15,32.89-2.18,41.4S473.68,301.27,473.68,301.27Z" transform="translate(-30.62 -153.68)"></path><path class="cls-2" d="M484.48,303.3a64.73,64.73,0,0,1-3.81-29.79c1.8-16.88,2.46-34.84,2.46-34.84s6.51,34.24,5.79,38.44S484.48,303.3,484.48,303.3Z" transform="translate(-30.62 -153.68)"></path><path class="cls-2" d="M498.09,304.65s-6.16-18.57-6.11-27.91-.25-35.37-.25-35.37,5.58,29.12,6,36.68S498.09,304.65,498.09,304.65Z" transform="translate(-30.62 -153.68)"></path><path class="cls-2" d="M498.22,242.48s.3,29.08,3.83,40.74a226.27,226.27,0,0,0,8.1,22.17,152.19,152.19,0,0,0-2.5-25.35C505.23,268.19,498.22,242.48,498.22,242.48Z" transform="translate(-30.62 -153.68)"></path><path class="cls-2" d="M503.77,245.57s4.92,28.7,8.1,37.35,9.64,21.54,9.64,21.54S518.41,278.64,503.77,245.57Z" transform="translate(-30.62 -153.68)"></path><path class="cls-2" d="M508.71,246.37s8,24.64,16.17,43.07,9.82,13.05,9.82,13.05S524.59,271.3,508.71,246.37Z" transform="translate(-30.62 -153.68)"></path><path class="cls-2" d="M516.33,251.89s6.11,15.95,11.11,27,17.61,21.15,17.61,21.15-7.75-17.9-11.81-24.44S516.33,251.89,516.33,251.89Z" transform="translate(-30.62 -153.68)"></path><path class="cls-2" d="M524.27,252.53a127.29,127.29,0,0,0,14.17,25,84.68,84.68,0,0,0,20.15,19.71s-14.52-20.72-17.93-24.3S524.27,252.53,524.27,252.53Z" transform="translate(-30.62 -153.68)"></path><path class="cls-2" d="M537.81,256.94s4.61,13.59,10.27,21.75,17.76,14.39,17.76,14.39-10.75-13.94-14.37-17.87C545.47,268.68,537.81,256.94,537.81,256.94Z" transform="translate(-30.62 -153.68)"></path><path class="cls-2" d="M224.86,485.83s18.42-24.34,6-59.25S206,381.51,204.43,379.46s-5.79-23.58-17.5-31.5-35.37-39.56-50.67-28.13-4.77,34-1.55,43.09,8.88,13.45,12.3,23.45S168.15,393,171.2,406s-14.38,20.08,26.64,70.65C208.5,489.81,222,490.54,224.86,485.83Z" transform="translate(-30.62 -153.68)"></path><path class="cls-3" d="M129.54,328.77a22.59,22.59,0,0,0-.8,2.78c5.23-.2,10.16-.81,10.52-2.37S134.86,328,129.54,328.77Z" transform="translate(-30.62 -153.68)"></path><path class="cls-3" d="M152,341.38c-1.94-1.25-14-.72-23.59-.07a52.17,52.17,0,0,0,1.42,7.35C140.23,347,154.29,342.85,152,341.38Z" transform="translate(-30.62 -153.68)"></path><path class="cls-3" d="M156.88,349.52c-.1-.66-14.53,5.32-23.73,9.21.59,1.59,1.14,3,1.56,4.19s.79,2,1.22,3C144.55,360.94,157,350.18,156.88,349.52Z" transform="translate(-30.62 -153.68)"></path><path class="cls-3" d="M163.89,354.37c-2-3-15.35,9.23-25.1,16.78,1.33,2.15,2.72,4.21,4.06,6.45C152,369.94,165.32,356.55,163.89,354.37Z" transform="translate(-30.62 -153.68)"></path><path class="cls-3" d="M145.77,383.21c.43,1,.83,2,1.2,3.07,10.51-4.92,27-17.77,25.28-18C170.87,368,154.48,377.23,145.77,383.21Z" transform="translate(-30.62 -153.68)"></path><path class="cls-3" d="M168,400.06a11.42,11.42,0,0,1,1.06,1.23c6.83-4.86,20.29-15.09,17.1-18.07S172.85,393.3,168,400.06Z" transform="translate(-30.62 -153.68)"></path><path class="cls-3" d="M161.76,396.09l.85.38c4.48-4.07,16.2-15.17,13.88-18C174.05,375.43,164.65,390.48,161.76,396.09Z" transform="translate(-30.62 -153.68)"></path><path class="cls-3" d="M171.46,411.63c-.23,2.15-.72,4.35-1.06,6.85,12.16-3.16,31.24-8.69,30.48-12.17S182.22,408.08,171.46,411.63Z" transform="translate(-30.62 -153.68)"></path><path class="cls-3" d="M170.57,429.27a43.89,43.89,0,0,0,1.56,6.07c10.54-5.66,30.41-16.66,30.29-19.06S182.2,423.53,170.57,429.27Z" transform="translate(-30.62 -153.68)"></path><path class="cls-3" d="M178.58,449.38c1.77,3.11,3.89,6.51,6.42,10.21,7.41-7.46,21.81-22.76,19.95-26.9C203,428.33,187.48,440.58,178.58,449.38Z" transform="translate(-30.62 -153.68)"></path><path class="cls-3" d="M201.22,480.31a31.92,31.92,0,0,0,8.93,6.19c1.7-12.66,3.38-30.65-.33-32.82C205.47,451.13,202.45,470.53,201.22,480.31Z" transform="translate(-30.62 -153.68)"></path><path class="cls-3" d="M221.06,431.79c-1.32,7,8.34,16.44,14.05,21.32a67.19,67.19,0,0,0-.45-10.45C228.58,434.07,222.08,426.39,221.06,431.79Z" transform="translate(-30.62 -153.68)"></path><path class="cls-3" d="M225.65,413.34c-.51-1.18-1-2.33-1.52-3.44-11.3-5.91-12.74-7.84-12.54-4.58C211.74,407.71,219.17,409.88,225.65,413.34Z" transform="translate(-30.62 -153.68)"></path><path class="cls-3" d="M210.6,386.57c-6.59-2.21-12.63-3.91-10.17-1.75,3.75,3.28,8.69,4.95,13.08,5.8C212.47,389.08,211.5,387.74,210.6,386.57Z" transform="translate(-30.62 -153.68)"></path><path class="cls-3" d="M202.38,373.91c-7.13-2.44-14.33-4.58-11.68-2.26,3.67,3.22,8.5,4.89,12.84,5.75C203.21,376.46,202.83,375.28,202.38,373.91Z" transform="translate(-30.62 -153.68)"></path><path class="cls-3" d="M193.64,354.83c-3.06,1-6.14,2.47-5.29,4.52.94,2.26,4.55.57,7.38-1.21C195.08,357,194.38,355.89,193.64,354.83Z" transform="translate(-30.62 -153.68)"></path><path class="cls-3" d="M185.12,346.61c-1.63-1.27-3.42-2.87-5.36-4.67-2.29,2.67-4.45,6.35-2.38,8S182.68,349,185.12,346.61Z" transform="translate(-30.62 -153.68)"></path><path class="cls-3" d="M158.74,323.48a49.16,49.16,0,0,0-4.77-3c.29,4.68,1,9.1,1.92,9.75C156.94,331,158.2,327.77,158.74,323.48Z" transform="translate(-30.62 -153.68)"></path><path class="cls-3" d="M169.79,342.51c1.39-.52.52-5.7-.62-10.51-.89-.8-1.78-1.6-2.68-2.39C166.33,337.5,167.64,343.31,169.79,342.51Z" transform="translate(-30.62 -153.68)"></path><path class="cls-10" d="M232.68,527.68h-.2a1.31,1.31,0,0,1-1.3-1.31c.45-69.11-22.48-116.29-41.8-143.7-20.91-29.65-42.12-43.13-42.33-43.26a1.3,1.3,0,0,1,1.38-2.21c.22.14,21.87,13.89,43.07,44C211,408.9,234.24,456.6,233.79,526.4A1.32,1.32,0,0,1,232.68,527.68Z" transform="translate(-30.62 -153.68)"></path><path class="cls-7" d="M900.13,450.76c-13.89,8.4-37.5,13-40.3,13.25-3.72.27-4.66-3.89-3.2-6.36s8.84-2.77,22.7-11.46c7.16-4.49,11.89-12.82,14.8-19.85-6-11.57-14.6-25.87-15.16-36.52a123.71,123.71,0,0,1-22.32,4.55c-2.07,12-7.73,40-14.89,36.78-6.22-2.79-4.08-24.21-2.11-37.41a42.69,42.69,0,0,0-15.91,1.91c-1.12,6.1-3.07,18.3-2.1,24.49,1.32,8.44,5,21.44,5,21.44s-3.21,6.93-9.79-13.64c-3.31-10.36-2.26-21.18-.41-29.36-8.4,4.09-18.43,11.32-30.9,23.86-.89.9-1.72,1.8-2.52,2.69-.78,6.82-.58,15,3.3,21,7.7,11.76,19.8,18,19.8,18s5.22,8.48-3.61,5.52c-8.27-2.76-24.52-7.27-25.7-36.13-16.55,27.29,6.7,50.4,15.17,56.42,9.58,6.81,22.57-6.29,31-2.92s.47,21,11.46,30.25,33.3,4,48.42-16.88C894.75,484,899.43,464.63,900.13,450.76Zm-24.64-29.47c2-2.67,9.8-6.89,7,0s-8,13.66-9.55,8.38S873.48,424,875.49,421.29ZM880.14,480c-11,8.79-23.36,8.79-23.11,5.52s7.79-3.51,13.06-5.77,12.06-15,17.08-13.79C887.17,466,891.19,471.21,880.14,480Z" transform="translate(-30.62 -153.68)"></path><path class="cls-11" d="M256.94,213c8.25.23,14.74,7.45,14.74,7.45s-6.89,6.85-15.14,6.61-14.74-7.45-14.74-7.45S248.69,212.75,256.94,213Z" transform="translate(-30.62 -153.68)"></path><path class="cls-11" d="M269.16,229.3c8.25.24,14.74,7.46,14.74,7.46s-6.89,6.84-15.14,6.61S254,235.91,254,235.91,260.9,229.07,269.16,229.3Z" transform="translate(-30.62 -153.68)"></path><path class="cls-11" d="M276.64,246.2c8-2,16.2,3.22,16.2,3.22s-4.79,8.44-12.81,10.44-16.2-3.22-16.2-3.22S268.62,248.2,276.64,246.2Z" transform="translate(-30.62 -153.68)"></path><path class="cls-11" d="M288.83,263.4c6.44-1.6,13,2.58,13,2.58s-3.85,6.78-10.29,8.38-13-2.58-13-2.58S282.4,265,288.83,263.4Z" transform="translate(-30.62 -153.68)"></path><path class="cls-11" d="M298.3,280.57c6.43-1.6,13,2.59,13,2.59s-3.85,6.78-10.28,8.38S288,289,288,289,291.86,282.18,298.3,280.57Z" transform="translate(-30.62 -153.68)"></path><path class="cls-11" d="M276.48,198.05c0,8.25-6.94,15-6.94,15s-7.08-6.65-7.13-14.9,6.94-15,6.94-15S276.43,189.79,276.48,198.05Z" transform="translate(-30.62 -153.68)"></path><path class="cls-11" d="M289.91,213.85c-2.14,8-10.68,12.61-10.68,12.61s-5.05-8.29-2.91-16.26S287,197.59,287,197.59,292.05,205.88,289.91,213.85Z" transform="translate(-30.62 -153.68)"></path><path class="cls-11" d="M302.82,231.1c-2.14,8-10.68,12.61-10.68,12.61s-5.05-8.29-2.91-16.26,10.68-12.62,10.68-12.62S305,223.12,302.82,231.1Z" transform="translate(-30.62 -153.68)"></path><path class="cls-11" d="M314.7,250.55c-4.72,6.77-14.32,8.23-14.32,8.23s-1.94-9.52,2.79-16.29,14.32-8.23,14.32-8.23S319.43,243.78,314.7,250.55Z" transform="translate(-30.62 -153.68)"></path><path class="cls-11" d="M324,269.33c-5.87,5.81-15.57,5.52-15.57,5.52s-.2-9.71,5.67-15.52,15.57-5.52,15.57-5.52S329.83,263.52,324,269.33Z" transform="translate(-30.62 -153.68)"></path><path class="cls-11" d="M317.77,306.86a1.19,1.19,0,0,1-1,.18,2.08,2.08,0,0,1-1.56-1.94c0-.23-.59-18.44-20.69-50.37-20.37-32.36-38.19-50-38.37-50.16a1.82,1.82,0,0,1-.35-2.34,1.44,1.44,0,0,1,2.14.1c.18.18,18.33,18.12,39,50.95,20.84,33.1,21.32,51.67,21.34,52.45A1.32,1.32,0,0,1,317.77,306.86Z" transform="translate(-30.62 -153.68)"></path><path class="cls-11" d="M252.9,189c5.65,6,5.12,15.71,5.12,15.71s-9.71-.06-15.37-6.07S237.53,183,237.53,183,247.24,183,252.9,189Z" transform="translate(-30.62 -153.68)"></path><path class="cls-3" d="M215.19,665.56a1.89,1.89,0,0,1-1.67-1.91c1.25-81.33-29.45-120.56-55.43-139.15s-56.76-22.34-73.54-16.33a1.89,1.89,0,1,1-1.28-3.56c17.17-6.15,48.6-3.51,77,16.82,26.71,19.11,58.29,59.31,57,142.28a1.89,1.89,0,0,1-1.92,1.86Z" transform="translate(-30.62 -153.68)"></path><path class="cls-3" d="M30.62,524.15s60-25.84,66.78-18.41C104.38,513.41,30.62,524.15,30.62,524.15Z" transform="translate(-30.62 -153.68)"></path><path class="cls-3" d="M35.89,491.77s67.56,11,65.68,13.55S64.64,501.07,35.89,491.77Z" transform="translate(-30.62 -153.68)"></path><path class="cls-3" d="M53.93,472.58a128.64,128.64,0,0,0,31.43,22c18.62,9.1,27.17,12,27.17,12S99.7,494,88,487.87,53.93,472.58,53.93,472.58Z" transform="translate(-30.62 -153.68)"></path><path class="cls-3" d="M73.36,458s17.73,21.68,26.73,29.36,22.14,20.33,22.14,20.33-10.79-16.13-18.15-24.13S73.36,458,73.36,458Z" transform="translate(-30.62 -153.68)"></path><path class="cls-3" d="M94.21,447.35s9.13,22.92,16.44,33.9,20,24.88,20,24.88-7.6-19.57-13.52-28.86S94.21,447.35,94.21,447.35Z" transform="translate(-30.62 -153.68)"></path><path class="cls-3" d="M114.58,444s6.87,31.6,11.7,42.11S141,509.81,141,509.81s-1.56-14.19-7.76-26.62S114.58,444,114.58,444Z" transform="translate(-30.62 -153.68)"></path><path class="cls-3" d="M134,446.17s.53,23.26,6.07,41.46,10.49,27.64,10.49,27.64-1.92-22.09-6.24-34.32S134,446.17,134,446.17Z" transform="translate(-30.62 -153.68)"></path><path class="cls-3" d="M152,452s-2.83,16.49,2.57,41.52,7.62,27.82,7.62,27.82,1.42-26.48-.87-34.19S152,452,152,452Z" transform="translate(-30.62 -153.68)"></path><path class="cls-3" d="M169.41,458.12s-5.21,23.51-2.74,38.06,4.75,33.52,4.75,33.52,3.18-22.47,2.43-35.4S169.41,458.12,169.41,458.12Z" transform="translate(-30.62 -153.68)"></path><path class="cls-3" d="M188.32,464.71a88.4,88.4,0,0,0-9.18,38.91c0,22.2-1.55,32.17-1.55,32.17s6.26-23.39,7.95-32.71S188.32,464.71,188.32,464.71Z" transform="translate(-30.62 -153.68)"></path><path class="cls-3" d="M201.61,476.06s-8.78,18.66-11.39,33.26-3.7,32.56-3.7,32.56,7.41-15,11-29.51S201.61,476.06,201.61,476.06Z" transform="translate(-30.62 -153.68)"></path><path class="cls-3" d="M215,486.8s-10.15,11.18-15.6,34-7.22,32.79-7.22,32.79,9.9-20.12,13.79-32S215,486.8,215,486.8Z" transform="translate(-30.62 -153.68)"></path><path class="cls-3" d="M228.32,500.5s-11,10.63-16.19,25.27-13.56,38.41-13.56,38.41,13-19.61,18.16-31.47S228.32,500.5,228.32,500.5Z" transform="translate(-30.62 -153.68)"></path><path class="cls-3" d="M236.55,514.59S229.69,519.2,219,540.5s-14.11,34.86-14.11,34.86,11.94-18.62,19.58-30S236.55,514.59,236.55,514.59Z" transform="translate(-30.62 -153.68)"></path><path class="cls-3" d="M247.05,531s-6,2.17-17.59,20.83-21,37.24-21,37.24,13-16.6,23.18-31A153.54,153.54,0,0,0,247.05,531Z" transform="translate(-30.62 -153.68)"></path><path class="cls-3" d="M251,551.75s-8.21-.3-19.49,18.08S211,600.15,211,600.15s20.43-18,26.16-26.51S251,551.75,251,551.75Z" transform="translate(-30.62 -153.68)"></path><path class="cls-3" d="M256.84,567.63S242.38,574.87,231.6,586a142.75,142.75,0,0,0-18.26,23.92s18.82-12.13,27.07-20.54S256.84,567.63,256.84,567.63Z" transform="translate(-30.62 -153.68)"></path><path class="cls-3" d="M214.56,621.49s4.83-9,19.27-21.59S257.17,587,257.17,587s-8.58,8.54-21.59,19.75S214.56,621.49,214.56,621.49Z" transform="translate(-30.62 -153.68)"></path><path class="cls-3" d="M214.56,635.44s11.42-16.78,23-20.85a156.5,156.5,0,0,0,19-8S241.25,621,236.66,622.41,214.56,635.44,214.56,635.44Z" transform="translate(-30.62 -153.68)"></path><path class="cls-3" d="M101.23,508.57s-16.83,19.48-24.5,25.58S47.4,555.07,47.4,555.07s19-18.93,27.31-26.7S101.23,508.57,101.23,508.57Z" transform="translate(-30.62 -153.68)"></path><path class="cls-3" d="M112.53,506.57S92,528.27,87.31,533.13,70.49,552.78,69.63,557.6s21.31-18,25-22.05S112.53,506.57,112.53,506.57Z" transform="translate(-30.62 -153.68)"></path><path class="cls-3" d="M120.67,507.49s-7.84,7.62-17.73,24.88S84.55,565.8,84.55,565.8s21.75-24,24.81-31.32S120.67,507.49,120.67,507.49Z" transform="translate(-30.62 -153.68)"></path><path class="cls-3" d="M134,510.09s-9.31,6.58-21.52,24.74A183.92,183.92,0,0,0,94.41,568.5s23.74-27.74,26.93-34.83S134,510.09,134,510.09Z" transform="translate(-30.62 -153.68)"></path><path class="cls-3" d="M147.72,515c-6.16,4.06-18.44,14.4-22.24,20s-23.4,32.85-23.4,32.85,19.6-19,28.73-29.54A203,203,0,0,0,147.72,515Z" transform="translate(-30.62 -153.68)"></path><path class="cls-3" d="M158.77,521a168.06,168.06,0,0,0-27.51,24.45c-13.78,15.24-20.4,23.37-20.4,23.37s24.91-21.25,32.47-29.12A214.5,214.5,0,0,0,158.77,521Z" transform="translate(-30.62 -153.68)"></path><path class="cls-3" d="M171.42,529.7A85.7,85.7,0,0,0,144.2,546c-13.39,11.79-29.33,26.47-29.33,26.47s34.88-19.5,40.91-25.16S171.42,529.7,171.42,529.7Z" transform="translate(-30.62 -153.68)"></path><path class="cls-3" d="M183.08,541.49a65.67,65.67,0,0,0-27.81,10.31c-14.38,9.31-34.28,24-34.28,24s31.31-14.67,39.12-19.18S183.08,541.49,183.08,541.49Z" transform="translate(-30.62 -153.68)"></path><path class="cls-3" d="M189.49,551.1a67.89,67.89,0,0,0-30.36,8.59c-15.58,8.69-32.67,16.74-32.67,16.74s35.77-7.82,39.54-10.25Z" transform="translate(-30.62 -153.68)"></path><path class="cls-3" d="M196.4,563.69s-20.48,1.71-29.49,5.6-34.29,14.34-34.29,14.34,30.44-6.61,37.94-9.28S196.4,563.69,196.4,563.69Z" transform="translate(-30.62 -153.68)"></path><path class="cls-3" d="M136.37,589.45s28.22-11.7,40.95-13.1A237.28,237.28,0,0,1,202.09,575a160,160,0,0,1-25.53,8C164.1,585.63,136.37,589.45,136.37,589.45Z" transform="translate(-30.62 -153.68)"></path><path class="cls-3" d="M141.64,593.53s29.77-7.07,39.44-7.56,24.79.44,24.79.44S179.63,594.05,141.64,593.53Z" transform="translate(-30.62 -153.68)"></path><path class="cls-3" d="M144.45,598s27.11-2.44,48.3-2.12S209.4,600,209.4,600,175.09,603.05,144.45,598Z" transform="translate(-30.62 -153.68)"></path><path class="cls-3" d="M152.93,603.06s17.93-.66,30.69-.39,27.7,8.3,27.7,8.3-20.49-.11-28.49-1.34S152.93,603.06,152.93,603.06Z" transform="translate(-30.62 -153.68)"></path><path class="cls-3" d="M156.81,610.48a134.19,134.19,0,0,1,30,3.41,89.09,89.09,0,0,1,27.35,11.35s-26-5.49-30.88-7.31S156.81,610.48,156.81,610.48Z" transform="translate(-30.62 -153.68)"></path><path class="cls-3" d="M166.65,621.75s15-1.15,25.26,1S213.15,634,213.15,634s-17.91-4.65-23.2-6.53C181.16,624.31,166.65,621.75,166.65,621.75Z" transform="translate(-30.62 -153.68)"></path><path class="cls-11" d="M930.82,533.11c-10.39-2.17-20.65,4.91-20.65,4.91s6.56,10.61,16.94,12.78,20.65-4.91,20.65-4.91S941.2,535.28,930.82,533.11Z" transform="translate(-30.62 -153.68)"></path><path class="cls-11" d="M910.67,549.85c-10.38-2.17-20.65,4.91-20.65,4.91s6.57,10.61,17,12.79,20.65-4.91,20.65-4.91S921.05,552,910.67,549.85Z" transform="translate(-30.62 -153.68)"></path><path class="cls-11" d="M896.28,568.73c-9.42-4.88-21.21-.82-21.21-.82s3.47,12,12.88,16.87,21.21.82,21.21.82S905.69,573.62,896.28,568.73Z" transform="translate(-30.62 -153.68)"></path><path class="cls-11" d="M875.9,586.58c-7.56-3.93-17-.67-17-.67s2.78,9.63,10.34,13.55,17,.66,17,.66S883.46,590.5,875.9,586.58Z" transform="translate(-30.62 -153.68)"></path><path class="cls-11" d="M858.94,605.21c-7.56-3.93-17-.67-17-.67s2.79,9.63,10.35,13.55,17,.66,17,.66S866.5,609.13,858.94,605.21Z" transform="translate(-30.62 -153.68)"></path><path class="cls-11" d="M910.86,508.61c-2.53,10.3,4.19,20.81,4.19,20.81s10.83-6.19,13.37-16.49-4.19-20.81-4.19-20.81S913.4,498.31,910.86,508.61Z" transform="translate(-30.62 -153.68)"></path><path class="cls-11" d="M889.36,524.34c.3,10.61,9.57,18.95,9.57,18.95s8.79-8.85,8.5-19.45-9.57-18.94-9.57-18.94S889.07,513.74,889.36,524.34Z" transform="translate(-30.62 -153.68)"></path><path class="cls-11" d="M868.08,542c.29,10.6,9.57,18.94,9.57,18.94s8.79-8.84,8.5-19.45-9.57-18.94-9.57-18.94S867.78,531.44,868.08,542Z" transform="translate(-30.62 -153.68)"></path><path class="cls-11" d="M847.42,562.79c3.88,9.87,15.44,14.56,15.44,14.56s5.26-11.31,1.38-21.18-15.44-14.56-15.44-14.56S843.54,552.92,847.42,562.79Z" transform="translate(-30.62 -153.68)"></path><path class="cls-11" d="M830.23,583.48C835.82,592.5,848,595,848,595S851.18,583,845.59,574s-17.81-11.55-17.81-11.55S824.64,574.47,830.23,583.48Z" transform="translate(-30.62 -153.68)"></path><path class="cls-11" d="M826.76,632.23a1.54,1.54,0,0,0,1.16.51,2.64,2.64,0,0,0,2.52-2c.08-.29,6.25-22.86,40.91-56.76,35.12-34.34,62.65-51,62.92-51.2a2.34,2.34,0,0,0,1.14-2.82,1.84,1.84,0,0,0-2.7-.51c-.28.17-28.32,17.16-64,52-35.93,35.13-42.09,58.19-42.33,59.16A1.66,1.66,0,0,0,826.76,632.23Z" transform="translate(-30.62 -153.68)"></path><path class="cls-11" d="M943,504.39c-8.86,5.83-11.09,18.1-11.09,18.1s12.15,2.83,21-3S964,501.4,964,501.4,951.89,498.57,943,504.39Z" transform="translate(-30.62 -153.68)"></path><path class="cls-12" d="M692.1,354.37a1.45,1.45,0,0,0,1.43-1.33c5.4-62.58,32.05-90.32,53.47-102.57s45.34-12.73,57.77-6.8A1.46,1.46,0,1,0,806,241c-12.71-6.07-37.06-6.5-60.48,6.9-22,12.59-49.42,41-54.93,104.85a1.47,1.47,0,0,0,1.33,1.58Z" transform="translate(-30.62 -153.68)"></path><path class="cls-12" d="M849.46,258.77s-44.09-24.54-49.87-19.36C793.63,244.75,849.46,258.77,849.46,258.77Z" transform="translate(-30.62 -153.68)"></path><path class="cls-12" d="M847.94,233.49s-52.76,3.14-51.52,5.27S825.13,238.38,847.94,233.49Z" transform="translate(-30.62 -153.68)"></path><path class="cls-12" d="M835.59,217.33a99.54,99.54,0,0,1-25.87,14.42c-15,5.53-21.81,7.11-21.81,7.11s10.84-8.69,20.29-12.45S835.59,217.33,835.59,217.33Z" transform="translate(-30.62 -153.68)"></path><path class="cls-12" d="M821.8,204.6S806.48,219.86,799,225.06,780.37,239,780.37,239s9.55-11.55,15.83-17.12S821.8,204.6,821.8,204.6Z" transform="translate(-30.62 -153.68)"></path><path class="cls-12" d="M806.61,194.8s-8.8,16.89-15.28,24.76S774,237.11,774,237.11s7.37-14.45,12.64-21.11S806.61,194.8,806.61,194.8Z" transform="translate(-30.62 -153.68)"></path><path class="cls-12" d="M791.23,190.6S783.48,214.34,779,222s-13.18,17.08-13.18,17.08a69.72,69.72,0,0,1,8-19.84C779.54,210.21,791.23,190.6,791.23,190.6Z" transform="translate(-30.62 -153.68)"></path><path class="cls-12" d="M776.15,190.78s-2.23,17.83-7.9,31.38S758,242.58,758,242.58s3.21-16.83,7.48-25.88S776.15,190.78,776.15,190.78Z" transform="translate(-30.62 -153.68)"></path><path class="cls-12" d="M761.83,193.87s.88,12.89-5.22,31.69-8,20.78-8,20.78,1-20.45,3.34-26.2S761.83,193.87,761.83,193.87Z" transform="translate(-30.62 -153.68)"></path><path class="cls-12" d="M748,197.2s2.16,18.46-.87,29.45S740.86,252,740.86,252s-.69-17.51.89-27.39S748,197.2,748,197.2Z" transform="translate(-30.62 -153.68)"></path><path class="cls-12" d="M733,200.78a68.42,68.42,0,0,1,4,30.61c-1.75,17.05-1.33,24.83-1.33,24.83s-3-18.45-3.55-25.74S733,200.78,733,200.78Z" transform="translate(-30.62 -153.68)"></path><path class="cls-12" d="M721.85,208.46s5.29,15,6.16,26.44.3,25.3.3,25.3a129.46,129.46,0,0,1-6.12-23.52C720.59,225.26,721.85,208.46,721.85,208.46Z" transform="translate(-30.62 -153.68)"></path><path class="cls-12" d="M710.75,215.66s6.92,9.39,9.32,27.37,3,25.75,3,25.75-6-16.23-8.09-25.69S710.75,215.66,710.75,215.66Z" transform="translate(-30.62 -153.68)"></path><path class="cls-12" d="M699.42,225.14s7.65,9,10.47,20.68,7.41,30.57,7.41,30.57-8.46-16.08-11.49-25.59S699.42,225.14,699.42,225.14Z" transform="translate(-30.62 -153.68)"></path><path class="cls-12" d="M692,235.33s4.92,4.08,11.45,21.28,8.11,27.88,8.11,27.88-7.72-15.24-12.7-24.55S692,235.33,692,235.33Z" transform="translate(-30.62 -153.68)"></path><path class="cls-12" d="M682.65,247.12s4.41,2.14,11.89,17.38,13.25,30.25,13.25,30.25-8.68-13.76-15.39-25.6A119,119,0,0,1,682.65,247.12Z" transform="translate(-30.62 -153.68)"></path><path class="cls-12" d="M678,262.75s6.33.41,13.56,15.41S705,303.06,705,303.06s-14.3-15.4-18-22.41S678,262.75,678,262.75Z" transform="translate(-30.62 -153.68)"></path><path class="cls-12" d="M672.27,274.49s10.54,6.69,18,16.09a110.25,110.25,0,0,1,12.16,19.81s-13.51-10.79-19.19-17.9S672.27,274.49,672.27,274.49Z" transform="translate(-30.62 -153.68)"></path><path class="cls-12" d="M700.54,319.17s-3-7.26-13.11-18.09-16.93-11.72-16.93-11.72,5.92,7.22,15,16.85S700.54,319.17,700.54,319.17Z" transform="translate(-30.62 -153.68)"></path><path class="cls-12" d="M699.45,329.89s-7.47-13.78-16-17.82a120,120,0,0,1-14-7.62s10.61,12.29,14,13.71S699.45,329.89,699.45,329.89Z" transform="translate(-30.62 -153.68)"></path><path class="cls-12" d="M796.43,241.28s11.41,16.28,16.82,21.57,20.9,18.37,20.9,18.37-13.1-16-18.89-22.65S796.43,241.28,796.43,241.28Z" transform="translate(-30.62 -153.68)"></path><path class="cls-12" d="M787.91,238.86S802,257.14,805.2,261.24s11.39,16.41,11.68,20.18-15-15.52-17.47-18.89S787.91,238.86,787.91,238.86Z" transform="translate(-30.62 -153.68)"></path><path class="cls-12" d="M781.58,238.94s5.43,6.46,11.68,20.5,11.51,27.11,11.51,27.11-14.83-20.1-16.61-26S781.58,238.94,781.58,238.94Z" transform="translate(-30.62 -153.68)"></path><path class="cls-12" d="M771.13,239.89s6.64,5.78,14.6,20.69A142.12,142.12,0,0,1,797,287.86S780.91,264.69,779,259,771.13,239.89,771.13,239.89Z" transform="translate(-30.62 -153.68)"></path><path class="cls-12" d="M760.21,242.55c4.43,3.6,13,12.5,15.53,17.09s15.41,27.07,15.41,27.07-13.57-16.13-19.76-24.94A155.75,155.75,0,0,1,760.21,242.55Z" transform="translate(-30.62 -153.68)"></path><path class="cls-12" d="M751.26,246.31a129.62,129.62,0,0,1,19.22,20.94c9.4,12.78,13.85,19.54,13.85,19.54s-17.48-18.27-22.67-24.91A163.83,163.83,0,0,1,751.26,246.31Z" transform="translate(-30.62 -153.68)"></path><path class="cls-12" d="M740.86,252a66.28,66.28,0,0,1,19.64,14.61c9.36,10.1,20.46,22.63,20.46,22.63s-25.27-17.71-29.46-22.53S740.86,252,740.86,252Z" transform="translate(-30.62 -153.68)"></path><path class="cls-12" d="M731,260.17a50.78,50.78,0,0,1,20.56,10.1c10.32,8.27,24.46,21.12,24.46,21.12s-22.91-13.72-28.56-17.79S731,260.17,731,260.17Z" transform="translate(-30.62 -153.68)"></path><path class="cls-12" d="M725.3,267.05A52.44,52.44,0,0,1,748,276c11.28,7.9,23.78,15.41,23.78,15.41s-26.87-8.8-29.57-11S725.3,267.05,725.3,267.05Z" transform="translate(-30.62 -153.68)"></path><path class="cls-12" d="M719,276.19s15.6,2.91,22.21,6.61,25.23,13.69,25.23,13.69S743.58,289,738,286.4,719,276.19,719,276.19Z" transform="translate(-30.62 -153.68)"></path><path class="cls-12" d="M763.12,300.67s-20.77-11.19-30.44-13.27a185.48,185.48,0,0,0-18.93-2.94,123.4,123.4,0,0,0,19,8.17C742.11,295.56,763.12,300.67,763.12,300.67Z" transform="translate(-30.62 -153.68)"></path><path class="cls-12" d="M758.74,303.4s-22.31-7.77-29.7-8.9S710,292.9,710,292.9,729.52,300.82,758.74,303.4Z" transform="translate(-30.62 -153.68)"></path><path class="cls-12" d="M756.24,306.59s-20.63-4-36.94-5.4-13.12,1.86-13.12,1.86S732.3,308.09,756.24,306.59Z" transform="translate(-30.62 -153.68)"></path><path class="cls-12" d="M749.33,309.83s-13.73-1.91-23.55-2.7-21.93,4.22-21.93,4.22,15.75,1.51,22,1.2S749.33,309.83,749.33,309.83Z" transform="translate(-30.62 -153.68)"></path><path class="cls-12" d="M745.77,315.23a103,103,0,0,0-23.3.28,68.81,68.81,0,0,0-21.9,6.58s20.41-2.19,24.29-3.21S745.77,315.23,745.77,315.23Z" transform="translate(-30.62 -153.68)"></path><path class="cls-12" d="M737.32,323.12s-11.46-2.06-19.48-1.23-17.19,7-17.19,7,14.12-2.17,18.33-3.19C726,324,737.32,323.12,737.32,323.12Z" transform="translate(-30.62 -153.68)"></path></g><g id="Layer_2" data-name="Layer 2"><polygon class="cls-13" points="583.88 600.87 392.08 600.87 379.82 523.47 571.63 523.47 583.88 600.87"></polygon><path class="cls-14" d="M801.79,684.06H178.86a21.09,21.09,0,0,1-16.21-7.18,21.61,21.61,0,0,1-4.89-17.28l55.33-393.69a26.54,26.54,0,0,1,25.76-22.54H861.78A21.09,21.09,0,0,1,878,250.55a21.68,21.68,0,0,1,4.89,17.28L827.55,661.52A26.54,26.54,0,0,1,801.79,684.06ZM238.85,257.21a12.78,12.78,0,0,0-12.06,10.62L171.46,661.52a7.73,7.73,0,0,0,1.63,6.29,7.45,7.45,0,0,0,5.77,2.42H801.79c5.73,0,11.25-4.87,12.06-10.63l55.33-393.69a7.81,7.81,0,0,0-1.63-6.29,7.47,7.47,0,0,0-5.77-2.41Z" transform="translate(-30.62 -153.68)"></path><path class="cls-15" d="M630.77,761.9H397.93c-4.43,0-8-2.85-8.08-6.38h0c0-3.57,3.59-6.49,8.08-6.49H630.77c4.43,0,8,2.84,8.08,6.37h0C638.89,759,635.26,761.9,630.77,761.9Z" transform="translate(-30.62 -153.68)"></path><path class="cls-16" d="M801.79,677.14H178.86c-9.16,0-15.54-7.42-14.25-16.58l55.33-393.69c1.29-9.16,9.75-16.58,18.91-16.58H861.78c9.16,0,15.54,7.42,14.25,16.58L820.7,660.56C819.41,669.72,811,677.14,801.79,677.14Z" transform="translate(-30.62 -153.68)"></path><path class="cls-17" d="M861.78,250.29H238.85c-9.16,0-17.62,7.42-18.91,16.58l-3.41,24.27H872.62L876,266.87C877.32,257.71,870.94,250.29,861.78,250.29Z" transform="translate(-30.62 -153.68)"></path><path class="cls-18" d="M249.34,268.19a7.27,7.27,0,0,1-7,5.92,5,5,0,0,1-5.11-5.92,7.3,7.3,0,0,1,7-5.93A5,5,0,0,1,249.34,268.19Z" transform="translate(-30.62 -153.68)"></path><path class="cls-18" d="M269.14,268.19a7.29,7.29,0,0,1-7,5.92,5,5,0,0,1-5.1-5.92,7.28,7.28,0,0,1,7-5.93A5,5,0,0,1,269.14,268.19Z" transform="translate(-30.62 -153.68)"></path><path class="cls-18" d="M288.93,268.19a7.28,7.28,0,0,1-7,5.92,5,5,0,0,1-5.11-5.92,7.29,7.29,0,0,1,7-5.93A5,5,0,0,1,288.93,268.19Z" transform="translate(-30.62 -153.68)"></path><g class="cls-19"><path class="cls-20" d="M498.77,533.23H209.23c-7.3,0-12.39-5.92-11.36-13.22h0a15.71,15.71,0,0,1,15.07-13.21H502.48c7.3,0,12.39,5.91,11.36,13.21h0A15.72,15.72,0,0,1,498.77,533.23Z" transform="translate(-30.62 -153.68)"></path></g><g class="cls-21"><path class="cls-7" d="M744.3,490.9H367.42c-11.19,0-19-9.07-17.41-20.26l18.45-131.33c1.58-11.19,11.92-20.26,23.11-20.26H768.45c11.19,0,19,9.07,17.42,20.26L767.41,470.64C765.84,481.83,755.49,490.9,744.3,490.9Z" transform="translate(-30.62 -153.68)"></path></g><g class="cls-21"><path class="cls-7" d="M295.85,396.9l-71.38-.16c-7.33,0-12.42-5.39-11.37-12l8.18-51.6c1.05-6.6,7.84-11.95,15.17-11.93l71.38.16c7.33,0,12.42,5.39,11.38,12L311,385C310,391.57,303.18,396.91,295.85,396.9Z" transform="translate(-30.62 -153.68)"></path></g><g class="cls-21"><path class="cls-7" d="M286.73,488.74l-71.38-.17c-7.33,0-12.42-5.38-11.38-12l8.19-51.6c1-6.61,7.84-12,15.17-11.93l71.38.16c7.33,0,12.42,5.39,11.38,12l-8.19,51.6C300.85,483.41,294.06,488.75,286.73,488.74Z" transform="translate(-30.62 -153.68)"></path></g><ellipse class="cls-22" cx="431.12" cy="375.23" rx="24.61" ry="21.39" transform="translate(-170.98 229.94) rotate(-41.88)"></ellipse><path class="cls-22" d="M454,397.38a2.53,2.53,0,0,0-3.76.27,32.92,32.92,0,0,1-23.83,10.84c-9.07,0-16.53-4.24-20.78-10.84a2.42,2.42,0,0,0-3.68-.27,57.34,57.34,0,0,0-18.22,34.41,52.55,52.55,0,0,0-.37,11.42,2.09,2.09,0,0,0,2.15,2H457a3,3,0,0,0,2.69-2,56.64,56.64,0,0,0,2.84-11.42C464.5,418.08,461.05,405.78,454,397.38Z" transform="translate(-30.62 -153.68)"></path><path class="cls-22" d="M657.74,406.84H505.43a7.4,7.4,0,0,1-7.49-8.71l.43-3a10.36,10.36,0,0,1,9.93-8.71H660.62a7.4,7.4,0,0,1,7.48,8.71l-.43,3A10.35,10.35,0,0,1,657.74,406.84Z" transform="translate(-30.62 -153.68)"></path><path class="cls-22" d="M583.5,368H510.89a7.39,7.39,0,0,1-7.48-8.71l.27-1.89a10.35,10.35,0,0,1,9.92-8.71h72.61a7.39,7.39,0,0,1,7.48,8.71l-.27,1.89A10.35,10.35,0,0,1,583.5,368Z" transform="translate(-30.62 -153.68)"></path><path class="cls-22" d="M733.15,445.16H500a7.39,7.39,0,0,1-7.48-8.71l.42-3a10.37,10.37,0,0,1,9.93-8.71H736a7.4,7.4,0,0,1,7.48,8.71l-.43,3A10.35,10.35,0,0,1,733.15,445.16Z" transform="translate(-30.62 -153.68)"></path><path class="cls-23" d="M517.88,558.1H302.05c-8.91,0-15.11-7.22-13.86-16.13l5-35.6c1.25-8.9,9.49-16.12,18.39-16.12H527.41c8.91,0,15.11,7.22,13.86,16.12l-5,35.6C535,550.88,526.78,558.1,517.88,558.1Z" transform="translate(-30.62 -153.68)"></path><path class="cls-11" d="M511.45,550.06H295.62c-8.91,0-15.11-7.21-13.86-16.12l5-35.6c1.25-8.9,9.49-16.12,18.39-16.12H521c8.91,0,15.11,7.22,13.86,16.12l-5,35.6C528.59,542.85,520.35,550.06,511.45,550.06Z" transform="translate(-30.62 -153.68)"></path><path class="cls-24" d="M511.1,500.92l-10.34,6.82a13.16,13.16,0,0,1,1.86,9,17.49,17.49,0,0,1-16.76,14.69L484.37,542a27.93,27.93,0,0,0,15.92-4.94C513,528.68,517.88,512.49,511.1,500.92Z" transform="translate(-30.62 -153.68)"></path><path class="cls-25" d="M500.76,507.74l10.34-6.82c-4.07-6.94-10.87-10.67-19.45-10.67L490,502.08A12.51,12.51,0,0,1,500.76,507.74Z" transform="translate(-30.62 -153.68)"></path><path class="cls-26" d="M473.23,516.78A17.48,17.48,0,0,1,490,502.08l1.66-11.83c-14.3,0-27.52,11.59-29.53,25.89S470.07,542,484.37,542l1.49-10.56C477.74,531.47,472.09,524.89,473.23,516.78Z" transform="translate(-30.62 -153.68)"></path><path class="cls-3" d="M404.56,510.86H305.83a5.13,5.13,0,0,1-5.19-6h0a7.19,7.19,0,0,1,6.89-6h98.72a5.14,5.14,0,0,1,5.2,6h0A7.19,7.19,0,0,1,404.56,510.86Z" transform="translate(-30.62 -153.68)"></path><path class="cls-3" d="M423.36,533.5H302.65a5.13,5.13,0,0,1-5.19-6h0a7.19,7.19,0,0,1,6.89-6H425.06a5.13,5.13,0,0,1,5.19,6h0A7.19,7.19,0,0,1,423.36,533.5Z" transform="translate(-30.62 -153.68)"></path><path class="cls-23" d="M230.32,477H118.87c-6.66,0-11.21-5.4-10.15-12.07l4.09-25.85a14.68,14.68,0,0,1,14-12.07H238.24c6.66,0,11.2,5.4,10.15,12.07L244.29,465A14.67,14.67,0,0,1,230.32,477Z" transform="translate(-30.62 -153.68)"></path><path class="cls-11" d="M226.3,471.84H114.85c-6.66,0-11.21-5.4-10.15-12.06l4.09-25.86a14.69,14.69,0,0,1,14-12.06H234.22c6.66,0,11.21,5.4,10.15,12.06l-4.09,25.86A14.69,14.69,0,0,1,226.3,471.84Z" transform="translate(-30.62 -153.68)"></path><path class="cls-26" d="M187.25,442.67H122.79a3.07,3.07,0,0,1-3.1-3.68l.07-.44a4.5,4.5,0,0,1,4.27-3.68h64.45a3.07,3.07,0,0,1,3.11,3.68l-.07.44A4.5,4.5,0,0,1,187.25,442.67Z" transform="translate(-30.62 -153.68)"></path><path class="cls-26" d="M219.12,457.29H120.48a3.06,3.06,0,0,1-3.1-3.68l.07-.43a4.48,4.48,0,0,1,4.26-3.69h98.65a3.07,3.07,0,0,1,3.1,3.69l-.07.43A4.48,4.48,0,0,1,219.12,457.29Z" transform="translate(-30.62 -153.68)"></path><ellipse class="cls-23" cx="304.67" cy="389.96" rx="18.23" ry="15.84" transform="translate(-214.72 158.79) rotate(-42.99)"></ellipse><ellipse class="cls-25" cx="302.78" cy="387.96" rx="18.23" ry="15.84" transform="translate(-213.86 156.96) rotate(-42.99)"></ellipse><path class="cls-27" d="M300.34,397.49l-8.65-13.26a3,3,0,0,1,.59-3.62,1.88,1.88,0,0,1,3,.1l5.57,8.53,12.93-19.05c.8-1.19,2.18-1.53,3.06-.77A2.76,2.76,0,0,1,317,373Z" transform="translate(-30.62 -153.68)"></path><path class="cls-25" d="M241.68,371.4l-55.15-.15c-7.83,0-12.9-8-11.32-17.81l4.95-30.81c1.58-9.81,9.2-17.75,17-17.73l55.16.16c7.82,0,12.89,8,11.32,17.81l-5,30.8C257.14,363.49,249.51,371.42,241.68,371.4Z" transform="translate(-30.62 -153.68)"></path><path class="cls-28" d="M237.12,367,182,366.86c-7.83,0-12.9-8-11.32-17.81l5-30.81c1.58-9.81,9.2-17.75,17-17.72l55.16.15c7.83,0,12.9,8,11.32,17.81l-5,30.81C252.57,359.1,245,367,237.12,367Z" transform="translate(-30.62 -153.68)"></path><path class="cls-3" d="M217.78,350c-.49,3.26-3.23,5.89-6.13,5.88s-4.87-2.65-4.38-5.91,3.23-5.9,6.13-5.89S218.26,346.77,217.78,350Z" transform="translate(-30.62 -153.68)"></path><path class="cls-3" d="M242.52,331.31a2.21,2.21,0,0,1-1.88-1,27.72,27.72,0,0,0-23.33-12.52c-9.54,0-19.39,4.48-27,12.37-1.21,1.25-3,1.33-3.91.18a3.4,3.4,0,0,1,.48-4.37c8.85-9.15,20.29-14.38,31.36-14.35a32.15,32.15,0,0,1,27.09,14.53,3.5,3.5,0,0,1-.82,4.36A2.92,2.92,0,0,1,242.52,331.31Z" transform="translate(-30.62 -153.68)"></path><path class="cls-3" d="M231,342.09a2.19,2.19,0,0,1-1.77-.86,17.94,17.94,0,0,0-14.35-7,24.38,24.38,0,0,0-16.41,6.88,2.51,2.51,0,0,1-3.87-.12,3.48,3.48,0,0,1,.74-4.36c6-5.55,13.29-8.6,20.46-8.57a22.34,22.34,0,0,1,17.89,8.68,3.41,3.41,0,0,1-.56,4.36A3,3,0,0,1,231,342.09Z" transform="translate(-30.62 -153.68)"></path><path class="cls-25" d="M623.05,230.2H541c-5.32,0-10.11,3.37-10.69,7.52l-6.8,48.35c-.58,4.15,3.26,7.52,8.58,7.52h60.39l21.21,12.71c1,.57,2.46-.18,2.27-1.14l-2.35-11.57h.49c5.32,0,10.11-3.37,10.7-7.52l6.79-48.35C632.21,233.57,628.37,230.2,623.05,230.2Z" transform="translate(-30.62 -153.68)"></path><path class="cls-14" d="M619.06,227.26h-82c-5.32,0-10.11,3.37-10.7,7.52l-6.79,48.35c-.58,4.15,3.26,7.52,8.58,7.52h60.38l21.21,12.71c1,.58,2.47-.18,2.27-1.14l-2.35-11.57h.5c5.32,0,10.11-3.37,10.69-7.52l6.8-48.35C628.22,230.63,624.38,227.26,619.06,227.26Z" transform="translate(-30.62 -153.68)"></path><path class="cls-24" d="M583.4,262.26H529.11a2.22,2.22,0,0,1-2.24-2.61l.18-1.25a3.1,3.1,0,0,1,3-2.61h54.29a2.22,2.22,0,0,1,2.24,2.61l-.17,1.25A3.12,3.12,0,0,1,583.4,262.26Z" transform="translate(-30.62 -153.68)"></path><path class="cls-24" d="M557.18,250H530.84a2.22,2.22,0,0,1-2.24-2.61l.13-.88a3.09,3.09,0,0,1,3-2.61H558a2.21,2.21,0,0,1,2.24,2.61l-.12.88A3.11,3.11,0,0,1,557.18,250Z" transform="translate(-30.62 -153.68)"></path><path class="cls-24" d="M610,274.37H527.41a2.22,2.22,0,0,1-2.24-2.61l.18-1.24a3.1,3.1,0,0,1,3-2.61h82.61a2.21,2.21,0,0,1,2.24,2.61l-.17,1.24A3.11,3.11,0,0,1,610,274.37Z" transform="translate(-30.62 -153.68)"></path><path class="cls-23" d="M655.72,291.34H750c6.13,0,10.54,3.87,9.87,8.64l-7.81,55.6c-.67,4.77-6.18,8.64-12.3,8.64H670.34l-28.5,14.61c-1.29.67-2.77-.2-2.24-1.31l6.44-13.3h-.57c-6.12,0-10.54-3.87-9.87-8.64l7.82-55.6C644.09,295.21,649.59,291.34,655.72,291.34Z" transform="translate(-30.62 -153.68)"></path><path class="cls-17" d="M650.7,286.36H745c6.12,0,10.53,3.87,9.86,8.64L747,350.6c-.67,4.77-6.18,8.64-12.3,8.64H665.32l-28.5,14.61c-1.29.67-2.77-.2-2.24-1.31l6.44-13.3h-.57c-6.12,0-10.53-3.87-9.86-8.64L638.4,295C639.07,290.23,644.58,286.36,650.7,286.36Z" transform="translate(-30.62 -153.68)"></path><path class="cls-25" d="M650.7,286.36H745c6.12,0,10.53,3.87,9.86,8.64l-.94,6.72H637.46l.94-6.72C639.07,290.23,644.58,286.36,650.7,286.36Z" transform="translate(-30.62 -153.68)"></path><path class="cls-22" d="M714.73,331.28H662.14a2.15,2.15,0,0,1-2.17-2.53l.17-1.2A3,3,0,0,1,663,325h52.59a2.15,2.15,0,0,1,2.17,2.53l-.17,1.2A3,3,0,0,1,714.73,331.28Z" transform="translate(-30.62 -153.68)"></path><path class="cls-22" d="M689.33,319.37H663.82a2.14,2.14,0,0,1-2.17-2.53l.12-.86a3,3,0,0,1,2.88-2.52h25.51a2.14,2.14,0,0,1,2.17,2.52l-.12.86A3,3,0,0,1,689.33,319.37Z" transform="translate(-30.62 -153.68)"></path><path class="cls-22" d="M740.51,343h-80a2.15,2.15,0,0,1-2.17-2.52l.17-1.21a3,3,0,0,1,2.88-2.53h80a2.14,2.14,0,0,1,2.17,2.53l-.17,1.21A3,3,0,0,1,740.51,343Z" transform="translate(-30.62 -153.68)"></path><path class="cls-25" d="M651.14,316.41a3.51,3.51,0,0,1-3.37,3,2.51,2.51,0,0,1-2.54-3,3.51,3.51,0,0,1,3.37-3A2.51,2.51,0,0,1,651.14,316.41Z" transform="translate(-30.62 -153.68)"></path><path class="cls-25" d="M649.49,328.15a3.52,3.52,0,0,1-3.37,3,2.51,2.51,0,0,1-2.54-3,3.52,3.52,0,0,1,3.37-3A2.51,2.51,0,0,1,649.49,328.15Z" transform="translate(-30.62 -153.68)"></path><path class="cls-25" d="M647.84,339.88a3.51,3.51,0,0,1-3.37,3,2.51,2.51,0,0,1-2.54-3,3.51,3.51,0,0,1,3.37-2.95A2.51,2.51,0,0,1,647.84,339.88Z" transform="translate(-30.62 -153.68)"></path><path class="cls-23" d="M398.3,349.8H345.13a7.4,7.4,0,0,1-7.49-8.71l7.47-53.18a10.37,10.37,0,0,1,9.94-8.71h53.18a7.39,7.39,0,0,1,7.48,8.71l-7.47,53.18A10.36,10.36,0,0,1,398.3,349.8Z" transform="translate(-30.62 -153.68)"></path><path class="cls-25" d="M394.54,345.28H341.36a7.4,7.4,0,0,1-7.49-8.71l7.48-53.18a10.35,10.35,0,0,1,9.93-8.71h53.18a7.4,7.4,0,0,1,7.49,8.71l-7.48,53.18A10.35,10.35,0,0,1,394.54,345.28Z" transform="translate(-30.62 -153.68)"></path><path class="cls-24" d="M393,323.18h0c2.22,0,3.08,2.62,1.4,4.3a26.26,26.26,0,0,1-6.55,4.73A36.45,36.45,0,0,1,370.88,336q-9.37,0-15.74-3.17a17.44,17.44,0,0,1-8.83-9.34A25.92,25.92,0,0,1,344.88,310a34.22,34.22,0,0,1,5.86-14.87,30.47,30.47,0,0,1,11.8-10.34A34.61,34.61,0,0,1,378,281.33a25.7,25.7,0,0,1,12.34,2.79,16,16,0,0,1,7.39,7.91,20.51,20.51,0,0,1,1.37,11.21,24.33,24.33,0,0,1-6.3,13.09q-6.65,7.38-15.39,7.39a5.67,5.67,0,0,1-3.43-.83,3.3,3.3,0,0,1-1.25-2.41,12.42,12.42,0,0,1-8.18,3.24,9,9,0,0,1-7.37-3.26q-2.65-3.24-1.9-8.65a24.3,24.3,0,0,1,5.46-12.18q5.49-6.7,12.59-6.71,5.06,0,6.93,3.87l.1-.28a4.41,4.41,0,0,1,4-2.88h0a3.19,3.19,0,0,1,3,4.45L381.78,314a18.67,18.67,0,0,0-.75,2.5,1.41,1.41,0,0,0,.18,1.07.89.89,0,0,0,.73.35,7.49,7.49,0,0,0,3.75-1.65,19.37,19.37,0,0,0,5.51-5.79A18.85,18.85,0,0,0,394,303a13.48,13.48,0,0,0-3.41-11.69q-4.39-4.69-13.46-4.7a27.91,27.91,0,0,0-13.49,3.14,24.43,24.43,0,0,0-9.31,8.83A30.62,30.62,0,0,0,350,310.39a18.85,18.85,0,0,0,1.49,10.91,14.34,14.34,0,0,0,7.49,7.17,30.11,30.11,0,0,0,12.19,2.26,34.55,34.55,0,0,0,11.94-1.89,22.07,22.07,0,0,0,7.82-4.8A3,3,0,0,1,393,323.18ZM362.7,311.5q-.51,3.62.72,5.31a3.92,3.92,0,0,0,3.38,1.71,6.76,6.76,0,0,0,3.15-.8,8.88,8.88,0,0,0,2.38-1.79,17.57,17.57,0,0,0,3.31-5.05,22,22,0,0,0,2-6.2c.43-3.1-.32-5.16-2.28-6.17a4.2,4.2,0,0,0-1.9-.47,7.45,7.45,0,0,0-4.92,1.89,14.05,14.05,0,0,0-3.89,5.38A24.54,24.54,0,0,0,362.7,311.5Z" transform="translate(-30.62 -153.68)"></path><path class="cls-23" d="M856.83,495.13H695.64c-9.68,0-16.32-8.48-14.85-18.95l10-71c1.47-10.47,10.51-18.95,20.18-18.95H872.13c9.67,0,16.32,8.48,14.85,18.95l-10,71C875.53,486.65,866.5,495.13,856.83,495.13Z" transform="translate(-30.62 -153.68)"></path><path class="cls-11" d="M849.79,487.75H688.6c-9.67,0-16.32-8.48-14.85-18.94l10-71c1.47-10.46,10.5-18.94,20.18-18.94H865.1c9.67,0,16.32,8.48,14.85,18.94l-10,71C868.5,479.27,859.47,487.75,849.79,487.75Z" transform="translate(-30.62 -153.68)"></path><path class="cls-24" d="M791.46,406.91a14.86,14.86,0,0,1-8.57,11.18l3,8.54A25.38,25.38,0,0,0,801,406.91Z" transform="translate(-30.62 -153.68)"></path><path class="cls-11" d="M782.1,385l-1.34,9.48a10.57,10.57,0,0,1,10.7,12.45H801C802.65,394.8,794.21,385,782.1,385Z" transform="translate(-30.62 -153.68)"></path><path class="cls-25" d="M777.26,419.36c-6.87,0-11.66-5.57-10.69-12.45a14.81,14.81,0,0,1,14.19-12.45L782.1,385a23.52,23.52,0,0,0-9.93,2.22c-11.64,5.31-18,18.44-14.22,29.33s16.27,15.41,27.91,10.1l-3-8.54A13.47,13.47,0,0,1,777.26,419.36Z" transform="translate(-30.62 -153.68)"></path><path class="cls-26" d="M724.44,385l-1.34,9.48a10.57,10.57,0,0,1,10.7,12.45A14.71,14.71,0,0,1,727.25,417l4.5,7.69a25.21,25.21,0,0,0,11.54-17.75C745,394.8,736.55,385,724.44,385Z" transform="translate(-30.62 -153.68)"></path><path class="cls-26" d="M727.25,417a13.89,13.89,0,0,1-7.65,2.39c-6.87,0-11.66-5.57-10.7-12.45h-9.48a19.13,19.13,0,0,0,2.37,12.9c5.75,9.8,19.16,12,30,4.85Z" transform="translate(-30.62 -153.68)"></path><path class="cls-23" d="M723.1,394.46l1.34-9.48c-12.12,0-23.32,9.82-25,21.93h9.48A14.83,14.83,0,0,1,723.1,394.46Z" transform="translate(-30.62 -153.68)"></path><path class="cls-25" d="M840,385l-1.33,9.49a10.56,10.56,0,0,1,10.69,12.44,14.8,14.8,0,0,1-14.19,12.45,11.67,11.67,0,0,1-3.76-.61l-4.2,9a19.72,19.72,0,0,0,6.62,1.07c12.12,0,23.32-9.82,25-21.94S852.09,385,840,385Z" transform="translate(-30.62 -153.68)"></path><path class="cls-24" d="M838.65,394.47,840,385a23.6,23.6,0,0,0-13.48,4.19l4.5,7.68A14,14,0,0,1,838.65,394.47Z" transform="translate(-30.62 -153.68)"></path><path class="cls-26" d="M824.45,406.91A14.73,14.73,0,0,1,831,396.85l-4.5-7.68a25.62,25.62,0,0,0-9.51,11c-5.37,11.52-.8,23.89,10.2,27.64l4.2-9A10.54,10.54,0,0,1,824.45,406.91Z" transform="translate(-30.62 -153.68)"></path><path class="cls-26" d="M732.94,444.09H696.27a2.88,2.88,0,0,1-2.92-3.4,4,4,0,0,1,3.87-3.4H733.9a2.89,2.89,0,0,1,2.92,3.4A4,4,0,0,1,732.94,444.09Z" transform="translate(-30.62 -153.68)"></path><path class="cls-25" d="M728.82,479.43H690.46a2.16,2.16,0,0,1-2.2-2.55l3.79-27a3,3,0,0,1,2.91-2.55h38.36a2.17,2.17,0,0,1,2.2,2.55l-3.79,27A3,3,0,0,1,728.82,479.43Z" transform="translate(-30.62 -153.68)"></path><path class="cls-26" d="M791.47,444.09H754.8a2.88,2.88,0,0,1-2.92-3.4,4,4,0,0,1,3.88-3.4h36.67a2.88,2.88,0,0,1,2.92,3.4A4,4,0,0,1,791.47,444.09Z" transform="translate(-30.62 -153.68)"></path><path class="cls-25" d="M787.35,479.43H749a2.17,2.17,0,0,1-2.2-2.55l3.79-27a3,3,0,0,1,2.92-2.55h38.36a2.16,2.16,0,0,1,2.19,2.55l-3.79,27A3,3,0,0,1,787.35,479.43Z" transform="translate(-30.62 -153.68)"></path><path class="cls-26" d="M850,444.09H813.33a2.89,2.89,0,0,1-2.92-3.4,4,4,0,0,1,3.88-3.4H851a2.88,2.88,0,0,1,2.92,3.4A4,4,0,0,1,850,444.09Z" transform="translate(-30.62 -153.68)"></path><path class="cls-23" d="M845.89,479.43H807.52a2.16,2.16,0,0,1-2.19-2.55l3.79-27a3,3,0,0,1,2.91-2.55h38.36a2.17,2.17,0,0,1,2.2,2.55l-3.79,27A3,3,0,0,1,845.89,479.43Z" transform="translate(-30.62 -153.68)"></path><ellipse class="cls-29" cx="258.08" cy="659.85" rx="201.65" ry="28.15"></ellipse><ellipse class="cls-30" cx="258.08" cy="659.85" rx="192.21" ry="26.83"></ellipse><ellipse class="cls-31" cx="258.08" cy="659.85" rx="182.77" ry="25.51"></ellipse><ellipse class="cls-32" cx="258.08" cy="659.85" rx="173.33" ry="24.2"></ellipse><ellipse class="cls-33" cx="258.08" cy="659.85" rx="163.9" ry="22.88"></ellipse><ellipse class="cls-34" cx="258.08" cy="659.85" rx="154.46" ry="21.56"></ellipse><ellipse class="cls-35" cx="258.08" cy="659.85" rx="145.02" ry="20.24"></ellipse><ellipse class="cls-36" cx="258.08" cy="659.85" rx="135.58" ry="18.93"></ellipse><ellipse class="cls-37" cx="258.08" cy="659.85" rx="126.14" ry="17.61"></ellipse><ellipse class="cls-38" cx="258.08" cy="659.85" rx="116.7" ry="16.29"></ellipse><ellipse class="cls-39" cx="258.08" cy="659.85" rx="107.26" ry="14.97"></ellipse><path class="cls-40" d="M386.53,813.53c0,7.54-43.8,13.65-97.83,13.65s-97.82-6.11-97.82-13.65,43.79-13.66,97.82-13.66S386.53,806,386.53,813.53Z" transform="translate(-30.62 -153.68)"></path><path class="cls-41" d="M377.09,813.53c0,6.81-39.57,12.34-88.39,12.34s-88.38-5.53-88.38-12.34,39.57-12.34,88.38-12.34S377.09,806.71,377.09,813.53Z" transform="translate(-30.62 -153.68)"></path><path class="cls-42" d="M367.65,813.53c0,6.08-35.35,11-78.95,11s-78.95-4.94-78.95-11,35.35-11,78.95-11S367.65,807.44,367.65,813.53Z" transform="translate(-30.62 -153.68)"></path><path class="cls-43" d="M358.21,813.53c0,5.36-31.12,9.7-69.51,9.7s-69.51-4.34-69.51-9.7,31.12-9.7,69.51-9.7S358.21,808.17,358.21,813.53Z" transform="translate(-30.62 -153.68)"></path><path class="cls-44" d="M348.77,813.53c0,4.63-26.89,8.38-60.07,8.38s-60.07-3.75-60.07-8.38,26.9-8.39,60.07-8.39S348.77,808.9,348.77,813.53Z" transform="translate(-30.62 -153.68)"></path><path class="cls-45" d="M339.33,813.53c0,3.9-22.67,7.07-50.63,7.07s-50.63-3.17-50.63-7.07,22.67-7.07,50.63-7.07S339.33,809.62,339.33,813.53Z" transform="translate(-30.62 -153.68)"></path><path class="cls-46" d="M329.89,813.53c0,3.17-18.44,5.75-41.19,5.75s-41.19-2.58-41.19-5.75,18.44-5.75,41.19-5.75S329.89,810.35,329.89,813.53Z" transform="translate(-30.62 -153.68)"></path><path class="cls-16" d="M320.46,813.53c0,2.45-14.22,4.43-31.76,4.43S257,816,257,813.53s14.21-4.43,31.75-4.43S320.46,811.08,320.46,813.53Z" transform="translate(-30.62 -153.68)"></path><ellipse class="cls-29" cx="427.55" cy="690.01" rx="185.7" ry="25.92"></ellipse><ellipse class="cls-30" cx="427.55" cy="690.01" rx="177.01" ry="24.71"></ellipse><ellipse class="cls-31" cx="427.55" cy="690.01" rx="168.32" ry="23.5"></ellipse><ellipse class="cls-32" cx="427.55" cy="690.01" rx="159.63" ry="22.28"></ellipse><ellipse class="cls-33" cx="427.55" cy="690.01" rx="150.93" ry="21.07"></ellipse><ellipse class="cls-34" cx="427.55" cy="690.01" rx="142.24" ry="19.86"></ellipse><ellipse class="cls-35" cx="427.55" cy="690.01" rx="133.55" ry="18.64"></ellipse><ellipse class="cls-36" cx="427.55" cy="690.01" rx="124.86" ry="17.43"></ellipse><ellipse class="cls-37" cx="427.55" cy="690.01" rx="116.17" ry="16.22"></ellipse><ellipse class="cls-38" cx="427.55" cy="690.01" rx="107.47" ry="15"></ellipse><ellipse class="cls-39" cx="427.55" cy="690.01" rx="98.78" ry="13.79"></ellipse><ellipse class="cls-40" cx="427.55" cy="690.01" rx="90.09" ry="12.58"></ellipse><ellipse class="cls-41" cx="427.55" cy="690.01" rx="81.4" ry="11.36"></ellipse><ellipse class="cls-42" cx="427.55" cy="690.01" rx="72.7" ry="10.15"></ellipse><ellipse class="cls-43" cx="427.55" cy="690.01" rx="64.01" ry="8.94"></ellipse><ellipse class="cls-44" cx="427.55" cy="690.01" rx="55.32" ry="7.72"></ellipse><path class="cls-45" d="M504.81,843.69c0,3.6-20.88,6.51-46.63,6.51s-46.63-2.91-46.63-6.51,20.88-6.51,46.63-6.51S504.81,840.1,504.81,843.69Z" transform="translate(-30.62 -153.68)"></path><path class="cls-46" d="M496.11,843.69c0,2.92-17,5.3-37.93,5.3s-37.94-2.38-37.94-5.3,17-5.29,37.94-5.29S496.11,840.77,496.11,843.69Z" transform="translate(-30.62 -153.68)"></path><ellipse class="cls-16" cx="427.55" cy="690.01" rx="29.24" ry="4.08"></ellipse><path class="cls-25" d="M194.89,753.43s-40.83,73.86-24.54,73.71,46.91-63,46.91-63Z" transform="translate(-30.62 -153.68)"></path><path class="cls-25" d="M363.45,752.32S404.28,826.18,388,826s-46.9-63-46.9-63Z" transform="translate(-30.62 -153.68)"></path><path class="cls-26" d="M201.18,756.43l-6.29-3s-40.83,73.86-24.54,73.71C162.93,819.2,189.45,775,201.18,756.43Z" transform="translate(-30.62 -153.68)"></path><path class="cls-26" d="M341.09,763s30.62,62.89,46.9,63c2.89,0,4-2.28,3.82-6.09-2.66,2-6.19.83-10.29-2.44-5.83-4.65-24.29-45-30.16-59.41Z" transform="translate(-30.62 -153.68)"></path><path class="cls-23" d="M242,481.3c-41.35.05-94.45,52.84-106.82,126.68s11.24,144.68,83.21,167.17,157.43,21,202.41-27.17,79.83-117.17,24.73-120.9-90.27,1.41-90.27,1.41S348.39,481.18,242,481.3Z" transform="translate(-30.62 -153.68)"></path><path class="cls-47" d="M453.92,659.73a116.2,116.2,0,0,0-19.21-33.28c-48.84-2.43-79.46,2-79.46,2s-5.87-125.78-90.71-144.78c-4.33.4-8.79,1-13.42,1.83-65.38,11.82-74.54,190.3,23.58,223.12C338.89,730.13,475.18,715.65,453.92,659.73Z" transform="translate(-30.62 -153.68)"></path><path class="cls-48" d="M239.42,754.11c-72-22.49-95.58-93.33-83.21-167.17,5.73-34.2,20.2-63.89,38.2-85.91-27.2,21.82-51.4,60.16-59.24,107-12.37,73.84,11.24,144.68,83.21,167.17s157.43,21,202.41-27.17q4.48-4.82,8.82-9.88C382.53,775.17,305.33,774.71,239.42,754.11Z" transform="translate(-30.62 -153.68)"></path><path class="cls-49" d="M350.62,560.67s19.88,62,23.64,66.35c1.95,2.24-5.37,19.5-20.8-7.25-3.45-6-15-62.37-11.95-60.81C341.89,559.16,350.41,560.29,350.62,560.67Z" transform="translate(-30.62 -153.68)"></path><path class="cls-50" d="M369.27,631.09l-22.64-65.26L342,569.67c1.74,11.34,5.43,29.1,8.34,40.28l6.14,14.63c3.83,5.64,7.08,8.42,9.72,9.46Z" transform="translate(-30.62 -153.68)"></path><path class="cls-24" d="M322.15,509c2.42,0,15.28,11,21.58,27.22a344.75,344.75,0,0,1,11.45,35.29,2.17,2.17,0,0,1-1.32,2.57l-37,14.32A2.17,2.17,0,0,1,314,586.8C311.6,573.54,297.69,509,322.15,509Z" transform="translate(-30.62 -153.68)"></path><path class="cls-24" d="M279.25,678.63c-5.29-5.43-43.32-86.72-46.62-130.07-2.34-30.76,33.45-52.88,37.05-56.49,6.61,12.49,9.82,18.39,19.95,17.82,7.55-.42,9.29-7.4,9.78-11.08,6.69,2.2,31,10.16,32.24,21.72,5.12,47.43,34.55,107,37.62,115.69.14.41-23.26,6.95-45.07,18.1S281.91,681.36,279.25,678.63Z" transform="translate(-30.62 -153.68)"></path><path class="cls-51" d="M328.82,635.24S285.7,617,284.3,614.11s-3.65-25.64-7-45.51-16-41.91-26.49-48.65a15.79,15.79,0,0,0-7.92-2.52c-6.4,8.73-11.16,19.28-10.26,31.13,3.28,43.14,40.95,123.83,46.54,130Z" transform="translate(-30.62 -153.68)"></path><path class="cls-49" d="M420.39,783a316.79,316.79,0,0,1-7.78,38.26c-1.94,7.22,2.75,11.69,5.42,11.78,1.25,0,54.86,0,54.86,0s2.61-10.82-5.78-13.44-20.53-4.27-22.77-9.5,3.79-18.91,3.79-18.91Z" transform="translate(-30.62 -153.68)"></path><path class="cls-50" d="M472.64,825.06s-25.77-2.09-27-1.77-24.26,2.2-25.84-2.21,8.82-26.18,8.82-26.18H418.5c-1.25,6.9-3.16,16.21-5.89,26.38-1.94,7.22,2.75,11.69,5.42,11.78.71,0,18.06,0,33.06,0l21.55-8Z" transform="translate(-30.62 -153.68)"></path><path class="cls-52" d="M435,832.22a2.61,2.61,0,0,0,2.51-2.33c.23-2.23,1.52-6,6.6-10.64,8.37-7.65,11.76-7.84,15.49-7.65s30,14.5,32.8,18.1c1.91,2.43,2.1,8.58-3.32,8.77-4.81.17-66.51,0-80.05,0a2.62,2.62,0,0,1-2.61-2.64h0a2.64,2.64,0,0,1,2.54-2.63Z" transform="translate(-30.62 -153.68)"></path><path class="cls-14" d="M348.39,695.25c-1.25-.5-5.92-48.37-5.22-49.52,9.87-16.12,99.5-25.5,119.61-23.1,40.63,4.87-17.32,180.82-17.32,180.82s-27.23-6.78-27.32-7.19L432.8,679.5C432.39,677.61,355.76,698.2,348.39,695.25Z" transform="translate(-30.62 -153.68)"></path><path class="cls-53" d="M426.7,798.68c22.07-41.95,24.58-127.63,16.86-135.2-6-5.86-70,3.36-98.46,7.8,1.23,12,2.67,23.72,3.29,24,7.37,3,84-17.64,84.41-15.75L418.14,796.26C418.18,796.41,422,797.44,426.7,798.68Z" transform="translate(-30.62 -153.68)"></path><path class="cls-49" d="M492.78,805.08l11.09,8.65a44.75,44.75,0,0,1,11.27,13.18c3.14,5.51,8.28,11.5,14.06,6.34.93-.83,34.94-41.84,34.94-41.84s-6.59-8.88-13.93-4.14-19.77,13-25.18,11.34-25.21-23-25.21-23Z" transform="translate(-30.62 -153.68)"></path><path class="cls-50" d="M544.58,805.44s-17.65,23-24.5,13.75c-4.94-6.67-18.07-18-25-23.72l-2.3,9.61,11.09,8.65a44.75,44.75,0,0,1,11.27,13.18c3.14,5.51,8.28,11.5,14.06,6.34.5-.45,10.51-12.45,19.69-23.48Z" transform="translate(-30.62 -153.68)"></path><path class="cls-54" d="M539.39,819.75a2.58,2.58,0,0,0-.18-3.4c-1.55-1.6-3.59-5-3.9-11.82-.51-11.25,1.51-13.95,4-16.68s30.15-13.63,34.69-13.49c3.06.09,7.88,3.87,4.57,8.12-2.94,3.77-42.33,50.75-51,61a2.6,2.6,0,0,1-3.67.31h0a2.61,2.61,0,0,1-.4-3.6Z" transform="translate(-30.62 -153.68)"></path><path class="cls-14" d="M275.41,665.27c-3,54.63,76.78,44,125.41,52,2,.33,6.41,33.59,98.84,94.21,1,.63,18.49-19,17.74-19.6-23.31-20-77.94-91.94-94.59-104.59C348.39,630.72,277.25,631.78,275.41,665.27Z" transform="translate(-30.62 -153.68)"></path><path class="cls-55" d="M505.64,806c-10.37-9.81-54.39-51.31-68.42-62.41-16-12.6-30.76-39.08-30.76-39.08s-71.17-6.94-96-25.52a63.28,63.28,0,0,1-22.31-32c-7.71,3.95-12.28,10.17-12.73,18.33-3,54.63,76.78,44,125.41,52,2,.33,6.41,33.59,98.84,94.21C500,811.67,502.57,809.2,505.64,806Z" transform="translate(-30.62 -153.68)"></path><path class="cls-49" d="M267.84,580.67a2,2,0,0,1,2.55,1.45c1.6,7,6.79,29.73,7.93,33.86,1.36,4.9,55.39,16,60.57,17.5,4,1.14,21.19-2.48,24.89-2.05,4.93.58,16.74,11.14,16.15,12.14-2.32,3.94-7-1.06-12.45,2.2-7.4,4.46-21.07-.46-23.64-.47-14,0-73,.29-77.31-2.52-14.34-9.32-26.64-40.89-29.12-48.34C235.35,588.24,261.41,582.71,267.84,580.67Z" transform="translate(-30.62 -153.68)"></path><path class="cls-50" d="M357.78,642c-10.29,1.26-16.79-.78-16.79-.78s-67.17.48-75.54-6.7c-7.93-6.8-19.84-42.88-21.06-46.64-4.59,2-7.75,4.21-7,6.52,2.48,7.45,14.78,39,29.12,48.34,4.32,2.8,63.32,2.48,77.31,2.52,2.57,0,16.24,4.93,23.64.47.21-.12.41-.21.62-.31l1.17-6.25S368.07,640.79,357.78,642Z" transform="translate(-30.62 -153.68)"></path><path class="cls-24" d="M236.34,594.75l37.34-9.5a3,3,0,0,0,2.22-3.57c-2.82-13.28-15.78-67.95-35.71-58.53-17,8-9.85,56.2-7.6,69.19A3,3,0,0,0,236.34,594.75Z" transform="translate(-30.62 -153.68)"></path><path class="cls-24" d="M240.19,523.15a10.91,10.91,0,0,1,3.66-1A28.56,28.56,0,0,0,235,544.68c.78,13.86,7.53,37.34,10.69,47.69l-9.37,2.38a3,3,0,0,1-3.75-2.41C230.34,579.35,223.23,531.15,240.19,523.15Z" transform="translate(-30.62 -153.68)"></path><path class="cls-11" d="M366.3,655.75l-55.89-2.41a4.84,4.84,0,0,1-4.64-5.05h0a4.86,4.86,0,0,1,5.06-4.64l55.89,2.41a4.85,4.85,0,0,1,4.63,5.05h0A4.84,4.84,0,0,1,366.3,655.75Z" transform="translate(-30.62 -153.68)"></path><path class="cls-56" d="M309.48,649.81a4.13,4.13,0,0,1-3-3.8,4.89,4.89,0,0,0-.71,2.28,4.84,4.84,0,0,0,4.64,5.05l55.89,2.41a4.85,4.85,0,0,0,4.93-3.78C367.65,651.9,313.34,650.79,309.48,649.81Z" transform="translate(-30.62 -153.68)"></path><path class="cls-57" d="M366.81,655.72l104.39-15.2a7.22,7.22,0,0,0,5.71-5.75l9.91-65.95a3.53,3.53,0,0,0-4.2-4.31l-104.39,15.2a7.22,7.22,0,0,0-5.71,5.75l-9.91,65.95A3.53,3.53,0,0,0,366.81,655.72Z" transform="translate(-30.62 -153.68)"></path><path class="cls-49" d="M301.64,482.94a1.56,1.56,0,0,0,0-1.95l-18.28-26.3c-.81-1.15-6.4,4.23-6.47,5.64-.56,12.93-4.9,27.43-7.54,32-3,5.2.56,12.51,8.65,17.69s17.28,5.27,20.5.22c1.51-2.36,2.21-8.35.89-11.47C299,495.14,297.57,487.15,301.64,482.94Z" transform="translate(-30.62 -153.68)"></path><path class="cls-50" d="M283.38,454.69c-.81-1.15-6.39,4.24-6.47,5.64a102.46,102.46,0,0,1-2.21,16,68,68,0,0,0,24.54,21c-.48-4-1.2-10.7,2.4-14.42a1.56,1.56,0,0,0,0-1.95Z" transform="translate(-30.62 -153.68)"></path><path class="cls-49" d="M268.28,443c-4.54,29.66,23.69,50,35.66,51.71,9.22,1.3,20.15-16.15,23.53-36.66,4.13-25-.8-29.62-20.45-39.08C292.55,412,271.42,422.44,268.28,443Z" transform="translate(-30.62 -153.68)"></path><path class="cls-58" d="M307,419c-14.47-7-35.6,3.48-38.74,24-1.8,11.73,1.54,22,7,30.24,1.17-3.39,3-8.55,5.22-14.73a2.76,2.76,0,0,0-1-3.14c-3.45-2-5.78-7.89-3.49-14a4.48,4.48,0,0,1,4.18-2.9c11.63,0,7.73,18.42,5,25.49-1,2.7-2.8,6.52-4.07,9.19a12.18,12.18,0,0,0-.46,6.06,3.6,3.6,0,0,0,1,1.93c7.67,7.94,16.77,12.78,22.34,13.57,5.29.74,11.14-4.69,15.81-13.33l-.06-.15c-1.61-4.46-4.09-7.31-7.42-8.63-4-1.59-9.17-1-15.58,1.67a4.47,4.47,0,0,1-6.12-3.54,2.41,2.41,0,0,1,0-1.1c.92-3.57,2.72-10.86,4.09-18.22a10,10,0,0,1,11.4-8.18,29.24,29.24,0,0,1,5.57,1.59c6.15,2.44,11.86,5.21,16.82,5.63.18-1.82.28-3.51.32-5.09v-.2c0-.34,0-.67,0-1C328.69,430.77,322.32,426.32,307,419Z" transform="translate(-30.62 -153.68)"></path><path class="cls-59" d="M341.44,424.33c-3.83-5.35,1.49,5.54-15,1.33-5.43-1.39-10.73-8.19-23.31-9.85C289.27,414,276,418,269.52,437.87c-.19.59-.37,1.18-.52,1.77,3.86-4.16,11.71-11,18.8-7.23,4.25,2.27,20.85,11.16,24.56,12.73,9.85,4.16,18.75,8.71,24.82,2.16C343.44,440.54,342.28,428.25,341.44,424.33Z" transform="translate(-30.62 -153.68)"></path><path class="cls-26" d="M552.18,565.42,582.65,754.2c1.47,9.09,10,16.44,19.1,16.41l307.3-.93c9.08,0,15.25-7.42,13.79-16.51L892.36,564.39c-1.46-9.09-10-16.44-19.1-16.41L566,548.91C556.88,548.94,550.71,556.33,552.18,565.42Z" transform="translate(-30.62 -153.68)"></path><path class="cls-14" d="M664,531.61,657.26,575c-1.53,9.84,5.21,17.79,15.06,17.76l85.75-.26c9.84,0,19.06-8,20.59-17.87l6.75-43.41c1.52-9.84-5.22-17.79-15.06-17.76l-85.75.26C674.75,513.77,665.53,521.77,664,531.61Zm9.81,6.75c1.18-7.59,8.29-13.77,15.89-13.79l72.17-.22c7.6,0,12.8,6.12,11.62,13.71l-4.63,29.84A16.75,16.75,0,0,1,753,581.69l-72.18.22c-7.59,0-12.8-6.12-11.62-13.71Z" transform="translate(-30.62 -153.68)"></path><path class="cls-14" d="M545.37,565.42,516,754.2c-1.41,9.09,4.82,16.44,13.91,16.41l307.59-.93c9.09,0,17.61-7.42,19-16.51l29.33-188.78C887.3,555.3,881.07,548,872,548l-307.59.93C555.3,548.94,546.78,556.33,545.37,565.42Z" transform="translate(-30.62 -153.68)"></path><path class="cls-26" d="M543.79,575.59,539,606.32c-2.11,13.54,4.53,25.6,16.58,30.12h0c91,34.14,196.29,33.83,298-.9h0c13.47-4.6,23.86-16.71,26-30.25l4.78-30.74c1.41-9.09-4.82-16.43-13.91-16.4l-307.59.93C553.72,559.11,545.2,566.5,543.79,575.59Z" transform="translate(-30.62 -153.68)"></path><path class="cls-25" d="M545.37,565.42l-4.77,30.74c-2.11,13.54,4.53,25.59,16.58,30.11h0c91,34.15,196.29,33.83,298-.9h0c13.47-4.6,23.86-16.71,26-30.25l4.78-30.73C887.3,555.3,881.07,548,872,548l-307.59.93C555.3,548.94,546.78,556.33,545.37,565.42Z" transform="translate(-30.62 -153.68)"></path><path class="cls-26" d="M663.47,637.13l-4.55,29.29c-1,6.64,3.51,12,10.16,12l57.86-.18a14.63,14.63,0,0,0,13.9-12.06l4.55-29.29c1-6.64-3.52-12-10.16-12l-57.87.18A14.63,14.63,0,0,0,663.47,637.13Z" transform="translate(-30.62 -153.68)"></path><path class="cls-24" d="M674.83,641.39l-3.22,20.69a7.07,7.07,0,0,0,7.18,8.47l40.87-.13a10.32,10.32,0,0,0,9.82-8.51l3.21-20.69a7.07,7.07,0,0,0-7.17-8.47l-40.88.12A10.34,10.34,0,0,0,674.83,641.39Z" transform="translate(-30.62 -153.68)"></path><ellipse class="cls-29" cx="741.51" cy="670.6" rx="212.42" ry="29.65"></ellipse><ellipse class="cls-30" cx="741.51" cy="670.6" rx="202.48" ry="28.26"></ellipse><ellipse class="cls-31" cx="741.51" cy="670.6" rx="192.54" ry="26.88"></ellipse><ellipse class="cls-32" cx="741.51" cy="670.6" rx="182.59" ry="25.49"></ellipse><ellipse class="cls-33" cx="741.51" cy="670.6" rx="172.65" ry="24.1"></ellipse><ellipse class="cls-34" cx="741.51" cy="670.6" rx="162.71" ry="22.71"></ellipse><ellipse class="cls-35" cx="741.51" cy="670.6" rx="152.76" ry="21.32"></ellipse><ellipse class="cls-36" cx="741.51" cy="670.6" rx="142.82" ry="19.94"></ellipse><ellipse class="cls-37" cx="741.51" cy="670.6" rx="132.88" ry="18.55"></ellipse><ellipse class="cls-38" cx="741.51" cy="670.6" rx="122.94" ry="17.16"></ellipse><ellipse class="cls-39" cx="741.51" cy="670.6" rx="112.99" ry="15.77"></ellipse><ellipse class="cls-40" cx="741.51" cy="670.6" rx="103.05" ry="14.38"></ellipse><ellipse class="cls-41" cx="741.51" cy="670.6" rx="93.11" ry="13"></ellipse><ellipse class="cls-42" cx="741.51" cy="670.6" rx="83.16" ry="11.61"></ellipse><ellipse class="cls-43" cx="741.51" cy="670.6" rx="73.22" ry="10.22"></ellipse><ellipse class="cls-44" cx="741.51" cy="670.6" rx="63.28" ry="8.83"></ellipse><ellipse class="cls-45" cx="741.51" cy="670.6" rx="53.34" ry="7.45"></ellipse><ellipse class="cls-46" cx="741.51" cy="670.6" rx="43.39" ry="6.06"></ellipse><ellipse class="cls-16" cx="741.51" cy="670.6" rx="33.45" ry="4.67"></ellipse><path class="cls-24" d="M665.61,616.93H903a0,0,0,0,1,0,0v46.62a0,0,0,0,1,0,0H665.61a7.9,7.9,0,0,1-7.9-7.9V624.82A7.9,7.9,0,0,1,665.61,616.93Z"></path><rect class="cls-20" x="791.93" y="628.41" width="87.98" height="23.65" rx="4.17"></rect><path class="cls-26" d="M720.19,808.61h0a14.69,14.69,0,0,1-14.69-14.69h0a14.7,14.7,0,0,1,14.69-14.7h0a14.7,14.7,0,0,1,14.7,14.7h0A14.7,14.7,0,0,1,720.19,808.61Z" transform="translate(-30.62 -153.68)"></path><path class="cls-11" d="M731.42,724.43H968.79a0,0,0,0,1,0,0v46.62a0,0,0,0,1,0,0H731.42a7.9,7.9,0,0,1-7.9-7.9V732.33A7.9,7.9,0,0,1,731.42,724.43Z" transform="translate(1661.7 1341.81) rotate(180)"></path><rect class="cls-20" x="746.6" y="735.92" width="87.98" height="23.65" rx="4.17" transform="translate(1550.55 1341.81) rotate(180)"></rect><path class="cls-26" d="M936.94,762.44h0a14.7,14.7,0,0,0,14.69-14.7h0a14.69,14.69,0,0,0-14.69-14.69h0a14.7,14.7,0,0,0-14.7,14.69h0A14.7,14.7,0,0,0,936.94,762.44Z" transform="translate(-30.62 -153.68)"></path><path class="cls-60" d="M869.72,696.62a17.9,17.9,0,1,1,17.9-17.9A17.91,17.91,0,0,1,869.72,696.62Zm0-31.22A13.32,13.32,0,1,0,883,678.72,13.33,13.33,0,0,0,869.72,665.4Z" transform="translate(-30.62 -153.68)"></path><g class="cls-61"><path class="cls-22" d="M822.25,615.16a.38.38,0,0,0-.39.61c1.63,1.89,4.88,6.36,3.76,11.05-1.06,4.45-5.88,8.19-4.9,14.23,1.24,7.63,8.84,8.49,12.58,8.45a.38.38,0,0,0,.13-.74c-2.55-1-6.8-3.44-7.32-8.68-.63-6.39,5.06-6.29,5.06-15.32C831.17,618.51,825,616,822.25,615.16Z" transform="translate(-30.62 -153.68)"></path><path class="cls-22" d="M835.47,606.36a.36.36,0,0,0-.32.63c1.91,1.48,4.49,4.48,4.49,10,0,8.72-6.53,8.66-6.53,17.68,0,4.47,5,8.46,8,10.47a.62.62,0,0,0,.88-.83c-1.64-2.88-3.94-8-2.21-11.54,2.54-5.24,9.37-12.21,4.82-19.78C842.29,609,838.1,607.18,835.47,606.36Z" transform="translate(-30.62 -153.68)"></path></g><path class="cls-62" d="M779.05,500.63H839a2.11,2.11,0,0,1,2.11,2.11v42a25.71,25.71,0,0,1-25.71,25.71H802.65a25.71,25.71,0,0,1-25.71-25.71v-42A2.11,2.11,0,0,1,779.05,500.63Z"></path><path class="cls-60" d="M862.71,654.31v37.11A25.73,25.73,0,0,1,837,717.16H824.3a25.61,25.61,0,0,1-10.79-2.37,25.69,25.69,0,0,0,19.79,9.29H846a25.73,25.73,0,0,0,25.73-25.74V656.65a2.34,2.34,0,0,0-2.34-2.34Z" transform="translate(-30.62 -153.68)"></path></g></svg>