<?xml version="1.0" encoding="UTF-8" ?>
<!DOCTYPE svg PUBLIC "-//W3C//DTD SVG 1.1//EN" "http://www.w3.org/Graphics/SVG/1.1/DTD/svg11.dtd">
<svg width="1051pt" height="196pt" viewBox="0 0 1051 196" version="1.1" xmlns="http://www.w3.org/2000/svg">
<g id="#ee2525ff">
<path fill="#ee2525" opacity="1.00" d=" M 137.64 17.89 C 142.42 17.12 147.36 21.07 147.36 25.98 C 147.43 38.67 147.37 51.37 147.38 64.06 C 147.63 68.26 144.23 72.21 140.08 72.68 C 135.09 73.61 130.07 69.15 130.34 64.10 C 130.34 51.37 130.29 38.63 130.37 25.89 C 130.37 21.88 133.73 18.39 137.64 17.89 Z" />
<path fill="#ee2525" opacity="1.00" d=" M 156.11 30.97 C 168.24 35.84 178.10 46.10 182.35 58.47 C 186.76 70.97 185.46 85.37 178.75 96.81 C 172.30 108.09 160.83 116.36 148.08 118.87 C 136.43 121.25 123.89 118.99 113.92 112.48 C 100.97 104.31 92.77 89.31 92.79 74.01 C 92.44 55.44 104.63 37.06 122.28 30.92 C 122.34 36.73 122.63 42.54 122.50 48.35 C 118.31 51.99 113.99 55.82 111.80 61.10 C 107.75 69.56 108.12 80.01 112.73 88.18 C 116.75 95.51 123.99 100.98 132.14 102.86 C 139.61 104.49 147.74 103.38 154.27 99.31 C 164.55 93.34 170.35 80.79 168.39 69.08 C 167.32 61.07 162.41 54.22 156.25 49.23 C 155.60 43.18 155.95 37.04 156.11 30.97 Z" />
<path fill="#ee2525" opacity="1.00" d=" M 704.42 78.59 L 704.59 78.48 C 704.59 78.55 704.57 78.68 704.56 78.74 L 704.42 78.59 Z" />
<path fill="#ee2525" opacity="1.00" d=" M 650.17 144.40 C 653.69 143.46 657.38 144.02 660.98 143.93 C 664.99 143.98 669.74 144.12 672.57 147.43 C 675.91 150.44 676.45 155.49 675.39 159.64 C 674.46 161.97 672.84 163.92 671.45 165.98 C 673.52 169.43 675.64 172.85 677.71 176.31 C 675.04 177.92 671.62 177.50 668.71 176.96 C 664.65 174.46 664.67 166.62 658.55 167.32 C 657.73 170.54 657.89 173.88 657.49 177.16 C 654.93 176.97 651.69 178.30 649.68 176.20 C 649.18 167.15 649.58 158.06 649.39 148.99 C 649.54 147.48 648.99 145.62 650.17 144.40 M 658.10 159.39 C 660.65 159.77 663.38 160.15 665.83 159.07 C 668.10 157.29 667.83 153.05 665.06 151.93 C 662.90 151.47 660.69 151.61 658.52 151.58 C 657.68 154.11 657.94 156.78 658.10 159.39 Z" />
<path fill="#ee2525" opacity="1.00" d=" M 754.89 148.93 C 759.98 143.25 768.97 141.96 775.65 145.44 C 779.24 147.38 782.36 150.88 782.54 155.14 C 780.00 155.03 777.22 155.87 774.85 154.81 C 772.64 152.93 770.27 150.69 767.09 151.34 C 760.28 151.54 757.75 160.14 760.38 165.49 C 762.63 171.01 772.70 171.79 774.67 165.73 C 772.49 165.50 770.19 165.87 768.12 165.12 C 767.07 163.16 767.79 160.81 767.69 158.69 C 772.46 158.08 777.36 158.15 782.15 158.55 C 783.51 158.45 783.40 159.94 783.56 160.86 C 783.65 165.53 782.36 170.62 778.68 173.76 C 771.16 180.50 757.47 178.55 752.66 169.49 C 749.51 163.04 749.72 154.30 754.89 148.93 Z" />
<path fill="#ee2525" opacity="1.00" d=" M 810.34 144.31 C 816.14 143.76 822.09 143.60 827.87 144.49 C 836.19 146.14 839.27 157.69 833.51 163.67 C 830.99 165.77 833.42 168.41 834.65 170.45 C 835.90 172.61 837.80 174.61 837.73 177.27 C 834.64 177.07 831.21 178.03 828.38 176.52 C 826.22 173.83 824.82 170.60 822.91 167.74 C 821.49 167.69 820.08 167.65 818.68 167.63 C 818.46 170.58 818.46 173.53 818.45 176.48 C 815.98 177.34 812.73 178.05 810.47 176.63 C 809.45 172.51 810.08 168.19 809.89 163.99 C 810.10 157.43 809.39 150.83 810.34 144.31 M 818.65 151.68 C 818.43 154.29 818.44 156.91 818.57 159.53 C 821.01 159.67 823.58 160.14 825.95 159.25 C 828.66 157.86 828.41 153.39 825.87 151.90 C 823.49 151.38 821.05 151.61 818.65 151.68 Z" />
<path fill="#ee2525" opacity="1.00" d=" M 847.30 144.27 C 854.07 143.80 860.94 143.56 867.71 144.37 C 867.71 146.60 868.68 149.35 867.21 151.24 C 863.46 152.05 859.51 151.24 855.70 151.79 C 855.69 153.25 855.70 154.71 855.74 156.18 C 859.25 156.49 862.91 155.83 866.34 156.63 C 867.56 158.76 866.79 161.34 866.68 163.65 C 863.42 163.86 860.16 163.69 856.91 163.88 C 854.73 164.80 855.97 167.53 855.65 169.33 C 859.47 169.89 863.34 169.39 867.19 169.79 C 869.56 171.05 868.07 174.25 868.55 176.38 C 865.56 177.82 862.19 177.27 859.00 177.32 C 855.10 177.16 851.15 177.64 847.31 176.77 C 847.27 165.94 846.80 155.09 847.30 144.27 Z" />
<path fill="#ee2525" opacity="1.00" d=" M 491.76 145.03 C 492.91 143.48 495.32 144.15 497.03 143.94 C 502.29 144.46 508.25 142.87 512.87 146.19 C 519.12 150.30 519.68 160.34 514.37 165.42 C 510.67 168.89 505.28 168.80 500.54 168.76 C 500.07 171.43 500.30 174.19 499.64 176.82 C 497.01 177.75 493.98 177.59 491.45 176.43 C 491.78 165.96 491.16 155.48 491.76 145.03 M 500.81 151.99 C 499.48 154.71 500.03 158.13 500.82 160.99 C 502.85 160.92 504.92 161.04 506.93 160.65 C 509.36 159.56 509.83 156.44 509.13 154.12 C 507.70 150.95 503.59 151.53 500.81 151.99 Z" />
<path fill="#ee2525" opacity="1.00" d=" M 537.24 144.18 C 544.97 141.95 554.67 145.15 558.16 152.76 C 560.76 158.91 560.35 166.71 555.91 171.93 C 548.92 180.30 533.66 179.66 527.88 170.22 C 524.90 165.98 524.95 160.51 525.83 155.61 C 527.07 150.01 531.81 145.67 537.24 144.18 M 540.16 152.11 C 533.83 153.56 532.18 162.45 536.40 166.86 C 539.15 170.08 544.34 170.12 547.71 167.90 C 551.08 165.37 551.57 160.39 550.17 156.67 C 548.71 152.79 543.97 151.10 540.16 152.11 Z" />
<path fill="#ee2525" opacity="1.00" d=" M 565.26 144.36 C 568.57 144.51 574.40 142.37 575.40 146.92 C 576.79 150.95 578.01 155.04 579.09 159.17 C 579.55 159.04 580.46 158.79 580.92 158.67 C 582.73 154.46 583.72 149.94 585.57 145.75 C 586.06 144.10 588.76 143.89 589.54 145.47 C 592.30 150.12 592.26 156.29 595.89 160.36 C 597.51 155.00 598.47 149.26 601.26 144.36 C 604.11 143.63 607.08 144.08 609.97 144.33 C 607.28 154.88 602.55 164.82 599.14 175.15 C 598.70 178.03 594.15 178.72 593.13 175.86 C 591.11 171.58 589.89 166.98 587.81 162.73 C 585.35 166.93 584.26 171.75 582.07 176.07 C 581.12 178.49 577.16 178.04 576.47 175.61 C 574.29 170.27 572.55 164.76 570.40 159.41 C 568.87 154.32 566.18 149.62 565.26 144.36 Z" />
<path fill="#ee2525" opacity="1.00" d=" M 618.25 144.27 C 625.03 143.74 631.90 143.61 638.67 144.37 C 638.47 146.62 640.05 150.21 637.57 151.47 C 633.94 151.76 630.28 151.39 626.66 151.78 C 626.65 153.25 626.67 154.73 626.72 156.20 C 630.27 156.44 633.89 155.89 637.39 156.60 C 638.32 158.85 637.75 161.31 637.64 163.66 C 634.38 163.86 631.12 163.69 627.87 163.88 C 625.65 164.77 626.91 167.55 626.66 169.37 C 630.90 170.13 635.41 168.77 639.45 170.52 C 639.40 172.49 639.40 174.45 639.43 176.42 C 636.49 177.80 633.19 177.28 630.07 177.33 C 626.16 177.18 622.21 177.58 618.35 176.85 C 617.73 166.02 617.74 155.10 618.25 144.27 Z" />
<path fill="#ee2525" opacity="1.00" d=" M 685.64 150.47 C 685.85 148.48 685.17 146.23 686.16 144.42 C 691.22 144.08 696.48 143.54 701.52 144.47 C 702.19 146.56 701.92 148.77 701.67 150.91 C 700.53 151.21 699.40 151.50 698.29 151.81 C 697.68 157.52 698.05 163.27 698.20 169.00 C 699.47 169.77 701.16 169.89 702.19 171.06 C 702.19 173.11 703.05 175.84 701.07 177.26 C 696.31 177.26 691.54 177.42 686.80 177.14 C 684.17 176.15 685.85 172.75 685.43 170.68 C 686.75 170.15 688.07 169.64 689.42 169.15 C 689.73 163.45 689.68 157.72 689.24 152.03 C 688.02 151.53 686.83 151.01 685.64 150.47 Z" />
<path fill="#ee2525" opacity="1.00" d=" M 712.40 144.30 C 713.64 144.35 715.11 143.90 716.20 144.77 C 721.79 149.30 725.96 155.54 732.12 159.37 C 732.36 154.59 732.00 149.79 732.36 145.01 C 734.47 143.04 738.04 144.15 740.70 144.30 C 741.10 155.23 741.28 166.22 740.77 177.16 C 739.24 177.28 737.55 177.31 736.47 176.02 C 731.50 171.15 726.73 166.00 721.26 161.68 C 720.71 166.69 721.70 171.81 720.57 176.74 C 719.32 177.79 717.47 177.20 715.99 177.35 C 714.81 177.11 712.40 177.72 712.41 175.88 C 712.15 165.36 712.33 154.82 712.40 144.30 Z" />
<path fill="#ee2525" opacity="1.00" d=" M 879.25 147.80 C 883.43 143.15 890.73 142.48 896.28 144.80 C 899.52 146.31 902.40 149.53 902.32 153.26 C 900.58 154.88 897.96 154.09 895.84 154.11 C 893.47 152.20 890.63 150.07 887.41 151.41 C 884.74 152.01 884.60 156.32 887.45 156.79 C 891.57 158.02 896.30 157.48 900.03 160.00 C 905.17 163.42 904.48 172.26 899.15 175.17 C 892.93 179.14 883.49 178.75 878.60 172.83 C 877.06 171.24 877.12 168.91 877.34 166.87 C 879.60 166.82 881.87 166.80 884.14 166.88 C 886.16 169.81 889.90 170.72 893.21 169.53 C 895.12 169.41 894.61 167.01 895.09 165.77 C 890.61 163.61 885.13 164.91 880.95 161.98 C 876.31 159.00 876.13 151.93 879.25 147.80 Z" />
<path fill="#ee2525" opacity="1.00" d=" M 912.64 144.65 C 915.22 143.72 917.98 143.78 920.63 144.42 C 921.04 151.60 920.46 158.80 920.81 165.99 C 920.64 171.44 930.82 171.57 930.70 166.13 C 931.26 158.84 930.34 151.49 931.21 144.21 C 933.69 144.15 936.18 144.16 938.68 144.24 C 939.32 149.82 938.96 155.46 939.08 161.06 C 939.03 165.35 939.21 170.14 936.35 173.67 C 929.87 180.66 915.04 178.82 913.00 168.61 C 912.13 160.67 912.99 152.63 912.64 144.65 Z" />
<path fill="#ee2525" opacity="1.00" d=" M 950.28 144.23 C 952.59 144.04 954.95 143.68 957.29 144.04 C 958.76 144.84 958.33 146.63 958.49 147.99 C 958.60 155.12 958.34 162.26 958.65 169.38 C 962.48 169.72 966.34 169.38 970.17 169.81 C 970.46 172.12 971.77 175.84 969.17 177.19 C 962.88 177.35 956.56 177.41 950.28 177.02 C 949.66 171.37 950.06 165.69 949.90 160.02 C 949.93 154.76 949.59 149.47 950.28 144.23 Z" />
<path fill="#ee2525" opacity="1.00" d=" M 975.13 144.32 C 982.40 143.57 989.79 143.97 997.11 143.99 C 1000.74 144.38 999.03 149.23 998.53 151.57 C 996.22 151.58 993.91 151.57 991.61 151.56 C 990.25 159.91 991.82 168.43 990.73 176.81 C 987.99 177.36 985.04 177.78 982.48 176.36 C 982.52 168.15 982.93 159.91 982.25 151.72 C 979.85 151.60 977.45 151.64 975.08 151.35 C 973.95 149.38 973.86 146.14 975.13 144.32 Z" />
<path fill="#ee2525" opacity="1.00" d=" M 1011.40 145.49 C 1017.48 141.98 1027.13 142.90 1030.72 149.55 C 1031.65 150.90 1031.45 152.59 1031.45 154.14 C 1029.31 154.15 1027.16 154.35 1025.05 154.06 C 1023.15 152.85 1021.52 150.77 1019.01 151.07 C 1016.36 150.64 1014.30 152.87 1014.46 155.43 C 1018.52 158.62 1024.18 156.93 1028.54 159.53 C 1033.33 161.89 1033.92 168.60 1031.19 172.73 C 1028.07 176.60 1022.74 178.04 1017.94 177.68 C 1012.30 177.53 1006.28 173.65 1006.04 167.55 C 1009.14 166.66 1013.02 165.88 1015.42 168.65 C 1018.09 171.09 1025.05 170.61 1024.41 165.82 C 1019.93 163.52 1014.39 164.97 1010.20 161.96 C 1004.56 158.22 1005.44 148.50 1011.40 145.49 Z" />
<path fill="#ee2525" opacity="1.00" d=" M 418.51 148.07 C 424.76 151.30 431.10 154.35 437.27 157.74 C 436.85 159.46 437.79 162.19 435.79 163.09 C 430.00 166.02 424.28 169.06 418.49 171.98 C 418.47 169.90 418.38 167.82 418.56 165.75 C 420.42 162.97 424.95 162.67 426.22 159.31 C 423.55 157.77 420.99 156.05 418.45 154.32 C 418.47 152.23 418.48 150.15 418.51 148.07 Z" />
<path fill="#ee2525" opacity="1.00" d=" M 446.72 148.11 C 452.94 151.21 459.16 154.33 465.28 157.63 C 465.27 159.18 465.26 160.73 465.27 162.29 C 459.14 165.60 452.96 168.82 446.74 171.95 C 446.69 169.81 446.67 167.68 446.60 165.55 C 448.90 163.79 451.49 162.44 453.83 160.74 C 453.87 160.36 453.95 159.61 453.99 159.23 C 451.63 157.45 449.05 156.01 446.66 154.28 C 446.68 152.22 446.69 150.17 446.72 148.11 Z" />
</g>
<g id="#000000ff">
<path fill="#000000" opacity="1.00" d=" M 986.95 31.35 C 1001.02 28.74 1015.95 31.70 1028.17 39.08 C 1025.87 44.47 1023.18 49.67 1020.67 54.95 C 1012.66 50.93 1004.15 47.02 995.03 46.83 C 991.68 46.73 987.12 47.96 986.74 51.92 C 986.28 55.67 989.75 58.16 992.83 59.37 C 1002.26 63.20 1013.11 64.17 1021.25 70.78 C 1028.84 76.71 1030.25 88.09 1026.40 96.54 C 1023.56 102.80 1017.48 106.97 1011.08 109.01 C 993.91 114.21 974.38 109.56 960.55 98.38 C 963.19 93.24 965.73 88.07 968.40 82.95 C 975.77 88.81 984.50 93.25 993.91 94.52 C 997.56 94.97 1001.62 94.87 1004.77 92.74 C 1008.02 90.56 1007.87 85.22 1004.70 83.04 C 1001.22 80.41 996.84 79.45 992.75 78.23 C 985.41 76.20 977.61 74.33 971.72 69.23 C 964.95 63.44 963.86 53.02 967.32 45.17 C 970.77 37.41 978.92 32.91 986.95 31.35 Z" />
<path fill="#000000" opacity="1.00" d=" M 18.17 31.31 C 30.10 31.26 42.03 31.27 53.96 31.30 C 62.78 31.48 72.30 33.81 78.36 40.66 C 84.64 47.79 85.44 58.13 83.63 67.08 C 82.10 74.70 76.96 81.55 69.83 84.76 C 60.04 89.61 48.86 87.87 38.36 88.24 C 38.27 95.64 38.37 103.04 38.29 110.45 C 31.60 110.55 24.90 110.46 18.20 110.51 C 18.03 84.11 18.09 57.71 18.17 31.31 M 38.35 47.26 C 38.27 55.56 38.38 63.87 38.29 72.17 C 44.62 72.08 51.13 72.93 57.35 71.48 C 67.25 68.94 68.31 52.85 59.18 48.71 C 52.57 46.07 45.26 47.62 38.35 47.26 Z" />
<path fill="#000000" opacity="1.00" d=" M 184.89 31.30 C 192.04 31.30 199.19 31.21 206.35 31.35 C 211.35 50.04 216.17 68.79 221.34 87.44 C 222.88 86.11 222.99 83.99 223.54 82.17 C 227.52 66.60 231.67 51.07 235.63 35.49 C 236.02 34.10 236.29 32.65 237.00 31.37 C 243.50 31.14 250.01 31.33 256.51 31.32 C 261.42 49.64 266.28 67.98 271.15 86.32 C 272.45 86.05 273.17 85.24 273.30 83.89 C 277.89 66.37 282.44 48.84 287.10 31.34 C 293.97 31.24 300.85 31.26 307.72 31.33 C 299.14 57.75 290.37 84.11 281.64 110.48 C 274.69 110.42 267.73 110.66 260.77 110.37 C 256.17 92.71 251.52 75.05 246.53 57.50 C 245.80 58.63 245.16 59.83 244.87 61.15 C 240.50 77.62 235.94 94.04 231.46 110.48 C 224.51 110.49 217.56 110.52 210.61 110.46 C 202.04 84.08 193.11 57.80 184.89 31.30 Z" />
<path fill="#000000" opacity="1.00" d=" M 314.51 31.33 C 335.15 31.26 355.78 31.24 376.41 31.34 C 376.44 36.61 376.45 41.89 376.41 47.16 C 362.51 47.42 348.60 46.96 334.71 47.39 C 334.82 52.51 334.74 57.63 334.79 62.75 C 347.31 62.86 359.84 62.73 372.37 62.81 C 372.44 68.12 372.39 73.43 372.41 78.74 C 359.87 78.94 347.33 78.74 334.78 78.84 C 334.76 84.04 334.74 89.24 334.80 94.44 C 349.09 94.54 363.39 94.41 377.68 94.50 C 377.75 99.82 377.75 105.15 377.68 110.47 C 356.63 110.51 335.57 110.52 314.52 110.46 C 314.46 84.09 314.47 57.71 314.51 31.33 Z" />
<path fill="#000000" opacity="1.00" d=" M 390.29 31.32 C 402.54 31.25 414.78 31.28 427.03 31.30 C 436.11 31.47 445.96 33.73 452.31 40.69 C 458.84 47.93 459.72 58.66 457.55 67.80 C 455.89 74.90 450.99 81.03 444.48 84.29 C 449.53 93.23 455.73 101.48 460.63 110.51 C 453.07 110.47 445.51 110.52 437.95 110.47 C 433.97 103.08 430.13 95.62 426.15 88.22 C 420.95 88.21 415.76 88.19 410.56 88.24 C 410.49 95.65 410.59 103.05 410.50 110.46 C 403.77 110.52 397.04 110.49 390.31 110.48 C 390.20 84.10 390.23 57.71 390.29 31.32 M 410.49 47.23 C 410.47 55.60 410.47 63.96 410.49 72.33 C 415.66 72.31 420.84 72.40 426.01 72.32 C 429.54 72.28 433.31 71.49 435.93 68.97 C 439.74 65.27 440.16 59.24 438.59 54.42 C 437.03 50.03 432.39 47.48 427.91 47.31 C 422.11 47.04 416.29 47.26 410.49 47.23 Z" />
<path fill="#000000" opacity="1.00" d=" M 497.74 31.33 C 517.30 31.25 536.86 31.24 556.42 31.34 C 556.44 36.62 556.45 41.90 556.41 47.18 C 543.67 47.36 530.92 47.04 518.19 47.33 C 517.72 53.31 518.14 59.32 518.02 65.32 C 529.77 65.42 541.51 65.28 553.26 65.39 C 553.30 70.70 553.30 76.02 553.26 81.33 C 541.51 81.44 529.76 81.28 518.01 81.41 C 517.91 91.11 518.21 100.82 517.85 110.52 C 511.15 110.46 504.44 110.53 497.74 110.47 C 497.70 84.09 497.71 57.71 497.74 31.33 Z" />
<path fill="#000000" opacity="1.00" d=" M 564.23 31.31 C 570.98 31.28 577.73 31.23 584.49 31.35 C 584.54 46.56 584.48 61.77 584.51 76.97 C 584.53 80.85 585.29 84.87 587.66 88.04 C 593.39 96.25 607.47 96.68 613.39 88.48 C 616.33 84.65 616.82 79.63 616.79 74.95 C 616.74 60.44 616.82 45.92 616.75 31.40 C 623.44 31.16 630.14 31.31 636.83 31.31 C 636.96 46.54 636.86 61.78 636.89 77.01 C 636.92 85.71 634.33 94.79 628.13 101.12 C 621.23 108.46 610.85 111.40 601.02 111.36 C 590.75 111.49 579.89 108.43 572.73 100.73 C 566.73 94.42 564.20 85.55 564.20 76.99 C 564.18 61.77 564.13 46.54 564.23 31.31 Z" />
<path fill="#000000" opacity="1.00" d=" M 705.09 31.30 C 711.35 31.26 717.62 31.28 723.90 31.29 C 724.07 57.70 724.12 84.12 723.87 110.53 C 718.01 110.48 712.15 110.46 706.30 110.54 C 695.36 96.37 684.84 81.87 674.05 67.57 C 672.70 65.93 671.83 63.80 669.90 62.74 C 669.88 78.65 669.98 94.57 669.85 110.48 C 663.53 110.49 657.22 110.53 650.92 110.45 C 650.87 84.08 650.88 57.72 650.91 31.35 C 656.78 31.20 662.66 31.36 668.53 31.23 C 680.77 46.81 692.03 63.15 704.42 78.59 L 704.56 78.74 C 704.57 78.68 704.59 78.55 704.59 78.48 C 705.56 62.80 704.61 47.02 705.09 31.30 Z" />
<path fill="#000000" opacity="1.00" d=" M 739.33 31.32 C 745.22 31.34 751.12 31.10 757.00 31.39 C 769.51 47.00 780.79 63.65 793.35 79.25 C 793.61 63.28 793.35 47.31 793.48 31.33 C 799.78 31.26 806.08 31.24 812.39 31.34 C 812.40 57.72 812.44 84.09 812.37 110.46 C 806.87 110.47 801.38 110.58 795.89 110.47 C 794.84 110.69 794.04 109.98 793.54 109.19 C 782.62 94.42 771.55 79.74 760.60 64.98 C 759.91 64.00 758.93 63.28 758.03 62.52 C 758.73 78.48 758.21 94.50 758.29 110.48 C 751.98 110.50 745.67 110.50 739.36 110.48 C 739.25 84.10 739.30 57.71 739.33 31.32 Z" />
<path fill="#000000" opacity="1.00" d=" M 827.79 31.36 C 848.45 31.20 869.12 31.29 889.79 31.31 C 889.85 36.63 889.95 41.96 889.71 47.27 C 875.82 47.22 861.94 47.14 848.05 47.32 C 848.08 52.45 848.07 57.58 848.06 62.71 C 860.60 62.90 873.14 62.73 885.68 62.80 C 885.83 68.12 885.78 73.45 885.73 78.78 C 873.19 78.88 860.66 78.79 848.13 78.82 C 848.03 84.03 848.05 89.25 848.10 94.46 C 862.37 94.48 876.64 94.49 890.91 94.45 C 891.19 99.75 890.98 105.06 891.11 110.36 C 870.01 110.63 848.91 110.47 827.81 110.44 C 827.75 84.08 827.80 57.72 827.79 31.36 Z" />
<path fill="#000000" opacity="1.00" d=" M 903.67 31.36 C 910.38 31.21 917.10 31.29 923.82 31.31 C 923.96 52.03 923.79 72.75 923.90 93.48 C 935.02 93.56 946.14 93.45 957.26 93.53 C 957.31 99.18 957.31 104.82 957.26 110.47 C 939.40 110.49 921.54 110.54 903.68 110.45 C 903.62 84.09 903.66 57.73 903.67 31.36 Z" />
</g>
</svg>
