<?xml version="1.0" encoding="utf-8"?>
<!-- Generator: Adobe Illustrator 24.1.3, SVG Export Plug-In . SVG Version: 6.00 Build 0)  -->
<svg version="1.1" id="layer_1" xmlns="http://www.w3.org/2000/svg" xmlns:xlink="http://www.w3.org/1999/xlink" x="0px" y="0px"
	 viewBox="0 0 76.8 78.2" style="enable-background:new 0 0 76.8 78.2;" xml:space="preserve">
<style type="text/css">
	.st0{fill:#ED2425;enable-background:new    ;}
	.st1{opacity:0.8;fill:#1a1a1a;enable-background:new    ;}
	.st2{fill:#FFFFFF;}
	.st3{fill:#1a1a1a;}
	.st4{opacity:0.6;fill:#1a1a1a;enable-background:new    ;}
	.st5{opacity:0.3;fill:#1a1a1a;enable-background:new    ;}
	.st6{fill:#3333331;}
	.st7{fill:#ED2425;}
	.st8{fill:#efefef;}
</style>
<circle class="st0" cx="62.8" cy="42" r="14"/>
<circle class="st0" cx="28.5" cy="12" r="12"/>
<circle class="st0" cx="20" cy="58.2" r="20"/>
<path class="st1" d="M5.7,17h64l0,0v42c0,1.1-0.9,2-2,2h-60c-1.1,0-2-0.9-2-2C5.7,59,5.7,17,5.7,17z"/>
<path class="st2" d="M5.8,17h57l0,0v32c0,1.7-1.3,3-3,3h-54l0,0C5.8,52,5.8,17,5.8,17z"/>
<path class="st3" d="M67.8,61.7h-60C6.2,61.7,5,60.5,5,59V17c0-0.4,0.3-0.8,0.8-0.8h64c0.4,0,0.8,0.3,0.8,0.8v42
	C70.5,60.5,69.3,61.7,67.8,61.7z M6.5,17.7V59c0,0.7,0.6,1.2,1.2,1.2h60c0.7,0,1.2-0.6,1.2-1.2V17.7H6.5z"/>
<path class="st1" d="M7.8,7h60c1.1,0,2,0.9,2,2v8l0,0h-64l0,0V9C5.8,7.9,6.6,7,7.8,7C7.8,7,7.8,7,7.8,7z"/>
<path class="st2" d="M7.8,7h58l0,0v5c0,1.1-0.9,2-2,2h-58l0,0V9C5.8,7.9,6.6,7,7.8,7L7.8,7z"/>
<path class="st3" d="M63.8,13c-0.6,0-1-0.5-1-1c0-0.3,0.1-0.5,0.3-0.7c0.4-0.4,1-0.4,1.4,0c0.2,0.2,0.3,0.4,0.3,0.7
	C64.7,12.6,64.3,13,63.8,13z"/>
<path class="st3" d="M56.8,12c0-0.6,0.4-1,1-1c0,0,0,0,0,0l0,0c0.6,0,1,0.4,1,1c0,0,0,0,0,0l0,0c0,0.6-0.4,1-1,1l0,0
	C57.2,13,56.8,12.6,56.8,12z"/>
<path class="st3" d="M51.8,13c-0.6,0-1-0.4-1-1c0-0.3,0.1-0.5,0.3-0.7c0.4-0.4,1-0.4,1.4,0c0.2,0.2,0.3,0.4,0.3,0.7
	C52.8,12.5,52.3,13,51.8,13C51.8,13,51.8,13,51.8,13z"/>
<path class="st3" d="M69.8,17.7h-64C5.3,17.7,5,17.4,5,17V9c0-1.5,1.2-2.7,2.8-2.8h60c1.5,0,2.7,1.2,2.8,2.8v8
	C70.5,17.4,70.2,17.7,69.8,17.7z M6.5,16.2H69V9c0-0.7-0.6-1.2-1.2-1.2h-60C7.1,7.7,6.5,8.3,6.5,9V16.2z"/>
<path class="st3" d="M9.8,55.7C9.3,55.7,9,55.4,9,55v-9.7c0-0.4,0.3-0.8,0.8-0.8s0.8,0.3,0.8,0.8V55C10.5,55.4,10.2,55.7,9.8,55.7z"
	/>
<path class="st3" d="M9.8,42C9.3,42,9,41.7,9,41.3V39c0-0.4,0.3-0.8,0.8-0.8s0.8,0.3,0.8,0.8v2.3C10.5,41.7,10.2,42,9.8,42z"/>
<path class="st3" d="M65.8,40.7c-0.4,0-0.8-0.3-0.8-0.8V28.3c0-0.4,0.3-0.8,0.8-0.8s0.8,0.3,0.8,0.8V40
	C66.5,40.4,66.2,40.7,65.8,40.7z"/>
<path class="st3" d="M65.8,25c-0.4,0-0.8-0.3-0.8-0.8V22c0-0.4,0.3-0.8,0.8-0.8s0.8,0.3,0.8,0.8v2.3C66.5,24.7,66.2,25,65.8,25z"/>
<path class="st3" d="M37.8,51.7c-0.4,0-0.8-0.3-0.8-0.8V31c0-0.4,0.3-0.8,0.8-0.8s0.8,0.3,0.8,0.8v20C38.5,51.4,38.2,51.7,37.8,51.7
	z"/>
<path class="st3" d="M27.8,47.7c-0.4,0-0.8-0.3-0.8-0.8v-8.7h-5.3c-0.4,0-0.8-0.3-0.8-0.8V31c0-0.4,0.3-0.8,0.8-0.8s0.8,0.3,0.8,0.8
	v5.7h5.3c0.4,0,0.8,0.3,0.8,0.8V47C28.5,47.4,28.2,47.7,27.8,47.7z"/>
<path class="st3" d="M47.8,47.7c-0.4,0-0.8-0.3-0.8-0.8v-9.5c0-0.4,0.3-0.8,0.8-0.8H53V31c0-0.4,0.3-0.8,0.8-0.8s0.8,0.3,0.8,0.8
	v6.5c0,0.4-0.3,0.8-0.8,0.8h-5.2V47C48.5,47.4,48.2,47.7,47.8,47.7z"/>
<path class="st4" d="M35.8,23h4c1.1,0,2,0.9,2,2v4c0,1.1-0.9,2-2,2h-4c-1.1,0-2-0.9-2-2v-4C33.8,23.9,34.6,23,35.8,23z"/>
<path class="st2" d="M35.8,23h4l0,0v3c0,1.1-0.9,2-2,2h-4l0,0v-3C33.8,23.9,34.6,23,35.8,23z"/>
<path class="st3" d="M39.8,31.7h-4c-1.5,0-2.7-1.2-2.8-2.8v-4c0-1.5,1.2-2.7,2.8-2.8h4c1.5,0,2.7,1.2,2.8,2.8v4
	C42.5,30.5,41.3,31.7,39.8,31.7z M35.8,23.7c-0.7,0-1.2,0.6-1.2,1.2v4c0,0.7,0.6,1.2,1.2,1.2h4c0.7,0,1.2-0.6,1.2-1.2v-4
	c0-0.7-0.6-1.2-1.2-1.2H35.8z"/>
<path class="st4" d="M19.8,23h4c1.1,0,2,0.9,2,2v4c0,1.1-0.9,2-2,2h-4c-1.1,0-2-0.9-2-2v-4C17.8,23.9,18.6,23,19.8,23z"/>
<path class="st2" d="M19.8,23h4l0,0v3c0,1.1-0.9,2-2,2h-4l0,0v-3C17.8,23.9,18.6,23,19.8,23z"/>
<path class="st3" d="M23.8,31.7h-4c-1.5,0-2.7-1.2-2.8-2.8v-4c0-1.5,1.2-2.7,2.8-2.8h4c1.5,0,2.7,1.2,2.8,2.8v4
	C26.5,30.5,25.3,31.7,23.8,31.7z M19.8,23.7c-0.7,0-1.2,0.6-1.2,1.2v4c0,0.7,0.6,1.2,1.2,1.2h4c0.7,0,1.2-0.6,1.2-1.2v-4
	c0-0.7-0.6-1.2-1.2-1.2H19.8z"/>
<path class="st4" d="M51.8,23h4c1.1,0,2,0.9,2,2v4c0,1.1-0.9,2-2,2h-4c-1.1,0-2-0.9-2-2v-4C49.8,23.9,50.6,23,51.8,23z"/>
<path class="st2" d="M51.8,23h4l0,0v3c0,1.1-0.9,2-2,2h-4l0,0v-3C49.8,23.9,50.6,23,51.8,23z"/>
<path class="st3" d="M55.8,31.7h-4c-1.5,0-2.7-1.2-2.8-2.8v-4c0-1.5,1.2-2.7,2.8-2.8h4c1.5,0,2.7,1.2,2.8,2.8v4
	C58.5,30.5,57.3,31.7,55.8,31.7z M51.8,23.7c-0.7,0-1.2,0.6-1.2,1.2v4c0,0.7,0.6,1.2,1.2,1.2h4c0.7,0,1.2-0.6,1.2-1.2v-4
	c0-0.7-0.6-1.2-1.2-1.2H51.8z"/>
<path class="st2" d="M52.8,65.2c3.8,0,6.9-2.4,6.9-5.4c0-2.6-2.4-4.8-5.6-5.3c0.5-0.7,0.8-1.4,0.8-2.3c0-2.5-2.6-4.6-5.9-4.6
	c-1.4,0-2.8,0.4-4,1.2c-0.7-4.1-5.1-7.2-10.5-7.2c-5.9,0-10.6,3.7-10.6,8.3c0,0.5,0.1,1,0.2,1.5c-0.6-0.1-1.2-0.2-1.8-0.2
	c-4.9,0-8.9,3.1-8.9,7s4,7,8.9,7L52.8,65.2z"/>
<path class="st5" d="M58.4,59.8c0-2.6-2.4-4.8-5.6-5.3c0.7-0.9,0.9-2,0.7-3.1c-0.4-1.8-2.4-3.3-4.7-3.7c-1.7-0.3-3.5,0.1-4.9,1.1
	c-0.7-4.1-5.1-7.2-10.4-7.2c-5.2,0-9.5,2.9-10.4,6.8c2-1.2,4.2-1.8,6.5-1.8c4.8,0,8.8,2.5,10.1,5.9c0.4,0.6,1.2,0.9,1.8,0.6
	c1.1-0.4,2.3-0.5,3.5-0.4c2.4,0.3,4.3,1.8,4.7,3.7c0.3,1.1,0,2.2-0.7,3.1c3.1,0.5,5.5,2.6,5.6,5.2C56.8,63.8,58.4,61.9,58.4,59.8z"
	/>
<path class="st3" d="M52,66H22.2c-5.3,0-9.7-3.5-9.7-7.7c0-4.4,4.7-8.1,10.4-7.7c0-0.2,0-0.4,0-0.6c0-5,5.1-9,11.3-9
	c5.1,0,9.6,2.8,10.9,6.7c1-0.4,2.1-0.7,3.2-0.7c3.7,0,6.7,2.4,6.7,5.3c0,0.6-0.1,1.2-0.4,1.8c3,0.9,5.1,3.2,5.1,5.8
	C59.8,63.2,56.3,66,52,66z M22.2,52c-4.3,0-7.8,2.8-7.8,6.2s3.5,6.2,7.8,6.2H52c3.2,0,5.8-2.1,5.8-4.7c0-2.2-2-4.2-4.7-4.6
	c-0.3,0-0.5-0.2-0.7-0.4c-0.1-0.2-0.1-0.5,0-0.7c0.4-0.5,0.6-1.2,0.6-1.9c0-2.1-2.2-3.8-4.8-3.8c-1.2,0-2.3,0.3-3.2,1
	c-0.3,0.2-0.6,0.2-1,0.1c-0.3-0.1-0.5-0.3-0.6-0.6c-0.6-3.7-4.6-6.6-9.3-6.6c-5.2,0-9.4,3.4-9.4,7.5c0,0.5,0.1,0.9,0.2,1.4
	c0.1,0.3-0.1,0.5-0.3,0.7c-0.2,0.2-0.6,0.2-0.8,0.2C23.3,52.1,22.8,52,22.2,52z"/>
<path class="st2" d="M31,60.6L29,60h-4.5l-1.9,0.5c-0.7,0.2-1.3,0.9-1.3,1.7v2h10.9v-2C32.2,61.5,31.7,60.8,31,60.6z"/>
<path class="st3" d="M31.4,60.7c-0.9,1.4-2.3,2.4-3.9,2.8c-2.1,0.7-4.4,0.3-6.1-1.2v1.9h10.9v-2C32.2,61.6,31.9,61,31.4,60.7z"/>
<path class="st6" d="M32.2,64.7H21.3c-0.2,0-0.4-0.2-0.4-0.4v-2c0-1,0.6-1.8,1.6-2.1l1.9-0.5c0,0,0.1,0,0.1,0H29c0,0,0.1,0,0.1,0
	l1.9,0.5l0,0c0.9,0.3,1.6,1.1,1.6,2.1v2C32.6,64.5,32.5,64.6,32.2,64.7z M21.7,63.8h10.1v-1.6c0-0.6-0.4-1.1-0.9-1.3L29,60.5h-4.4
	L22.7,61c-0.6,0.2-1,0.7-0.9,1.3V63.8z"/>
<path class="st2" d="M26.8,62.8c0,0,2.2-1.8,2.3-2.7c-0.5-0.3-0.8-0.7-0.9-1.3c0-0.1,0-0.6,0-0.7l-2.6,0c0,0.1,0,0.6,0,0.7
	c-0.1,0.5-0.4,1-0.9,1.2C24.5,61,26.8,62.8,26.8,62.8z"/>
<path class="st5" d="M28.4,61.2c0.3-0.3,0.5-0.7,0.6-1.2c-0.5-0.3-0.8-0.7-0.9-1.3c0-0.1,0-0.6,0-0.7l-1.2,0c0,0.2,0,0.9,0.1,1
	C27.1,60,27.6,60.8,28.4,61.2z"/>
<path class="st6" d="M26.8,63.2c-0.1,0-0.2,0-0.3-0.1c-0.6-0.5-2.4-2-2.4-3.1c0-0.2,0.1-0.3,0.2-0.4c0.4-0.2,0.6-0.5,0.7-0.9
	c0-0.1,0-0.2,0-0.4c0-0.1,0-0.3,0-0.3c0-0.2,0.2-0.4,0.4-0.4l2.6,0h0c0.2,0,0.4,0.2,0.4,0.4c0,0,0,0.2,0,0.3c0,0.1,0,0.3,0,0.4
	c0.1,0.4,0.3,0.8,0.7,0.9c0.1,0.1,0.2,0.2,0.2,0.4c0,1.1-1.9,2.6-2.4,3.1C27,63.2,26.9,63.2,26.8,63.2z M25,60.2
	c0.5,0.8,1.1,1.4,1.8,2c0.7-0.6,1.3-1.2,1.8-2c-0.5-0.3-0.8-0.8-0.9-1.4c0,0,0-0.2,0-0.3l-1.8,0c0,0.1,0,0.2,0,0.4
	C25.7,59.4,25.4,59.9,25,60.2L25,60.2z"/>
<path class="st2" d="M29.4,55.8c0.1-1.4-1-2.7-2.4-2.8c-1.4-0.1-2.7,1-2.8,2.4c0,0.1,0,0.2,0,0.3c0,1.8,1.2,3.2,2.6,3.2
	S29.4,57.6,29.4,55.8z"/>
<path class="st5" d="M27.4,53.1c0.2,0.4,0.3,0.9,0.3,1.4c0,1.8-1.2,3.2-2.6,3.2c-0.1,0-0.3,0-0.4-0.1c0.4,0.8,1.2,1.3,2.1,1.3
	c1.4,0,2.6-1.4,2.6-3.2C29.5,54.6,28.7,53.4,27.4,53.1z"/>
<path class="st6" d="M26.8,59.5c-1.7,0-3-1.6-3-3.6c-0.1-1.7,1.2-3.1,2.8-3.2c1.7-0.1,3.1,1.2,3.2,2.8c0,0.1,0,0.2,0,0.4
	C29.8,57.8,28.5,59.5,26.8,59.5z M26.8,53.5c-1.2,0-2.2,0.9-2.2,2.1c0,0.1,0,0.2,0,0.3c-0.3,1.2,0.5,2.4,1.7,2.7
	c1.2,0.3,2.4-0.5,2.7-1.7c0.1-0.4,0.1-0.7,0-1.1c0.1-1.2-0.7-2.2-1.9-2.4C27,53.5,26.9,53.5,26.8,53.5z"/>
<path class="st2" d="M41.9,60.6L39.9,60h-4.5l-1.9,0.5c-0.7,0.2-1.3,0.9-1.2,1.7v2h10.9v-2C43.1,61.5,42.6,60.8,41.9,60.6z"/>
<path class="st7" d="M43.1,62.2c0-0.8-0.5-1.5-1.2-1.7l-0.2-0.1c-0.1,1.6-1.1,2.7-2.7,3.7h4.2L43.1,62.2z"/>
<path class="st6" d="M43.1,64.7H32.2c-0.2,0-0.4-0.2-0.4-0.4v-2c0-1,0.6-1.8,1.6-2.1l1.9-0.5c0,0,0.1,0,0.1,0h4.5c0,0,0.1,0,0.1,0
	l1.9,0.5l0,0c0.9,0.3,1.6,1.1,1.6,2.1v2C43.5,64.5,43.3,64.6,43.1,64.7z M32.6,63.8h10.1v-1.6c0-0.6-0.4-1.1-0.9-1.3l-1.9-0.5h-4.4
	L33.6,61c-0.6,0.2-1,0.7-0.9,1.3L32.6,63.8z"/>
<path class="st2" d="M37.7,61.7c0,0,2.2-0.7,2.3-1.6c-0.5-0.3-0.8-0.7-0.9-1.3c0-0.1,0-0.6,0-0.7l-2.6,0c0,0.1,0,0.6,0,0.7
	c-0.1,0.5-0.4,1-0.9,1.2C35.4,61,37.7,61.7,37.7,61.7z"/>
<path class="st5" d="M39.9,60c-0.5-0.3-0.8-0.7-0.9-1.3c0-0.1,0-0.6,0-0.7l-1.2,0.2c0,0.1,0,0.9,0.1,1c0.1,0.7,0.6,1.4,1.3,1.8
	C39.5,60.8,39.9,60.4,39.9,60z"/>
<path class="st6" d="M37.7,62.1c0,0-0.1,0-0.1,0c-0.4-0.1-2.5-0.8-2.5-2c0-0.2,0.1-0.3,0.2-0.4c0.4-0.2,0.6-0.5,0.7-0.9
	c0-0.1,0-0.2,0-0.4c0-0.1,0-0.3,0-0.3c0-0.2,0.2-0.4,0.4-0.4l2.6,0h0c0.2,0,0.4,0.2,0.4,0.4c0,0,0,0.2,0,0.3c0,0.1,0,0.3,0,0.4
	c0.1,0.4,0.3,0.8,0.7,0.9c0.1,0.1,0.2,0.2,0.2,0.4c0,1.2-2.1,1.9-2.5,2C37.8,62.1,37.7,62.1,37.7,62.1z M35.9,60.2
	c0.5,0.5,1.1,0.8,1.8,1c0.7-0.2,1.3-0.5,1.8-1c-0.4-0.3-0.7-0.8-0.8-1.4c0,0,0-0.2,0-0.3l-1.8,0c0,0.1,0,0.2,0,0.4
	C36.6,59.4,36.3,59.9,35.9,60.2L35.9,60.2z"/>
<path class="st2" d="M40.3,55.8c0.1-1.4-1-2.7-2.4-2.8c-1.4-0.1-2.7,1-2.8,2.4c0,0.1,0,0.2,0,0.3c0,1.8,1.2,3.2,2.6,3.2
	S40.3,57.6,40.3,55.8z"/>
<path class="st5" d="M38.3,53.1c0.2,0.4,0.3,0.9,0.3,1.4c0,1.8-1.2,3.2-2.6,3.2c-0.1,0-0.3,0-0.4-0.1c0.4,0.8,1.2,1.3,2.1,1.3
	c1.4,0,2.6-1.4,2.6-3.2C40.4,54.6,39.6,53.4,38.3,53.1z"/>
<path class="st6" d="M37.7,59.5c-1.7,0-3-1.6-3-3.6c-0.1-1.7,1.2-3.1,2.8-3.2s3.1,1.2,3.2,2.8c0,0.1,0,0.2,0,0.4
	C40.7,57.8,39.3,59.5,37.7,59.5z M37.7,53.5c-1.2,0-2.2,0.9-2.2,2.1c0,0.1,0,0.2,0,0.3c-0.3,1.2,0.5,2.4,1.7,2.7
	c1.2,0.3,2.4-0.5,2.7-1.7c0.1-0.4,0.1-0.7,0-1.1c0.1-1.2-0.7-2.2-1.9-2.4C37.9,53.5,37.8,53.5,37.7,53.5z"/>
<path class="st6" d="M37.7,64.7c-0.2,0-0.4-0.2-0.4-0.4v-2.6c0-0.2,0.2-0.4,0.4-0.4s0.4,0.2,0.4,0.4c0,0,0,0,0,0v2.6
	C38.1,64.5,37.9,64.6,37.7,64.7z"/>
<path class="st2" d="M52.8,60.6L50.8,60h-4.5l-1.9,0.5c-0.7,0.2-1.3,0.9-1.2,1.7v2H54v-2C54,61.5,53.5,60.8,52.8,60.6z"/>
<path class="st3" d="M52.8,60.6l-0.4-0.1c0,0,0,0.1,0,0.1c0,1.1-0.8,2.1-1.9,2.2l-7.3,0.8v0.7H54v-2C54,61.5,53.5,60.8,52.8,60.6z"
	/>
<path class="st6" d="M54,64.7H43.1c-0.2,0-0.4-0.2-0.4-0.4v-2c0-1,0.6-1.8,1.6-2.1l1.9-0.5c0,0,0.1,0,0.1,0h4.5c0,0,0.1,0,0.1,0
	l1.9,0.5l0,0c0.9,0.3,1.6,1.1,1.6,2.1v2C54.4,64.5,54.2,64.6,54,64.7z M43.5,63.8h10.1v-1.6c0-0.6-0.4-1.1-0.9-1.3l-1.9-0.5h-4.4
	L44.5,61c-0.6,0.2-1,0.7-0.9,1.3L43.5,63.8z"/>
<path class="st2" d="M50.2,60.9c0.3-0.2,0.5-0.5,0.6-0.8c-0.5-0.3-0.8-0.7-0.9-1.3c0-0.1,0-0.6,0-0.7l-2.6,0c0,0.1,0,0.6,0,0.7
	c-0.1,0.5-0.4,1-0.9,1.2c0.1,0.4,0.3,0.7,0.6,0.8C47.9,61.6,49.2,61.6,50.2,60.9z"/>
<path class="st5" d="M50,61c0.1-0.1,0.2-0.1,0.3-0.2c0.3-0.2,0.5-0.5,0.6-0.8c-0.5-0.3-0.8-0.7-0.9-1.3c0-0.1,0-0.6,0-0.7l-1.1,0
	c0,0.3,0,0.9,0.1,1C49,59.9,49.4,60.6,50,61z"/>
<path class="st6" d="M48.6,61.8c-0.7,0-1.3-0.2-1.9-0.6C46.2,61,46,60.5,45.9,60c0-0.2,0.1-0.3,0.2-0.4c0.4-0.2,0.6-0.5,0.7-0.9
	c0-0.1,0-0.2,0-0.4c0-0.1,0-0.2,0-0.3c0-0.2,0.2-0.4,0.4-0.4l2.6,0h0c0.2,0,0.4,0.2,0.4,0.4c0,0,0,0.2,0,0.3c0,0.1,0,0.3,0,0.4
	c0.1,0.4,0.3,0.8,0.7,0.9c0.1,0.1,0.2,0.2,0.2,0.4c-0.1,0.5-0.3,0.9-0.8,1.2v0C49.9,61.6,49.3,61.8,48.6,61.8z M46.8,60.2
	c0.1,0.1,0.2,0.2,0.3,0.3c0.9,0.6,2,0.6,2.9,0c0.1-0.1,0.2-0.2,0.3-0.3c-0.4-0.3-0.7-0.8-0.8-1.4c0,0,0-0.2,0-0.3l-1.8,0
	c0,0.1,0,0.2,0,0.4C47.5,59.4,47.2,59.9,46.8,60.2z M50.2,60.9L50.2,60.9z"/>
<path class="st2" d="M51.2,55.8c0.1-1.4-1-2.7-2.4-2.8s-2.7,1-2.8,2.4c0,0.1,0,0.2,0,0.3c0,1.8,1.2,3.2,2.6,3.2S51.2,57.6,51.2,55.8
	z"/>
<path class="st5" d="M50.6,54c0,0,0,0.1,0,0.1c0,1.8-1.2,3.2-2.6,3.2c-0.9,0-1.6-0.5-2.1-1.2c0,1.5,1.1,2.8,2.6,2.9
	c1.4,0,2.6-1.4,2.6-3.2C51.2,55.2,51,54.6,50.6,54z"/>
<path class="st6" d="M48.6,59.5c-1.7,0-3-1.6-3-3.6c-0.1-1.7,1.2-3.1,2.8-3.2s3.1,1.2,3.2,2.8c0,0.1,0,0.2,0,0.4
	C51.6,57.8,50.2,59.5,48.6,59.5z M48.6,53.5c-1.2,0-2.2,0.9-2.2,2.1c0,0.1,0,0.2,0,0.3c-0.3,1.2,0.5,2.5,1.7,2.7
	c1.2,0.3,2.5-0.5,2.7-1.7c0.1-0.4,0.1-0.7,0-1.1c0.1-1.2-0.7-2.2-1.9-2.4C48.8,53.5,48.7,53.5,48.6,53.5z"/>
<path class="st2" d="M33.4,77.3c0.2-0.1,0.4-0.4,0.5-0.7c-0.4-0.2-0.6-0.6-0.7-1c0-0.1,0-0.5,0-0.5l-2,0c0,0.1,0,0.5,0,0.6
	c-0.1,0.4-0.3,0.8-0.7,1c0,0.3,0.2,0.5,0.5,0.7C31.6,77.9,32.7,77.9,33.4,77.3z"/>
<path class="st8" d="M33.2,77.5c0.1,0,0.1-0.1,0.2-0.1c0.2-0.1,0.4-0.4,0.5-0.7c-0.4-0.2-0.6-0.6-0.7-1c0-0.1,0-0.5,0-0.5l-0.8,0
	c0,0.3,0,0.7,0,0.8C32.5,76.6,32.8,77.1,33.2,77.5z"/>
</svg>
