<svg id="layer_1" data-name="layer 1" xmlns="http://www.w3.org/2000/svg" viewBox="0 0 80.75 71.5"><defs><style>.cls-1{fill:#ed2425;}.cls-2,.cls-4{fill:#1a1a1a;}.cls-2{opacity:0.6;}.cls-3{fill:#fff;}</style></defs><circle class="cls-1" cx="14" cy="22.9" r="14"/><circle class="cls-1" cx="68.75" cy="18.3" r="12"/><circle class="cls-1" cx="46.75" cy="51.5" r="20"/><rect class="cls-2" x="35.75" y="49.75" width="18" height="7"/><path class="cls-3" d="M35.74,49.75h14a0,0,0,0,1,0,0v1a3,3,0,0,1-3,3h-11a0,0,0,0,1,0,0v-4A0,0,0,0,1,35.74,49.75Z"/><path class="cls-4" d="M105.25,110.54h-18a.74.74,0,0,1-.75-.75v-7a.75.75,0,0,1,.75-.75h18a.76.76,0,0,1,.75.75v7A.75.75,0,0,1,105.25,110.54ZM88,109h16.5v-5.5H88Z" transform="translate(-51.5 -53.04)"/><path class="cls-2" d="M19.75.75h50a3,3,0,0,1,3,3v39a0,0,0,0,1,0,0h-56a0,0,0,0,1,0,0v-39A3,3,0,0,1,19.75.75Z"/><path class="cls-3" d="M19.75.75h45a0,0,0,0,1,0,0v35a3,3,0,0,1-3,3h-45a0,0,0,0,1,0,0v-35a3,3,0,0,1,3-3Z"/><path class="cls-4" d="M124.25,96.54h-56a.74.74,0,0,1-.75-.75v-39A3.76,3.76,0,0,1,71.25,53h50A3.76,3.76,0,0,1,125,56.79v39A.75.75,0,0,1,124.25,96.54ZM69,95h54.5V56.79a2.25,2.25,0,0,0-2.25-2.25h-50A2.25,2.25,0,0,0,69,56.79Z" transform="translate(-51.5 -53.04)"/><path class="cls-2" d="M16.75,42.75h56a0,0,0,0,1,0,0v4a3,3,0,0,1-3,3h-50a3,3,0,0,1-3-3v-4A0,0,0,0,1,16.75,42.75Z"/><path class="cls-3" d="M16.75,42.75h51a0,0,0,0,1,0,0v1a3,3,0,0,1-3,3h-48a0,0,0,0,1,0,0v-4A0,0,0,0,1,16.75,42.75Z"/><path class="cls-4" d="M121.25,103.54h-50a3.75,3.75,0,0,1-3.75-3.75v-4a.75.75,0,0,1,.75-.75h56a.76.76,0,0,1,.75.75v4A3.75,3.75,0,0,1,121.25,103.54ZM69,96.54v3.25A2.25,2.25,0,0,0,71.25,102h50a2.25,2.25,0,0,0,2.25-2.25V96.54Z" transform="translate(-51.5 -53.04)"/><path class="cls-4" d="M112.25,110.54h-32a.75.75,0,0,1,0-1.5h32a.75.75,0,0,1,0,1.5Z" transform="translate(-51.5 -53.04)"/><rect class="cls-2" x="8.74" y="20.75" width="34" height="44" rx="3"/><path class="cls-3" d="M11.74,20.75h24a0,0,0,0,1,0,0v37.5a3,3,0,0,1-3,3h-24a0,0,0,0,1,0,0V23.75A3,3,0,0,1,11.74,20.75Z"/><path class="cls-4" d="M91.25,118.54h-28a3.75,3.75,0,0,1-3.75-3.75v-38A3.76,3.76,0,0,1,63.25,73h28A3.76,3.76,0,0,1,95,76.79v38A3.75,3.75,0,0,1,91.25,118.54Zm-28-44A2.25,2.25,0,0,0,61,76.79v38A2.25,2.25,0,0,0,63.25,117h28a2.25,2.25,0,0,0,2.25-2.25v-38a2.25,2.25,0,0,0-2.25-2.25Z" transform="translate(-51.5 -53.04)"/><rect class="cls-2" x="12.74" y="27.75" width="26" height="30" rx="1"/><path class="cls-3" d="M13.74,27.75h20a0,0,0,0,1,0,0v23a3,3,0,0,1-3,3h-18a0,0,0,0,1,0,0v-25A1,1,0,0,1,13.74,27.75Z"/><path class="cls-4" d="M89.25,111.54h-24a1.75,1.75,0,0,1-1.75-1.75v-28A1.75,1.75,0,0,1,65.25,80h24A1.76,1.76,0,0,1,91,81.79v28A1.75,1.75,0,0,1,89.25,111.54Zm-24-30a.25.25,0,0,0-.25.25v28a.25.25,0,0,0,.25.25h24a.25.25,0,0,0,.25-.25v-28a.25.25,0,0,0-.25-.25Z" transform="translate(-51.5 -53.04)"/><path class="cls-4" d="M80.75,78h-7a.75.75,0,0,1,0-1.5h7a.75.75,0,0,1,0,1.5Z" transform="translate(-51.5 -53.04)"/><path class="cls-4" d="M80.75,115h-7a.75.75,0,0,1,0-1.5h7a.75.75,0,0,1,0,1.5Z" transform="translate(-51.5 -53.04)"/><path class="cls-4" d="M79.63,61.54H78.24a.75.75,0,0,1,0-1.5h1.39a.75.75,0,0,1,0,1.5Z" transform="translate(-51.5 -53.04)"/><path class="cls-4" d="M84.24,61.54H82.86a.75.75,0,0,1,0-1.5h1.38a.75.75,0,0,1,0,1.5Z" transform="translate(-51.5 -53.04)"/><path class="cls-4" d="M81.24,64.54a.75.75,0,0,1-.75-.75V62.41a.75.75,0,1,1,1.5,0v1.38A.74.74,0,0,1,81.24,64.54Z" transform="translate(-51.5 -53.04)"/><path class="cls-4" d="M81.24,59.93a.76.76,0,0,1-.75-.75V57.79a.75.75,0,0,1,1.5,0v1.39A.75.75,0,0,1,81.24,59.93Z" transform="translate(-51.5 -53.04)"/><path class="cls-4" d="M112.63,66.54h-1.38a.75.75,0,0,1,0-1.5h1.38a.75.75,0,0,1,0,1.5Z" transform="translate(-51.5 -53.04)"/><path class="cls-4" d="M117.25,66.54h-1.39a.75.75,0,0,1,0-1.5h1.39a.75.75,0,0,1,0,1.5Z" transform="translate(-51.5 -53.04)"/><path class="cls-4" d="M114.25,69.54a.74.74,0,0,1-.75-.75V67.41a.75.75,0,0,1,1.5,0v1.38A.75.75,0,0,1,114.25,69.54Z" transform="translate(-51.5 -53.04)"/><path class="cls-4" d="M114.25,64.93a.75.75,0,0,1-.75-.75V62.79a.75.75,0,1,1,1.5,0v1.39A.76.76,0,0,1,114.25,64.93Z" transform="translate(-51.5 -53.04)"/><path class="cls-4" d="M103.63,81.55h-1.38a.75.75,0,0,1,0-1.5h1.38a.75.75,0,0,1,0,1.5Z" transform="translate(-51.5 -53.04)"/><path class="cls-4" d="M108.25,81.55h-1.39a.75.75,0,0,1,0-1.5h1.39a.75.75,0,0,1,0,1.5Z" transform="translate(-51.5 -53.04)"/><path class="cls-4" d="M105.25,84.55a.75.75,0,0,1-.75-.75V82.41a.75.75,0,0,1,1.5,0V83.8A.76.76,0,0,1,105.25,84.55Z" transform="translate(-51.5 -53.04)"/><path class="cls-4" d="M105.25,79.93a.75.75,0,0,1-.75-.75V77.8a.75.75,0,0,1,1.5,0v1.38A.76.76,0,0,1,105.25,79.93Z" transform="translate(-51.5 -53.04)"/><path class="cls-4" d="M81.63,101.55H80.24a.75.75,0,0,1,0-1.5h1.39a.75.75,0,0,1,0,1.5Z" transform="translate(-51.5 -53.04)"/><path class="cls-4" d="M86.24,101.55H84.86a.75.75,0,0,1,0-1.5h1.38a.75.75,0,0,1,0,1.5Z" transform="translate(-51.5 -53.04)"/><path class="cls-4" d="M83.24,104.55a.76.76,0,0,1-.75-.75v-1.39a.75.75,0,0,1,1.5,0v1.39A.75.75,0,0,1,83.24,104.55Z" transform="translate(-51.5 -53.04)"/><path class="cls-4" d="M83.24,99.93a.75.75,0,0,1-.75-.75V97.8a.75.75,0,0,1,1.5,0v1.38A.74.74,0,0,1,83.24,99.93Z" transform="translate(-51.5 -53.04)"/><path class="cls-4" d="M74.63,88.55H73.24a.75.75,0,0,1,0-1.5h1.39a.75.75,0,0,1,0,1.5Z" transform="translate(-51.5 -53.04)"/><path class="cls-4" d="M79.24,88.55H77.86a.75.75,0,0,1,0-1.5h1.38a.75.75,0,0,1,0,1.5Z" transform="translate(-51.5 -53.04)"/><path class="cls-4" d="M76.24,91.55a.76.76,0,0,1-.75-.75V89.41a.75.75,0,0,1,1.5,0V90.8A.75.75,0,0,1,76.24,91.55Z" transform="translate(-51.5 -53.04)"/><path class="cls-4" d="M76.24,86.93a.76.76,0,0,1-.75-.75V84.8a.75.75,0,0,1,1.5,0v1.38A.75.75,0,0,1,76.24,86.93Z" transform="translate(-51.5 -53.04)"/><path class="cls-4" d="M120.25,89.93a.75.75,0,0,1-.75-.75v-9.7a.75.75,0,0,1,1.5,0v9.7A.76.76,0,0,1,120.25,89.93Z" transform="translate(-51.5 -53.04)"/><path class="cls-4" d="M120.25,76.23a.74.74,0,0,1-.75-.75v-2.3a.75.75,0,0,1,1.5,0v2.3A.75.75,0,0,1,120.25,76.23Z" transform="translate(-51.5 -53.04)"/><path class="cls-4" d="M68.25,107.93a.74.74,0,0,1-.75-.75v-7.7a.75.75,0,0,1,1.5,0v7.7A.75.75,0,0,1,68.25,107.93Z" transform="translate(-51.5 -53.04)"/><path class="cls-4" d="M68.25,96.23a.74.74,0,0,1-.75-.75v-2.3a.75.75,0,0,1,1.5,0v2.3A.75.75,0,0,1,68.25,96.23Z" transform="translate(-51.5 -53.04)"/></svg>