<svg xmlns="http://www.w3.org/2000/svg" xmlns:xlink="http://www.w3.org/1999/xlink" viewBox="0 0 901.58 701.15"><defs><style>.cls-1{fill:#ebf2ff;}.cls-2{fill:#e0eaff;}.cls-3{fill:#b5caf4;}.cls-38,.cls-4,.cls-67{opacity:0.5;}.cls-4{fill:url(#Безымянный_градиент_21);}.cls-5{fill:url(#Безымянный_градиент_8);}.cls-6{fill:#c7d9f8;}.cls-7{fill:url(#Безымянный_градиент_20);}.cls-8{fill:url(#Безымянный_градиент_27);}.cls-9{fill:url(#Безымянный_градиент_24);}.cls-10{fill:url(#Безымянный_градиент_2);}.cls-11{fill:url(#Безымянный_градиент_2-2);}.cls-12{fill:#a7c1ff;}.cls-13{fill:#95baef;}.cls-14{fill:#1a317a;}.cls-15{fill:#ed2425;}.cls-16,.cls-57{fill:#2228a5;}.cls-17{fill:#3d3dbf;}.cls-18,.cls-29{fill:#fff;}.cls-19,.cls-20,.cls-21{fill:#628cd2;}.cls-19{opacity:0.6;}.cls-20,.cls-54{opacity:0.4;}.cls-22{fill:url(#Безымянный_градиент_31);}.cls-23{fill:#fbb03b;}.cls-24{opacity:0.8;}.cls-25,.cls-51{opacity:0.55;}.cls-26{fill:#2c49a2;}.cls-27{fill:url(#linear-gradient);}.cls-28{fill:#8da4fc;}.cls-29{opacity:0;}.cls-30{fill:#fcfdff;opacity:0.06;}.cls-31{fill:#f9fbfe;opacity:0.11;}.cls-32{fill:#f5f8fe;opacity:0.17;}.cls-33{fill:#f2f6fd;opacity:0.22;}.cls-34{fill:#eff4fd;opacity:0.28;}.cls-35{fill:#ecf2fc;opacity:0.33;}.cls-36{fill:#e9f0fc;opacity:0.39;}.cls-37{fill:#e6eefb;opacity:0.44;}.cls-38{fill:#e3ecfb;}.cls-39{fill:#dfe9fb;opacity:0.56;}.cls-40{fill:#dce7fa;opacity:0.61;}.cls-41{fill:#d9e5fa;opacity:0.67;}.cls-42{fill:#d6e3f9;opacity:0.72;}.cls-43{fill:#d3e1f9;opacity:0.78;}.cls-44{fill:#d0dff8;opacity:0.83;}.cls-45{fill:#ccdcf8;opacity:0.89;}.cls-46{fill:#c9daf7;opacity:0.94;}.cls-47{fill:#c6d8f7;}.cls-48{fill:#fac4b6;}.cls-49{fill:#ffac31;}.cls-50{fill:#fa8b17;}.cls-51,.cls-62{fill:#ff5f18;}.cls-52{fill:url(#linear-gradient-2);}.cls-53{opacity:0.1;}.cls-55{fill:url(#linear-gradient-3);}.cls-56{fill:url(#Безымянный_градиент_18);}.cls-57{stroke:#fff;stroke-miterlimit:10;stroke-width:2px;}.cls-58{fill:#f5b3a6;}.cls-59{opacity:0.69;fill:url(#Безымянный_градиент_3);}.cls-60{fill:url(#Безымянный_градиент_3-2);}.cls-61{fill:url(#linear-gradient-4);}.cls-62{opacity:0.56;}.cls-63{fill:url(#Безымянный_градиент_18-2);}.cls-64{fill:url(#Безымянный_градиент_41);}.cls-65{fill:url(#Безымянный_градиент_18-3);}.cls-66{fill:url(#Безымянный_градиент_41-2);}.cls-68{fill:url(#linear-gradient-5);}.cls-69{opacity:0.65;}.cls-70{fill:red;}.cls-71{fill:url(#Безымянный_градиент_41-3);}.cls-72{fill:url(#Безымянный_градиент_41-4);}</style><linearGradient id="&#x411;&#x435;&#x437;&#x44B;&#x43C;&#x44F;&#x43D;&#x43D;&#x44B;&#x439;_&#x433;&#x440;&#x430;&#x434;&#x438;&#x435;&#x43D;&#x442;_21" x1="134.38" y1="495.27" x2="134.38" y2="374.51" gradientUnits="userSpaceOnUse"><stop offset="0" stop-color="#628cd2"></stop><stop offset="0.39" stop-color="#638cd2" stop-opacity="0.99"></stop><stop offset="0.53" stop-color="#658ed4" stop-opacity="0.96"></stop><stop offset="0.63" stop-color="#6991d6" stop-opacity="0.9"></stop><stop offset="0.71" stop-color="#6e95da" stop-opacity="0.82"></stop><stop offset="0.78" stop-color="#769bdf" stop-opacity="0.72"></stop><stop offset="0.84" stop-color="#7ea2e5" stop-opacity="0.59"></stop><stop offset="0.89" stop-color="#89aaec" stop-opacity="0.43"></stop><stop offset="0.94" stop-color="#95b4f4" stop-opacity="0.25"></stop><stop offset="0.99" stop-color="#a3befc" stop-opacity="0.06"></stop><stop offset="1" stop-color="#a7c1ff" stop-opacity="0"></stop></linearGradient><linearGradient id="&#x411;&#x435;&#x437;&#x44B;&#x43C;&#x44F;&#x43D;&#x43D;&#x44B;&#x439;_&#x433;&#x440;&#x430;&#x434;&#x438;&#x435;&#x43D;&#x442;_8" x1="1020.64" y1="657.67" x2="1084.29" y2="657.67" gradientTransform="matrix(-0.89, -0.46, -0.46, 0.89, 1526.5, 319.07)" gradientUnits="userSpaceOnUse"><stop offset="0" stop-color="#628cd2"></stop><stop offset="1" stop-color="#a7c1ff" stop-opacity="0"></stop></linearGradient><linearGradient id="&#x411;&#x435;&#x437;&#x44B;&#x43C;&#x44F;&#x43D;&#x43D;&#x44B;&#x439;_&#x433;&#x440;&#x430;&#x434;&#x438;&#x435;&#x43D;&#x442;_20" x1="251.55" y1="619.21" x2="251.55" y2="495.02" gradientUnits="userSpaceOnUse"><stop offset="0" stop-color="#628cd2"></stop><stop offset="1" stop-color="#a7c1ff" stop-opacity="0"></stop></linearGradient><linearGradient id="&#x411;&#x435;&#x437;&#x44B;&#x43C;&#x44F;&#x43D;&#x43D;&#x44B;&#x439;_&#x433;&#x440;&#x430;&#x434;&#x438;&#x435;&#x43D;&#x442;_27" x1="231.56" y1="668.65" x2="231.56" y2="611.21" gradientTransform="translate(155.15 -32.6) rotate(12.65)" xlink:href="#&#x411;&#x435;&#x437;&#x44B;&#x43C;&#x44F;&#x43D;&#x43D;&#x44B;&#x439;_&#x433;&#x440;&#x430;&#x434;&#x438;&#x435;&#x43D;&#x442;_21"></linearGradient><linearGradient id="&#x411;&#x435;&#x437;&#x44B;&#x43C;&#x44F;&#x43D;&#x43D;&#x44B;&#x439;_&#x433;&#x440;&#x430;&#x434;&#x438;&#x435;&#x43D;&#x442;_24" x1="218.47" y1="565.56" x2="218.47" y2="319.67" xlink:href="#&#x411;&#x435;&#x437;&#x44B;&#x43C;&#x44F;&#x43D;&#x43D;&#x44B;&#x439;_&#x433;&#x440;&#x430;&#x434;&#x438;&#x435;&#x43D;&#x442;_20"></linearGradient><linearGradient id="&#x411;&#x435;&#x437;&#x44B;&#x43C;&#x44F;&#x43D;&#x43D;&#x44B;&#x439;_&#x433;&#x440;&#x430;&#x434;&#x438;&#x435;&#x43D;&#x442;_2" x1="712.98" y1="509.56" x2="759.29" y2="509.56" gradientTransform="matrix(0.59, -0.52, 0.62, 0.7, -358.43, 335.37)" gradientUnits="userSpaceOnUse"><stop offset="0" stop-color="#628cd2"></stop><stop offset="1" stop-color="#a7c1ff"></stop></linearGradient><linearGradient id="&#x411;&#x435;&#x437;&#x44B;&#x43C;&#x44F;&#x43D;&#x43D;&#x44B;&#x439;_&#x433;&#x440;&#x430;&#x434;&#x438;&#x435;&#x43D;&#x442;_2-2" x1="767.94" y1="291.49" x2="776.74" y2="291.49" gradientTransform="translate(-358.53)" xlink:href="#&#x411;&#x435;&#x437;&#x44B;&#x43C;&#x44F;&#x43D;&#x43D;&#x44B;&#x439;_&#x433;&#x440;&#x430;&#x434;&#x438;&#x435;&#x43D;&#x442;_2"></linearGradient><linearGradient id="&#x411;&#x435;&#x437;&#x44B;&#x43C;&#x44F;&#x43D;&#x43D;&#x44B;&#x439;_&#x433;&#x440;&#x430;&#x434;&#x438;&#x435;&#x43D;&#x442;_31" x1="351.79" y1="350.15" x2="334.81" y2="379.56" gradientTransform="matrix(1, 0, -0.3, 1, 250.86, -153.02)" gradientUnits="userSpaceOnUse"><stop offset="0" stop-color="#fff"></stop><stop offset="0.18" stop-color="#f8faff"></stop><stop offset="0.45" stop-color="#e3ecff"></stop><stop offset="0.77" stop-color="#c3d4ff"></stop><stop offset="1" stop-color="#a7c1ff"></stop></linearGradient><linearGradient id="linear-gradient" x1="755.97" y1="415.06" x2="755.97" y2="340.81" gradientUnits="userSpaceOnUse"><stop offset="0" stop-color="#ed2425"></stop><stop offset="0.38" stop-color="#ed2627"></stop><stop offset="0.52" stop-color="#ee2d2e"></stop><stop offset="0.62" stop-color="#ef3839"></stop><stop offset="0.7" stop-color="#f0494a"></stop><stop offset="0.77" stop-color="#f25f60"></stop><stop offset="0.83" stop-color="#f47b7b"></stop><stop offset="0.88" stop-color="#f79b9c"></stop><stop offset="0.94" stop-color="#fac1c1"></stop><stop offset="0.98" stop-color="#fdeaea"></stop><stop offset="1" stop-color="#fff"></stop></linearGradient><linearGradient id="linear-gradient-2" x1="298.39" y1="1245.79" x2="247.12" y2="1245.79" gradientTransform="translate(-63.17 -485.58) rotate(0.13)" gradientUnits="userSpaceOnUse"><stop offset="0" stop-color="#2228a5"></stop><stop offset="0.01" stop-color="#2728a2"></stop><stop offset="0.05" stop-color="#512788"></stop><stop offset="0.1" stop-color="#762670"></stop><stop offset="0.16" stop-color="#96265c"></stop><stop offset="0.22" stop-color="#b2254a"></stop><stop offset="0.29" stop-color="#c8253d"></stop><stop offset="0.37" stop-color="#d92432"></stop><stop offset="0.47" stop-color="#e4242a"></stop><stop offset="0.61" stop-color="#eb2426"></stop><stop offset="1" stop-color="#ed2425"></stop></linearGradient><linearGradient id="linear-gradient-3" x1="267.94" y1="489.67" x2="267.94" y2="411.74" gradientUnits="userSpaceOnUse"><stop offset="0" stop-color="#ed2425"></stop><stop offset="0.18" stop-color="#ce2539"></stop><stop offset="0.58" stop-color="#7d266b"></stop><stop offset="1" stop-color="#2228a5"></stop></linearGradient><linearGradient id="&#x411;&#x435;&#x437;&#x44B;&#x43C;&#x44F;&#x43D;&#x43D;&#x44B;&#x439;_&#x433;&#x440;&#x430;&#x434;&#x438;&#x435;&#x43D;&#x442;_18" x1="-32.28" y1="407.19" x2="21.16" y2="460.63" gradientTransform="matrix(-1, 0, 0, 1, 654.7, 0)" gradientUnits="userSpaceOnUse"><stop offset="0" stop-color="#2c49a2"></stop><stop offset="1"></stop></linearGradient><linearGradient id="&#x411;&#x435;&#x437;&#x44B;&#x43C;&#x44F;&#x43D;&#x43D;&#x44B;&#x439;_&#x433;&#x440;&#x430;&#x434;&#x438;&#x435;&#x43D;&#x442;_3" x1="1751.14" y1="408.55" x2="1771.81" y2="444.35" gradientTransform="matrix(-1, -0.06, -0.06, 1, 2336.24, 123.93)" gradientUnits="userSpaceOnUse"><stop offset="0" stop-color="#2c49a1"></stop><stop offset="1"></stop></linearGradient><linearGradient id="&#x411;&#x435;&#x437;&#x44B;&#x43C;&#x44F;&#x43D;&#x43D;&#x44B;&#x439;_&#x433;&#x440;&#x430;&#x434;&#x438;&#x435;&#x43D;&#x442;_3-2" x1="-808.1" y1="410.15" x2="-764.63" y2="385.05" gradientTransform="translate(1214.03 974.38) rotate(65.87)" xlink:href="#&#x411;&#x435;&#x437;&#x44B;&#x43C;&#x44F;&#x43D;&#x43D;&#x44B;&#x439;_&#x433;&#x440;&#x430;&#x434;&#x438;&#x435;&#x43D;&#x442;_3"></linearGradient><linearGradient id="linear-gradient-4" x1="-786.36" y1="428.3" x2="-786.36" y2="366.9" gradientTransform="translate(1334.42 60.42) rotate(2.79)" gradientUnits="userSpaceOnUse"><stop offset="0" stop-color="#ed2425"></stop><stop offset="0.18" stop-color="#ea2427"></stop><stop offset="0.32" stop-color="#e0242d"></stop><stop offset="0.45" stop-color="#cf2538"></stop><stop offset="0.58" stop-color="#b72547"></stop><stop offset="0.7" stop-color="#99265a"></stop><stop offset="0.81" stop-color="#732672"></stop><stop offset="0.92" stop-color="#48278d"></stop><stop offset="1" stop-color="#2228a5"></stop></linearGradient><linearGradient id="&#x411;&#x435;&#x437;&#x44B;&#x43C;&#x44F;&#x43D;&#x43D;&#x44B;&#x439;_&#x433;&#x440;&#x430;&#x434;&#x438;&#x435;&#x43D;&#x442;_18-2" x1="-61.04" y1="418.18" x2="-15.47" y2="463.75" xlink:href="#&#x411;&#x435;&#x437;&#x44B;&#x43C;&#x44F;&#x43D;&#x43D;&#x44B;&#x439;_&#x433;&#x440;&#x430;&#x434;&#x438;&#x435;&#x43D;&#x442;_18"></linearGradient><linearGradient id="&#x411;&#x435;&#x437;&#x44B;&#x43C;&#x44F;&#x43D;&#x43D;&#x44B;&#x439;_&#x433;&#x440;&#x430;&#x434;&#x438;&#x435;&#x43D;&#x442;_41" x1="-15.43" y1="407.3" x2="2.79" y2="407.3" gradientTransform="matrix(-1, 0, 0, 1, 654.7, 0)" gradientUnits="userSpaceOnUse"><stop offset="0" stop-color="#2c49a2"></stop><stop offset="0.13" stop-color="#2b4597"></stop><stop offset="0.71" stop-color="#26376d"></stop><stop offset="1" stop-color="#24325d"></stop></linearGradient><linearGradient id="&#x411;&#x435;&#x437;&#x44B;&#x43C;&#x44F;&#x43D;&#x43D;&#x44B;&#x439;_&#x433;&#x440;&#x430;&#x434;&#x438;&#x435;&#x43D;&#x442;_18-3" x1="734.85" y1="739.27" x2="734.85" y2="560.59" gradientTransform="matrix(1, 0, 0, 1, 0, 0)" xlink:href="#&#x411;&#x435;&#x437;&#x44B;&#x43C;&#x44F;&#x43D;&#x43D;&#x44B;&#x439;_&#x433;&#x440;&#x430;&#x434;&#x438;&#x435;&#x43D;&#x442;_18"></linearGradient><linearGradient id="&#x411;&#x435;&#x437;&#x44B;&#x43C;&#x44F;&#x43D;&#x43D;&#x44B;&#x439;_&#x433;&#x440;&#x430;&#x434;&#x438;&#x435;&#x43D;&#x442;_41-2" x1="-41.04" y1="401.31" x2="-16.17" y2="426.18" xlink:href="#&#x411;&#x435;&#x437;&#x44B;&#x43C;&#x44F;&#x43D;&#x43D;&#x44B;&#x439;_&#x433;&#x440;&#x430;&#x434;&#x438;&#x435;&#x43D;&#x442;_41"></linearGradient><linearGradient id="linear-gradient-5" x1="733.39" y1="549.65" x2="636.7" y2="493.83" gradientUnits="userSpaceOnUse"><stop offset="0" stop-color="#ed2425"></stop><stop offset="0.13" stop-color="#ed2829"></stop><stop offset="0.27" stop-color="#ee3435"></stop><stop offset="0.41" stop-color="#f04849"></stop><stop offset="0.54" stop-color="#f26565"></stop><stop offset="0.68" stop-color="#f5898a"></stop><stop offset="0.82" stop-color="#f9b6b6"></stop><stop offset="0.95" stop-color="#fdeaea"></stop><stop offset="1" stop-color="#fff"></stop></linearGradient><linearGradient id="&#x411;&#x435;&#x437;&#x44B;&#x43C;&#x44F;&#x43D;&#x43D;&#x44B;&#x439;_&#x433;&#x440;&#x430;&#x434;&#x438;&#x435;&#x43D;&#x442;_41-3" x1="585.45" y1="839.37" x2="613.71" y2="790.42" gradientTransform="matrix(1, 0, 0, 1, 0, 0)" xlink:href="#&#x411;&#x435;&#x437;&#x44B;&#x43C;&#x44F;&#x43D;&#x43D;&#x44B;&#x439;_&#x433;&#x440;&#x430;&#x434;&#x438;&#x435;&#x43D;&#x442;_41"></linearGradient><linearGradient id="&#x411;&#x435;&#x437;&#x44B;&#x43C;&#x44F;&#x43D;&#x43D;&#x44B;&#x439;_&#x433;&#x440;&#x430;&#x434;&#x438;&#x435;&#x43D;&#x442;_41-4" x1="794.41" y1="815.14" x2="794.41" y2="747.38" gradientTransform="matrix(1, 0, 0, 1, 0, 0)" xlink:href="#&#x411;&#x435;&#x437;&#x44B;&#x43C;&#x44F;&#x43D;&#x43D;&#x44B;&#x439;_&#x433;&#x440;&#x430;&#x434;&#x438;&#x435;&#x43D;&#x442;_41"></linearGradient></defs><g id="Layer_1" data-name="Layer 1"><path class="cls-1" d="M363.48,791.49C265.74,785.13,63,810.27,53,544,46.86,380.69,252.43,295.06,300.38,269.25S415.72,127.18,587,158.26c152.46,27.66,174.75,126.87,214.28,292.9,24,100.69,162.76,111.56,152.66,221.61C944.54,775.15,782.27,818.74,363.48,791.49Z" transform="translate(-52.87 -153.02)"></path><path class="cls-2" d="M781.81,507.13s65.36,17.4,87.07-47.34-7.22-96.24-7.22-96.24S734.51,401.55,781.81,507.13Z" transform="translate(-52.87 -153.02)"></path><path class="cls-3" d="M180.24,495.27S218.83,446,171.7,404,87.24,375.1,87.24,375.1,73.26,497.05,180.24,495.27Z" transform="translate(-52.87 -153.02)"></path><path class="cls-4" d="M132.46,441.34c-30.88-33.11-40.28-57-43.05-66.83-1.41.33-2.17.59-2.17.59s-.13,1.11-.26,3.09c3.69,11.51,14.08,34.37,43,65.43C155.55,471,171,487,179.2,495.27h1s.59-.75,1.53-2.15C173.69,484.93,158.18,468.93,132.46,441.34Z" transform="translate(-52.87 -153.02)"></path><path class="cls-3" d="M839.35,457.4c2.68.53,6.06-5.19,7.54-12.76.18-.93.32-1.85.43-2.74,7.33-1.07,14.11-2.69,19.06-5.5a144,144,0,0,0,9.5,24.71c-10.42,9.5-34.33,32.58-26.71,37.58,6.62,4.35,26.27-11.15,38-21.32a49.55,49.55,0,0,1,8.08,16.77c-5.27,4.9-16,14.45-22.67,17.37-9.09,4-24.15,8.48-24.15,8.48s-4.78,7.48,19.48,1.06c12.23-3.24,22.16-11,29-18,1.24,10.78.43,25.13-4,45.18-.32,1.44-.68,2.81-1.05,4.15-6.19,5-14.37,10-22.61,9.89-16.33-.18-30-8.16-30-8.16s-11.56.19-3.15,7c7.88,6.37,22.46,19.46,51.47,2.57-16.39,33.28-53.56,25-64.75,20.43-12.66-5.13-8-26-16.54-32.2s-20.84,12.65-36.8,7.69-24.71-30.13-13.75-58c8.57-21.8,24.62-38.5,37.77-47.86.46,18.85,10.68,44.88,12.23,47.75,2.06,3.82,6.72,2.13,8.22-.84s-2.81-10.39-3-29.39c-.08-9.82,5.13-19.67,10.18-26.92,5-.45,10.51-.81,16-1.31C835.74,450.51,836.71,456.89,839.35,457.4Z" transform="translate(-52.87 -153.02)"></path><path class="cls-3" d="M296.09,444.8s40.11-22.47,20-64.32S267,337,267,337,223,415.72,296.09,444.8Z" transform="translate(-52.87 -153.02)"></path><path class="cls-5" d="M296.59,468.24a1.21,1.21,0,0,0,.32.11,1.31,1.31,0,0,0,1.58-1c7.36-32.78-14.9-99.57-15.85-102.4a1.33,1.33,0,0,0-2.52.85c.23.68,23,68.91,15.79,101A1.32,1.32,0,0,0,296.59,468.24Z" transform="translate(-52.87 -153.02)"></path><path class="cls-3" d="M726.46,663a2.56,2.56,0,0,0,0,.62,2.41,2.41,0,0,0,2.67,2.12c60.56-7,161.72-85,166-88.3a2.41,2.41,0,1,0-3-3.8c-1,.8-104.37,80.51-163.6,87.32A2.42,2.42,0,0,0,726.46,663Z" transform="translate(-52.87 -153.02)"></path><path class="cls-2" d="M757.84,650.52s62.45,55.32,122.18-4.06,45.26-110.12,45.26-110.12S764.06,508,757.84,650.52Z" transform="translate(-52.87 -153.02)"></path><path class="cls-6" d="M303.22,587s22.91-90.59-66.89-119.48-132.84,11.62-132.84,11.62S158.17,654.19,303.22,587Z" transform="translate(-52.87 -153.02)"></path><path class="cls-7" d="M338.49,619.06a2.63,2.63,0,0,0,.63-.31,2.69,2.69,0,0,0,.74-3.74c-38.09-56.68-167.75-117.2-173.25-119.74a2.7,2.7,0,0,0-2.27,4.89c1.33.61,133.8,62.43,171,117.86A2.7,2.7,0,0,0,338.49,619.06Z" transform="translate(-52.87 -153.02)"></path><path class="cls-6" d="M307.21,666.64s8-110-102.3-125.14-152,40.81-152,40.81S152.41,774.51,307.21,666.64Z" transform="translate(-52.87 -153.02)"></path><path class="cls-8" d="M354.8,696.61a2.88,2.88,0,0,0,.67-.49,3.19,3.19,0,0,0,.08-4.5c-55.91-58.06-219.08-101.75-226-103.59a3.19,3.19,0,0,0-1.63,6.16c1.67.44,168.36,45.07,223,101.85A3.17,3.17,0,0,0,354.8,696.61Z" transform="translate(-52.87 -153.02)"></path><path class="cls-6" d="M307.72,530.86s18.41-47.2-17.22-97.31-60-60.74-63.47-63.29-19.89-35-42.17-42.4-74.35-47.17-93.62-22,7.77,56.51,17,69.5,20.25,17.47,30.23,31.89,36.74,1,47.5,20.43-13.89,38.55,74.46,100.75C283.41,544.6,305.26,539.67,307.72,530.86Z" transform="translate(-52.87 -153.02)"></path><path class="cls-2" d="M84.56,323.18a36.61,36.61,0,0,0,0,4.8c8.26-2.69,15.85-5.89,15.72-8.54S92.68,319.47,84.56,323.18Z" transform="translate(-52.87 -153.02)"></path><path class="cls-2" d="M126.13,333.15c-3.67-1.13-22.68,5.18-37.69,10.55A86,86,0,0,0,94,354.8C109.87,347.44,130.43,334.47,126.13,333.15Z" transform="translate(-52.87 -153.02)"></path><path class="cls-2" d="M137.59,343.94c-.46-1-20.8,15.07-33.74,25.43,1.68,2.27,3.19,4.3,4.4,6,1.07,1.51,2.17,2.89,3.28,4.19C123.06,367.75,138.05,345,137.59,343.94Z" transform="translate(-52.87 -153.02)"></path><path class="cls-2" d="M151,348.52c-4.5-3.92-20.34,21.67-32.49,38.13,3.09,2.83,6.25,5.49,9.4,8.46C139,378.77,154.23,351.35,151,348.52Z" transform="translate(-52.87 -153.02)"></path><path class="cls-2" d="M135.08,402.76c1.11,1.36,2.21,2.79,3.3,4.36,14.55-12.61,35-40.57,32.2-40.25C168.27,367.13,146.29,389.28,135.08,402.76Z" transform="translate(-52.87 -153.02)"></path><path class="cls-2" d="M178.12,419.62a21.35,21.35,0,0,1,2.25,1.49c8.7-10.85,25.57-33.25,19.13-36.57S182.87,406.63,178.12,419.62Z" transform="translate(-52.87 -153.02)"></path><path class="cls-2" d="M166.43,416.09c.51.07,1,.14,1.52.23,5.31-8.52,19-31.54,14-35.05C176.7,377.55,168.5,405.82,166.43,416.09Z" transform="translate(-52.87 -153.02)"></path><path class="cls-2" d="M188.93,436.52c.61,3.54.82,7.27,1.41,11.42,18-10.54,45.95-28,43.16-33.21S204.5,426,188.93,436.52Z" transform="translate(-52.87 -153.02)"></path><path class="cls-2" d="M195.49,465.08a73.25,73.25,0,0,0,5.22,9c14.28-13.8,41-40.34,39.75-44.11S211.45,450.67,195.49,465.08Z" transform="translate(-52.87 -153.02)"></path><path class="cls-2" d="M217.36,493.57c4.24,4.17,9.16,8.63,14.87,13.4,8.45-15.26,24.54-46.19,19.69-52C246.81,448.93,227.59,475.51,217.36,493.57Z" transform="translate(-52.87 -153.02)"></path><path class="cls-2" d="M267.49,532.73a53.34,53.34,0,0,0,17.06,5.85c-3-21-8.46-50.48-15.36-52.27C261.08,484.21,265,516.55,267.49,532.73Z" transform="translate(-52.87 -153.02)"></path><path class="cls-2" d="M277.24,446.28c1.05,11.79,20.73,22.48,32.06,27.7a111.91,111.91,0,0,0-5.44-16.47C290.27,446.54,276.43,437.21,277.24,446.28Z" transform="translate(-52.87 -153.02)"></path><path class="cls-2" d="M276.22,414.76c-1.35-1.65-2.68-3.26-4-4.8-20.71-4.34-23.88-6.76-22.08-1.66C251.48,412.06,264.32,412.16,276.22,414.76Z" transform="translate(-52.87 -153.02)"></path><path class="cls-2" d="M240.09,378.82c-11.52-.55-21.92-.53-17,1.8,7.46,3.54,16.11,4,23.51,3.34C244.22,382,242.06,380.29,240.09,378.82Z" transform="translate(-52.87 -153.02)"></path><path class="cls-2" d="M221.25,362.33c-12.49-.68-24.95-.85-19.67,1.66,7.32,3.48,15.79,4,23.1,3.37C223.73,366,222.59,364.31,221.25,362.33Z" transform="translate(-52.87 -153.02)"></path><path class="cls-2" d="M198.67,335.81c-4.45,2.92-8.68,6.71-6.39,9.6,2.52,3.19,7.52-1.14,11.22-5.26C202,338.63,200.34,337.17,198.67,335.81Z" transform="translate(-52.87 -153.02)"></path><path class="cls-2" d="M181.36,326.54c-3.17-1.3-6.77-3-10.67-5-2.45,5.3-4.24,12.16-.17,13.92C174.41,337.11,178.56,331.51,181.36,326.54Z" transform="translate(-52.87 -153.02)"></path><path class="cls-2" d="M128.79,301.53a81.7,81.7,0,0,0-9-2.62c2.58,7.34,5.76,14.06,7.48,14.7C129.32,314.37,129.86,308.62,128.79,301.53Z" transform="translate(-52.87 -153.02)"></path><path class="cls-2" d="M155,326.92c2-1.46-1.74-9.34-5.74-16.5q-2.66-1.32-5.34-2.6C147.24,320.49,152,329.16,155,326.92Z" transform="translate(-52.87 -153.02)"></path><path class="cls-9" d="M321,565.38a1.33,1.33,0,0,1-.3.11,2,2,0,0,1-2.45-1.39c-28.18-102.07-81.68-162-121.6-194.4-43.19-35-80.08-46-80.45-46.11a2,2,0,1,1,1.12-3.83c.37.1,38,11.35,81.85,46.84C239.54,399.32,293.64,460,322.09,563A2,2,0,0,1,321,565.38Z" transform="translate(-52.87 -153.02)"></path><path class="cls-3" d="M865.6,625.29c-.27-1.64,3.26-3.57,7.88-4.32.56-.1,1.12-.16,1.66-.21.79-4.43,1.91-8.5,3.7-11.44a87.3,87.3,0,0,1-14.79-6.24c-6,6.13-20.4,20.18-23.28,15.47-2.51-4.1,7.26-15.71,13.65-22.6a30.26,30.26,0,0,0-10-5.21c-3.07,3.1-9.06,9.42-11,13.4-2.59,5.43-5.61,14.47-5.61,14.47s-4.62,2.75-.26-11.82c2.19-7.35,7.1-13.22,11.44-17.24-6.51-1-15.22-.75-27.46,1.58-.87.17-1.71.36-2.53.56-3.17,3.66-6.33,8.52-6.43,13.51A41.17,41.17,0,0,0,807,623.52s-.34,7-4.29,1.77c-3.71-4.9-11.37-14-.57-31.23-20.48,9.29-16.16,32-13.63,38.83,2.87,7.78,15.63,5.33,19.2,10.65s-8.07,12.38-5.37,22.15,17.78,15.55,34.87,9.44a67.29,67.29,0,0,0,29.72-22c-11.41-.65-27-7.34-28.7-8.33-2.27-1.32-1.16-4.12.67-5s6.24,1.9,17.76,2.37c5.94.23,12-2.73,16.5-5.66.37-3,.69-6.35,1.1-9.66C869.7,627.61,865.86,626.9,865.6,625.29Z" transform="translate(-52.87 -153.02)"></path><path class="cls-6" d="M384.44,231.26s21.52,86.92,7.47,93.36-24.49-21.24-23.34-41.05S380,228,384.44,231.26Z" transform="translate(-52.87 -153.02)"></path><path class="cls-10" d="M398.12,341.53l-.17.11a.94.94,0,0,1-1.14-.47c-11.06-19.84-11.67-64.05-11.69-65.92a.67.67,0,0,1,.81-.69,1,1,0,0,1,.84,1c0,.45.63,45.61,11.45,65A.8.8,0,0,1,398.12,341.53Z" transform="translate(-52.87 -153.02)"></path><path class="cls-3" d="M410.53,322.94s-27.21-12.56-16.3-40.78,29.69-30.78,29.69-30.78S456.53,300.32,410.53,322.94Z" transform="translate(-52.87 -153.02)"></path><path class="cls-11" d="M412.7,325.66a.75.75,0,0,1-.2.1.87.87,0,0,1-1.08-.57c-6.46-20.93,4.61-65.47,5.09-67.36a.86.86,0,1,1,1.67.42c-.11.46-11.42,46-5.11,66.43A.85.85,0,0,1,412.7,325.66Z" transform="translate(-52.87 -153.02)"></path><path class="cls-12" d="M318,252c7.72.21,13.8,7,13.8,7s-6.45,6.4-14.17,6.18-13.8-7-13.8-7S310.28,251.79,318,252Z" transform="translate(-52.87 -153.02)"></path><path class="cls-12" d="M329.43,267.28c7.72.22,13.8,7,13.8,7s-6.45,6.41-14.17,6.19-13.8-7-13.8-7S321.71,267.06,329.43,267.28Z" transform="translate(-52.87 -153.02)"></path><path class="cls-12" d="M336.43,283.09c7.5-1.87,15.16,3,15.16,3s-4.49,7.9-12,9.76-15.16-3-15.16-3S328.93,285,336.43,283.09Z" transform="translate(-52.87 -153.02)"></path><path class="cls-12" d="M347.84,299.18c6-1.5,12.18,2.42,12.18,2.42s-3.61,6.34-9.62,7.84S338.22,307,338.22,307,341.82,300.68,347.84,299.18Z" transform="translate(-52.87 -153.02)"></path><path class="cls-12" d="M356.7,315.25c6-1.5,12.17,2.41,12.17,2.41s-3.6,6.35-9.62,7.84-12.18-2.41-12.18-2.41S350.68,316.74,356.7,315.25Z" transform="translate(-52.87 -153.02)"></path><path class="cls-12" d="M336.28,238c.05,7.73-6.49,14-6.49,14s-6.62-6.22-6.67-13.94,6.49-14,6.49-14S336.23,230.31,336.28,238Z" transform="translate(-52.87 -153.02)"></path><path class="cls-12" d="M348.85,252.82c-2,7.46-10,11.8-10,11.8s-4.73-7.76-2.72-15.22,10-11.8,10-11.8S350.85,245.36,348.85,252.82Z" transform="translate(-52.87 -153.02)"></path><path class="cls-12" d="M360.93,269c-2,7.46-10,11.8-10,11.8s-4.73-7.76-2.73-15.22,10-11.8,10-11.8S362.93,261.5,360.93,269Z" transform="translate(-52.87 -153.02)"></path><path class="cls-12" d="M372,287.15c-4.42,6.34-13.4,7.7-13.4,7.7s-1.81-8.9,2.61-15.23,13.4-7.7,13.4-7.7S376.47,280.82,372,287.15Z" transform="translate(-52.87 -153.02)"></path><path class="cls-12" d="M380.71,304.72c-5.49,5.44-14.57,5.17-14.57,5.17s-.18-9.08,5.31-14.52S386,290.21,386,290.21,386.2,299.29,380.71,304.72Z" transform="translate(-52.87 -153.02)"></path><path class="cls-12" d="M374.91,339.84a1.16,1.16,0,0,1-.91.17,1.93,1.93,0,0,1-1.45-1.81c0-.22-.55-17.26-19.36-47.14-19.06-30.27-35.73-46.76-35.9-46.92A1.71,1.71,0,0,1,317,242a1.34,1.34,0,0,1,2,.1c.17.16,17.16,16.95,36.49,47.66,19.5,31,19.95,48.35,20,49.07A1.19,1.19,0,0,1,374.91,339.84Z" transform="translate(-52.87 -153.02)"></path><path class="cls-12" d="M314.22,229.6c5.29,5.62,4.79,14.7,4.79,14.7s-9.09-.06-14.38-5.68-4.79-14.7-4.79-14.7S308.93,224,314.22,229.6Z" transform="translate(-52.87 -153.02)"></path><path class="cls-13" d="M275.38,709.59a2,2,0,0,1-1.86-1.94c-2.28-86.29-36.58-126.51-64.95-145.06s-61.16-21.18-78.7-14.05a2,2,0,0,1-1.51-3.72c17.93-7.29,51.37-5.89,82.4,14.41,29.18,19.07,64.44,60.29,66.77,148.31a2,2,0,0,1-1.95,2.06Z" transform="translate(-52.87 -153.02)"></path><path class="cls-13" d="M67.34,565.6s62.48-30.06,70-22.48C145.06,550.93,67.34,565.6,67.34,565.6Z" transform="translate(-52.87 -153.02)"></path><path class="cls-13" d="M71.49,531s72.12,8.62,70.24,11.44S102.38,539.61,71.49,531Z" transform="translate(-52.87 -153.02)"></path><path class="cls-13" d="M89.76,509.89a137,137,0,0,0,34.3,21.89c20.15,8.81,29.34,11.54,29.34,11.54s-14.17-12.81-26.82-18.74S89.76,509.89,89.76,509.89Z" transform="translate(-52.87 -153.02)"></path><path class="cls-13" d="M109.71,493.55s19.77,22.19,29.65,29.94,24.38,20.57,24.38,20.57-12.17-16.63-20.33-24.78S109.71,493.55,109.71,493.55Z" transform="translate(-52.87 -153.02)"></path><path class="cls-13" d="M131.35,481.35s10.69,23.89,18.93,35.21,22.32,25.49,22.32,25.49-8.94-20.42-15.63-30S131.35,481.35,131.35,481.35Z" transform="translate(-52.87 -153.02)"></path><path class="cls-13" d="M152.79,476.85S161.47,510,167.06,521s16.69,24.52,16.69,24.52-2.29-15-9.41-27.88S152.79,476.85,152.79,476.85Z" transform="translate(-52.87 -153.02)"></path><path class="cls-13" d="M173.46,478.33S175.05,503,181.73,522s12.36,28.84,12.36,28.84-3-23.35-8.15-36.11S173.46,478.33,173.46,478.33Z" transform="translate(-52.87 -153.02)"></path><path class="cls-13" d="M192.85,483.73s-2.26,17.61,4.57,43.9,9.31,29.16,9.31,29.16.34-28.13-2.44-36.21S192.85,483.73,192.85,483.73Z" transform="translate(-52.87 -153.02)"></path><path class="cls-13" d="M211.55,489.43s-4.48,25.15-1.22,40.47,6.53,35.32,6.53,35.32,2.38-24,1-37.63S211.55,489.43,211.55,489.43Z" transform="translate(-52.87 -153.02)"></path><path class="cls-13" d="M231.89,495.57a93.92,93.92,0,0,0-8,41.66c1,23.54-.22,34.18-.22,34.18s5.6-25.08,7-35S231.89,495.57,231.89,495.57Z" transform="translate(-52.87 -153.02)"></path><path class="cls-13" d="M246.49,507s-8.48,20.17-10.6,35.77-2.48,34.68-2.48,34.68,7.2-16.24,10.32-31.77S246.49,507,246.49,507Z" transform="translate(-52.87 -153.02)"></path><path class="cls-13" d="M261.14,517.8s-10.27,12.31-15,36.77-6.2,35.09-6.2,35.09,9.6-21.77,13.2-34.59S261.14,517.8,261.14,517.8Z" transform="translate(-52.87 -153.02)"></path><path class="cls-13" d="M275.9,531.73s-11.24,11.77-16,27.51-12.67,41.33-12.67,41.33S260.1,579.2,265,566.4,275.9,531.73,275.9,531.73Z" transform="translate(-52.87 -153.02)"></path><path class="cls-13" d="M285.24,546.31s-7.07,5.19-17.43,28.25-13.41,37.59-13.41,37.59,11.84-20.27,19.42-32.64S285.24,546.31,285.24,546.31Z" transform="translate(-52.87 -153.02)"></path><path class="cls-13" d="M297.11,563.25s-6.22,2.57-17.73,22.86-20.65,40.42-20.65,40.42,13-18.17,23.2-33.87A163.58,163.58,0,0,0,297.11,563.25Z" transform="translate(-52.87 -153.02)"></path><path class="cls-13" d="M302.25,585.06s-8.72.05-19.87,20-20.46,33.06-20.46,33.06,20.87-20,26.56-29.28S302.25,585.06,302.25,585.06Z" transform="translate(-52.87 -153.02)"></path><path class="cls-13" d="M309.11,601.64s-15,8.32-25.94,20.61a151.52,151.52,0,0,0-18.29,26.17s19.41-13.69,27.78-23S309.11,601.64,309.11,601.64Z" transform="translate(-52.87 -153.02)"></path><path class="cls-13" d="M266.69,660.62s4.71-9.72,19.46-23.75,24.17-14.69,24.17-14.69-8.71,9.43-22,21.88S266.69,660.62,266.69,660.62Z" transform="translate(-52.87 -153.02)"></path><path class="cls-13" d="M267.31,675.41s11.36-18.29,23.43-23.13A164.42,164.42,0,0,0,310.51,643S295,659,290.15,660.62,267.31,675.41,267.31,675.41Z" transform="translate(-52.87 -153.02)"></path><path class="cls-13" d="M141.51,545.94s-17,21.4-24.84,28.21-30.16,23.49-30.16,23.49,19.28-20.91,27.76-29.53S141.51,545.94,141.51,545.94Z" transform="translate(-52.87 -153.02)"></path><path class="cls-13" d="M153.4,543.32s-20.82,23.92-25.56,29.28-17,21.58-17.66,26.73,21.8-20.06,25.51-24.49S153.4,543.32,153.4,543.32Z" transform="translate(-52.87 -153.02)"></path><path class="cls-13" d="M162.07,543.94s-8,8.42-17.69,27.16-18,36.26-18,36.26,22-26.37,24.91-34.31S162.07,543.94,162.07,543.94Z" transform="translate(-52.87 -153.02)"></path><path class="cls-13" d="M176.33,546.1s-9.58,7.38-21.72,27.19A195,195,0,0,0,137,609.79s23.93-30.47,27-38.13S176.33,546.1,176.33,546.1Z" transform="translate(-52.87 -153.02)"></path><path class="cls-13" d="M191.09,550.64c-6.36,4.58-18.92,16.08-22.7,22.18S145,608.69,145,608.69s19.94-21,29.14-32.6A214.54,214.54,0,0,0,191.09,550.64Z" transform="translate(-52.87 -153.02)"></path><path class="cls-13" d="M203.07,556.53A178.08,178.08,0,0,0,175,583.68c-13.93,16.77-20.59,25.68-20.59,25.68s25.48-23.64,33.13-32.32A227.94,227.94,0,0,0,203.07,556.53Z" transform="translate(-52.87 -153.02)"></path><path class="cls-13" d="M216.86,565.22a91.09,91.09,0,0,0-28.13,18.44C175.05,596.76,158.81,613,158.81,613s36.11-22.23,42.26-28.49S216.86,565.22,216.86,565.22Z" transform="translate(-52.87 -153.02)"></path><path class="cls-13" d="M229.74,577.2s-14.19,1.67-29,12.17-35.28,27-35.28,27,32.55-17,40.63-22.07S229.74,577.2,229.74,577.2Z" transform="translate(-52.87 -153.02)"></path><path class="cls-13" d="M237,587.1a72.13,72.13,0,0,0-31.81,10.47c-16.12,9.91-33.88,19.2-33.88,19.2s37.57-9.89,41.46-12.63S237,587.1,237,587.1Z" transform="translate(-52.87 -153.02)"></path><path class="cls-13" d="M244.86,600.15s-21.64,2.72-31,7.25-35.71,16.73-35.71,16.73,32-8.36,39.8-11.53S244.86,600.15,244.86,600.15Z" transform="translate(-52.87 -153.02)"></path><path class="cls-13" d="M182.35,630.13s29.41-13.66,42.84-15.71a252.23,252.23,0,0,1,26.21-2.49,170.29,170.29,0,0,1-26.72,9.66C211.59,624.84,182.35,630.13,182.35,630.13Z" transform="translate(-52.87 -153.02)"></path><path class="cls-13" d="M188.13,634.23s31.24-8.83,41.48-9.78,26.3-.63,26.3-.63S228.43,633.08,188.13,634.23Z" transform="translate(-52.87 -153.02)"></path><path class="cls-13" d="M191.3,638.81s28.63-3.79,51.12-4.39S260.26,638,260.26,638,224,642.82,191.3,638.81Z" transform="translate(-52.87 -153.02)"></path><path class="cls-13" d="M200.52,643.83s19-1.5,32.52-1.79,29.74,7.57,29.74,7.57-21.73.8-30.27-.15S200.52,643.83,200.52,643.83Z" transform="translate(-52.87 -153.02)"></path><path class="cls-13" d="M205,651.52a142,142,0,0,1,31.93,2.28,94.44,94.44,0,0,1,29.5,10.82s-27.82-4.67-33.06-6.38S205,651.52,205,651.52Z" transform="translate(-52.87 -153.02)"></path><path class="cls-13" d="M215.9,663s15.89-1.88,26.82-.09,23,11,23,11-19.19-4.13-24.89-5.88C231.4,665.1,215.9,663,215.9,663Z" transform="translate(-52.87 -153.02)"></path><path class="cls-13" d="M646.34,435.11a1.81,1.81,0,0,0,2-1.41c16.39-76.08,53.47-106,81.7-117.74s57.72-8.58,72.07.65a1.81,1.81,0,0,0,2-3c-14.68-9.44-44.54-13.77-75.42-.95-29,12.05-67.13,42.71-83.84,120.32a1.8,1.8,0,0,0,1.38,2.14A.57.57,0,0,0,646.34,435.11Z" transform="translate(-52.87 -153.02)"></path><path class="cls-13" d="M854.65,342.13s-50.36-37-58.27-31.56C788.22,316.2,854.65,342.13,854.65,342.13Z" transform="translate(-52.87 -153.02)"></path><path class="cls-13" d="M856.73,310.82s-65.34-4.36-64.15-1.55S827.93,313.28,856.73,310.82Z" transform="translate(-52.87 -153.02)"></path><path class="cls-13" d="M844.06,289a123.48,123.48,0,0,1-34,13.69c-19.32,4.45-27.92,5.34-27.92,5.34s14.69-9,26.88-12.14S844.06,289,844.06,289Z" transform="translate(-52.87 -153.02)"></path><path class="cls-13" d="M829.1,271.24s-21.21,16.37-31.25,21.59-25,14.17-25,14.17,13.54-12.7,22.13-18.57S829.1,271.24,829.1,271.24Z" transform="translate(-52.87 -153.02)"></path><path class="cls-13" d="M812,256.83s-13.45,19.39-22.63,28.05-24,18.87-24,18.87,11.32-16.6,18.84-24S812,256.83,812,256.83Z" transform="translate(-52.87 -153.02)"></path><path class="cls-13" d="M793.71,249.27s-13.23,28-20,36.72-18.86,18.95-18.86,18.95,4.51-12.88,13-23.14S793.71,249.27,793.71,249.27Z" transform="translate(-52.87 -153.02)"></path><path class="cls-13" d="M775.14,247.14s-5.51,21.57-14.6,37.34S744.79,308,744.79,308s6.57-20.18,13.23-30.64S775.14,247.14,775.14,247.14Z" transform="translate(-52.87 -153.02)"></path><path class="cls-13" d="M757.06,248.71s-.92,16-11.36,38.14-13.1,24.28-13.1,24.28,4.38-25,8.19-31.67S757.06,248.71,757.06,248.71Z" transform="translate(-52.87 -153.02)"></path><path class="cls-13" d="M739.54,250.64s-.21,23-5.65,36.06-11.67,30.22-11.67,30.22,1.88-21.63,5.37-33.52S739.54,250.64,739.54,250.64Z" transform="translate(-52.87 -153.02)"></path><path class="cls-13" d="M720.49,252.7a84.59,84.59,0,0,1,.17,38.25c-4.81,20.69-5.5,30.32-5.5,30.32s-.79-23.15-.36-32.2S720.49,252.7,720.49,252.7Z" transform="translate(-52.87 -153.02)"></path><path class="cls-13" d="M705.65,260.4s4.16,19.29,3.44,33.47S705.52,325,705.52,325s-3.67-15.59-3.85-29.87S705.65,260.4,705.65,260.4Z" transform="translate(-52.87 -153.02)"></path><path class="cls-13" d="M690.88,267.53s7,12.62,7.2,35.09-.35,32.12-.35,32.12-4.89-20.89-5.94-32.84S690.88,267.53,690.88,267.53Z" transform="translate(-52.87 -153.02)"></path><path class="cls-13" d="M675.48,277.42s8,12.3,9.64,27.05,4.35,38.73,4.35,38.73-7.89-21.09-10.14-33.25S675.48,277.42,675.48,277.42Z" transform="translate(-52.87 -153.02)"></path><path class="cls-13" d="M664.77,288.78s5.41,5.78,10.75,27.94,5.63,35.54,5.63,35.54-7.11-19.94-11.78-32.15S664.77,288.78,664.77,288.78Z" transform="translate(-52.87 -153.02)"></path><path class="cls-13" d="M651.44,301.82s5.09,3.31,11.9,23.21,11.58,39.25,11.58,39.25S666.4,346,660,330.41A146.93,146.93,0,0,1,651.44,301.82Z" transform="translate(-52.87 -153.02)"></path><path class="cls-13" d="M643.26,320.29s7.71,1.5,14.27,21.06,12.63,32.7,12.63,32.7S655,352.89,651.49,343.69,643.26,320.29,643.26,320.29Z" transform="translate(-52.87 -153.02)"></path><path class="cls-13" d="M634.42,333.84s11.91,9.87,19.56,22.58a136.51,136.51,0,0,1,11.85,26.24s-14.92-15.37-20.8-25S634.42,333.84,634.42,333.84Z" transform="translate(-52.87 -153.02)"></path><path class="cls-13" d="M662.2,393.16s-2.57-9.39-13.3-24.28-19-17-19-17,6.15,9.8,15.86,23.05S662.2,393.16,662.2,393.16Z" transform="translate(-52.87 -153.02)"></path><path class="cls-13" d="M659.19,406.17s-7-18.1-16.92-24.4a148.31,148.31,0,0,1-16-11.54s11.12,16.75,15.11,19S659.19,406.17,659.19,406.17Z" transform="translate(-52.87 -153.02)"></path><path class="cls-13" d="M792.2,312.38s11.48,21.78,17.31,29.12,22.83,25.84,22.83,25.84-13.61-21.74-19.69-30.79S792.2,312.38,792.2,312.38Z" transform="translate(-52.87 -153.02)"></path><path class="cls-13" d="M782.1,308.07s14.46,24.67,17.77,30.2,11.44,22,11.21,26.62-16-21.4-18.53-25.94S782.1,308.07,782.1,308.07Z" transform="translate(-52.87 -153.02)"></path><path class="cls-13" d="M774.32,307.18s5.66,8.79,11.15,27,9.93,35.12,9.93,35.12-15.1-27-16.36-34.54S774.32,307.18,774.32,307.18Z" transform="translate(-52.87 -153.02)"></path><path class="cls-13" d="M761.32,306.72s7.26,8.14,14.72,27.7a176.34,176.34,0,0,1,9.58,35.29s-16.14-31-17.58-38.28S761.32,306.72,761.32,306.72Z" transform="translate(-52.87 -153.02)"></path><path class="cls-13" d="M747.49,308.29c4.87,5.11,14.08,17.4,16.42,23.43s14.72,35.67,14.72,35.67-14.17-21.94-20.4-33.74A193.19,193.19,0,0,1,747.49,308.29Z" transform="translate(-52.87 -153.02)"></path><path class="cls-13" d="M735.89,311.51a160.78,160.78,0,0,1,20.37,28.74c9.56,17.17,14,26.18,14,26.18s-18.64-25.19-24-34.15A205.73,205.73,0,0,1,735.89,311.51Z" transform="translate(-52.87 -153.02)"></path><path class="cls-13" d="M722.22,316.92a81.91,81.91,0,0,1,21.86,21c9.94,13.88,21.63,31,21.63,31s-28.3-25.7-32.71-32.27S722.22,316.92,722.22,316.92Z" transform="translate(-52.87 -153.02)"></path><path class="cls-13" d="M708.81,325.39A62.86,62.86,0,0,1,732.51,341c11.39,11.77,26.77,29.77,26.77,29.77s-26-20.43-32.33-26.31S708.81,325.39,708.81,325.39Z" transform="translate(-52.87 -153.02)"></path><path class="cls-13" d="M700.76,333a65.08,65.08,0,0,1,26.45,14.57C739.85,359,754,370.18,754,370.18s-31.65-15-34.64-18.09S700.76,333,700.76,333Z" transform="translate(-52.87 -153.02)"></path><path class="cls-13" d="M691.6,343.21s18.72,6,26.28,11.59,28.86,20.76,28.86,20.76-26.94-12.72-33.35-16.84S691.6,343.21,691.6,343.21Z" transform="translate(-52.87 -153.02)"></path><path class="cls-13" d="M742,380.18s-23.79-17-35.35-21.05a228.07,228.07,0,0,0-22.8-6.57,152.48,152.48,0,0,0,22.06,13C717,370.63,742,380.18,742,380.18Z" transform="translate(-52.87 -153.02)"></path><path class="cls-13" d="M736.2,382.85s-26.22-13-35.13-15.57-23.2-4.93-23.2-4.93S700.68,375.13,736.2,382.85Z" transform="translate(-52.87 -153.02)"></path><path class="cls-13" d="M732.62,386.38s-24.74-8.12-44.56-12.4-16.41.24-16.41.24S703,384.49,732.62,386.38Z" transform="translate(-52.87 -153.02)"></path><path class="cls-13" d="M723.63,389.29s-16.58-4.49-28.53-7-27.61,1.76-27.61,1.76,19.12,4.32,26.84,4.9S723.63,389.29,723.63,389.29Z" transform="translate(-52.87 -153.02)"></path><path class="cls-13" d="M718.4,395.37a128,128,0,0,0-28.67-3.29,84.93,84.93,0,0,0-28,4.68s25.43.49,30.36-.16S718.4,395.37,718.4,395.37Z" transform="translate(-52.87 -153.02)"></path><path class="cls-13" d="M706.8,403.74s-13.77-4.31-23.75-4.54-22.22,5.88-22.22,5.88,17.69-.46,23-1.07C692.72,403,706.8,403.74,706.8,403.74Z" transform="translate(-52.87 -153.02)"></path></g><g id="Layer_2" data-name="Layer 2"><path class="cls-14" d="M585.79,244.25l3.92,11.69a2.92,2.92,0,0,0,2.39,2l12.61,1.87c2.88.43,3.48,4.05,1,6.12L595,275a4.17,4.17,0,0,0-1.53,3.17l.17,12.86c0,2.93-3.4,5.17-5.81,3.78l-10.58-6.07a3.6,3.6,0,0,0-3.35,0l-12.5,6.07c-2.85,1.39-5.58-.85-4.61-3.78L561,278.18a3.23,3.23,0,0,0-.53-3.17l-7.9-9.11c-1.8-2.07,0-5.69,3-6.12l13.21-1.87a4.43,4.43,0,0,0,3-2l7.63-11.69C581.09,241.58,584.9,241.58,585.79,244.25Z" transform="translate(-52.87 -153.02)"></path><path class="cls-15" d="M583.79,241.83l3.92,11.69a2.9,2.9,0,0,0,2.39,2l12.61,1.88c2.88.43,3.48,4.05,1,6.12L593,272.59a4.17,4.17,0,0,0-1.53,3.17l.17,12.86c0,2.93-3.4,5.17-5.81,3.78l-10.58-6.07a3.6,3.6,0,0,0-3.35,0l-12.5,6.07c-2.85,1.39-5.58-.85-4.61-3.78L559,275.76a3.2,3.2,0,0,0-.53-3.17l-7.9-9.11c-1.8-2.07,0-5.69,3-6.12l13.21-1.88a4.38,4.38,0,0,0,3-2l7.63-11.69C579.09,239.16,582.9,239.16,583.79,241.83Z" transform="translate(-52.87 -153.02)"></path><path class="cls-16" d="M736.42,717.79h-414c-18.5,0-32.2-9.34-30.59-20.87l48.95-351.34c1.61-11.52,17.9-20.86,36.4-20.86h414c18.5,0,32.19,9.34,30.59,20.86l-49,351.34C771.22,708.45,754.92,717.79,736.42,717.79Z" transform="translate(-52.87 -153.02)"></path><polygon class="cls-2" points="698.69 538.98 260.42 538.98 307.94 197.9 746.21 197.9 698.69 538.98"></polygon><path class="cls-14" d="M579.07,336c-.49,4-3.41,7.32-6.51,7.32s-5.23-3.28-4.74-7.32,3.41-7.33,6.52-7.33S579.56,331.93,579.07,336Z" transform="translate(-52.87 -153.02)"></path><path class="cls-2" d="M720.63,688.19H249c-10.29,0-17.6-7.82-16.31-17.46l42-305.44c1.29-9.65,10.69-17.46,21-17.46H767.34c10.3,0,17.6,7.81,16.31,17.46l-42,305.44C740.32,680.37,730.93,688.19,720.63,688.19Z" transform="translate(-52.87 -153.02)"></path><path class="cls-17" d="M270.5,396H779.42l4.23-30.73c1.29-9.65-6-17.46-16.31-17.46H295.71c-10.29,0-19.69,7.81-21,17.46Z" transform="translate(-52.87 -153.02)"></path><path class="cls-18" d="M312.61,371.1a6.64,6.64,0,0,1-6.58,5.39c-3.24,0-5.54-2.41-5.15-5.39a6.65,6.65,0,0,1,6.59-5.38C310.71,365.72,313,368.13,312.61,371.1Z" transform="translate(-52.87 -153.02)"></path><path class="cls-18" d="M331.81,371.1a6.64,6.64,0,0,1-6.58,5.39c-3.24,0-5.54-2.41-5.15-5.39a6.65,6.65,0,0,1,6.59-5.38C329.91,365.72,332.21,368.13,331.81,371.1Z" transform="translate(-52.87 -153.02)"></path><path class="cls-18" d="M351,371.1a6.64,6.64,0,0,1-6.58,5.39c-3.24,0-5.54-2.41-5.15-5.39a6.65,6.65,0,0,1,6.59-5.38C349.11,365.72,351.41,368.13,351,371.1Z" transform="translate(-52.87 -153.02)"></path><ellipse class="cls-15" cx="293.48" cy="527.72" rx="24.72" ry="21.49" transform="translate(-339.2 206.06) rotate(-44.7)"></ellipse><path class="cls-16" d="M290.07,541.86l-10.56-13.17a2.63,2.63,0,0,1,.59-3.59,2.47,2.47,0,0,1,3.55.09l6.8,8.47,14.73-18.92a2.69,2.69,0,0,1,3.59-.76,2.43,2.43,0,0,1,.26,3.51Z" transform="translate(-52.87 -153.02)"></path><path class="cls-19" d="M573.19,511.07l4.73-8.48a35.22,35.22,0,0,0,6.7-.22l3.34,8.29a1.2,1.2,0,0,0,1.52.65l5.53-1.72a1.65,1.65,0,0,0,1.14-1.48l.15-9.13a41.93,41.93,0,0,0,6.16-3.56l7.32,4.91a1.42,1.42,0,0,0,1.75-.25l4.3-4.16a1.43,1.43,0,0,0,.32-1.75l-4.48-7.35a43.15,43.15,0,0,0,4-5.92l9.33.21a1.62,1.62,0,0,0,1.51-1.08l1.93-5.48a1.2,1.2,0,0,0-.59-1.55l-7.91-3.59a36,36,0,0,0,.72-6.72l8.85-4.53a1.57,1.57,0,0,0,.87-1.63l-1-5.33a1.16,1.16,0,0,0-1.33-.94l-9.22,1.13a28.86,28.86,0,0,0-2.73-5.71l6-8.07a1.33,1.33,0,0,0,0-1.73l-3.59-3.76a1.34,1.34,0,0,0-1.73-.07l-8.06,5.55a30.33,30.33,0,0,0-5.43-3.19l1.53-9.43a1.17,1.17,0,0,0-.89-1.37l-5.27-1.18a1.58,1.58,0,0,0-1.65.81l-4.74,8.49a35.12,35.12,0,0,0-6.69.22l-3.35-8.29a1.2,1.2,0,0,0-1.52-.65l-5.52,1.72a1.62,1.62,0,0,0-1.14,1.47l-.15,9.14a40.87,40.87,0,0,0-6.16,3.55L560.42,434a1.28,1.28,0,0,0-.34-.14l-1.81,13.21.26.44c-.13.17-.26.35-.4.52l-5.28,38.41c.38.76.78,1.5,1.23,2.22l-1.89,2.53-1.39,10.1.89.92a1.32,1.32,0,0,0,1.72.08l8.07-5.56a30,30,0,0,0,5.43,3.19l-1.53,9.43a1.16,1.16,0,0,0,.88,1.37l5.27,1.18A1.58,1.58,0,0,0,573.19,511.07Zm-5.59-47.82c3.54-10,14.24-16.44,23.91-14.28s14.62,12,11.08,22.09-14.24,16.44-23.9,14.29S564.06,473.3,567.6,463.25Z" transform="translate(-52.87 -153.02)"></path><path class="cls-20" d="M741.59,544.83a69.62,69.62,0,0,1,29.09,9.93l8.43-60.47a3.87,3.87,0,0,0-2.48,1.47l-15.71,20.32a100.31,100.31,0,0,0-11.17-2l-1.61-24a2.86,2.86,0,0,0-2.93-2.72H731.66a3.88,3.88,0,0,0-3.59,2.72l-7.48,24.09a2.45,2.45,0,0,0,0,.38q-5.67.87-11.39,2.34c0-.09,0-.19-.07-.28l-10.85-20.5a3,3,0,0,0-3.89-1.25l-13.16,5.23a3.83,3.83,0,0,0-2.44,3.77l2,24c0,.1.08.17.09.27q-5.33,2.93-10.31,6.3l-18.43-13.78a3.4,3.4,0,0,0-4.26.4l-10.76,9.66a3.53,3.53,0,0,0-.91,4.25l11,19.86q-4.32,4.78-8.11,9.93L616.78,560a3.76,3.76,0,0,0-4,2l-6.72,12.63a3.13,3.13,0,0,0,.75,4.08L624,591.09a124,124,0,0,0-4.6,13l-21.77,4.09a3.91,3.91,0,0,0-3.1,3.28l-1.66,13.67a2.87,2.87,0,0,0,2.29,3.28l19.6,3.86a105.33,105.33,0,0,0,.52,14.64l-17.71,10.85a3.73,3.73,0,0,0-1.74,4.08l3.65,12.62a2.93,2.93,0,0,0,3.5,2l18.5-3.78a93.29,93.29,0,0,0,6.78,14l-1.26,1.6h50.34l34.53-41c4.74-5.63,13.06-5.63,16.43,0l21.93,36.62a22.46,22.46,0,0,0,2.79-2.36l4-28.29-11.14-18.6c-3.36-5.62.18-13.6,7-15.75l9.33-2.94,3-21.65-17,5.35c-6.82,2.15-13-2.78-12.1-9.74Zm-45.16,90.91-34.8,41.31a66.62,66.62,0,0,1-13-24.52c-4.48-15.51-3.5-31.93,1.8-47.17L693.27,620C699.57,622.13,701.16,630.11,696.43,635.74Zm19.29-45.19c-.84,7-8.17,11.89-14.47,9.74l-41.47-14.15A92.2,92.2,0,0,1,703,550.33a84.57,84.57,0,0,1,18.2-5Z" transform="translate(-52.87 -153.02)"></path><polygon class="cls-21" points="345.68 227.91 509.9 228.32 517.96 228.34 484.48 465.31 269.99 464.77 298.37 263.95 345.68 227.91"></polygon><polygon class="cls-18" points="475.05 181.13 302.64 181.62 264.37 460.07 479.01 459.44 511.45 223.47 475.05 181.13"></polygon><polygon class="cls-22" points="511.45 223.47 475.05 181.13 474.92 181.13 468.87 224.2 511.35 224.2 511.45 223.47"></polygon><path class="cls-16" d="M416.44,436.27H401.88L398.2,421.2H371.69l-7.59,15.07H349.9L385.05,370h14.16Zm-21-26.24-5.68-24.61L377.38,410Z" transform="translate(-52.87 -153.02)"></path><path class="cls-16" d="M437.65,402.88l-11.24-2.08a21.76,21.76,0,0,1,8.14-10.32q5.22-3.35,14.59-3.34,8.5,0,12.38,2a10.31,10.31,0,0,1,5.14,5.11q1.26,3.11.1,11.38l-2.22,14.84a50.42,50.42,0,0,0-.7,9.34,24.33,24.33,0,0,0,1.37,6.45H452.64c-.22-.85-.45-2.1-.7-3.76-.1-.75-.18-1.25-.24-1.49a27.89,27.89,0,0,1-7.63,4.75,21.56,21.56,0,0,1-8.14,1.58q-7.43,0-11.13-4A11.87,11.87,0,0,1,422,423.15,15.56,15.56,0,0,1,431.06,411a47.34,47.34,0,0,1,10.53-3,77.43,77.43,0,0,0,12.78-3.12l.18-1.27c.35-2.44,0-4.19-1.07-5.23s-3.27-1.56-6.61-1.56a10.07,10.07,0,0,0-5.49,1.34A11.31,11.31,0,0,0,437.65,402.88Zm15.56,10.32q-2.55.81-8,1.94T438,417.36a6.27,6.27,0,0,0-3.12,4.48,5.51,5.51,0,0,0,1.34,4.61,6.06,6.06,0,0,0,4.8,1.95,12.41,12.41,0,0,0,6.87-2.27,9.69,9.69,0,0,0,3.63-4.2,26.75,26.75,0,0,0,1.36-6.2Z" transform="translate(-52.87 -153.02)"></path><path class="cls-16" d="M529.09,415.41H481.2a4.27,4.27,0,0,1-4.33-5h0a6,6,0,0,1,5.75-5.05h47.89a4.28,4.28,0,0,1,4.33,5.05h0A6,6,0,0,1,529.09,415.41Z" transform="translate(-52.87 -153.02)"></path><path class="cls-16" d="M543,430.88H479a4.28,4.28,0,0,1-4.34-5h0a6,6,0,0,1,5.75-5h63.95a4.28,4.28,0,0,1,4.33,5h0A6,6,0,0,1,543,430.88Z" transform="translate(-52.87 -153.02)"></path><path class="cls-16" d="M540.79,446.36H476.85a4.28,4.28,0,0,1-4.33-5.05h0a6,6,0,0,1,5.75-5h63.94a4.28,4.28,0,0,1,4.34,5h0A6,6,0,0,1,540.79,446.36Z" transform="translate(-52.87 -153.02)"></path><path class="cls-16" d="M538.51,461.83H349.83a4.28,4.28,0,0,1-4.33-5.05h0a6,6,0,0,1,5.75-5H539.93a4.28,4.28,0,0,1,4.34,5h0A6,6,0,0,1,538.51,461.83Z" transform="translate(-52.87 -153.02)"></path><path class="cls-16" d="M536.44,477.3H347.66a4.28,4.28,0,0,1-4.34-5h0a6,6,0,0,1,5.76-5.05H537.86a4.29,4.29,0,0,1,4.34,5.05h0A6,6,0,0,1,536.44,477.3Z" transform="translate(-52.87 -153.02)"></path><path class="cls-16" d="M534.17,492.77H345.48a4.28,4.28,0,0,1-4.33-5h0a6,6,0,0,1,5.75-5H535.58a4.28,4.28,0,0,1,4.34,5h0A6,6,0,0,1,534.17,492.77Z" transform="translate(-52.87 -153.02)"></path><path class="cls-16" d="M532,508.25H343.31A4.29,4.29,0,0,1,339,503.2h0a6,6,0,0,1,5.76-5H533.41a4.28,4.28,0,0,1,4.33,5h0A6,6,0,0,1,532,508.25Z" transform="translate(-52.87 -153.02)"></path><path class="cls-16" d="M529.82,523.72H341.13a4.28,4.28,0,0,1-4.33-5.05h0a6,6,0,0,1,5.75-5H531.23a4.28,4.28,0,0,1,4.34,5h0A6,6,0,0,1,529.82,523.72Z" transform="translate(-52.87 -153.02)"></path><path class="cls-16" d="M527.64,539.19H339a4.28,4.28,0,0,1-4.34-5h0a6,6,0,0,1,5.76-5H529.06a4.29,4.29,0,0,1,4.34,5h0A6,6,0,0,1,527.64,539.19Z" transform="translate(-52.87 -153.02)"></path><path class="cls-16" d="M525.47,554.66H336.79a4.28,4.28,0,0,1-4.34-5h0a6,6,0,0,1,5.75-5H526.89a4.28,4.28,0,0,1,4.33,5h0A6,6,0,0,1,525.47,554.66Z" transform="translate(-52.87 -153.02)"></path><path class="cls-16" d="M523.29,570.14H334.61a4.28,4.28,0,0,1-4.33-5h0a6,6,0,0,1,5.75-5H524.71a4.28,4.28,0,0,1,4.34,5h0A6,6,0,0,1,523.29,570.14Z" transform="translate(-52.87 -153.02)"></path><path class="cls-16" d="M521.12,585.61H332.44a4.29,4.29,0,0,1-4.34-5.05h0a6,6,0,0,1,5.75-5H522.54a4.28,4.28,0,0,1,4.33,5h0A6,6,0,0,1,521.12,585.61Z" transform="translate(-52.87 -153.02)"></path><path class="cls-16" d="M518.94,601.08H330.26a4.28,4.28,0,0,1-4.33-5h0a6,6,0,0,1,5.75-5H520.36a4.29,4.29,0,0,1,4.34,5h0A6,6,0,0,1,518.94,601.08Z" transform="translate(-52.87 -153.02)"></path><path class="cls-15" d="M461.48,563.13H542.6a6,6,0,0,0,5.72-5.09l7.08-51.22a4.3,4.3,0,0,0-4.31-5.1H470a6,6,0,0,0-5.72,5.1L457.17,558A4.3,4.3,0,0,0,461.48,563.13Z" transform="translate(-52.87 -153.02)"></path><path class="cls-23" d="M321.32,667H521.18c6.67,0,12.84-5.5,13.78-12.28L551.63,534.1c.93-6.78-3.71-12.28-10.38-12.28H341.38c-6.67,0-12.84,5.5-13.77,12.28L310.94,654.69C310,661.47,314.65,667,321.32,667Z" transform="translate(-52.87 -153.02)"></path><path class="cls-15" d="M318.39,688.19H518.25c6.67,0,12.84-5.5,13.78-12.29l16.66-120.58c.94-6.79-3.71-12.29-10.38-12.29H338.45c-6.67,0-12.84,5.5-13.78,12.29L308,675.9C307.07,682.69,311.72,688.19,318.39,688.19Z" transform="translate(-52.87 -153.02)"></path><path class="cls-16" d="M327.35,667h187.8a5.19,5.19,0,0,0,4.94-4.4l1.71-12.42a3.71,3.71,0,0,0-3.71-4.39H330.28a5.17,5.17,0,0,0-4.93,4.39l-1.72,12.42A3.72,3.72,0,0,0,327.35,667Z" transform="translate(-52.87 -153.02)"></path><path class="cls-16" d="M62.73,525.55H702.19a12.12,12.12,0,0,1,12.12,12.12v7.5a30.3,30.3,0,0,1-30.3,30.3H80.91a30.3,30.3,0,0,1-30.3-30.3v-7.5A12.12,12.12,0,0,1,62.73,525.55Z"></path><rect class="cls-14" x="588.91" y="539.19" width="35.59" height="9.11" rx="3.87"></rect><rect class="cls-14" x="637.71" y="539.19" width="35.59" height="9.11" rx="3.87"></rect><g class="cls-24"><path class="cls-17" d="M392.54,692.83c0-7.87,4.61-14.26,10.3-14.26H113.78c-5.68,0-10.29,6.39-10.29,14.26,0,19.69,11.52,35.66,25.74,35.66h289C404.06,728.49,392.54,712.52,392.54,692.83Z" transform="translate(-52.87 -153.02)"></path><g class="cls-25"><path class="cls-14" d="M402.1,678.57v0c.24,0,.49,0,.74,0Z" transform="translate(-52.87 -153.02)"></path><path class="cls-14" d="M396.49,711.8H138.72c-13.62,0-24.75-14.65-25.68-33.18-5.34.53-9.55,6.68-9.55,14.21,0,19.69,11.52,35.66,25.74,35.66h289C409.1,728.49,401,721.82,396.49,711.8Z" transform="translate(-52.87 -153.02)"></path></g><rect class="cls-14" x="64.28" y="529.52" width="24.2" height="7.3" rx="2.86"></rect><path class="cls-14" d="M195.49,678.62l.06.2c1.86,6.62,6.46,11,11.59,11h41.28c5.13,0,9.73-4.37,11.59-11l.05-.2Z" transform="translate(-52.87 -153.02)"></path></g><path class="cls-26" d="M828.56,533.83H747.23a10,10,0,0,1-10.09-11.74l8.6-61.15a14,14,0,0,1,13.38-11.74h81.33a10,10,0,0,1,10.09,11.74l-8.6,61.15A14,14,0,0,1,828.56,533.83Z" transform="translate(-52.87 -153.02)"></path><path class="cls-18" d="M825.21,528.71H743.88A10,10,0,0,1,733.79,517l8.59-61.15a14,14,0,0,1,13.39-11.74H837.1a10,10,0,0,1,10.09,11.74L838.59,517A14,14,0,0,1,825.21,528.71Z" transform="translate(-52.87 -153.02)"></path><ellipse class="cls-15" cx="771.83" cy="460.75" rx="10.16" ry="8.83" transform="translate(-159.79 497) rotate(-42.99)"></ellipse><path class="cls-16" d="M838.59,517l3.8-27L827,468.44c-2-2.75-6.28-3.06-9.39-.67l-29.38,22.61c-2.79,2.15-6.63,2.15-8.81,0l-13.26-13c-2-2-5.53-2.15-8.28-.37l-20.34,13.13L733.79,517a10,10,0,0,0,10.09,11.74h81.33A14,14,0,0,0,838.59,517Z" transform="translate(-52.87 -153.02)"></path><path class="cls-26" d="M438.44,623.42H174.33a10.3,10.3,0,0,1-10.43-12.13l4.25-30.23A14.43,14.43,0,0,1,182,568.93H446.1a10.29,10.29,0,0,1,10.42,12.13l-4.24,30.23A14.44,14.44,0,0,1,438.44,623.42Z" transform="translate(-52.87 -153.02)"></path><path class="cls-16" d="M432.7,616.31H168.59a10.3,10.3,0,0,1-10.43-12.13l4.25-30.24a14.42,14.42,0,0,1,13.83-12.13H440.36a10.29,10.29,0,0,1,10.42,12.13l-4.25,30.24A14.43,14.43,0,0,1,432.7,616.31Z" transform="translate(-52.87 -153.02)"></path><path class="cls-15" d="M382.85,606.72l23.34-15.26c1.79-1.17,2.13-3.63.67-4.8L387.81,571.4c-1.71-1.37-4.53,0-4.86,2.4l-4.29,30.52C378.32,606.7,380.75,608.09,382.85,606.72Z" transform="translate(-52.87 -153.02)"></path><path class="cls-15" d="M221.13,606.72l-19-15.26c-1.46-1.17-1.12-3.63.67-4.8L226.1,571.4c2.09-1.37,4.52,0,4.19,2.4L226,604.32C225.66,606.7,222.84,608.09,221.13,606.72Z" transform="translate(-52.87 -153.02)"></path><path class="cls-15" d="M297.5,607.26h0a3.05,3.05,0,0,1-3.09-3.6l4.1-29.2a4.28,4.28,0,0,1,4.11-3.6h0a3.06,3.06,0,0,1,3.09,3.6l-4.1,29.2A4.28,4.28,0,0,1,297.5,607.26Z" transform="translate(-52.87 -153.02)"></path><path class="cls-15" d="M313.34,607.26h0a3.05,3.05,0,0,1-3.09-3.6l4.1-29.2a4.28,4.28,0,0,1,4.11-3.6h0a3.05,3.05,0,0,1,3.09,3.6l-4.1,29.2A4.28,4.28,0,0,1,313.34,607.26Z" transform="translate(-52.87 -153.02)"></path><path class="cls-14" d="M688.51,388.37l3.07-25c1.22-9.94,10.35-18.07,20.29-18.07H814.7c10.17,0,17.48,8.32,16.23,18.49l-3.06,25c-1.22,9.91-10.33,18-20.24,18.07l-60.88.17a3.08,3.08,0,0,0-1.38.33l-24.46,12c-1.14.56-2.48-.18-2-1.11L724.31,407h-.5l-19.18-.11C694.41,406.81,687.26,398.6,688.51,388.37Z" transform="translate(-52.87 -153.02)"></path><path class="cls-27" d="M684.76,383.89l3.07-25c1.22-9.94,10.35-18.07,20.29-18.07H811c10.18,0,17.48,8.32,16.23,18.49l-3.06,24.95c-1.22,9.92-10.33,18.05-20.25,18.08L743,402.5a3.08,3.08,0,0,0-1.38.33l-24.45,12c-1.14.56-2.49-.18-2-1.11l5.44-11.26h-.51l-19.17-.11C690.67,402.33,683.51,394.11,684.76,383.89Z" transform="translate(-52.87 -153.02)"></path><path class="cls-26" d="M784.86,365.63H702.65a5.4,5.4,0,0,1-5.46-6.35h0a7.56,7.56,0,0,1,7.24-6.35h82.22a5.39,5.39,0,0,1,5.45,6.35h0A7.55,7.55,0,0,1,784.86,365.63Z" transform="translate(-52.87 -153.02)"></path><path class="cls-26" d="M799.26,389.42H699.06a5.18,5.18,0,0,1-5.24-6.11l.06-.48a7.27,7.27,0,0,1,7-6.1H801a5.18,5.18,0,0,1,5.25,6.1l-.07.48A7.26,7.26,0,0,1,799.26,389.42Z" transform="translate(-52.87 -153.02)"></path><path class="cls-21" d="M732,340.77l3.37-21.26c1.33-8.45-4.48-15.36-12.93-15.36H635c-8.65,0-16.85,7.07-18.21,15.72l-3.37,21.22c-1.33,8.42,4.47,15.33,12.89,15.36l51.72.14a2.24,2.24,0,0,1,1.09.28L697,367.11c.84.47,2.16-.15,2-.95l-1.93-9.57h.43l16.32-.09C722.57,356.45,730.61,349.46,732,340.77Z" transform="translate(-52.87 -153.02)"></path><path class="cls-28" d="M728.24,337l3.37-21.26c1.34-8.45-4.48-15.36-12.93-15.36H631.27c-8.65,0-16.85,7.07-18.22,15.72l-3.36,21.21c-1.33,8.43,4.47,15.34,12.89,15.37l51.71.14a2.21,2.21,0,0,1,1.09.28L693.3,363.3c.83.47,2.15-.15,2-.95l-1.93-9.57h.43l16.33-.09C718.82,352.64,726.87,345.65,728.24,337Z" transform="translate(-52.87 -153.02)"></path><path class="cls-26" d="M650.5,325.06a7.2,7.2,0,0,1-6.85,5.91,4.92,4.92,0,0,1-5-5.91,7.2,7.2,0,0,1,6.85-5.91A4.92,4.92,0,0,1,650.5,325.06Z" transform="translate(-52.87 -153.02)"></path><path class="cls-26" d="M675.46,325.06a7.2,7.2,0,0,1-6.85,5.91,4.92,4.92,0,0,1-5-5.91,7.19,7.19,0,0,1,6.84-5.91A4.92,4.92,0,0,1,675.46,325.06Z" transform="translate(-52.87 -153.02)"></path><path class="cls-26" d="M700.42,325.06a7.21,7.21,0,0,1-6.85,5.91,4.92,4.92,0,0,1-5-5.91,7.19,7.19,0,0,1,6.84-5.91A4.92,4.92,0,0,1,700.42,325.06Z" transform="translate(-52.87 -153.02)"></path><ellipse class="cls-29" cx="332.24" cy="640.21" rx="199.23" ry="20.87"></ellipse><ellipse class="cls-30" cx="332.24" cy="640.21" rx="189.91" ry="19.89"></ellipse><ellipse class="cls-31" cx="332.24" cy="640.21" rx="180.58" ry="18.92"></ellipse><ellipse class="cls-32" cx="332.24" cy="640.21" rx="171.26" ry="17.94"></ellipse><ellipse class="cls-33" cx="332.24" cy="640.21" rx="161.93" ry="16.96"></ellipse><ellipse class="cls-34" cx="332.24" cy="640.21" rx="152.61" ry="15.99"></ellipse><ellipse class="cls-35" cx="332.24" cy="640.21" rx="143.28" ry="15.01"></ellipse><ellipse class="cls-36" cx="332.24" cy="640.21" rx="133.96" ry="14.03"></ellipse><ellipse class="cls-37" cx="332.24" cy="640.21" rx="124.63" ry="13.06"></ellipse><ellipse class="cls-38" cx="332.24" cy="640.21" rx="115.3" ry="12.08"></ellipse><ellipse class="cls-39" cx="332.24" cy="640.21" rx="105.98" ry="11.1"></ellipse><ellipse class="cls-40" cx="332.24" cy="640.21" rx="96.65" ry="10.12"></ellipse><ellipse class="cls-41" cx="332.24" cy="640.21" rx="87.33" ry="9.15"></ellipse><ellipse class="cls-42" cx="332.24" cy="640.21" rx="78" ry="8.17"></ellipse><path class="cls-43" d="M453.79,793.23c0,4-30.74,7.19-68.67,7.19s-68.68-3.22-68.68-7.19,30.75-7.2,68.68-7.2S453.79,789.25,453.79,793.23Z" transform="translate(-52.87 -153.02)"></path><path class="cls-44" d="M444.47,793.23c0,3.43-26.58,6.22-59.35,6.22s-59.35-2.79-59.35-6.22S352.34,787,385.12,787,444.47,789.79,444.47,793.23Z" transform="translate(-52.87 -153.02)"></path><path class="cls-45" d="M435.14,793.23c0,2.89-22.4,5.24-50,5.24s-50-2.35-50-5.24,22.4-5.24,50-5.24S435.14,790.33,435.14,793.23Z" transform="translate(-52.87 -153.02)"></path><path class="cls-46" d="M425.82,793.23c0,2.35-18.23,4.26-40.7,4.26s-40.7-1.91-40.7-4.26,18.22-4.27,40.7-4.27S425.82,790.87,425.82,793.23Z" transform="translate(-52.87 -153.02)"></path><path class="cls-47" d="M416.49,793.23c0,1.81-14.05,3.28-31.37,3.28s-31.38-1.47-31.38-3.28,14.05-3.29,31.38-3.29S416.49,791.41,416.49,793.23Z" transform="translate(-52.87 -153.02)"></path><path class="cls-48" d="M552.08,755.2l0,12.41c0,5.65-6,10.22-13.33,10.21l-288.5-.49-67.65-15.17c-1.8-.4-1.79-2.37,0-2.76l67.73-14.94,288.5.49C546.15,745,552.09,749.55,552.08,755.2Z" transform="translate(-52.87 -153.02)"></path><path class="cls-17" d="M538.8,745l-21.12,0c7.35,0,13.29,4.6,13.28,10.25l0,12.4c0,5.65-6,10.22-13.33,10.21l21.12,0c7.35,0,13.32-4.56,13.33-10.21l0-12.41C552.09,749.55,546.15,745,538.8,745Z" transform="translate(-52.87 -153.02)"></path><polygon class="cls-49" points="197.64 624.3 481.93 624.79 482.02 591.92 197.74 591.44 197.64 624.3"></polygon><polygon class="cls-50" points="197.64 624.3 481.93 624.79 481.99 603.65 197.7 603.17 197.64 624.3"></polygon><polygon class="cls-51" points="197.64 624.3 481.93 624.79 481.95 614.73 197.67 614.24 197.64 624.3"></polygon><path class="cls-52" d="M232.51,748.38l-49.94,11c-1.8.39-1.81,2.36,0,2.76l49.88,11.18Z" transform="translate(-52.87 -153.02)"></path><g class="cls-53"><ellipse class="cls-2" cx="484.28" cy="517.31" rx="45.48" ry="47.95" transform="matrix(0.97, -0.26, 0.26, 0.97, -170.4, -9.83)"></ellipse></g><g class="cls-54"><path class="cls-18" d="M466.62,493.12c24.05-7.22,49.67,7.49,57.21,32.88a50,50,0,0,1,2,11.39,49.43,49.43,0,0,0,1.85-33.65c-7.54-25.39-33.16-40.1-57.22-32.88-20.45,6.15-33.19,26.19-31.9,47.66A44.54,44.54,0,0,1,466.62,493.12Z" transform="translate(-52.87 -153.02)"></path></g><path class="cls-26" d="M629.46,609.45a8.32,8.32,0,0,1-6.55-.79l-86.56-52.28c-4.2-2.41-6.54-4.8-4.34-9.14s6.08-3.32,10.28-.9l88.58,46.6a9.37,9.37,0,0,1,3.63,12.23A8.34,8.34,0,0,1,629.46,609.45Z" transform="translate(-52.87 -153.02)"></path><path class="cls-14" d="M634.55,597a9.1,9.1,0,0,1-.95,4.77A8.25,8.25,0,0,1,622,605.23L535.45,553a13.85,13.85,0,0,1-4.23-3.34c-.4,2.91,1.77,4.83,5.13,6.76l86.56,52.28a8.25,8.25,0,0,0,11.59-3.49A9.34,9.34,0,0,0,634.55,597Z" transform="translate(-52.87 -153.02)"></path><path class="cls-26" d="M541.43,540.55a15.23,15.23,0,0,0-12.74-11A46.8,46.8,0,0,1,515.53,553a14.58,14.58,0,0,0,16.37,6.37C539.57,557.07,543.84,548.64,541.43,540.55Z" transform="translate(-52.87 -153.02)"></path><path class="cls-14" d="M498.4,564.83c-25.08,7.54-51.89-7.87-59.76-34.34s6.14-54.14,31.23-61.67,51.89,7.86,59.76,34.34S523.49,557.29,498.4,564.83Zm-27.32-91.92c-22.94,6.89-35.76,32.2-28.56,56.42s31.72,38.3,54.67,31.41,35.76-32.21,28.56-56.42S494,466,471.08,472.91Z" transform="translate(-52.87 -153.02)"></path><path class="cls-21" d="M512.73,494.31a2.78,2.78,0,0,1-2.94-.92c-9-10.72-23.13-15.16-36-11.3a32.75,32.75,0,0,0-13.95,8.4,2.74,2.74,0,0,1-4-.13,3.06,3.06,0,0,1,0-4.17,38.6,38.6,0,0,1,16.23-9.77c14.94-4.48,31.36.67,41.84,13.15a3,3,0,0,1-.2,4.15A2.72,2.72,0,0,1,512.73,494.31Z" transform="translate(-52.87 -153.02)"></path><path class="cls-14" d="M309.52,414H244.31c-5.74,0-10.95,3.44-11.63,7.68l-8,49.38c-.68,4.24,3.42,7.68,9.17,7.68H275a2.79,2.79,0,0,1,1.35.34l22.11,12.64c1,.59,2.66-.18,2.46-1.17l-2.38-11.81h.53c5.75,0,10.95-3.44,11.64-7.68l8-49.38C319.36,417.43,315.26,414,309.52,414Z" transform="translate(-52.87 -153.02)"></path><path class="cls-55" d="M305.77,411.74H240.56c-5.74,0-10.95,3.44-11.64,7.68l-8,49.38c-.68,4.24,3.42,7.68,9.16,7.68h41.14a2.65,2.65,0,0,1,1.34.35l22.12,12.63c1,.59,2.66-.18,2.46-1.17l-2.38-11.81h.53c5.74,0,10.95-3.44,11.63-7.68l8-49.38C315.61,415.18,311.51,411.74,305.77,411.74Z" transform="translate(-52.87 -153.02)"></path><path class="cls-14" d="M274.31,454.67a7.32,7.32,0,0,0-5.28,2.42l-17.69-9.21a6.78,6.78,0,0,0,.42-1.48,6.29,6.29,0,0,0,0-1.94l22-11.67a5.27,5.27,0,0,0,3.82,1.52,7.53,7.53,0,0,0,7.16-6.19,5.15,5.15,0,0,0-5.2-6.19,7.54,7.54,0,0,0-7.17,6.19,5.72,5.72,0,0,0,.17,2.63l-21.68,11.52a5.19,5.19,0,0,0-4.27-2.06,7.53,7.53,0,0,0-7.17,6.19,5.15,5.15,0,0,0,5.21,6.19,7.32,7.32,0,0,0,5.28-2.42l17.69,9.21a6.78,6.78,0,0,0-.42,1.48,5.16,5.16,0,0,0,5.21,6.19,7.54,7.54,0,0,0,7.17-6.19A5.15,5.15,0,0,0,274.31,454.67Z" transform="translate(-52.87 -153.02)"></path><path class="cls-18" d="M273.44,452.89a7.34,7.34,0,0,0-5.29,2.42l-17.69-9.21a6.94,6.94,0,0,0,.42-1.48,5.73,5.73,0,0,0,0-1.94l22-11.67a5.3,5.3,0,0,0,3.81,1.52,7.53,7.53,0,0,0,7.17-6.19,5.15,5.15,0,0,0-5.21-6.19,7.53,7.53,0,0,0-7.17,6.19,5.74,5.74,0,0,0,.18,2.63l-21.69,11.52a5.19,5.19,0,0,0-4.27-2.06,7.53,7.53,0,0,0-7.17,6.19,5.15,5.15,0,0,0,5.21,6.19,7.33,7.33,0,0,0,5.29-2.43l17.69,9.21a6.4,6.4,0,0,0-.42,1.48,5.15,5.15,0,0,0,5.21,6.19,7.53,7.53,0,0,0,7.16-6.19A5.14,5.14,0,0,0,273.44,452.89Z" transform="translate(-52.87 -153.02)"></path><ellipse class="cls-29" cx="560.49" cy="678.87" rx="159.63" ry="22.28"></ellipse><ellipse class="cls-30" cx="560.49" cy="678.87" rx="152.16" ry="21.24"></ellipse><ellipse class="cls-31" cx="560.49" cy="678.87" rx="144.68" ry="20.2"></ellipse><ellipse class="cls-32" cx="560.49" cy="678.87" rx="137.21" ry="19.15"></ellipse><ellipse class="cls-33" cx="560.49" cy="678.87" rx="129.74" ry="18.11"></ellipse><ellipse class="cls-34" cx="560.49" cy="678.87" rx="122.27" ry="17.07"></ellipse><ellipse class="cls-35" cx="560.49" cy="678.87" rx="114.8" ry="16.02"></ellipse><ellipse class="cls-36" cx="560.49" cy="678.87" rx="107.33" ry="14.98"></ellipse><ellipse class="cls-37" cx="560.49" cy="678.87" rx="99.85" ry="13.94"></ellipse><ellipse class="cls-38" cx="560.49" cy="678.87" rx="92.38" ry="12.9"></ellipse><ellipse class="cls-39" cx="560.49" cy="678.87" rx="84.91" ry="11.85"></ellipse><ellipse class="cls-40" cx="560.49" cy="678.87" rx="77.44" ry="10.81"></ellipse><ellipse class="cls-41" cx="560.49" cy="678.87" rx="69.97" ry="9.77"></ellipse><ellipse class="cls-42" cx="560.49" cy="678.87" rx="62.5" ry="8.72"></ellipse><ellipse class="cls-43" cx="560.49" cy="678.87" rx="55.02" ry="7.68"></ellipse><path class="cls-44" d="M660.92,831.89c0,3.66-21.29,6.64-47.55,6.64s-47.55-3-47.55-6.64,21.28-6.64,47.55-6.64S660.92,828.22,660.92,831.89Z" transform="translate(-52.87 -153.02)"></path><path class="cls-45" d="M653.45,831.89c0,3.09-18,5.59-40.08,5.59s-40.08-2.5-40.08-5.59,17.94-5.6,40.08-5.6S653.45,828.8,653.45,831.89Z" transform="translate(-52.87 -153.02)"></path><path class="cls-46" d="M646,831.89c0,2.51-14.6,4.55-32.61,4.55s-32.61-2-32.61-4.55,14.6-4.55,32.61-4.55S646,829.37,646,831.89Z" transform="translate(-52.87 -153.02)"></path><path class="cls-47" d="M638.5,831.89c0,1.94-11.25,3.51-25.13,3.51s-25.14-1.57-25.14-3.51,11.25-3.51,25.14-3.51S638.5,830,638.5,831.89Z" transform="translate(-52.87 -153.02)"></path><path class="cls-56" d="M675.62,405.69s5-13.54-6.85-11.61c-17.36,2.83-17.24,20.57-16.32,23.41,1.62,5.05,4.52,23-.7,34.45-2.74,6-7.9,12.78-7.45,19.45l21.53-6.13Z" transform="translate(-52.87 -153.02)"></path><path class="cls-48" d="M621.83,507s-15.4-9.36-28.27-17.35c-7.56-4.7-13.3-8-16.75-9.93a6.77,6.77,0,0,1-3.48-6.23c.19-4.34.32-10.66-.43-11.91-1.17-1.95-8.18-4.29-11.11-2.92s-10.52,14.42-7.6,18.12,11.89,8.58,11.89,8.58,38,43.66,46.78,46S625.59,509.3,621.83,507Z" transform="translate(-52.87 -153.02)"></path><path class="cls-15" d="M655.87,460.63S637.3,476,630.75,483s-17.22,18.12-20,19.71-.73,23.65,1.52,26.44,36.93-16.8,45.7-34.65S655.87,460.63,655.87,460.63Z" transform="translate(-52.87 -153.02)"></path><path class="cls-57" d="M653.33,560.57c-4.66,11.54-2.31,13.45,2,33.59,3.42,15.88,30.12,84.43,36.36,92.26s79.92,72.38,82.65,73.3,11.3-16.59,11.3-16.59-18.42-36-33.38-48.41S715.5,664.3,715.5,664.3s-9-79.75-17.17-99.58C695.14,557,653.33,560.57,653.33,560.57Z" transform="translate(-52.87 -153.02)"></path><path class="cls-58" d="M566.08,485.37s-9-4.87-11.89-8.58,2.88-5.06,3-3.36c.15,2,8.49,5.61,10.94,8.93s33.28,28.67,42.93,36.06c5.26,4,5.73,8.87,5,12.6a4.29,4.29,0,0,1-3.18.35C604.09,529,566.08,485.37,566.08,485.37Z" transform="translate(-52.87 -153.02)"></path><path class="cls-26" d="M549,472.75c10.43-5.07,20.88-18.18,21.53-32,.3-6.47,12.24-5.73,11.66,6.69-.64,13.64-13.11,32.12-23.31,37.3C554.77,486.82,545,474.69,549,472.75Z" transform="translate(-52.87 -153.02)"></path><path class="cls-14" d="M560.69,462.85c-1.14,2-1.2,4.06-.13,4.69s2.88-.45,4-2.41,1.2-4.07.13-4.7S561.84,460.88,560.69,462.85Z" transform="translate(-52.87 -153.02)"></path><path class="cls-6" d="M559.89,462.38c-1.14,2-1.2,4.07-.13,4.7s2.88-.46,4-2.42,1.21-4.07.13-4.7S561,460.42,559.89,462.38Z" transform="translate(-52.87 -153.02)"></path><path class="cls-14" d="M554.06,479.65c10.2-5.18,22.67-23.66,23.31-37.3a14.36,14.36,0,0,0-.68-5.35c2.95.93,5.79,4.22,5.5,10.43-.64,13.64-13.11,32.12-23.31,37.3-2.42,1.24-6.83-2.49-9.2-6.15C551.3,479.7,552.9,480.24,554.06,479.65Z" transform="translate(-52.87 -153.02)"></path><path class="cls-26" d="M549.64,398a43.93,43.93,0,0,0,12,18.3,199.56,199.56,0,0,0,21.78,16.51l5.6,15.64-12.42,6.72s-15.28-4.66-21.13-6.47-21.57-6.17-33.65.2,17.44-51.76,17.44-51.76Z" transform="translate(-52.87 -153.02)"></path><path class="cls-14" d="M586.57,451l3,1.54a3,3,0,0,0,4-1.3h0a3,3,0,0,0-1.3-4l-3-1.54a3,3,0,0,0-4,1.3h0A3,3,0,0,0,586.57,451Z" transform="translate(-52.87 -153.02)"></path><path class="cls-59" d="M521.77,436c-1.58,5.65-1.47,8.93,1.92,7.15,12.08-6.37,27.66-1.49,33.65-.2,6.64,1.44,20.09,7,20.09,7l10.16-5.5,1.42,4-12.42,6.72s-15.28-4.66-21.13-6.47-21.57-6.17-33.65.2C517.4,451.2,518.54,444.91,521.77,436Z" transform="translate(-52.87 -153.02)"></path><path class="cls-15" d="M574.6,441.62c2.89-6.12,3.51-12,1.57-13.76l15.06,10.25c1.93,1.17,1.49,6.29-1,11.62s-6,8.73-8.17,8.2a1.21,1.21,0,0,1-.32-.11l-.05,0-17-6.31C567.24,452.24,571.59,448,574.6,441.62Z" transform="translate(-52.87 -153.02)"></path><ellipse class="cls-60" cx="529.68" cy="419.33" rx="29.44" ry="13.28" transform="translate(-136.9 548.74) rotate(-63.08)"></ellipse><path class="cls-6" d="M532.87,419.76a10.61,10.61,0,0,1,14.27-4.66c.22.11.44.23.65.36a64.15,64.15,0,0,1-4.44,11.1,66.52,66.52,0,0,1-4.74,7.95,8.66,8.66,0,0,1-1.08-.48A10.61,10.61,0,0,1,532.87,419.76Z" transform="translate(-52.87 -153.02)"></path><path class="cls-2" d="M539.4,432.58a9.62,9.62,0,1,1,7.74-17.48c.22.11.44.23.65.36a64.15,64.15,0,0,1-4.44,11.1,67.87,67.87,0,0,1-3.56,6.2Z" transform="translate(-52.87 -153.02)"></path><path class="cls-61" d="M509.16,434.4c.31-6.68,2.61-14.56,6.48-22.19s8.88-14.14,14.09-18.33c5.58-4.49,10.84-5.84,14.81-3.83s6,7.07,5.65,14.22c-.31,6.68-2.61,14.56-6.48,22.19s-8.88,14.13-14.09,18.33c-5.58,4.48-10.84,5.84-14.81,3.82S508.83,441.55,509.16,434.4Zm9.48-20.67c-8,15.72-7.64,29.18-2.31,31.88s16.4-5,24.38-20.68,7.64-29.17,2.31-31.88S526.63,398,518.64,413.73Z" transform="translate(-52.87 -153.02)"></path><path class="cls-62" d="M571,447.5l13.81,5.3.06,0a3.81,3.81,0,0,0,.44.15,4.66,4.66,0,0,0,3.41-.53c-2.27,3.65-5,5.9-6.69,5.47a1.21,1.21,0,0,1-.32-.11l-.05,0-17-6.31C566.32,452,568.7,450.38,571,447.5Z" transform="translate(-52.87 -153.02)"></path><path class="cls-63" d="M669,402.61a10.5,10.5,0,0,1,.36-6.51c1.32-3.23,4.71-6.71,13.36-5.38,11.49,1.76,20.76,15.52,21.93,24.45s-3.3,20.57,2.33,27,20.18,5.24,17.66,30.08c-2.28,22.48-24.74,12.23-29,10.07a10.91,10.91,0,0,1-1.19-.7l-18.9-12.74a11,11,0,0,1-4.76-10.56l3.89-29.8a11.1,11.1,0,0,0-.23-4.1Z" transform="translate(-52.87 -153.02)"></path><path class="cls-48" d="M688.41,435.11s-1,19.15,1.2,23-11.4,34.38-14.94,36.79S643,487.22,662.32,460c3.37-4.76,2.39-6.2,4.13-15.81S688.41,435.11,688.41,435.11Z" transform="translate(-52.87 -153.02)"></path><path class="cls-58" d="M666.45,444.14c-.67,3.67-.93,6.14-1.2,8.07a5.86,5.86,0,0,0,2.07.36c6.9-.13,14.7-4.28,20.89-11,.06-3.65.2-6.43.2-6.43S668.19,434.52,666.45,444.14Z" transform="translate(-52.87 -153.02)"></path><path class="cls-48" d="M652.69,409.68c-.8,14.77,1.6,36.12,11.49,36.43,12.79.4,31-10.8,31.78-25.57s-7.62-28.83-17.5-29.37S653.5,394.91,652.69,409.68Z" transform="translate(-52.87 -153.02)"></path><path class="cls-64" d="M661.41,392.77s6.77-3.18,8.41.42-3.55,10.36-7.12,12.12c-10.73,5.27-9.88,17.81-9.88,17.81S647.79,400,661.41,392.77Z" transform="translate(-52.87 -153.02)"></path><path class="cls-65" d="M752.29,694.72c-15-12.44-36.79-30.42-36.79-30.42s-9-79.75-17.17-99.58c-.89-2.14-4.78-3.42-9.92-4.13,0,0,10.21,98.82,17.07,106.65S729,689.27,741.2,700s28.22,24.66,33.45,36.32c2.27,5.08,4.66,2.82,6.63-1.34C774.92,723.66,762.76,703.44,752.29,694.72Z" transform="translate(-52.87 -153.02)"></path><path class="cls-66" d="M667,392.89c-4.54,4.22-8.35,11.13,7.16,14.88,6.58,1.6,10.82,4.7,8.87,10.32-.25.74-3.89,6.6-4.06,7.35C675.36,441,693.3,441,693.3,441s8.14-22,3.5-35.45C692,391.5,674.19,386.16,667,392.89Z" transform="translate(-52.87 -153.02)"></path><path class="cls-57" d="M717.11,558.67s8.13,19.3,5.41,35.49-65.5,78-67.06,83.51,3.12,22.58-2.34,42.87-31.58,72.83-31.58,72.83l-14.81-2.76s17.15-61.77,18.71-68.69,3.9-46.1,6.63-53.94,30-80.21,44.83-92.19S699.62,544.32,717.11,558.67Z" transform="translate(-52.87 -153.02)"></path><path class="cls-48" d="M752,525.36s6.44-6.44,9.75,27.09,1.36,32.94,1.36,32.94,6.44,11.51,6.44,14.23c0,1.79-1.92,8.73-3.24,13.33a8.71,8.71,0,0,1-5.33,5.73l-3,1.1a1.12,1.12,0,0,1-1.5-1.25c.74-4,2-13.17-.78-17.15-2.33-3.32-5.66-17-.39-17.93,0,0-16.35-35.49-19.73-49.53C734.34,528.8,752,525.36,752,525.36Z" transform="translate(-52.87 -153.02)"></path><path class="cls-26" d="M619.31,791.29s22-62.37,26-77.88.72-38.22,5.51-43.62,53.26-64.18,57.59-70.55-1.81-20,1.24-33.65c1.21-5.47,5.21-4.36,9.59-1.07,2.2,7,5.11,19,3.32,29.64-2.73,16.2-65.5,78-67.06,83.51s3.12,22.58-2.34,42.87c-4.81,17.88-25.67,60.82-30.55,70.75Z" transform="translate(-52.87 -153.02)"></path><g class="cls-67"><path class="cls-15" d="M619,521.73s15.77-9.81,23-15.91c10-8.44,14.62-22.37,14.62-22.37l3.19,6.44a30.2,30.2,0,0,1-1.81,4.58c-6.23,12.67-25.5,26.22-37,32Z" transform="translate(-52.87 -153.02)"></path></g><path class="cls-68" d="M707.54,464.79l-.68-.44a41,41,0,0,0-15.71-6l-1.54-.24-.18.75a32.59,32.59,0,0,1-26.36,24.87h0s-5.25-12.34-1.19-22.39c.39-1,1.14-2.43,1.14-2.43h0a12.81,12.81,0,0,0-6.8,1.53l-.35.19s-7.8,17.15-6.81,31.68,3.9,19,4.68,28-3.35,49.32-3.35,49.32,4,8.38,20.57,9.74S721.64,570,721.64,570s1.09-6.7-3.42-17.21c-2.16-5-.63-9.67-3.08-14.76-1.44-3-3.51-5.07-3.31-7.8s1-5.26-1.56-8.77-1.95-21.64-1-22.81S701.55,485.23,707.54,464.79Z" transform="translate(-52.87 -153.02)"></path><g class="cls-67"><path class="cls-15" d="M610.14,520.28c-.08-2-.07-4.47.05-7.52a22.78,22.78,0,0,0-.64-5.92c.18-2.2.56-3.78,1.23-4.16,1.23-.71,4-3.33,7.35-6.63,2.35,1.89,5.35,8.63,4.5,11.84-1.06,4,2.16,7.42,3.92,14.34a3.56,3.56,0,0,1,.08,1.17c-5.23,3.1-9.73,5.21-12.26,5.81a4,4,0,0,1-2.93-2.09A46.57,46.57,0,0,1,610.14,520.28Z" transform="translate(-52.87 -153.02)"></path></g><g class="cls-69"><path class="cls-70" d="M712.51,540.75c.18-4.29-2.7-6.71-3.78-9.24s0-4-.54-5.26,0-1.59-2.61-4.65,3-8.86-2.08-17.24a44.28,44.28,0,0,1-3.86-36.12c1-3.17,2.25-5,3.58-6a39.72,39.72,0,0,1,3.64,2.08l.68.44c-6,20.44,2.73,32.69,1.75,33.86s-1.56,19.3,1,22.81,1.75,6,1.56,8.77,1.87,4.81,3.31,7.8c2.45,5.09.92,9.71,3.08,14.76,4.51,10.51,3.42,17.21,3.42,17.21s-1.18.37-3.2,1c-.5-5-4.56-10.43-5.75-14.75C711.25,551,712.33,545,712.51,540.75Z" transform="translate(-52.87 -153.02)"></path></g><path class="cls-15" d="M758.07,531.52s-7.06-23.07-16.81-35.67-28-34.13-34.7-31.06c-8.89,4-9.16,31.45-1.16,36s27.29,22.63,28.06,24.1,2.82,11.69,2.82,11.69Z" transform="translate(-52.87 -153.02)"></path><path class="cls-58" d="M765.58,606.16a2.54,2.54,0,0,0,.26-.7c.74-3.6-3.9-12-5.91-15-2.17-3.24-1.09-11.17-1.86-33.89s-7.16-29.2-2.52-30.32c2,2.52,4.5,9.25,6.18,26.2,3.31,33.53,1.36,32.94,1.36,32.94s6.44,11.51,6.44,14.23C769.53,601.78,763.91,609.18,765.58,606.16Z" transform="translate(-52.87 -153.02)"></path><g class="cls-67"><path class="cls-70" d="M744.38,516.67a26.09,26.09,0,0,1,8-.65c2.42,5.71,4.19,10.77,5.08,13.46-2.39.06-6,.93-10.09,1.88-4.81,1.11-8.13,3.47-10.86,5.15l-.18,0s-2-10.22-2.82-11.69a32.26,32.26,0,0,0-3.39-3.56C732.13,519.87,736.35,518.47,744.38,516.67Z" transform="translate(-52.87 -153.02)"></path></g><path class="cls-14" d="M768,747.75a89.85,89.85,0,0,0,4.84-12.37,11.63,11.63,0,0,1,4.86-6.61c4.79,8.15,8,14.36,8,14.36s-1.26,2.56-3,5.68c-.66,1-1.38,2.08-2.15,3.32-1.46,2.32-2.6,4.2-3.56,5.73-1.07,1.3-2,2.07-2.63,1.86s-3.87-2.86-8.9-7.1C766.23,751.12,767.14,749.55,768,747.75Z" transform="translate(-52.87 -153.02)"></path><path class="cls-15" d="M761.92,523.41s-4.24-7.07-17.54-4.1-16.15,4.88-16.07,7.61,2.82,2.53,2.82,5.65-.53,9.33,2.72,8,7-5.07,13.47-6.56,11.68-2.8,12.85-1,4.68-2.54,3.12-4.29S761.92,523.41,761.92,523.41Z" transform="translate(-52.87 -153.02)"></path><path class="cls-26" d="M622.57,791.28a56.69,56.69,0,0,1-15.35-2.43c.78-2.82,2.43-8.77,4.43-16,3.68,2,9.3,5.23,15.69,4.81a5.84,5.84,0,0,1,1.78.12C626.22,783.82,623.85,788.68,622.57,791.28Z" transform="translate(-52.87 -153.02)"></path><path class="cls-15" d="M623.62,523.68c-1.76-6.92-5-10.33-3.92-14.33s-3.88-13.53-6.07-12.22,0,2.51-1.82,2.77-3.43-1.69-5.87,0,1.6,7.35,1.32,14.36c-.58,14.65,1.28,16,5,16.61C618.42,531.75,624.64,527.71,623.62,523.68Z" transform="translate(-52.87 -153.02)"></path><polygon class="cls-48" points="738.26 596.1 727.95 581.17 717.58 603.75 732.8 615.46 738.26 596.1"></polygon><polygon class="cls-48" points="573.52 631.11 557.12 625.82 547.47 644.18 568.11 649.12 573.52 631.11"></polygon><path class="cls-26" d="M769.8,748.71a89.77,89.77,0,0,0,4.85-12.36c1.28-4.18,4.39-6.93,6.14-7.07,3.51-.29,7.53,4.91,8.22,7.57,1.53,5.85-1.19,7.52-6.65,16.24s-6.72,11.32-8.85,12.24-8.2-2.35-7.93-6.49C765.81,755.48,767.93,752.63,769.8,748.71Z" transform="translate(-52.87 -153.02)"></path><path class="cls-21" d="M624.08,793.2a6.34,6.34,0,0,0,5.67-4.1c1.49-4,2.76-9.94-3.18-9.55-8.89.59-16.3-5.87-19-6.33S597.8,783.83,601.3,788C604.17,791.36,616.62,793.52,624.08,793.2Z" transform="translate(-52.87 -153.02)"></path><g class="cls-25"><path class="cls-15" d="M690.43,516.49a7,7,0,0,0,3.09-10.39c-1.26-1.74-3.14-2.57-5.93-.61A31.7,31.7,0,0,1,667.5,511c-4.37-.47-12.24,3.29-5.8,7C670.89,523.2,683.35,519.45,690.43,516.49Z" transform="translate(-52.87 -153.02)"></path></g><path class="cls-58" d="M561.61,455.91a4.15,4.15,0,0,1,5.41.54c2.41,2.53,5.09,6.51,1.82,9.47-5.18,4.68-13.65,6.45-15.69,6.12-1.16-.2-2.15-2.66-2.78-4.74a4.12,4.12,0,0,1,1.59-4.56Z" transform="translate(-52.87 -153.02)"></path><path class="cls-48" d="M556.33,464.76c2-.84,8.4-4.24,10.47-8.51a4.13,4.13,0,0,0-5.19-.34L552,462.74A4.12,4.12,0,0,0,550.3,467C552.4,466.25,555.1,465.28,556.33,464.76Z" transform="translate(-52.87 -153.02)"></path><path class="cls-71" d="M603.21,791.28s-6.46,11.7-11.42,18.46S574,830.22,575.08,832.92s14,5.06,18.24.59,10.68-12.63,16.4-17c12.06-9.09,14-20.35,14-20.35C620.56,797.19,603.21,791.28,603.21,791.28Z" transform="translate(-52.87 -153.02)"></path><path class="cls-72" d="M781.28,765.49l8.65-18.11s16.9,9.19,17.18,13.51,1.47,9.79-2,15.24c-.76,1.18,2.27,18.53-2.06,31.25-1.28,3.75-5.48,8.23-9.4,7.72-1.13-.15-1.95-.59-2-1.54-.25-3.24-1.25-22.74-2.67-31.38C788.24,777.82,781.28,765.49,781.28,765.49Z" transform="translate(-52.87 -153.02)"></path><path class="cls-26" d="M514.05,390.35,505.63,372a2.26,2.26,0,0,1,4.11-1.88l8.42,18.38a2.26,2.26,0,1,1-4.11,1.89Z" transform="translate(-52.87 -153.02)"></path><path class="cls-26" d="M507.15,397.12,491.75,384a2.26,2.26,0,1,1,2.93-3.45l15.4,13.1a2.26,2.26,0,0,1-2.93,3.45Z" transform="translate(-52.87 -153.02)"></path><path class="cls-26" d="M503.76,406.17l-19.5-5.36a2.26,2.26,0,1,1,1.2-4.36l19.5,5.36a2.26,2.26,0,0,1-1.2,4.36Z" transform="translate(-52.87 -153.02)"></path><path class="cls-26" d="M504.51,415.81l-19.94,3.38a2.26,2.26,0,0,1-.75-4.46l19.93-3.38a2.26,2.26,0,1,1,.76,4.46Z" transform="translate(-52.87 -153.02)"></path><path class="cls-21" d="M490.88,316.61l-31.63-.08c-4.49,0-7.39-4.59-6.49-10.22l2.84-17.66c.9-5.63,5.28-10.18,9.77-10.17l31.63.09c4.49,0,7.39,4.58,6.49,10.21l-2.84,17.67C499.74,312.08,495.37,316.63,490.88,316.61Z" transform="translate(-52.87 -153.02)"></path><path class="cls-15" d="M488.26,314.1,456.63,314c-4.49,0-7.39-4.59-6.49-10.21L453,286.13c.91-5.63,5.28-10.18,9.77-10.17l31.63.09c4.49,0,7.39,4.59,6.49,10.21L498,303.93C497.13,309.56,492.75,314.11,488.26,314.1Z" transform="translate(-52.87 -153.02)"></path><path class="cls-2" d="M477.17,304.36a3.84,3.84,0,0,1-3.51,3.37c-1.67,0-2.79-1.52-2.51-3.39a3.85,3.85,0,0,1,3.51-3.38C476.33,301,477.45,302.49,477.17,304.36Z" transform="translate(-52.87 -153.02)"></path><path class="cls-2" d="M491.36,293.63a1.31,1.31,0,0,1-1.08-.58,15.89,15.89,0,0,0-13.38-7.18c-5.47,0-11.12,2.57-15.49,7.09a1.47,1.47,0,0,1-2.24.1,1.94,1.94,0,0,1,.27-2.5c5.08-5.25,11.64-8.25,18-8.23A18.44,18.44,0,0,1,493,290.66a2,2,0,0,1-.47,2.5A1.73,1.73,0,0,1,491.36,293.63Z" transform="translate(-52.87 -153.02)"></path><path class="cls-2" d="M484.75,299.81a1.27,1.27,0,0,1-1-.5,10.29,10.29,0,0,0-8.23-4,14,14,0,0,0-9.41,3.95,1.44,1.44,0,0,1-2.22-.07,2,2,0,0,1,.43-2.5A17.4,17.4,0,0,1,476,291.78a12.82,12.82,0,0,1,10.26,5,2,2,0,0,1-.32,2.5A1.79,1.79,0,0,1,484.75,299.81Z" transform="translate(-52.87 -153.02)"></path></g></svg>