<?xml version="1.0" encoding="utf-8"?>
<!-- Generator: Adobe Illustrator 24.1.3, SVG Export Plug-In . SVG Version: 6.00 Build 0)  -->
<svg version="1.1" id="layer_1" xmlns="http://www.w3.org/2000/svg" xmlns:xlink="http://www.w3.org/1999/xlink" x="0px" y="0px"
	 viewBox="0 0 73.8 78.5" style="enable-background:new 0 0 73.8 78.5;" xml:space="preserve">
<style type="text/css">
	.st0{fill:#ED2425;enable-background:new    ;}
	.st1{opacity:0.6;fill:#1a1a1a;enable-background:new    ;}
	.st2{fill:#FFFFFF;}
	.st3{fill:#1a1a1a;}
</style>
<circle class="st0" cx="49" cy="64.5" r="14"/>
<circle class="st0" cx="12" cy="44.5" r="12"/>
<circle class="st0" cx="53.8" cy="20" r="20"/>
<rect x="17.5" y="44.7" class="st1" width="8.9" height="7"/>
<path class="st2" d="M17.5,44.7h6.7l0,0v4c0,0.6-0.4,1-1,1h-5.7l0,0V44.7L17.5,44.7z"/>
<path class="st3" d="M26.3,52.5h-8.9c-0.4,0-0.8-0.3-0.8-0.8v-7c0-0.4,0.3-0.7,0.8-0.8h8.9c0.4,0,0.7,0.3,0.8,0.8v7
	C27.1,52.2,26.7,52.5,26.3,52.5z M18.2,51h7.4v-5.5h-7.4V51z"/>
<rect x="15.8" y="51.8" class="st1" width="12.1" height="13.8"/>
<path class="st2" d="M15.8,51.8h9l0,0v8.7c0,1.1-0.9,2-2,2h-7l0,0V51.8L15.8,51.8z"/>
<path class="st3" d="M27.9,66.3H15.8c-0.4,0-0.7-0.3-0.8-0.8V51.8c0-0.4,0.3-0.7,0.8-0.8h12.1c0.4,0,0.7,0.3,0.8,0.8v13.8
	C28.7,65.9,28.4,66.3,27.9,66.3z M16.6,64.8h10.6V52.5H16.6L16.6,64.8z"/>
<path class="st2" d="M24.6,70.7h-5.4c-1.9,0-3.4-1.5-3.4-3.4l0,0v-1.8h12.1v1.8C27.9,69.2,26.4,70.7,24.6,70.7
	C24.6,70.7,24.6,70.7,24.6,70.7z"/>
<path class="st1" d="M24.9,65.5v1.8c0,1.9-1.5,3.4-3.3,3.4c0,0,0,0,0,0h3c1.9,0,3.4-1.5,3.4-3.4c0,0,0,0,0,0v-1.8H24.9z"/>
<path class="st3" d="M24.6,71.4h-5.4c-2.3,0-4.1-1.8-4.1-4.1v-1.8c0-0.4,0.3-0.8,0.8-0.8h12.1c0.4,0,0.8,0.3,0.8,0.8v1.8
	C28.7,69.6,26.8,71.4,24.6,71.4z M16.6,66.3v1c0,1.4,1.2,2.6,2.6,2.6c0,0,0,0,0,0h5.4c1.4,0,2.6-1.2,2.6-2.6c0,0,0,0,0,0v-1H16.6z"
	/>
<path class="st2" d="M3.6,18.6C8,8.5,19.8,3.9,30,8.4s14.7,16.3,10.2,26.4C35.7,44.9,23.9,49.5,13.8,45c0,0,0,0,0,0
	C3.7,40.5-0.9,28.7,3.6,18.6z"/>
<path class="st1" d="M28,7.7c9.6,5.5,12.8,17.8,7.3,27.3c-4.7,8.1-14.3,11.8-23.3,9.1c9.6,5.5,21.8,2.3,27.3-7.3S41.6,15,32.1,9.4
	C30.8,8.7,29.4,8.1,28,7.7z"/>
<path class="st3" d="M21.9,47.4c-11.5,0-20.8-9.3-20.8-20.7c0-8.6,5.3-16.2,13.2-19.4c10.7-4.1,22.7,1.1,26.8,11.8c0,0,0,0,0,0
	c4.1,10.7-1.2,22.7-11.8,26.9C27,47,24.5,47.5,21.9,47.4z M21.9,7.4c-2.4,0-4.7,0.4-7,1.3l0,0C5,12.6,0.1,23.7,4,33.7
	s15,14.8,24.9,11c9.9-3.8,14.8-15,11-24.9C37,12.3,29.9,7.4,21.9,7.4z M14.7,8L14.7,8z"/>
<circle class="st2" cx="21.9" cy="26.7" r="14"/>
<path class="st1" d="M25,13c5.9,5,6.6,13.9,1.5,19.7c-3.4,3.9-8.6,5.7-13.7,4.6c5.9,5,14.7,4.3,19.7-1.5c5-5.9,4.3-14.7-1.5-19.7
	C29.3,14.6,27.2,13.5,25,13z"/>
<path class="st3" d="M21.9,41.4c-8.1,0-14.8-6.6-14.8-14.8s6.6-14.8,14.8-14.8s14.8,6.6,14.8,14.8v0C36.6,34.8,30,41.4,21.9,41.4z
	 M21.9,13.4c-7.3,0-13.2,5.9-13.2,13.2s5.9,13.2,13.2,13.2S35.1,34,35.1,26.7C35.1,19.4,29.2,13.5,21.9,13.4z"/>
<path class="st2" d="M9.8,19.7c-2.5,4.3-2.5,9.7,0,14h42.1v-14L9.8,19.7z"/>
<path class="st1" d="M48.9,19.7v9c0,1.1-0.9,2-2,2H8.5c0.3,1,0.8,2.1,1.3,3h42.1v-14L48.9,19.7z"/>
<path class="st3" d="M51.9,34.4H9.8c-0.3,0-0.5-0.1-0.7-0.4c-2.7-4.6-2.7-10.2,0-14.8c0.1-0.2,0.4-0.4,0.7-0.4h42.1
	c0.4,0,0.7,0.3,0.8,0.7c0,0,0,0,0,0v14C52.6,34.1,52.3,34.4,51.9,34.4z M10.2,32.9h40.9V20.5H10.2C8.1,24.4,8.1,29,10.2,32.9z"/>
<path class="st1" d="M51.9,19.7h12c1.1,0,2,0.9,2,2v10c0,1.1-0.9,2-2,2h-12l0,0V19.7L51.9,19.7z"/>
<path class="st2" d="M51.9,19.7h11l0,0v9c0,1.1-0.9,2-2,2h-9l0,0V19.7L51.9,19.7z"/>
<path class="st3" d="M63.9,34.4h-12c-0.4,0-0.7-0.3-0.8-0.8v-14c0-0.4,0.3-0.8,0.8-0.8h12c1.5,0,2.8,1.2,2.8,2.8v10
	C66.6,33.2,65.4,34.4,63.9,34.4z M52.6,32.9h11.2c0.7,0,1.2-0.6,1.2-1.2v-10c0-0.7-0.6-1.2-1.2-1.2H52.6V32.9z"/>
<circle class="st2" cx="57.9" cy="25.7" r="2.5"/>
<path class="st3" d="M57.9,29c-1.8,0-3.2-1.5-3.2-3.2s1.5-3.2,3.2-3.2s3.2,1.5,3.2,3.2C61.1,27.5,59.7,28.9,57.9,29z M57.9,24
	c-1,0-1.8,0.8-1.8,1.8s0.8,1.8,1.8,1.8s1.8-0.8,1.8-1.8l0,0C59.6,24.7,58.9,24,57.9,24z"/>
<path class="st3" d="M62.9,31.5c-0.2,0-0.4-0.1-0.5-0.2L59.1,28c-0.3-0.3-0.3-0.8,0-1.1c0.3-0.3,0.8-0.3,1,0c0,0,0,0,0,0l3.3,3.2
	c0.3,0.3,0.3,0.8,0,1c0,0,0,0,0,0C63.3,31.4,63.1,31.5,62.9,31.5z"/>
<path class="st3" d="M39.9,27.5H25c-0.4,0-0.8-0.3-0.8-0.8S24.6,26,25,26h14.9c0.4,0,0.8,0.3,0.8,0.8S40.3,27.5,39.9,27.5z"/>
<path class="st3" d="M21,27.5h-8.2c-0.4,0-0.8-0.3-0.8-0.8s0.3-0.8,0.8-0.8H21c0.4,0,0.8,0.3,0.8,0.8S21.4,27.5,21,27.5z"/>
<path class="st3" d="M62.9,71.4h-6.5c-0.4,0-0.8-0.3-0.8-0.8s0.3-0.8,0.8-0.8h6.5c0.4,0,0.8,0.3,0.8,0.8S63.3,71.4,62.9,71.4
	L62.9,71.4z"/>
<path class="st3" d="M52.4,71.4h-6.3c-0.4,0-0.8-0.3-0.8-0.8s0.3-0.8,0.8-0.8h6.3c0.4,0,0.8,0.3,0.8,0.8S52.8,71.4,52.4,71.4z"/>
<path class="st3" d="M42.1,71.4h-9.5c-0.4,0-0.8-0.3-0.8-0.8s0.3-0.8,0.8-0.8h9.5c0.4,0,0.8,0.3,0.8,0.8S42.5,71.4,42.1,71.4z"/>
<path class="st3" d="M65.9,65.4H55.4c-0.4,0-0.8-0.3-0.8-0.8s0.3-0.8,0.8-0.8h10.5c0.4,0,0.8,0.3,0.8,0.8S66.3,65.4,65.9,65.4z"/>
<path class="st3" d="M51.4,65.4h-9.3c-0.4,0-0.8-0.3-0.8-0.8s0.3-0.8,0.8-0.8h9.3c0.4,0,0.8,0.3,0.8,0.8S51.8,65.4,51.4,65.4z"/>
<path class="st3" d="M38.1,65.4h-5.5c-0.4,0-0.8-0.3-0.8-0.8s0.3-0.8,0.8-0.8h5.5c0.4,0,0.8,0.3,0.8,0.8S38.5,65.4,38.1,65.4z"/>
<path class="st3" d="M59.4,59.4H45.1c-0.4,0-0.8-0.3-0.8-0.8s0.3-0.8,0.8-0.8h14.3c0.4,0,0.8,0.3,0.8,0.8S59.8,59.4,59.4,59.4z"/>
<path class="st3" d="M41.1,59.4h-8.5c-0.4,0-0.8-0.3-0.8-0.8s0.3-0.8,0.8-0.8h8.5c0.4,0,0.8,0.3,0.8,0.8S41.5,59.4,41.1,59.4z"/>
<path class="st3" d="M62.9,53.4H52.4c-0.4,0-0.8-0.3-0.8-0.8s0.3-0.8,0.8-0.8h10.5c0.4,0,0.8,0.3,0.8,0.8S63.3,53.4,62.9,53.4
	L62.9,53.4z"/>
<path class="st3" d="M48.4,53.4h-4.3c-0.4,0-0.8-0.3-0.8-0.8s0.3-0.8,0.8-0.8h4.3c0.4,0,0.8,0.3,0.8,0.8S48.8,53.4,48.4,53.4z"/>
<path class="st3" d="M40.1,53.4h-7.5c-0.4,0-0.8-0.3-0.8-0.8s0.3-0.8,0.8-0.8h7.5c0.4,0,0.8,0.3,0.8,0.8S40.5,53.4,40.1,53.4z"/>
<path class="st3" d="M65.9,47.4h-4.5c-0.4,0-0.8-0.3-0.8-0.8s0.3-0.8,0.8-0.8h4.5c0.4,0,0.8,0.3,0.8,0.8S66.3,47.4,65.9,47.4z"/>
<path class="st3" d="M57.4,47.4h-8.3c-0.4,0-0.8-0.3-0.8-0.8s0.3-0.8,0.8-0.8h8.3c0.4,0,0.8,0.3,0.8,0.8S57.8,47.4,57.4,47.4z"/>
<path class="st3" d="M45.1,47.4h-8.5c-0.4,0-0.8-0.3-0.8-0.8s0.3-0.8,0.8-0.8h8.5c0.4,0,0.8,0.3,0.8,0.8S45.5,47.4,45.1,47.4z"/>
<path class="st3" d="M44.8,9.5h-4c-0.4,0-0.8-0.3-0.8-0.8S40.4,8,40.8,8h4c0.4,0,0.8,0.3,0.8,0.8S45.2,9.5,44.8,9.5z"/>
<path class="st3" d="M42.8,11.5c-0.4,0-0.7-0.3-0.8-0.8v-4c0-0.4,0.3-0.8,0.8-0.8s0.8,0.3,0.8,0.8v4C43.6,11.1,43.2,11.4,42.8,11.5z
	"/>
<path class="st3" d="M57.8,14.5h-4c-0.4,0-0.8-0.3-0.8-0.8s0.3-0.8,0.8-0.8h4c0.4,0,0.8,0.3,0.8,0.8S58.2,14.5,57.8,14.5z"/>
<path class="st3" d="M55.8,16.5c-0.4,0-0.7-0.3-0.8-0.8v-4c0-0.4,0.3-0.8,0.8-0.8s0.8,0.3,0.8,0.8v4C56.6,16.1,56.2,16.5,55.8,16.5z
	"/>
<path class="st3" d="M65.9,9.5h-4c-0.4,0-0.8-0.3-0.8-0.8S61.5,8,61.9,8h4c0.4,0,0.8,0.3,0.8,0.8S66.3,9.5,65.9,9.5z"/>
<path class="st3" d="M63.9,11.5c-0.4,0-0.7-0.3-0.8-0.8v-4c0-0.4,0.3-0.8,0.8-0.8s0.8,0.3,0.8,0.8v4C64.6,11.1,64.3,11.5,63.9,11.5z
	"/>
</svg>
