<?xml version="1.0" encoding="utf-8"?>
<!-- Generator: Adobe Illustrator 24.1.3, SVG Export Plug-In . SVG Version: 6.00 Build 0)  -->
<svg version="1.1" id="layer_1" xmlns="http://www.w3.org/2000/svg" xmlns:xlink="http://www.w3.org/1999/xlink" x="0px" y="0px"
	 viewBox="0 0 86.5 78.5" style="enable-background:new 0 0 86.5 78.5;" xml:space="preserve">
<style type="text/css">
	.st0{fill:#ED2425;enable-background:new    ;}
	.st1{fill:#FFFFFF;}
	.st2{fill:#1a1a1a;}
	.st3{opacity:0.7;fill:#1a1a1a;}
	.st4{opacity:0.8;fill:#1a1a1a;}
	.st5{opacity:0.5;fill:#1a1a1a;enable-background:new    ;}
	.st6{opacity:0.6;fill:#1a1a1a;}
</style>
<circle class="st0" cx="36" cy="64.5" r="14"/>
<circle class="st0" cx="12" cy="13" r="12"/>
<circle class="st0" cx="66.5" cy="34.8" r="20"/>
<circle class="st1" cx="30.5" cy="25.7" r="21"/>
<path class="st2" d="M43.7,9.4c7.3,9,5.9,22.2-3.1,29.5c-7.7,6.2-18.7,6.2-26.4,0c7.3,9,20.5,10.4,29.5,3.2s10.4-20.5,3.2-29.5
	C45.9,11.4,44.8,10.4,43.7,9.4z"/>
<path class="st2" d="M30.5,47.5c-12,0-21.8-9.7-21.8-21.8S18.5,4,30.5,4s21.8,9.7,21.8,21.8C52.2,37.8,42.5,47.5,30.5,47.5z
	 M30.5,5.5c-11.2,0-20.2,9.1-20.2,20.2S19.3,46,30.5,46s20.3-9.1,20.3-20.2l0,0C50.7,14.6,41.7,5.5,30.5,5.5z"/>
<circle class="st1" cx="30.5" cy="25.7" r="14"/>
<path class="st3" d="M38.8,14.5c4.6,6.2,3.3,14.9-2.8,19.6c-5,3.7-11.8,3.7-16.7,0c4.6,6.2,13.4,7.5,19.6,2.9
	c6.2-4.6,7.5-13.4,2.9-19.6C40.9,16.3,39.9,15.3,38.8,14.5z"/>
<path class="st2" d="M30.5,40.5c-8.1,0-14.8-6.6-14.8-14.8S22.4,11,30.5,11s14.8,6.6,14.8,14.8l0,0C45.2,33.9,38.6,40.5,30.5,40.5z
	 M30.5,12.5c-7.3,0-13.2,5.9-13.2,13.2S23.2,39,30.5,39s13.3-5.9,13.3-13.2l0,0C43.7,18.4,37.8,12.5,30.5,12.5z"/>
<path class="st2" d="M30.5,12.5c-0.4,0-0.8-0.3-0.8-0.8v-7c0-0.4,0.3-0.8,0.8-0.8s0.8,0.3,0.8,0.8v7C31.2,12.2,30.9,12.5,30.5,12.5z
	"/>
<path class="st2" d="M16.5,26.5h-7c-0.4,0-0.8-0.3-0.8-0.8S9.1,25,9.5,25h7c0.4,0,0.8,0.3,0.8,0.8S16.9,26.5,16.5,26.5z"/>
<path class="st2" d="M42.6,19.5c-0.4,0-0.8-0.3-0.8-0.7c0-0.3,0.1-0.5,0.4-0.7l6.1-3.5c0.4-0.2,0.8-0.1,1,0.3c0.2,0.4,0.1,0.8-0.3,1
	L43,19.4C42.9,19.5,42.8,19.5,42.6,19.5z"/>
<path class="st2" d="M12.3,37c-0.4,0-0.8-0.3-0.8-0.7c0-0.3,0.1-0.5,0.4-0.7l6.1-3.5c0.4-0.2,0.8-0.1,1,0.3c0.2,0.4,0.1,0.8-0.3,1
	l-6.1,3.5C12.6,37,12.4,37,12.3,37z"/>
<path class="st2" d="M37.5,14.4c-0.4,0-0.7-0.3-0.7-0.8c0-0.1,0-0.3,0.1-0.4l3.5-6.1c0.2-0.4,0.7-0.5,1-0.3c0.4,0.2,0.5,0.7,0.3,1
	c0,0,0,0,0,0L38.1,14C38,14.2,37.8,14.4,37.5,14.4z"/>
<path class="st2" d="M20,44.7c-0.4,0-0.7-0.3-0.7-0.8c0-0.1,0-0.3,0.1-0.4l3.5-6.1c0.2-0.4,0.7-0.5,1-0.3c0.4,0.2,0.5,0.7,0.3,1
	c0,0,0,0,0,0l-3.5,6.1C20.5,44.5,20.3,44.7,20,44.7z"/>
<path class="st2" d="M23.5,14.4c-0.3,0-0.5-0.1-0.7-0.4l-3.5-6.1c-0.2-0.4-0.1-0.8,0.3-1c0.4-0.2,0.8-0.1,1,0.3l3.5,6.1
	c0.2,0.4,0.1,0.8-0.3,1C23.8,14.3,23.6,14.4,23.5,14.4L23.5,14.4z"/>
<path class="st2" d="M18.4,19.5c-0.1,0-0.3,0-0.4-0.1l-6.1-3.5c-0.4-0.2-0.5-0.7-0.3-1c0.2-0.3,0.7-0.5,1-0.3l6.1,3.5
	c0.4,0.2,0.5,0.7,0.3,1C18.9,19.4,18.6,19.5,18.4,19.5L18.4,19.5z"/>
<path class="st2" d="M30.5,33.3c-1.8,0-3.5-1-4.2-2.6c-0.2-0.4,0-0.8,0.4-1c0.4-0.2,0.8,0,1,0.4c0.5,1.1,1.6,1.8,2.8,1.7
	c1.6,0.1,2.9-1.1,3-2.7c0-1.2-0.5-2.7-3-2.7c-3.3,0-4.5-2.1-4.5-4.2c0.1-2.4,2.1-4.2,4.5-4.2c1.8,0,3.5,1,4.2,2.6
	c0.2,0.4,0,0.8-0.4,1s-0.8,0-1-0.4c-0.5-1.1-1.6-1.8-2.8-1.7c-1.6-0.1-2.9,1.1-3,2.7c0,1.2,0.5,2.7,3,2.7c3.3,0,4.5,2.1,4.5,4.2
	C34.9,31.5,32.9,33.4,30.5,33.3z"/>
<path class="st2" d="M30.5,19.7c-0.4,0-0.8-0.3-0.8-0.8v-1.9c0-0.4,0.3-0.8,0.8-0.8s0.8,0.3,0.8,0.8v1.9
	C31.3,19.4,30.9,19.7,30.5,19.7z"/>
<path class="st2" d="M30.5,35.2c-0.4,0-0.8-0.3-0.8-0.8v-1.9c0-0.4,0.3-0.8,0.8-0.8s0.8,0.3,0.8,0.8v1.9
	C31.3,34.8,30.9,35.2,30.5,35.2z"/>
<circle class="st2" cx="38.4" cy="25.7" r="1"/>
<circle class="st2" cx="22.6" cy="25.7" r="1"/>
<path class="st1" d="M66.4,27.2l7.1-7.1h-4c0,0,1.1-15.3-22.5-15.3C47,4.7,62.4,9,63.2,20h-4L66.4,27.2z"/>
<path class="st3" d="M69.5,20c0,0,1.1-15.3-22.5-15.3c18.7,2.9,20.6,12.3,20.6,15.9c0,0.8,0.6,1.4,1.4,1.4h2.4l2-2L69.5,20z"/>
<path class="st2" d="M66.4,27.9L66.4,27.9c-0.2,0-0.4-0.1-0.5-0.2l-7.1-7.1c-0.3-0.3-0.3-0.8,0-1.1c0.1-0.1,0.3-0.2,0.5-0.2h3.1
	C60.9,9.5,47,5.5,46.8,5.5c-0.4-0.1-0.6-0.5-0.5-0.9C46.4,4.2,46.7,4,47,4c9,0,15.5,2.2,19.5,6.4c2.3,2.4,3.6,5.6,3.8,8.9h3.2
	c0.4,0,0.7,0.3,0.7,0.8c0,0.2-0.1,0.4-0.2,0.5l-7.1,7.1C66.7,27.8,66.6,27.9,66.4,27.9z M61,20.8l5.3,5.3l5.3-5.3h-2.1
	c-0.4,0-0.7-0.3-0.7-0.8c0,0,0,0,0-0.1c0-3.2-1.2-6.3-3.4-8.6c-3-3.2-7.5-5.1-13.7-5.7c4.8,2.2,11.7,6.7,12.2,14.2
	c0,0.4-0.3,0.8-0.7,0.8c0,0,0,0-0.1,0L61,20.8z"/>
<path class="st1" d="M16.6,46.3l-7.1,7.1h4c0,0-1.1,15.3,22.5,15.3c0,0-15.4-4.2-16.2-15.3h4L16.6,46.3z"/>
<path class="st4" d="M13.5,53.5c0,0-1.1,15.3,22.5,15.3c-18.7-2.9-20.6-12.3-20.6-15.9c0-0.8-0.6-1.4-1.4-1.4h-2.4l-2,2H13.5z"/>
<path class="st2" d="M36,69.5c-9,0-15.5-2.2-19.5-6.4c-2.3-2.4-3.6-5.6-3.8-8.9H9.5c-0.4,0-0.7-0.3-0.7-0.8c0-0.2,0.1-0.4,0.2-0.5
	l7.1-7.1c0.3-0.3,0.8-0.3,1.1,0l7.1,7.1c0.3,0.3,0.3,0.8,0,1.1c-0.1,0.1-0.3,0.2-0.5,0.2h-3.1C22.1,64,36,68,36.2,68
	c0.4,0.1,0.6,0.5,0.5,0.9C36.6,69.3,36.3,69.5,36,69.5L36,69.5z M11.3,52.7h2.1c0.4,0,0.7,0.3,0.7,0.8c0,0,0,0,0,0.1
	c0,3.2,1.2,6.3,3.4,8.6c3,3.2,7.5,5.1,13.7,5.7c-4.8-2.2-11.7-6.7-12.2-14.2c0-0.4,0.3-0.8,0.7-0.8c0,0,0,0,0.1,0H22l-5.3-5.3
	L11.3,52.7z"/>
<circle class="st1" cx="52.5" cy="47.8" r="21"/>
<path class="st5" d="M66.6,32.2c5.7,10.1,2.1,22.9-8,28.6c-7.9,4.4-17.7,3.3-24.4-2.8c5.7,10.1,18.5,13.7,28.6,8.1
	c10.1-5.7,13.7-18.5,8.1-28.6C69.7,35.5,68.3,33.8,66.6,32.2z"/>
<path class="st2" d="M52.5,69.5c-12,0-21.8-9.7-21.8-21.8S40.5,26,52.5,26s21.8,9.7,21.8,21.8C74.2,59.8,64.5,69.5,52.5,69.5z
	 M52.5,27.5c-11.2,0-20.2,9.1-20.2,20.2S41.3,68,52.5,68s20.2-9.1,20.2-20.2l0,0C72.7,36.6,63.7,27.5,52.5,27.5z"/>
<path class="st1" d="M57.6,53.1L57,51H48l-0.5,2.1c-0.3,1.3-1.2,2.3-2.4,2.8l7.4,4l7.4-4C58.8,55.4,57.9,54.4,57.6,53.1z"/>
<path class="st5" d="M59.9,56c-1.2-0.5-2.1-1.6-2.4-2.8L57,51h-3.9l-0.9,3.6c-0.4,1.5-1.3,2.9-2.5,3.8l2.8,1.5L59.9,56z"/>
<path class="st2" d="M52.5,60.7c-0.1,0-0.2,0-0.4-0.1l-7.4-4c-0.4-0.2-0.5-0.6-0.3-1c0.1-0.1,0.2-0.3,0.4-0.3c1-0.4,1.7-1.3,1.9-2.3
	l0.5-2.1c0.1-0.3,0.4-0.6,0.7-0.6H57c0.3,0,0.6,0.2,0.7,0.6l0.5,2.1c0.3,1,1,1.9,1.9,2.3c0.4,0.2,0.5,0.6,0.4,1
	c-0.1,0.2-0.2,0.3-0.3,0.4l-7.4,4C52.7,60.6,52.6,60.7,52.5,60.7z M46.6,55.9l5.9,3.2l5.9-3.2c-0.8-0.7-1.4-1.6-1.6-2.6l0,0
	l-0.4-1.5h-7.9l-0.4,1.5C47.9,54.3,47.4,55.2,46.6,55.9z"/>
<path class="st1" d="M61.5,41.6c0,6-4,10.9-9,10.9s-9-4.9-9-10.9s4-9.2,9-9.2S61.5,35.6,61.5,41.6z"/>
<path class="st5" d="M59.5,44.6c0,1.8-0.4,3.6-1.1,5.3c2-2.3,3.2-5.2,3.1-8.3c0-6-4-9.2-9-9.2c-3.7,0-6.9,1.8-8.3,5.3
	c1.7-1.5,4-2.4,6.3-2.3C55.5,35.4,59.5,38.6,59.5,44.6z"/>
<path class="st2" d="M52.5,53.3c-5.4,0-9.7-5.2-9.7-11.7c0-6,3.9-10,9.7-10s9.7,4,9.7,10C62.2,48,57.9,53.3,52.5,53.3z M52.5,33.1
	c-5,0-8.2,3.3-8.2,8.5c0,5.6,3.7,10.2,8.2,10.2s8.2-4.6,8.2-10.2C60.7,36.5,57.5,33.1,52.5,33.1z"/>
<path class="st1" d="M52.5,39.2c-2.7-1.1-5.7-1.3-8.6-0.6c-0.3,1-0.4,2-0.4,3c0,6,4,10.9,9,10.9s9-4.9,9-10.9c0-0.7-0.1-1.4-0.2-2.2
	C58.4,40.3,55.3,40.2,52.5,39.2z"/>
<path class="st5" d="M61.3,39.4c-1.3,0.3-2.7,0.5-4,0.5c-0.2,5.8-4.1,10.4-9,10.4c-0.4,0-0.8,0-1.2-0.1c1.5,1.4,3.4,2.2,5.4,2.2
	c5,0,9-4.9,9-10.9C61.5,40.9,61.4,40.2,61.3,39.4z"/>
<path class="st2" d="M52.5,53.3c-5.4,0-9.7-5.2-9.7-11.7c0-1.1,0.1-2.1,0.4-3.2c0.1-0.3,0.3-0.5,0.5-0.5c3-0.7,6.1-0.5,9,0.6l0,0
	c2.7,0.9,5.6,1,8.3,0.2c0.4-0.1,0.8,0.1,0.9,0.5c0,0,0,0,0,0.1c0.1,0.8,0.2,1.5,0.2,2.3C62.2,48,57.9,53.3,52.5,53.3z M44.5,39.2
	c-0.2,0.8-0.3,1.6-0.2,2.4c0,5.6,3.7,10.2,8.2,10.2s8.2-4.6,8.2-10.2c0-0.4,0-0.8-0.1-1.2c-2.8,0.6-5.7,0.5-8.4-0.5l0,0
	C49.8,39,47.1,38.7,44.5,39.2z"/>
<path class="st1" d="M70,59.4c-1-1.2-2.3-2-3.8-2.2l-5.2-0.9c-0.3-0.1-0.7-0.2-1-0.3l-7.4,4v8.8C59.5,68.8,66.1,65.2,70,59.4z"/>
<path class="st6" d="M70,59.4c-0.8-0.9-1.7-1.6-2.9-2l-8.2,4.4c-0.7,0.4-1.1,1.1-1.1,1.9v4.4C62.8,66.8,67.1,63.7,70,59.4z"/>
<path class="st2" d="M52.5,69.5c-0.4,0-0.8-0.3-0.8-0.8v-8.8c0-0.3,0.2-0.5,0.4-0.7l7.4-4c0.2-0.1,0.4-0.1,0.7,0
	c0.3,0.1,0.5,0.2,0.8,0.2l5.2,0.9c1.7,0.3,3.2,1.2,4.3,2.5c0.2,0.3,0.2,0.6,0,0.9C66.6,65.9,59.8,69.5,52.5,69.5z M53.3,60.4V68
	c6.3-0.2,12.1-3.4,15.8-8.5c-0.8-0.8-1.8-1.4-3-1.6L60.8,57c-0.3,0-0.6-0.1-0.8-0.2L53.3,60.4z"/>
<path class="st1" d="M45.1,56c-0.3,0.1-0.7,0.2-1,0.3l-5.2,0.9c-1.5,0.3-2.8,1.1-3.8,2.2c3.9,5.8,10.4,9.4,17.5,9.4l0,0v-8.8
	L45.1,56z"/>
<path class="st6" d="M52.5,68.8v-4.5L47,61.9c-0.6-0.2-1.2-0.3-1.8-0.2l-4.3,0.7c-0.9,0.2-1.7,0.5-2.4,1
	C42.4,66.9,47.3,68.8,52.5,68.8L52.5,68.8z"/>
<path class="st2" d="M52.5,69.5c-7.3,0-14.1-3.6-18.1-9.7c-0.2-0.3-0.2-0.6,0-0.9c1.1-1.3,2.6-2.2,4.3-2.5l5.2-0.9
	c0.3,0,0.6-0.1,0.8-0.2c0.2-0.1,0.5-0.1,0.7,0l7.4,4c0.2,0.1,0.4,0.4,0.4,0.7v8.8C53.3,69.2,52.9,69.5,52.5,69.5z M36,59.5
	c3.6,5.1,9.5,8.3,15.8,8.5v-7.6L45,56.8c-0.3,0.1-0.5,0.2-0.8,0.2L39,57.9C37.8,58.1,36.8,58.6,36,59.5z"/>
<circle class="st1" cx="11.5" cy="6.8" r="2"/>
<path class="st2" d="M11.5,9.5c-1.5,0-2.8-1.2-2.8-2.8S10,4,11.5,4s2.8,1.2,2.8,2.8C14.2,8.3,13,9.5,11.5,9.5z M11.5,5.5
	c-0.7,0-1.2,0.6-1.2,1.2S10.8,8,11.5,8s1.2-0.6,1.2-1.2C12.7,6.1,12.2,5.5,11.5,5.5z"/>
<circle class="st1" cx="65.5" cy="2.8" r="2"/>
<path class="st2" d="M65.5,5.5c-1.5,0-2.8-1.2-2.8-2.8S64,0,65.5,0s2.8,1.2,2.8,2.8C68.2,4.3,67,5.5,65.5,5.5z M65.5,1.5
	c-0.7,0-1.2,0.6-1.2,1.2S64.8,4,65.5,4s1.2-0.6,1.2-1.2C66.7,2.1,66.2,1.5,65.5,1.5z"/>
<circle class="st1" cx="75.5" cy="12.8" r="2"/>
<path class="st2" d="M75.5,15.5c-1.5,0-2.8-1.2-2.8-2.8S74,10,75.5,10s2.8,1.2,2.8,2.8C78.2,14.3,77,15.5,75.5,15.5z M75.5,11.5
	c-0.7,0-1.2,0.6-1.2,1.2s0.6,1.2,1.2,1.2s1.2-0.6,1.2-1.2C76.7,12.1,76.2,11.5,75.5,11.5z"/>
<circle class="st1" cx="8.5" cy="63.8" r="2"/>
<path class="st2" d="M8.5,66.5c-1.5,0-2.8-1.2-2.8-2.8S7,61,8.5,61s2.8,1.2,2.8,2.8C11.2,65.3,10,66.5,8.5,66.5z M8.5,62.5
	c-0.7,0-1.2,0.6-1.2,1.2S7.8,65,8.5,65s1.2-0.6,1.2-1.2C9.7,63.1,9.2,62.5,8.5,62.5z"/>
<circle class="st1" cx="16.5" cy="69.8" r="2"/>
<path class="st2" d="M16.5,72.5c-1.5,0-2.8-1.2-2.8-2.8S15,67,16.5,67s2.8,1.2,2.8,2.8C19.2,71.3,18,72.5,16.5,72.5z M16.5,68.5
	c-0.7,0-1.2,0.6-1.2,1.2s0.6,1.2,1.2,1.2s1.2-0.6,1.2-1.2C17.8,69.1,17.2,68.5,16.5,68.5z"/>
<circle class="st1" cx="75.5" cy="63.8" r="2"/>
<path class="st2" d="M75.5,66.5c-1.5,0-2.8-1.2-2.8-2.8S74,61,75.5,61s2.8,1.2,2.8,2.8C78.2,65.3,77,66.5,75.5,66.5z M75.5,62.5
	c-0.7,0-1.2,0.6-1.2,1.2s0.6,1.2,1.2,1.2s1.2-0.6,1.2-1.2C76.7,63.1,76.2,62.5,75.5,62.5z"/>
</svg>
