<?xml version="1.0" encoding="utf-8"?>
<!-- Generator: Adobe Illustrator 24.1.3, SVG Export Plug-In . SVG Version: 6.00 Build 0)  -->
<svg version="1.1" id="layer_1" xmlns="http://www.w3.org/2000/svg" xmlns:xlink="http://www.w3.org/1999/xlink" x="0px" y="0px"
	 viewBox="0 0 90.8 93.5" style="enable-background:new 0 0 90.8 93.5;" xml:space="preserve">
<style type="text/css">
	.st0{fill:#ED2425;enable-background:new    ;}
	.st1{fill:#FFFFFF;}
	.st2{opacity:0.6;fill:#1a1a1a;enable-background:new    ;}
	.st3{fill:#1a1a1a;}
	.st4{fill:#3333331;}
</style>
<circle class="st0" cx="38.3" cy="23.1" r="12"/>
<circle class="st0" cx="31.6" cy="68.3" r="20"/>
<path class="st1" d="M20.6,21.8h58c1.7,0,3,1.3,3,3v41l0,0h-64l0,0v-41C17.6,23.2,18.9,21.8,20.6,21.8z"/>
<path class="st2" d="M81.6,65.8h-58c0-15.5,12.5-28,28-28h30V65.8z"/>
<path class="st3" d="M81.6,66.6h-64c-0.4,0-0.8-0.3-0.8-0.8v-41c0-2.1,1.7-3.8,3.8-3.8h58c2.1,0,3.8,1.7,3.8,3.7c0,0,0,0,0,0v41
	C82.4,66.3,82,66.6,81.6,66.6C81.6,66.6,81.6,66.6,81.6,66.6z M18.4,65.1h62.5V24.8c0-1.2-1-2.2-2.3-2.2c0,0,0,0,0,0h-58
	c-1.2,0-2.2,1-2.2,2.2V65.1z"/>
<path class="st1" d="M17.6,65.8h64l0,0v4c0,1.7-1.3,3-3,3h-58c-1.7,0-3-1.3-3-3V65.8L17.6,65.8z"/>
<path class="st2" d="M35.1,69.4h46.5l0,0v0.5c0,1.7-1.3,3-3,3h-47l0,0l0,0C31.6,70.9,33.2,69.4,35.1,69.4z"/>
<path class="st3" d="M78.6,73.6h-58c-2.1,0-3.8-1.7-3.8-3.8v-4c0-0.4,0.3-0.7,0.7-0.8c0,0,0,0,0,0h64c0.4,0,0.8,0.3,0.8,0.8v4
	C82.3,71.9,80.7,73.6,78.6,73.6z M18.4,66.6v3.2c0,1.2,1,2.2,2.2,2.2h58c1.2,0,2.2-1,2.2-2.2v-3.2H18.4z"/>
<rect x="37.6" y="72.8" class="st1" width="24" height="7"/>
<path class="st2" d="M61.6,79.8h-19v-1.5c0-1.1,0.9-2,2-2h17V79.8z"/>
<path class="st3" d="M61.6,80.6h-24c-0.4,0-0.8-0.3-0.8-0.8v-7c0-0.4,0.3-0.7,0.7-0.8c0,0,0,0,0,0h24c0.4,0,0.8,0.3,0.8,0.8v7
	C62.3,80.3,62,80.6,61.6,80.6z M38.4,79.1h22.5v-5.5H38.4V79.1z"/>
<path class="st3" d="M69.6,80.6h-40c-0.4,0-0.8-0.3-0.8-0.8s0.3-0.8,0.8-0.8h40c0.4,0,0.8,0.3,0.8,0.8S70,80.6,69.6,80.6z"/>
<circle class="st3" cx="49.6" cy="69.3" r="1"/>
<path class="st1" d="M65.6,59.8h-32c-3.3,0-6,2.7-6,6h44C71.6,62.5,68.9,59.8,65.6,59.8z"/>
<path class="st1" d="M63.6,33.8h-28c0,3.3,2.7,6,6,6c0,0,0,0,0,0h16C60.9,39.8,63.6,37.2,63.6,33.8z"/>
<polygon class="st1" points="57.6,39.8 41.6,39.8 33.6,59.8 65.6,59.8 "/>
<path class="st2" d="M65.6,59.8h-12c3.3,0,6,2.7,6,6h12C71.6,62.5,68.9,59.8,65.6,59.8z"/>
<path class="st2" d="M63.6,33.8h-9c0,3.3-2.7,6-6,6c0,0,0,0,0,0h9C60.9,39.8,63.6,37.2,63.6,33.8z"/>
<polygon class="st2" points="57.6,39.8 50.6,39.8 53.6,59.8 65.6,59.8 "/>
<path class="st3" d="M71.6,66.6h-44c-0.4,0-0.8-0.3-0.8-0.8c0-3.7,3-6.7,6.8-6.7l0,0h32c3.7,0,6.8,3,6.8,6.7c0,0,0,0,0,0
	C72.4,66.3,72,66.6,71.6,66.6C71.6,66.6,71.6,66.6,71.6,66.6z M28.4,65.1h42.4c-0.4-2.6-2.6-4.5-5.2-4.5h-32
	C30.9,60.6,28.7,62.5,28.4,65.1z"/>
<path class="st3" d="M57.6,40.6h-16c-3.7,0-6.8-3-6.8-6.8l0,0c0-0.4,0.3-0.7,0.7-0.8c0,0,0,0,0,0h28c0.4,0,0.8,0.3,0.8,0.8
	C64.3,37.6,61.3,40.6,57.6,40.6z M36.4,34.6c0.4,2.6,2.6,4.5,5.2,4.5h16c2.6,0,4.8-1.9,5.2-4.5H36.4z"/>
<path class="st3" d="M65.6,60.6h-32c-0.4,0-0.7-0.3-0.7-0.8c0-0.1,0-0.2,0-0.2l8-20c0.1-0.3,0.4-0.5,0.7-0.5h16
	c0.3,0,0.6,0.2,0.7,0.5l8,20c0.1,0.2,0.1,0.5-0.1,0.7C66.1,60.5,65.8,60.6,65.6,60.6z M34.7,59.1h29.8l-7.4-18.5h-15L34.7,59.1z"/>
<circle class="st1" cx="49.6" cy="24.8" r="9"/>
<path class="st2" d="M53.2,19.4c0-1-0.2-2.1-0.5-3.1c-4.7-1.7-9.8,0.8-11.5,5.5c-0.3,1-0.5,2-0.5,3c0,1,0.2,2,0.5,3
	c1,0.4,2,0.5,3,0.5C49.1,28.4,53.2,24.4,53.2,19.4z"/>
<path class="st3" d="M49.6,34.6c-5.4,0-9.7-4.4-9.7-9.8s4.4-9.7,9.8-9.7c5.4,0,9.7,4.4,9.7,9.7C59.4,30.2,55,34.6,49.6,34.6
	C49.6,34.6,49.6,34.6,49.6,34.6z M49.6,16.6c-4.6,0-8.2,3.7-8.2,8.2s3.7,8.3,8.2,8.3s8.2-3.7,8.2-8.3C57.8,20.3,54.1,16.6,49.6,16.6
	z"/>
<path class="st3" d="M72.1,18.6h-9.8c-0.4,0-0.8-0.3-0.8-0.8s0.3-0.8,0.8-0.8h9.8c0.4,0,0.8,0.3,0.8,0.8S72.6,18.6,72.1,18.6
	L72.1,18.6z"/>
<path class="st3" d="M78.4,18.6h-2.2c-0.4,0-0.8-0.3-0.8-0.8s0.3-0.8,0.8-0.8h2.2c0.4,0,0.8,0.3,0.8,0.8S78.8,18.6,78.4,18.6z"/>
<path class="st4" d="M78.6,57.9h-4c-0.4,0-0.8-0.3-0.8-0.8s0.3-0.8,0.8-0.8h4c0.4,0,0.8,0.3,0.8,0.8S79,57.9,78.6,57.9z"/>
<path class="st3" d="M76.6,59.9c-0.4,0-0.8-0.3-0.8-0.8v-4c0-0.4,0.3-0.8,0.8-0.8s0.8,0.3,0.8,0.8v4C77.3,59.6,77,59.9,76.6,59.9z"
	/>
<circle class="st3" cx="76.6" cy="51.2" r="0.8"/>
<circle class="st3" cx="76.6" cy="47.2" r="0.8"/>
<circle class="st3" cx="76.6" cy="42.2" r="0.8"/>
<circle class="st3" cx="76.6" cy="35.2" r="0.8"/>
<path class="st4" d="M-441.8-100.1h-4c-0.4,0-0.8-0.3-0.8-0.8c0-0.4,0.3-0.7,0.8-0.8h4c0.4,0,0.8,0.3,0.8,0.8
	C-441.1-100.5-441.4-100.1-441.8-100.1C-441.8-100.1-441.8-100.1-441.8-100.1z"/>
<path class="st4" d="M-443.8-98.1c-0.4,0-0.8-0.3-0.8-0.8v-4c0-0.4,0.3-0.7,0.8-0.8c0.4,0,0.8,0.3,0.8,0.8v4
	C-443.1-98.5-443.4-98.1-443.8-98.1C-443.8-98.1-443.8-98.1-443.8-98.1z"/>
<circle class="st4" cx="-443.8" cy="-94.9" r="0.8"/>
<circle class="st4" cx="-443.8" cy="-90.9" r="0.8"/>
<circle class="st4" cx="-443.8" cy="-85.9" r="0.8"/>
<circle class="st4" cx="-443.8" cy="-78.9" r="0.8"/>
</svg>
