<?xml version="1.0" encoding="utf-8"?>
<!-- Generator: Adobe Illustrator 24.1.3, SVG Export Plug-In . SVG Version: 6.00 Build 0)  -->
<svg version="1.1" id="layer_1" xmlns="http://www.w3.org/2000/svg" xmlns:xlink="http://www.w3.org/1999/xlink" x="0px" y="0px"
	 viewBox="0 0 72.5 80.3" style="enable-background:new 0 0 72.5 80.3;" xml:space="preserve">
<style type="text/css">
	.st0{fill:#ED2425;enable-background:new    ;}
	.st1{opacity:0.8;fill:#1a1a1a;}
	.st2{fill:#FFFFFF;}
	.st3{fill:#1a1a1a;}
	.st4{opacity:0.7;fill:#1a1a1a;}
	.st5{opacity:0.4;fill:#1a1a1a;enable-background:new    ;}
</style>
<circle class="st0" cx="26.9" cy="14" r="14"/>
<circle class="st0" cx="12" cy="50.2" r="12"/>
<circle class="st0" cx="52" cy="59.8" r="20"/>
<rect x="5" y="64.8" class="st1" width="56" height="7"/>
<path class="st2" d="M5,64.8h52l0,0v3c0,0.6-0.4,1-1,1H5l0,0C5,68.8,5,64.8,5,64.8z"/>
<path class="st3" d="M61,72.5H5c-0.4,0-0.8-0.3-0.8-0.8v-7C4.2,64.3,4.6,64,5,64h56c0.4,0,0.8,0.3,0.8,0.8v7
	C61.7,72.2,61.4,72.5,61,72.5z M5.7,71h54.5v-5.5H5.7V71z"/>
<polygon class="st1" points="65,64.8 1,64.8 9,55.8 57,55.8 "/>
<path class="st2" d="M56.9,61.8H3.7l5.3-6l43.7,0l4.6,5.2c0.2,0.2,0.2,0.5,0,0.7C57.1,61.7,57,61.8,56.9,61.8z"/>
<path class="st3" d="M65,65.5H1c-0.4,0-0.7-0.3-0.7-0.8c0-0.2,0.1-0.4,0.2-0.5l8-9C8.6,55.1,8.8,55,9,55h48c0.2,0,0.4,0.1,0.6,0.3
	l8,9c0.3,0.3,0.2,0.8-0.1,1.1C65.4,65.4,65.2,65.5,65,65.5z M2.7,64h60.7l-6.7-7.5H9.3L2.7,64z"/>
<path class="st2" d="M31.7,48.2l-3.6-0.9h-8.3l-3.6,0.9c-1.4,0.4-2.3,1.6-2.3,3v4.6h20v-4.6C34,49.8,33.1,48.5,31.7,48.2z"/>
<path class="st4" d="M32.4,48.5c-1.7,2.5-4.3,4.2-7.2,5c-4.3,1.2-8.7,0.3-11.2-2.1v4.4h20v-4.6C34,50.1,33.4,49,32.4,48.5z"/>
<path class="st3" d="M34,56.5H14c-0.4,0-0.8-0.3-0.8-0.8v-4.6c0-1.7,1.2-3.3,2.9-3.7l3.6-0.9c0.1,0,0.1,0,0.2,0h8.3
	c0.1,0,0.1,0,0.2,0l3.6,0.9l0,0c1.7,0.4,2.9,2,2.9,3.7v4.6C34.8,56.2,34.4,56.5,34,56.5z M14.8,55h18.5v-3.8c0-1.1-0.7-2-1.7-2.3
	L28,48H20l-3.5,0.9c-1,0.3-1.7,1.2-1.7,2.3L14.8,55z"/>
<path class="st2" d="M24,52.1c0,0,4.1-3.2,4.1-4.9c-0.9-0.4-1.5-1.3-1.7-2.2c0-0.1,0-1.1-0.1-1.2l-4.7,0c0,0.2,0,1.1-0.1,1.3
	c-0.2,0.9-0.8,1.8-1.7,2.2C19.9,48.9,24,52.1,24,52.1z"/>
<path class="st5" d="M27,49.4c0.6-0.6,1-1.3,1.2-2.1c-0.9-0.4-1.5-1.3-1.7-2.2c0-0.1,0-1.1-0.1-1.2l-2.3,0c0,0.4,0.1,1.6,0.1,1.9
	C24.5,47.3,25.5,48.6,27,49.4z"/>
<path class="st3" d="M24,52.9c-0.2,0-0.3-0.1-0.5-0.2c-1-0.8-4.4-3.6-4.4-5.5c0-0.3,0.2-0.6,0.4-0.7c0.7-0.3,1.1-0.9,1.3-1.6
	c0-0.1,0-0.4,0-0.7c0-0.2,0-0.5,0-0.5c0-0.4,0.4-0.7,0.7-0.7l4.7,0h0c0.4,0,0.7,0.3,0.7,0.7c0,0.1,0,0.3,0,0.5c0,0.3,0,0.5,0,0.7
	c0.2,0.7,0.6,1.4,1.3,1.7c0.3,0.1,0.4,0.4,0.4,0.7c0,1.9-3.4,4.7-4.4,5.5C24.3,52.8,24.2,52.9,24,52.9z M20.7,47.6
	c0.9,1.4,2,2.6,3.3,3.6c1.3-1,2.4-2.2,3.3-3.6c-0.8-0.6-1.4-1.5-1.6-2.5c0-0.1,0-0.3,0-0.6l-3.3,0c0,0.3,0,0.6-0.1,0.7
	C22.1,46.2,21.5,47.1,20.7,47.6z"/>
<path class="st2" d="M28.8,39.8c0.1-2.7-2-4.9-4.6-5c-2.7-0.1-4.9,2-5,4.6c0,0.1,0,0.2,0,0.4c0,3.2,2.2,5.8,4.8,5.8
	S28.8,42.9,28.8,39.8z"/>
<path class="st5" d="M25.2,34.9c0.4,0.8,0.6,1.7,0.6,2.6c0,3.2-2.2,5.8-4.8,5.8c-0.3,0-0.5,0-0.8-0.1c0.8,1.4,2.3,2.3,3.9,2.4
	c2.7,0,4.8-2.6,4.8-5.8C29,37.4,27.4,35.4,25.2,34.9z"/>
<path class="st3" d="M24,46.3c-3.1,0-5.6-2.9-5.6-6.5c-0.1-3.1,2.3-5.6,5.4-5.7c3.1-0.1,5.6,2.3,5.7,5.4c0,0.1,0,0.3,0,0.4
	C29.6,43.3,27.1,46.3,24,46.3z M24,35.5c-2.1-0.1-4,1.6-4.1,3.7c0,0.2,0,0.4,0,0.5c0,2.8,1.8,5,4.1,5c2.2,0,4.1-2.3,4.1-5
	c0.2-2.1-1.4-4-3.5-4.2C24.4,35.5,24.2,35.5,24,35.5z"/>
<path class="st2" d="M49.7,46.2l-3.6-0.9h-8.3l-3.6,0.9c-1.4,0.4-2.3,1.6-2.3,3v6.6h20v-6.6C52,47.8,51.1,46.5,49.7,46.2z"/>
<path class="st4" d="M52,49.2c0-1.4-0.9-2.6-2.3-3l-0.4-0.1c-0.2,2.9-2,7.8-5,9.7H52V49.2z"/>
<path class="st3" d="M52,56.5H32c-0.4,0-0.8-0.3-0.8-0.8v-6.6c0-1.7,1.2-3.3,2.9-3.7l3.6-0.9c0.1,0,0.1,0,0.2,0h8.3
	c0.1,0,0.1,0,0.2,0l3.6,0.9l0,0c1.7,0.4,2.9,2,2.9,3.7v6.6C52.7,56.2,52.4,56.5,52,56.5C52,56.5,52,56.5,52,56.5z M32.7,55h18.5
	v-5.8c0-1.1-0.7-2-1.7-2.2L46,46H38l-3.5,0.9c-1,0.3-1.7,1.2-1.7,2.3L32.7,55z"/>
<path class="st2" d="M42,48.1c0,0,4.1-1.2,4.1-2.9c-0.9-0.4-1.5-1.3-1.7-2.2c0-0.1,0-1.1-0.1-1.2l-4.7,0c0,0.2,0,1.1-0.1,1.3
	c-0.2,0.9-0.8,1.8-1.7,2.2C37.9,46.9,42,48.1,42,48.1z"/>
<path class="st5" d="M46.1,45.3c-0.9-0.4-1.5-1.3-1.7-2.2c0-0.1,0-1.1-0.1-1.2l-2.3,0.4c0,0.2,0.1,1.5,0.1,1.7
	c0.3,1.3,1.1,2.5,2.3,3.1C45.4,46.6,46.1,46,46.1,45.3z"/>
<path class="st3" d="M42,48.9c-0.1,0-0.1,0-0.2,0c-0.8-0.2-4.6-1.5-4.7-3.6c0-0.3,0.2-0.6,0.4-0.7c0.7-0.3,1.1-0.9,1.3-1.6
	c0-0.1,0-0.4,0-0.7c0-0.2,0-0.5,0-0.5c0-0.4,0.4-0.7,0.7-0.7l4.7,0h0c0.4,0,0.7,0.3,0.7,0.7c0,0.1,0,0.3,0,0.5c0,0.3,0,0.5,0,0.7
	c0.2,0.7,0.6,1.4,1.3,1.7c0.3,0.1,0.4,0.4,0.4,0.7c0,2.1-3.9,3.4-4.7,3.6C42.1,48.9,42.1,48.9,42,48.9z M38.8,45.6
	c0.9,0.8,2,1.4,3.2,1.8c1.2-0.3,2.3-0.9,3.2-1.8c-0.8-0.6-1.4-1.5-1.6-2.4c0-0.1,0-0.3,0-0.6l-3.3,0c0,0.3,0,0.6-0.1,0.7
	C40.1,44.2,39.6,45,38.8,45.6L38.8,45.6z"/>
<path class="st2" d="M46.8,37.8c0.1-2.7-2-4.9-4.6-5c-2.7-0.1-4.9,2-5,4.6c0,0.1,0,0.3,0,0.4c0,3.2,2.2,5.8,4.8,5.8
	S46.8,40.9,46.8,37.8z"/>
<path class="st5" d="M43.1,32.9c0.4,0.8,0.6,1.7,0.6,2.6c0,3.2-2.2,5.8-4.8,5.8c-0.3,0-0.5,0-0.8-0.1c0.8,1.4,2.3,2.3,3.9,2.4
	c2.7,0,4.8-2.6,4.8-5.8C47,35.4,45.4,33.4,43.1,32.9z"/>
<path class="st3" d="M42,44.3c-3.1,0-5.6-2.9-5.6-6.5c-0.1-3.1,2.3-5.6,5.4-5.7s5.6,2.3,5.7,5.4c0,0.1,0,0.3,0,0.4
	C47.6,41.3,45.1,44.3,42,44.3z M42,33.5c-2.1-0.1-4,1.6-4.1,3.7c0,0.2,0,0.4,0,0.5c0,2.8,1.8,5,4.1,5s4.1-2.3,4.1-5
	c0.2-2.1-1.4-4-3.5-4.2C42.4,33.5,42.2,33.5,42,33.5z"/>
<path class="st3" d="M42,56.5c-0.4,0-0.8-0.3-0.8-0.8v-7.6c0-0.4,0.3-0.8,0.8-0.8s0.8,0.3,0.8,0.8v7.6C42.7,56.2,42.4,56.5,42,56.5z
	"/>
<path class="st5" d="M7,13.7v14c0,1.1,0.9,2,2,2h4l-1,6l9-6h12c1.1,0,2-0.9,2-2v-14c0-1.1-0.9-2-2-2H9C7.9,11.7,7,12.6,7,13.7z"/>
<path class="st2" d="M7,13.7v14c0,1.1,0.9,2,2,2h4l-0.3,1.9l7.3-4.9h6c1.1,0,2-0.9,2-2v-13H9C7.9,11.7,7,12.6,7,13.7z"/>
<path class="st3" d="M12,36.5c-0.4,0-0.8-0.3-0.8-0.7c0,0,0-0.1,0-0.1l0.9-5.1H9c-1.5,0-2.7-1.2-2.8-2.8v-14C6.2,12.2,7.5,11,9,11
	h24c1.5,0,2.7,1.2,2.8,2.8v14c0,1.5-1.2,2.7-2.8,2.8H21.2l-8.8,5.9C12.3,36.5,12.1,36.5,12,36.5z M9,12.5c-0.7,0-1.2,0.6-1.2,1.2v14
	C7.7,28.4,8.3,29,9,29h4c0.4,0,0.8,0.3,0.8,0.7c0,0,0,0.1,0,0.1L13,34.2l7.6-5C20.7,29,20.9,29,21,29h12c0.7,0,1.2-0.6,1.2-1.2v-14
	c0-0.7-0.6-1.2-1.2-1.2L9,12.5z"/>
<path class="st3" d="M13.4,19.5H12c-0.4,0-0.8-0.3-0.8-0.8S11.6,18,12,18h1.4c0.4,0,0.8,0.3,0.8,0.8S13.8,19.5,13.4,19.5z"/>
<path class="st3" d="M18,19.5h-1.4c-0.4,0-0.8-0.3-0.8-0.8s0.3-0.8,0.8-0.8H18c0.4,0,0.8,0.3,0.8,0.8S18.4,19.5,18,19.5z"/>
<path class="st3" d="M15,22.5c-0.4,0-0.8-0.3-0.8-0.8v-1.4c0-0.4,0.3-0.8,0.8-0.8s0.8,0.3,0.8,0.8v1.4C15.7,22.2,15.4,22.5,15,22.5z
	"/>
<path class="st3" d="M15,17.9c-0.4,0-0.8-0.3-0.8-0.8v-1.4c0-0.4,0.3-0.8,0.8-0.8s0.8,0.3,0.8,0.8v1.4C15.7,17.5,15.4,17.9,15,17.9z
	"/>
<path class="st3" d="M23.4,24.5H22c-0.4,0-0.8-0.3-0.8-0.8S21.6,23,22,23h1.4c0.4,0,0.8,0.3,0.8,0.8S23.8,24.5,23.4,24.5z"/>
<path class="st3" d="M28,24.5h-1.4c-0.4,0-0.8-0.3-0.8-0.8s0.3-0.8,0.8-0.8H28c0.4,0,0.8,0.3,0.8,0.8S28.4,24.5,28,24.5z"/>
<path class="st3" d="M25,27.5c-0.4,0-0.8-0.3-0.8-0.8v-1.4c0-0.4,0.3-0.8,0.8-0.8s0.8,0.3,0.8,0.8v1.4C25.7,27.2,25.4,27.5,25,27.5z
	"/>
<path class="st3" d="M25,22.9c-0.4,0-0.8-0.3-0.8-0.8v-1.4c0-0.4,0.3-0.8,0.8-0.8s0.8,0.3,0.8,0.8v1.4C25.7,22.5,25.4,22.9,25,22.9
	L25,22.9z"/>
<path class="st5" d="M31,9.7v14c0,1.1,0.9,2,2,2h12l9,6l-1-6h4c1.1,0,2-0.9,2-2v-14c0-1.1-0.9-2-2-2H33C31.9,7.7,31,8.6,31,9.7z"/>
<path class="st2" d="M31,9.7v13h23c1.1,0,2-0.9,2-2v-13H33C31.9,7.7,31,8.6,31,9.7z"/>
<path class="st3" d="M54,32.5c-0.1,0-0.3,0-0.4-0.1l-8.8-5.9H33c-1.5,0-2.7-1.2-2.8-2.8v-14C30.3,8.2,31.5,7,33,7h24
	c1.5,0,2.7,1.2,2.8,2.8v14c0,1.5-1.2,2.7-2.8,2.8h-3.1l0.9,5.1c0.1,0.4-0.2,0.8-0.6,0.9C54.1,32.5,54,32.5,54,32.5L54,32.5z M33,8.5
	c-0.7,0-1.2,0.6-1.2,1.2v14c0,0.7,0.6,1.2,1.2,1.2h12c0.1,0,0.3,0,0.4,0.1l7.6,5l-0.7-4.3c-0.1-0.4,0.2-0.8,0.6-0.9c0,0,0.1,0,0.1,0
	h4c0.7,0,1.2-0.6,1.2-1.2v-14c0-0.7-0.6-1.2-1.2-1.2H33z"/>
<path class="st3" d="M49.4,15.5H48c-0.4,0-0.8-0.3-0.8-0.8S47.6,14,48,14h1.4c0.4,0,0.8,0.3,0.8,0.8S49.8,15.5,49.4,15.5z"/>
<path class="st3" d="M54,15.5h-1.4c-0.4,0-0.8-0.3-0.8-0.8s0.3-0.8,0.8-0.8H54c0.4,0,0.8,0.3,0.8,0.8S54.4,15.5,54,15.5z"/>
<path class="st3" d="M51,18.5c-0.4,0-0.8-0.3-0.8-0.8v-1.4c0-0.4,0.3-0.8,0.8-0.8s0.8,0.3,0.8,0.8v1.4C51.7,18.2,51.4,18.5,51,18.5z
	"/>
<path class="st3" d="M51,13.9c-0.4,0-0.8-0.3-0.8-0.8v-1.4c0-0.4,0.3-0.8,0.8-0.8s0.8,0.3,0.8,0.8v1.4C51.7,13.5,51.4,13.9,51,13.9z
	"/>
<path class="st3" d="M38.4,18.5H37c-0.4,0-0.8-0.3-0.8-0.8S36.6,17,37,17h1.4c0.4,0,0.8,0.3,0.8,0.8S38.8,18.5,38.4,18.5z"/>
<path class="st3" d="M43,18.5h-1.4c-0.4,0-0.8-0.3-0.8-0.8s0.3-0.8,0.8-0.8H43c0.4,0,0.8,0.3,0.8,0.8S43.4,18.5,43,18.5z"/>
<path class="st3" d="M40,21.5c-0.4,0-0.8-0.3-0.8-0.8v-1.4c0-0.4,0.3-0.8,0.8-0.8s0.8,0.3,0.8,0.8v1.4C40.7,21.2,40.4,21.5,40,21.5z
	"/>
<path class="st3" d="M40,16.9c-0.4,0-0.8-0.3-0.8-0.8v-1.4c0-0.4,0.3-0.8,0.8-0.8s0.8,0.3,0.8,0.8v1.4C40.7,16.5,40.4,16.9,40,16.9z
	"/>
</svg>
