<?xml version="1.0" encoding="UTF-8" ?>
<!DOCTYPE svg PUBLIC "-//W3C//DTD SVG 1.1//EN" "http://www.w3.org/Graphics/SVG/1.1/DTD/svg11.dtd">
<svg width="495pt" height="495pt" viewBox="0 0 495 495" version="1.1" xmlns="http://www.w3.org/2000/svg">
<g id="#ff1616ff">
<path fill="#ff1616" opacity="1.00" d=" M 222.41 8.57 C 238.28 7.70 254.20 7.86 270.08 8.41 C 276.28 8.13 280.88 13.09 284.48 17.50 C 288.18 22.18 287.15 28.46 287.28 34.00 C 286.79 68.66 287.07 103.33 287.00 138.00 C 287.11 172.00 286.73 206.00 287.30 240.00 C 287.36 245.82 287.56 252.14 284.10 257.16 C 281.18 261.87 276.01 264.98 270.51 265.54 C 254.57 267.33 238.46 266.94 222.50 265.63 C 218.37 265.34 214.19 263.78 211.48 260.55 C 207.19 255.83 206.04 249.21 206.21 243.04 C 206.75 187.03 206.39 131.01 206.50 75.00 C 206.09 58.98 206.30 42.94 206.24 26.92 C 205.84 17.92 213.04 8.63 222.41 8.57 Z" />
<path fill="#ff1616" opacity="1.00" d=" M 144.75 79.86 C 152.29 76.10 159.96 72.47 168.04 69.99 C 170.13 96.62 169.57 123.37 168.95 150.04 C 169.14 152.47 167.30 154.18 165.71 155.72 C 157.13 163.81 147.51 170.83 139.80 179.82 C 121.76 201.27 109.55 228.00 107.01 256.04 C 106.37 264.74 105.91 273.51 106.71 282.22 C 109.46 317.33 126.87 350.62 152.77 374.25 C 173.46 393.26 200.12 405.74 228.02 409.22 C 256.45 412.78 285.87 407.44 311.34 394.35 C 336.16 381.84 356.64 361.27 369.89 336.92 C 386.89 305.10 390.63 266.69 380.98 232.01 C 375.23 210.74 363.95 191.13 348.92 175.07 C 343.51 169.47 337.55 164.45 331.75 159.27 C 329.87 157.50 327.48 155.63 327.56 152.77 C 326.32 126.59 327.48 100.39 327.17 74.20 C 389.72 96.06 438.61 151.83 453.79 216.13 C 456.91 228.84 458.10 241.90 458.87 254.93 C 460.28 279.80 460.08 305.19 453.27 329.34 C 448.98 343.83 443.62 358.06 436.36 371.34 C 419.00 403.46 392.82 430.41 362.30 450.26 C 348.92 459.14 334.37 466.01 319.84 472.76 C 301.94 480.54 282.54 484.55 263.10 485.72 C 242.14 486.82 221.06 485.24 200.44 481.37 C 141.71 469.12 89.19 430.69 59.18 378.82 C 51.64 365.95 45.97 352.11 40.79 338.16 C 27.64 300.38 27.60 258.97 36.21 220.18 C 40.24 200.91 47.91 182.56 57.40 165.37 C 77.57 129.35 107.96 98.80 144.75 79.86 Z" />
</g>
</svg>
